<svg width="138" height="119" viewBox="0 0 138 119" fill="none" xmlns="http://www.w3.org/2000/svg">
<path opacity="0.1" d="M16.6034 37.1759C21.7143 29.5989 27.9754 22.8003 35.3607 17.1521C55.4064 1.83371 82.7423 -2.62083 102.814 15.1973C114.151 25.2654 124.33 38.655 127.59 53.7399C130.799 68.5912 124.693 90.5612 107.354 93.3291C95.9563 95.1541 84.1692 91.1407 72.9789 94.8427C60.2492 99.0551 49.8891 108.371 36.9432 112.306C27.2749 115.247 15.1333 114.962 7.47993 107.558C0.821067 101.114 -0.796085 90.9072 0.328138 81.704C2.27391 65.8493 7.71342 50.3406 16.6034 37.1759Z" fill="#06589C"/>
<path opacity="0.1" d="M18.8605 19.3924C24.2145 19.3924 28.5547 15.0512 28.5547 9.69619C28.5547 4.34113 24.2145 0 18.8605 0C13.5065 0 9.1662 4.34113 9.1662 9.69619C9.1662 15.0512 13.5065 19.3924 18.8605 19.3924Z" fill="#06589C"/>
<path opacity="0.1" d="M131.612 32.2889C134.797 32.2889 137.38 29.7059 137.38 26.5196C137.38 23.3334 134.797 20.7504 131.612 20.7504C128.426 20.7504 125.843 23.3334 125.843 26.5196C125.843 29.7059 128.426 32.2889 131.612 32.2889Z" fill="#06589C"/>
<path opacity="0.1" d="M68.2658 114.028C68.2658 116.259 66.4584 118.067 64.2273 118.067C61.9961 118.067 60.1887 116.259 60.1887 114.028C60.1887 111.796 61.9961 109.988 64.2273 109.988C66.4584 109.988 68.2658 111.796 68.2658 114.028Z" fill="#06589C"/>
<g clip-path="url(#clip0)">
<path d="M78.0638 43.7374C78.0638 49.1157 73.7402 53.4747 68.4091 53.4747C63.078 53.4747 58.7545 49.1157 58.7545 43.7374C58.7545 38.3605 63.0765 34 68.4091 34C70.9689 34 73.4251 35.0267 75.2362 36.8518C77.0458 38.6784 78.0638 41.1556 78.0638 43.7374Z" fill="#06589C"/>
<path d="M94.0438 47.3189C94.0438 50.7184 91.3109 53.4747 87.9403 53.4747C84.5697 53.4747 81.8368 50.7184 81.8368 47.3189C81.8368 43.9194 84.5697 41.1631 87.9403 41.1631C91.3109 41.1631 94.0438 43.9194 94.0438 47.3189Z" fill="#06589C"/>
<path d="M54.9813 47.3189C54.9813 50.7184 52.2484 53.4747 48.8778 53.4747C45.5072 53.4747 42.7743 50.7184 42.7743 47.3189C42.7743 43.9194 45.5072 41.1631 48.8778 41.1631C52.2484 41.1631 54.9813 43.9194 54.9813 47.3189Z" fill="#06589C"/>
<path d="M54.8911 59.0023C52.4896 57.0175 50.3131 57.2802 47.5358 57.2802C43.3795 57.2802 40 60.6692 40 64.8343V77.0578C40 78.8665 41.4634 80.3364 43.2641 80.3364C51.0352 80.3364 50.0985 80.4782 50.0985 79.9977C50.0985 71.3378 49.0806 64.985 54.8911 59.0023Z" fill="#06589C"/>
<path d="M71.0517 57.3249C66.1999 56.9175 61.9815 57.3294 58.3445 60.3588C52.2558 65.2759 53.4277 71.8988 53.4277 79.9991C53.4277 82.1421 55.1559 83.9194 57.3147 83.9194C80.7389 83.9194 81.671 84.682 83.0604 81.5795C83.5162 80.5304 83.3904 80.8632 83.3904 70.8274C83.3904 62.8524 76.5471 57.3249 71.0517 57.3249Z" fill="#06589C"/>
<path d="M89.2824 57.2801C86.4888 57.2801 84.3256 57.0205 81.9271 59.0022C87.6932 64.9402 86.7196 70.8587 86.7196 79.9976C86.7196 80.4796 85.9428 80.3364 93.4387 80.3364C95.303 80.3364 96.8182 78.8127 96.8182 76.9414V64.8342C96.8182 60.6692 93.4387 57.2801 89.2824 57.2801Z" fill="#06589C"/>
</g>
<defs>
<clipPath id="clip0">
<rect width="56.8182" height="50" fill="white" transform="translate(40 34)"/>
</clipPath>
</defs>
</svg>
