<svg width="480" height="347" viewBox="0 0 480 347" fill="none" xmlns="http://www.w3.org/2000/svg">
<path d="M347.801 204.9C336.118 245.556 303.973 277.557 263.225 289.056C260.976 272.465 246.726 259.642 229.53 259.642C212.395 259.642 198.186 272.383 195.856 288.881C155.2 277.198 123.199 245.053 111.7 204.305C128.291 202.057 141.114 187.807 141.114 170.61C141.114 153.475 128.373 139.266 111.875 136.936C123.558 96.28 155.703 64.2791 196.451 52.7805C198.699 69.3713 212.949 82.1943 230.146 82.1943C247.281 82.1943 261.49 69.4534 263.82 52.955C304.476 64.6384 336.477 96.7831 347.975 137.531C331.385 139.779 318.562 154.029 318.562 171.226C318.562 188.361 331.303 202.58 347.801 204.9Z" stroke="#5D83A3" stroke-width="0.7425" stroke-miterlimit="10"/>
<path d="M229.905 76.2273C245.271 76.2273 257.727 63.7707 257.727 48.4048C257.727 33.0389 245.271 20.5824 229.905 20.5824C214.539 20.5824 202.082 33.0389 202.082 48.4048C202.082 63.7707 214.539 76.2273 229.905 76.2273Z" fill="#34C872"/>
<path d="M107.345 197.851C122.711 197.851 135.168 185.394 135.168 170.028C135.168 154.663 122.711 142.206 107.345 142.206C91.9796 142.206 79.523 154.663 79.523 170.028C79.523 185.394 91.9796 197.851 107.345 197.851Z" fill="#2F80ED"/>
<path d="M228.969 321.346C244.335 321.346 256.791 308.889 256.791 293.523C256.791 278.157 244.335 265.701 228.969 265.701C213.603 265.701 201.147 278.157 201.147 293.523C201.147 308.889 213.603 321.346 228.969 321.346Z" fill="#9B51E0"/>
<path d="M352.464 198.786C367.83 198.786 380.286 186.33 380.286 170.964C380.286 155.598 367.83 143.142 352.464 143.142C337.098 143.142 324.641 155.598 324.641 170.964C324.641 186.33 337.098 198.786 352.464 198.786Z" fill="#FE5A4E"/>
<path d="M254.57 227.918H203.74C203.237 227.918 202.898 227.405 203.093 226.943L209.551 211.44C209.664 211.173 209.921 211.009 210.198 211.009H249.724C250.032 211.009 250.309 211.214 250.402 211.502L255.248 227.004C255.391 227.466 255.052 227.918 254.57 227.918Z" fill="#00695C"/>
<path d="M254.57 227.22H203.74C203.237 227.22 202.898 226.706 203.093 226.244L209.551 210.742C209.664 210.475 209.921 210.311 210.198 210.311H249.724C250.032 210.311 250.309 210.516 250.402 210.803L255.248 226.306C255.391 226.758 255.052 227.22 254.57 227.22Z" fill="#757575"/>
<path d="M276.15 213.832H181.359C177.96 213.832 175.199 211.07 175.199 207.672V199.387H282.31V207.672C282.31 211.07 279.548 213.832 276.15 213.832Z" fill="#D0D6DD"/>
<path d="M282.31 203.607H175.199V141.997C175.199 136.33 179.798 131.73 185.465 131.73H272.043C277.711 131.73 282.31 136.33 282.31 141.997V203.607Z" fill="#616161"/>
<path d="M179.429 197.334V138.024C179.429 136.894 180.353 135.97 181.482 135.97H276.027C277.157 135.97 278.081 136.894 278.081 138.024V197.334C278.081 198.463 277.157 199.387 276.027 199.387H181.482C180.353 199.387 179.429 198.463 179.429 197.334Z" fill="#B2DFDB"/>
<path opacity="0.3" d="M277.372 135.96H180.127C179.922 135.96 179.747 136.042 179.614 136.176L235.793 199.377H277.372C277.762 199.377 278.081 199.058 278.081 198.668V136.658C278.081 136.278 277.762 135.96 277.372 135.96Z" fill="white"/>
<path opacity="0.3" d="M278.08 198.679V136.668C278.08 136.278 277.762 135.96 277.372 135.96H187.18C186.975 135.96 186.8 136.042 186.667 136.176L242.845 199.377H277.372C277.762 199.387 278.08 199.069 278.08 198.679Z" fill="white"/>
<path d="M265.545 189.87H191.954C189.12 189.87 186.821 187.57 186.821 184.737V119.4H270.678V184.737C270.678 187.57 268.378 189.87 265.545 189.87Z" fill="white"/>
<path d="M265.545 110.951H191.954C189.12 110.951 186.821 113.251 186.821 116.084V119.41H270.678V116.084C270.678 113.251 268.378 110.951 265.545 110.951Z" fill="#616161"/>
<path d="M266.458 116.238C267.042 116.238 267.516 115.765 267.516 115.181C267.516 114.597 267.042 114.123 266.458 114.123C265.874 114.123 265.401 114.597 265.401 115.181C265.401 115.765 265.874 116.238 266.458 116.238Z" fill="white"/>
<path d="M262.927 116.238C263.511 116.238 263.984 115.765 263.984 115.181C263.984 114.597 263.511 114.123 262.927 114.123C262.343 114.123 261.869 114.597 261.869 115.181C261.869 115.765 262.343 116.238 262.927 116.238Z" fill="white"/>
<path d="M259.405 116.238C259.989 116.238 260.463 115.765 260.463 115.181C260.463 114.597 259.989 114.123 259.405 114.123C258.821 114.123 258.348 114.597 258.348 115.181C258.348 115.765 258.821 116.238 259.405 116.238Z" fill="white"/>
<path d="M257.465 131.381H198.627C197.56 131.381 196.687 130.509 196.687 129.441C196.687 128.373 197.56 127.5 198.627 127.5H257.465C258.533 127.5 259.406 128.373 259.406 129.441C259.406 130.509 258.533 131.381 257.465 131.381Z" fill="#E1F5FE"/>
<path d="M257.465 127.511H248.831V131.381H257.465C258.533 131.381 259.405 130.509 259.405 129.441C259.405 128.373 258.533 127.511 257.465 127.511Z" fill="#4FC3F7"/>
<path d="M234.037 143.711H197.395C197.005 143.711 196.687 143.393 196.687 143.003C196.687 142.613 197.005 142.295 197.395 142.295H234.037C234.427 142.295 234.745 142.613 234.745 143.003C234.745 143.403 234.427 143.711 234.037 143.711Z" fill="#4FC3F7"/>
<path d="M218.534 150.764H197.395C197.005 150.764 196.687 150.446 196.687 150.056C196.687 149.666 197.005 149.348 197.395 149.348H218.534C218.925 149.348 219.243 149.666 219.243 150.056C219.243 150.446 218.925 150.764 218.534 150.764Z" fill="#757575"/>
<path d="M200.568 147.243H197.395C197.005 147.243 196.687 146.925 196.687 146.535C196.687 146.144 197.005 145.826 197.395 145.826H200.568C200.958 145.826 201.276 146.144 201.276 146.535C201.276 146.925 200.958 147.243 200.568 147.243Z" fill="#FDD835"/>
<path d="M233.688 147.243H203.032C202.641 147.243 202.323 146.925 202.323 146.535C202.323 146.144 202.641 145.826 203.032 145.826H233.688C234.078 145.826 234.396 146.144 234.396 146.535C234.396 146.925 234.078 147.243 233.688 147.243Z" fill="#4DB6AC"/>
<path d="M234.037 157.808H197.395C197.005 157.808 196.687 157.489 196.687 157.099C196.687 156.709 197.005 156.391 197.395 156.391H234.037C234.427 156.391 234.745 156.709 234.745 157.099C234.745 157.489 234.427 157.808 234.037 157.808Z" fill="#4FC3F7"/>
<path d="M218.534 164.861H197.395C197.005 164.861 196.687 164.542 196.687 164.152C196.687 163.762 197.005 163.444 197.395 163.444H218.534C218.925 163.444 219.243 163.762 219.243 164.152C219.243 164.542 218.925 164.861 218.534 164.861Z" fill="#757575"/>
<path d="M200.568 161.329H197.395C197.005 161.329 196.687 161.011 196.687 160.621C196.687 160.23 197.005 159.912 197.395 159.912H200.568C200.958 159.912 201.276 160.23 201.276 160.621C201.276 161.011 200.958 161.329 200.568 161.329Z" fill="#FDD835"/>
<path d="M233.688 161.329H203.032C202.641 161.329 202.323 161.011 202.323 160.621C202.323 160.23 202.641 159.912 203.032 159.912H233.688C234.078 159.912 234.396 160.23 234.396 160.621C234.396 161.011 234.078 161.329 233.688 161.329Z" fill="#4DB6AC"/>
<path d="M234.037 172.252H197.395C197.005 172.252 196.687 171.934 196.687 171.544C196.687 171.154 197.005 170.836 197.395 170.836H234.037C234.427 170.836 234.745 171.154 234.745 171.544C234.745 171.934 234.427 172.252 234.037 172.252Z" fill="#4FC3F7"/>
<path d="M218.534 179.305H197.395C197.005 179.305 196.687 178.987 196.687 178.597C196.687 178.207 197.005 177.889 197.395 177.889H218.534C218.925 177.889 219.243 178.207 219.243 178.597C219.243 178.987 218.925 179.305 218.534 179.305Z" fill="#757575"/>
<path d="M200.568 175.774H197.395C197.005 175.774 196.687 175.456 196.687 175.066C196.687 174.675 197.005 174.357 197.395 174.357H200.568C200.958 174.357 201.276 174.675 201.276 175.066C201.276 175.456 200.958 175.774 200.568 175.774Z" fill="#FDD835"/>
<path d="M233.688 175.774H203.032C202.641 175.774 202.323 175.456 202.323 175.066C202.323 174.675 202.641 174.357 203.032 174.357H233.688C234.078 174.357 234.396 174.675 234.396 175.066C234.396 175.456 234.078 175.774 233.688 175.774Z" fill="#4DB6AC"/>
<path d="M202.683 137.018H197.755C197.364 137.018 197.046 136.699 197.046 136.309C197.046 135.919 197.364 135.601 197.755 135.601H202.683C203.073 135.601 203.391 135.919 203.391 136.309C203.391 136.71 203.073 137.018 202.683 137.018Z" fill="#EEEEEE"/>
<path d="M211.492 137.018H206.564C206.174 137.018 205.855 136.699 205.855 136.309C205.855 135.919 206.174 135.601 206.564 135.601H211.492C211.882 135.601 212.2 135.919 212.2 136.309C212.2 136.71 211.882 137.018 211.492 137.018Z" fill="#EEEEEE"/>
<path d="M220.3 137.018H215.372C214.982 137.018 214.664 136.699 214.664 136.309C214.664 135.919 214.982 135.601 215.372 135.601H220.3C220.69 135.601 221.009 135.919 221.009 136.309C220.998 136.71 220.69 137.018 220.3 137.018Z" fill="#EEEEEE"/>
<path d="M229.109 137.018H224.181C223.791 137.018 223.472 136.699 223.472 136.309C223.472 135.919 223.791 135.601 224.181 135.601H229.109C229.499 135.601 229.817 135.919 229.817 136.309C229.807 136.71 229.499 137.018 229.109 137.018Z" fill="#EEEEEE"/>
<path d="M238.267 137.018H233.339C232.949 137.018 232.63 136.699 232.63 136.309C232.63 135.919 232.949 135.601 233.339 135.601H238.267C238.657 135.601 238.975 135.919 238.975 136.309C238.975 136.71 238.657 137.018 238.267 137.018Z" fill="#EEEEEE"/>
<path d="M255.32 130.211L254.683 129.574C254.775 129.431 254.827 129.266 254.827 129.092C254.827 128.856 254.734 128.64 254.57 128.466C254.231 128.127 253.667 128.127 253.328 128.466C253.164 128.63 253.071 128.856 253.071 129.092C253.071 129.328 253.164 129.544 253.328 129.718C253.502 129.893 253.728 129.975 253.954 129.975C254.118 129.975 254.293 129.924 254.437 129.831L255.073 130.468L255.32 130.211ZM253.574 129.472C253.472 129.369 253.42 129.236 253.42 129.102C253.42 128.958 253.472 128.825 253.574 128.733C253.677 128.63 253.81 128.579 253.944 128.579C254.077 128.579 254.211 128.63 254.314 128.733C254.416 128.835 254.467 128.969 254.467 129.102C254.467 129.246 254.416 129.379 254.314 129.472C254.118 129.677 253.78 129.677 253.574 129.472Z" fill="white"/>
<path d="M247.076 213.832H212.2V220.526H247.076V213.832Z" fill="#FAFAFA"/>
<path d="M247.076 213.832H212.2V217.005H247.076V213.832Z" fill="#E0E0E0"/>
<path d="M240.812 158.249L232.712 154.933C232.414 154.789 232.096 155.107 232.24 155.405L235.556 163.505C235.658 163.721 235.946 163.772 236.12 163.598L237.517 162.202L241.254 165.939C241.387 166.072 241.613 166.072 241.757 165.939L243.256 164.44C243.389 164.306 243.389 164.08 243.256 163.937L239.519 160.2L240.915 158.803C241.079 158.639 241.038 158.352 240.812 158.249Z" fill="#EEEEEE"/>
<path d="M240.073 158.988L231.973 155.672C231.675 155.528 231.357 155.846 231.501 156.144L234.817 164.244C234.92 164.46 235.207 164.511 235.382 164.337L236.778 162.941L240.515 166.678C240.648 166.811 240.874 166.811 241.018 166.678L242.517 165.179C242.65 165.045 242.65 164.819 242.517 164.676L238.78 160.939L240.176 159.542C240.33 159.388 240.289 159.101 240.073 158.988Z" fill="#616161"/>
<path d="M242.507 165.189C242.64 165.056 242.64 164.83 242.507 164.686L238.769 160.949L240.166 159.553C240.34 159.378 240.289 159.091 240.073 158.988L231.973 155.672C231.819 155.6 231.665 155.641 231.573 155.744L241.767 165.939L242.507 165.189Z" fill="#757575"/>
<path d="M283.367 174.367C289.593 174.367 294.64 169.32 294.64 163.095C294.64 156.869 289.593 151.822 283.367 151.822C277.142 151.822 272.095 156.869 272.095 163.095C272.095 169.32 277.142 174.367 283.367 174.367Z" fill="#FDD835"/>
<path d="M283.368 171.903C288.233 171.903 292.176 167.96 292.176 163.095C292.176 158.23 288.233 154.286 283.368 154.286C278.503 154.286 274.559 158.23 274.559 163.095C274.559 167.96 278.503 171.903 283.368 171.903Z" fill="#FFF176"/>
<path d="M283.368 171.195C287.841 171.195 291.468 167.568 291.468 163.095C291.468 158.621 287.841 154.994 283.368 154.994C278.894 154.994 275.267 158.621 275.267 163.095C275.267 167.568 278.894 171.195 283.368 171.195Z" fill="#FBC02D"/>
<path d="M283.368 169.788C287.065 169.788 290.061 166.792 290.061 163.095C290.061 159.398 287.065 156.401 283.368 156.401C279.671 156.401 276.674 159.398 276.674 163.095C276.674 166.792 279.671 169.788 283.368 169.788Z" fill="#FDD835"/>
<path d="M282.916 164.84V163.105C282.372 162.951 281.982 162.715 281.725 162.407C281.468 162.099 281.345 161.719 281.345 161.267C281.345 160.815 281.489 160.436 281.776 160.128C282.064 159.82 282.444 159.645 282.916 159.594V159.183H283.511V159.594C283.953 159.645 284.302 159.799 284.558 160.045C284.815 160.292 284.979 160.62 285.051 161.031L284.004 161.165C283.942 160.836 283.778 160.62 283.511 160.508V162.119C284.168 162.294 284.62 162.53 284.866 162.817C285.103 163.105 285.226 163.464 285.226 163.916C285.226 164.419 285.072 164.83 284.774 165.179C284.476 165.518 284.055 165.733 283.522 165.805V166.575H282.926V165.826C282.454 165.764 282.064 165.589 281.766 165.292C281.468 164.994 281.283 164.573 281.201 164.029L282.279 163.916C282.32 164.132 282.402 164.327 282.526 164.481C282.639 164.655 282.772 164.768 282.916 164.84ZM282.916 160.508C282.752 160.559 282.628 160.651 282.526 160.785C282.433 160.918 282.382 161.062 282.382 161.226C282.382 161.37 282.423 161.503 282.515 161.637C282.608 161.76 282.741 161.863 282.916 161.945V160.508ZM283.522 164.902C283.727 164.861 283.891 164.768 284.025 164.614C284.158 164.46 284.22 164.286 284.22 164.08C284.22 163.895 284.168 163.741 284.055 163.608C283.942 163.475 283.768 163.372 283.522 163.3V164.902Z" fill="#FBC02D"/>
<path opacity="0.2" d="M283.367 151.822C277.136 151.822 272.095 156.873 272.095 163.095C272.095 166.123 273.296 168.875 275.236 170.897L291.17 154.963C289.148 153.013 286.396 151.822 283.367 151.822Z" fill="white"/>
<path d="M174.142 178.946C180.367 178.946 185.414 173.899 185.414 167.674C185.414 161.448 180.367 156.401 174.142 156.401C167.916 156.401 162.869 161.448 162.869 167.674C162.869 173.899 167.916 178.946 174.142 178.946Z" fill="#FDD835"/>
<path d="M174.141 176.482C179.006 176.482 182.95 172.539 182.95 167.674C182.95 162.809 179.006 158.865 174.141 158.865C169.276 158.865 165.333 162.809 165.333 167.674C165.333 172.539 169.276 176.482 174.141 176.482Z" fill="#FFF176"/>
<path d="M174.142 175.774C178.616 175.774 182.242 172.147 182.242 167.674C182.242 163.2 178.616 159.573 174.142 159.573C169.668 159.573 166.042 163.2 166.042 167.674C166.042 172.147 169.668 175.774 174.142 175.774Z" fill="#FBC02D"/>
<path d="M174.141 174.367C177.838 174.367 180.835 171.37 180.835 167.674C180.835 163.977 177.838 160.98 174.141 160.98C170.444 160.98 167.448 163.977 167.448 167.674C167.448 171.37 170.444 174.367 174.141 174.367Z" fill="#FDD835"/>
<path d="M173.7 169.419V167.684C173.156 167.53 172.766 167.294 172.509 166.986C172.253 166.678 172.13 166.298 172.13 165.846C172.13 165.394 172.273 165.015 172.561 164.707C172.848 164.399 173.228 164.224 173.7 164.173V163.762H174.296V164.173C174.737 164.224 175.086 164.378 175.343 164.624C175.6 164.871 175.764 165.199 175.836 165.61L174.789 165.744C174.727 165.415 174.563 165.199 174.296 165.086V166.698C174.953 166.873 175.405 167.109 175.651 167.396C175.897 167.684 176.01 168.043 176.01 168.495C176.01 168.998 175.856 169.409 175.559 169.758C175.261 170.097 174.84 170.312 174.306 170.384V171.154H173.711V170.415C173.238 170.353 172.848 170.179 172.55 169.881C172.253 169.583 172.068 169.162 171.986 168.618L173.064 168.505C173.105 168.721 173.187 168.916 173.31 169.07C173.413 169.234 173.546 169.347 173.7 169.419ZM173.7 165.086C173.536 165.138 173.413 165.23 173.31 165.364C173.207 165.497 173.166 165.641 173.166 165.805C173.166 165.949 173.208 166.082 173.3 166.216C173.392 166.339 173.526 166.442 173.7 166.524V165.086ZM174.296 169.481C174.501 169.439 174.665 169.347 174.799 169.193C174.932 169.039 174.994 168.865 174.994 168.659C174.994 168.474 174.943 168.32 174.83 168.187C174.717 168.054 174.542 167.951 174.296 167.879V169.481Z" fill="#FBC02D"/>
<path opacity="0.2" d="M174.142 156.401C167.91 156.401 162.869 161.452 162.869 167.674C162.869 170.702 164.07 173.454 166.01 175.476L181.944 159.543C179.922 157.602 177.17 156.401 174.142 156.401Z" fill="white"/>
<path d="M193.976 228.421H265.699" stroke="#606060" stroke-width="1.2045" stroke-miterlimit="10"/>
<path d="M185.096 7.83387C185.055 7.78253 185.024 7.72093 185.024 7.64907V0.380329C185.024 0.298196 185.045 0.236602 185.096 0.185269C185.137 0.133936 185.199 0.113403 185.271 0.113403H185.794C185.876 0.113403 185.938 0.133936 185.989 0.185269C186.041 0.236602 186.061 0.298196 186.061 0.380329V3.15231L189.079 0.287933C189.203 0.164734 189.346 0.113403 189.511 0.113403H190.065C190.127 0.113403 190.178 0.133934 190.219 0.175C190.26 0.216067 190.281 0.267401 190.281 0.329001C190.281 0.3906 190.26 0.441932 190.229 0.472732L186.759 3.8299L190.465 7.5156C190.507 7.55667 190.517 7.60801 190.517 7.6696C190.517 7.7312 190.496 7.78253 190.455 7.8236C190.414 7.86466 190.363 7.89546 190.301 7.89546H189.726C189.624 7.89546 189.541 7.87493 189.48 7.84413C189.418 7.81333 189.357 7.77227 189.295 7.72093L186.071 4.56909V7.6388C186.071 7.71066 186.041 7.77226 185.989 7.8236C185.938 7.87493 185.876 7.89546 185.804 7.89546H185.281C185.199 7.90573 185.137 7.8852 185.096 7.83387Z" fill="#5D83A3"/>
<path d="M191.687 7.30951C191.235 6.83725 190.989 6.19046 190.938 5.3794L190.927 4.99953L190.938 4.62994C190.979 3.82914 191.235 3.19262 191.687 2.72036C192.139 2.2481 192.745 2.01196 193.504 2.01196C194.326 2.01196 194.952 2.26863 195.404 2.79223C195.855 3.31582 196.081 4.01395 196.081 4.90714V5.11247C196.081 5.18433 196.061 5.24593 196.009 5.29726C195.958 5.3486 195.896 5.36913 195.825 5.36913H191.964V5.47179C191.985 5.95432 192.139 6.36499 192.406 6.70379C192.683 7.04259 193.042 7.21712 193.494 7.21712C193.843 7.21712 194.131 7.14525 194.346 7.01178C194.562 6.87832 194.726 6.73459 194.839 6.58059C194.911 6.48819 194.962 6.43686 194.993 6.41633C195.034 6.39579 195.096 6.38553 195.178 6.38553H195.671C195.732 6.38553 195.794 6.40606 195.845 6.43686C195.896 6.47792 195.917 6.51899 195.917 6.58059C195.917 6.74485 195.814 6.93992 195.619 7.16578C195.424 7.39165 195.137 7.59698 194.767 7.76125C194.398 7.92551 193.977 8.00764 193.504 8.00764C192.745 8.01791 192.139 7.78178 191.687 7.30951ZM195.055 4.59914V4.56834C195.055 4.04474 194.911 3.62382 194.634 3.29529C194.356 2.96675 193.977 2.80249 193.494 2.80249C193.012 2.80249 192.632 2.96675 192.354 3.29529C192.077 3.62382 191.944 4.04474 191.944 4.56834V4.59914H195.055Z" fill="#5D83A3"/>
<path d="M198.063 9.95851C198.022 9.91744 198.001 9.86611 198.001 9.80451C198.001 9.78398 198.022 9.71212 198.053 9.60945L198.925 7.57666L196.8 2.55631C196.759 2.46391 196.728 2.40231 196.728 2.37151C196.738 2.30991 196.759 2.24832 196.81 2.20725C196.851 2.16618 196.903 2.13538 196.964 2.13538H197.478C197.601 2.13538 197.683 2.19698 197.745 2.30991L199.459 6.40628L201.215 2.30991C201.276 2.18671 201.358 2.13538 201.482 2.13538H201.985C202.046 2.13538 202.098 2.15592 202.139 2.20725C202.18 2.24832 202.21 2.29964 202.21 2.36124C202.21 2.41257 202.19 2.48445 202.159 2.56658L199.007 9.86612C198.966 9.92771 198.935 9.96878 198.894 9.99958C198.853 10.0304 198.802 10.0406 198.73 10.0406H198.237C198.165 10.0201 198.104 9.99958 198.063 9.95851Z" fill="#5D83A3"/>
<path d="M204.623 7.84363C204.572 7.80257 204.531 7.7307 204.5 7.62804L202.919 2.46395L202.898 2.35102C202.898 2.28942 202.919 2.22782 202.97 2.18675C203.011 2.14568 203.073 2.11488 203.134 2.11488H203.586C203.658 2.11488 203.72 2.13541 203.771 2.17648C203.822 2.21755 203.843 2.25861 203.853 2.28941L205.116 6.53977L206.45 2.34075C206.461 2.27915 206.502 2.22781 206.553 2.17648C206.604 2.12515 206.676 2.10461 206.769 2.10461H207.128C207.22 2.10461 207.292 2.12515 207.344 2.17648C207.395 2.22781 207.426 2.27915 207.446 2.34075L208.781 6.53977L210.033 2.28941C210.044 2.24835 210.064 2.21755 210.116 2.17648C210.167 2.13541 210.229 2.11488 210.3 2.11488H210.752C210.814 2.11488 210.875 2.13542 210.916 2.18675C210.957 2.22782 210.988 2.28942 210.988 2.35102L210.968 2.46395L209.387 7.62804C209.356 7.72044 209.315 7.7923 209.263 7.84363C209.212 7.8847 209.13 7.9155 209.027 7.9155H208.627C208.432 7.9155 208.309 7.8231 208.247 7.6383L206.943 3.6138L205.639 7.6383C205.578 7.8231 205.455 7.9155 205.26 7.9155H204.859C204.756 7.90523 204.674 7.8847 204.623 7.84363Z" fill="#5D83A3"/>
<path d="M212.539 7.33007C212.097 6.86807 211.861 6.26234 211.83 5.49235L211.82 5.00982L211.83 4.52729C211.861 3.76756 212.097 3.15156 212.549 2.68957C213.001 2.22757 213.627 2.00171 214.428 2.00171C215.229 2.00171 215.855 2.22757 216.307 2.68957C216.758 3.15156 216.995 3.75729 217.025 4.52729C217.036 4.69155 217.046 4.84555 217.046 5.00982C217.046 5.16382 217.036 5.32808 217.025 5.49235C216.995 6.25207 216.758 6.86807 216.317 7.33007C215.875 7.79206 215.249 8.01792 214.428 8.01792C213.607 8.01792 212.98 7.79206 212.539 7.33007ZM215.547 6.7346C215.824 6.43687 215.978 6.00567 215.999 5.44101C216.009 5.36915 216.009 5.22542 216.009 5.02009C216.009 4.81475 216.009 4.67102 215.999 4.59915C215.978 4.03449 215.824 3.6033 215.547 3.30557C215.27 3.00784 214.89 2.85384 214.418 2.85384C213.945 2.85384 213.566 3.00784 213.288 3.30557C213.011 3.6033 212.857 4.03449 212.837 4.59915L212.826 5.02009L212.837 5.44101C212.857 6.00567 213.011 6.43687 213.288 6.7346C213.566 7.03233 213.945 7.18633 214.418 7.18633C214.9 7.18633 215.27 7.03233 215.547 6.7346Z" fill="#5D83A3"/>
<path d="M218.514 7.83335C218.462 7.78202 218.442 7.72042 218.442 7.64855V2.3818C218.442 2.30994 218.462 2.24834 218.514 2.197C218.565 2.14567 218.627 2.11487 218.699 2.11487H219.171C219.253 2.11487 219.315 2.1354 219.366 2.18673C219.417 2.23807 219.438 2.29967 219.438 2.3818V2.87459C219.746 2.37153 220.259 2.11487 220.988 2.11487H221.419C221.501 2.11487 221.563 2.1354 221.604 2.18673C221.645 2.2278 221.676 2.2894 221.676 2.37153V2.7822C221.676 2.85406 221.655 2.91566 221.604 2.967C221.563 3.01833 221.501 3.03886 221.419 3.03886H220.783C220.372 3.03886 220.054 3.16206 219.818 3.39819C219.581 3.63432 219.469 3.96285 219.469 4.36325V7.64855C219.469 7.72042 219.438 7.78202 219.386 7.83335C219.335 7.88468 219.273 7.90522 219.202 7.90522H218.699C218.616 7.90522 218.555 7.88468 218.514 7.83335Z" fill="#5D83A3"/>
<path d="M222.867 7.25847C222.477 6.75541 222.271 6.11888 222.241 5.34889L222.23 5.01009L222.241 4.67129C222.271 3.91156 222.477 3.27503 222.877 2.7617C223.267 2.24837 223.852 2.00198 224.622 2.00198C225.392 2.00198 225.998 2.27918 226.429 2.82331V0.256664C226.429 0.184798 226.45 0.123199 226.501 0.0718657C226.553 0.0205328 226.614 0 226.686 0H227.189C227.261 0 227.323 0.0205328 227.374 0.0718657C227.425 0.123199 227.446 0.184798 227.446 0.256664V7.6486C227.446 7.72046 227.425 7.78206 227.374 7.8334C227.323 7.88473 227.261 7.90526 227.189 7.90526H226.707C226.635 7.90526 226.573 7.88473 226.532 7.8334C226.491 7.78206 226.47 7.72046 226.47 7.6486V7.17634C226.05 7.741 225.434 8.01819 224.633 8.01819C223.832 8.01819 223.257 7.7718 222.867 7.25847ZM225.998 6.63221C226.255 6.28314 226.399 5.87248 226.419 5.40021C226.429 5.31808 226.429 5.17435 226.429 4.97929C226.429 4.77396 226.429 4.63023 226.419 4.54809C226.409 4.09636 226.265 3.70624 225.988 3.3777C225.721 3.04917 225.331 2.88491 224.828 2.88491C224.294 2.88491 223.904 3.04917 223.657 3.38797C223.411 3.72676 223.278 4.15796 223.257 4.70209L223.247 5.02036C223.247 6.44741 223.77 7.15581 224.828 7.15581C225.341 7.15581 225.731 6.98127 225.998 6.63221Z" fill="#5D83A3"/>
<path d="M231.922 7.83335C231.871 7.78202 231.85 7.72042 231.85 7.64855V2.3818C231.85 2.30994 231.871 2.24834 231.922 2.197C231.974 2.14567 232.035 2.11487 232.107 2.11487H232.579C232.661 2.11487 232.723 2.1354 232.774 2.18673C232.826 2.23807 232.846 2.29967 232.846 2.3818V2.87459C233.154 2.37153 233.668 2.11487 234.396 2.11487H234.828C234.91 2.11487 234.971 2.1354 235.012 2.18673C235.054 2.2278 235.084 2.2894 235.084 2.37153V2.7822C235.084 2.85406 235.064 2.91566 235.012 2.967C234.971 3.01833 234.91 3.03886 234.828 3.03886H234.191C233.78 3.03886 233.462 3.16206 233.226 3.39819C232.99 3.63432 232.877 3.96285 232.877 4.36325V7.64855C232.877 7.72042 232.846 7.78202 232.795 7.83335C232.744 7.88468 232.682 7.90522 232.61 7.90522H232.107C232.035 7.90522 231.974 7.88468 231.922 7.83335Z" fill="#5D83A3"/>
<path d="M236.398 7.30951C235.947 6.83725 235.7 6.19046 235.649 5.3794L235.639 4.99953L235.649 4.62994C235.69 3.82914 235.947 3.19262 236.398 2.72036C236.85 2.2481 237.456 2.01196 238.216 2.01196C239.037 2.01196 239.663 2.26863 240.115 2.79223C240.567 3.31582 240.792 4.01395 240.792 4.90714V5.11247C240.792 5.18433 240.772 5.24593 240.721 5.29726C240.669 5.3486 240.608 5.36913 240.536 5.36913H236.665V5.47179C236.686 5.95432 236.84 6.36499 237.107 6.70379C237.384 7.04259 237.743 7.21712 238.195 7.21712C238.544 7.21712 238.832 7.14525 239.047 7.01178C239.263 6.87832 239.427 6.73459 239.54 6.58059C239.612 6.48819 239.663 6.43686 239.694 6.41633C239.735 6.39579 239.797 6.38553 239.879 6.38553H240.372C240.433 6.38553 240.495 6.40606 240.546 6.43686C240.597 6.47792 240.618 6.51899 240.618 6.58059C240.618 6.74485 240.515 6.93992 240.32 7.16578C240.125 7.39165 239.838 7.59698 239.468 7.76125C239.098 7.92551 238.678 8.00764 238.205 8.00764C237.456 8.01791 236.85 7.78178 236.398 7.30951ZM239.776 4.59914V4.56834C239.776 4.04474 239.632 3.62382 239.355 3.29529C239.078 2.96675 238.698 2.80249 238.216 2.80249C237.733 2.80249 237.353 2.96675 237.076 3.29529C236.799 3.62382 236.665 4.04474 236.665 4.56834V4.59914H239.776Z" fill="#5D83A3"/>
<path d="M242.825 7.77151C242.476 7.60725 242.209 7.41218 242.045 7.19658C241.871 6.98098 241.788 6.80645 241.788 6.66272C241.788 6.59086 241.809 6.52926 241.871 6.48819C241.922 6.44713 241.973 6.42659 242.035 6.42659H242.507C242.548 6.42659 242.589 6.43686 242.61 6.44712C242.641 6.45739 242.671 6.49846 242.712 6.54979C242.887 6.75512 243.072 6.91939 243.287 7.04259C243.503 7.16579 243.78 7.21712 244.139 7.21712C244.54 7.21712 244.858 7.14525 245.105 6.99125C245.341 6.84752 245.464 6.63192 245.464 6.34446C245.464 6.15966 245.413 6.00566 245.31 5.903C245.207 5.79006 245.033 5.6874 244.797 5.60527C244.56 5.51287 244.201 5.42047 243.719 5.3178C243.072 5.17407 242.62 4.96873 242.353 4.7018C242.086 4.43487 241.953 4.08581 241.953 3.66488C241.953 3.38768 242.035 3.12075 242.199 2.87435C242.363 2.61769 242.61 2.41236 242.928 2.24809C243.246 2.08382 243.636 2.01196 244.078 2.01196C244.55 2.01196 244.94 2.09409 245.279 2.24809C245.608 2.40209 245.854 2.58689 246.029 2.79223C246.193 2.99756 246.275 3.17208 246.275 3.31581C246.275 3.37741 246.254 3.43902 246.203 3.48008C246.152 3.52115 246.1 3.55195 246.029 3.55195H245.608C245.505 3.55195 245.433 3.51088 245.382 3.42875C245.259 3.28502 245.146 3.18235 245.063 3.10022C244.981 3.01809 244.858 2.95649 244.694 2.89489C244.53 2.84356 244.324 2.81275 244.078 2.81275C243.719 2.81275 243.431 2.88462 243.246 3.03862C243.051 3.19262 242.959 3.39795 242.959 3.64435C242.959 3.79834 243 3.93181 243.082 4.03448C243.164 4.13715 243.318 4.23981 243.554 4.33221C243.78 4.42461 244.129 4.51701 244.581 4.61967C245.289 4.76341 245.782 4.979 246.08 5.2562C246.378 5.5334 246.521 5.88247 246.521 6.31366C246.521 6.63193 246.429 6.91939 246.244 7.18632C246.059 7.44298 245.792 7.64831 245.433 7.80231C245.074 7.94604 244.643 8.02818 244.15 8.02818C243.616 8.01791 243.185 7.93578 242.825 7.77151Z" fill="#5D83A3"/>
<path d="M248.277 7.30951C247.825 6.83725 247.579 6.19046 247.527 5.3794L247.517 4.99953L247.527 4.62994C247.569 3.82914 247.825 3.19262 248.277 2.72036C248.729 2.2481 249.334 2.01196 250.094 2.01196C250.915 2.01196 251.542 2.26863 251.993 2.79223C252.445 3.31582 252.671 4.01395 252.671 4.90714V5.11247C252.671 5.18433 252.65 5.24593 252.599 5.29726C252.548 5.3486 252.486 5.36913 252.414 5.36913H248.554V5.47179C248.575 5.95432 248.729 6.36499 248.996 6.70379C249.273 7.04259 249.632 7.21712 250.084 7.21712C250.433 7.21712 250.72 7.14525 250.936 7.01178C251.152 6.87832 251.316 6.73459 251.429 6.58059C251.501 6.48819 251.552 6.43686 251.583 6.41633C251.624 6.39579 251.685 6.38553 251.768 6.38553H252.26C252.322 6.38553 252.384 6.40606 252.435 6.43686C252.486 6.47792 252.507 6.51899 252.507 6.58059C252.507 6.74485 252.404 6.93992 252.209 7.16578C252.014 7.39165 251.726 7.59698 251.357 7.76125C250.987 7.92551 250.566 8.00764 250.094 8.00764C249.334 8.01791 248.729 7.78178 248.277 7.30951ZM251.644 4.59914V4.56834C251.644 4.04474 251.501 3.62382 251.223 3.29529C250.946 2.96675 250.566 2.80249 250.084 2.80249C249.601 2.80249 249.221 2.96675 248.944 3.29529C248.667 3.62382 248.534 4.04474 248.534 4.56834V4.59914H251.644Z" fill="#5D83A3"/>
<path d="M254.611 7.79204C254.303 7.64831 254.057 7.44298 253.872 7.18632C253.687 6.92965 253.595 6.64219 253.595 6.33419C253.595 5.8414 253.8 5.441 254.201 5.133C254.601 4.82501 255.145 4.60941 255.833 4.50674L257.506 4.27061V3.95235C257.506 3.19262 257.065 2.80249 256.182 2.80249C255.843 2.80249 255.566 2.87436 255.361 3.00782C255.155 3.14129 255.001 3.30555 254.909 3.49035C254.878 3.56222 254.847 3.61355 254.817 3.64434C254.786 3.67514 254.734 3.68541 254.673 3.68541H254.242C254.17 3.68541 254.118 3.66488 254.067 3.61355C254.016 3.56221 253.995 3.51088 253.995 3.43902C253.995 3.26448 254.077 3.06942 254.231 2.84355C254.396 2.61769 254.642 2.42262 254.971 2.25836C255.309 2.09409 255.71 2.01196 256.192 2.01196C257.024 2.01196 257.619 2.20703 257.979 2.58689C258.338 2.97702 258.523 3.45955 258.523 4.03448V7.64831C258.523 7.72018 258.502 7.78178 258.451 7.83311C258.4 7.88444 258.338 7.90498 258.266 7.90498H257.773C257.701 7.90498 257.64 7.88444 257.599 7.83311C257.558 7.78178 257.527 7.72018 257.527 7.64831V7.15552C257.363 7.40192 257.127 7.60725 256.819 7.77151C256.511 7.93578 256.11 8.01791 255.617 8.01791C255.258 8.01791 254.919 7.94604 254.611 7.79204ZM257.044 6.72432C257.352 6.40605 257.517 5.94406 257.517 5.32806V5.02007L256.213 5.20487C255.679 5.27674 255.279 5.4102 255.001 5.58473C254.724 5.75926 254.591 5.98513 254.591 6.25206C254.591 6.56005 254.714 6.78592 254.96 6.95018C255.207 7.11445 255.504 7.19658 255.843 7.19658C256.336 7.20685 256.736 7.04258 257.044 6.72432Z" fill="#5D83A3"/>
<path d="M260.206 7.83335C260.155 7.78202 260.135 7.72042 260.135 7.64855V2.3818C260.135 2.30994 260.155 2.24834 260.206 2.197C260.258 2.14567 260.319 2.11487 260.391 2.11487H260.863C260.946 2.11487 261.007 2.1354 261.059 2.18673C261.11 2.23807 261.13 2.29967 261.13 2.3818V2.87459C261.438 2.37153 261.952 2.11487 262.681 2.11487H263.112C263.194 2.11487 263.256 2.1354 263.297 2.18673C263.338 2.2278 263.369 2.2894 263.369 2.37153V2.7822C263.369 2.85406 263.348 2.91566 263.297 2.967C263.256 3.01833 263.194 3.03886 263.112 3.03886H262.475C262.065 3.03886 261.746 3.16206 261.51 3.39819C261.274 3.63432 261.161 3.96285 261.161 4.36325V7.64855C261.161 7.72042 261.13 7.78202 261.079 7.83335C261.028 7.88468 260.966 7.90522 260.894 7.90522H260.391C260.319 7.90522 260.258 7.88468 260.206 7.83335Z" fill="#5D83A3"/>
<path d="M264.672 7.34033C264.231 6.8886 263.995 6.26234 263.974 5.45128L263.964 5.00982L263.974 4.56835C263.995 3.75729 264.231 3.13104 264.672 2.67931C265.114 2.22758 265.74 2.00171 266.53 2.00171C267.064 2.00171 267.516 2.09411 267.886 2.28917C268.255 2.47397 268.522 2.7101 268.707 2.99757C268.892 3.28503 268.984 3.56223 269.005 3.83943C269.015 3.91129 268.984 3.96262 268.933 4.01396C268.881 4.06529 268.82 4.09609 268.748 4.09609H268.255C268.183 4.09609 268.122 4.07556 268.091 4.04476C268.05 4.01396 268.019 3.95236 267.978 3.85996C267.845 3.50063 267.66 3.2337 267.424 3.08996C267.187 2.93596 266.9 2.86411 266.541 2.86411C266.068 2.86411 265.699 3.00784 265.432 3.2953C265.155 3.58276 265.011 4.02423 264.99 4.61969L264.98 5.00982L264.99 5.39994C265.011 5.9954 265.165 6.43687 265.432 6.72433C265.709 7.0118 266.079 7.15553 266.541 7.15553C266.9 7.15553 267.198 7.08367 267.434 6.92967C267.67 6.77567 267.845 6.51901 267.978 6.15968C268.019 6.06728 268.05 6.00568 268.091 5.97488C268.132 5.94408 268.183 5.92354 268.255 5.92354H268.748C268.82 5.92354 268.871 5.95434 268.933 6.00568C268.984 6.05701 269.015 6.11861 269.005 6.1802C268.994 6.4574 268.892 6.7346 268.707 7.0118C268.522 7.29926 268.255 7.53539 267.886 7.72019C267.516 7.91526 267.064 8.00765 266.53 8.00765C265.73 8.01792 265.114 7.79206 264.672 7.34033Z" fill="#5D83A3"/>
<path d="M270.411 7.8334C270.36 7.78206 270.34 7.72046 270.34 7.6486V0.256664C270.34 0.174532 270.36 0.112932 270.411 0.0718657C270.463 0.0307994 270.524 0 270.596 0H271.11C271.192 0 271.253 0.0205328 271.294 0.0718657C271.335 0.112932 271.366 0.174532 271.366 0.256664V2.85411C271.582 2.57691 271.838 2.37158 272.126 2.22785C272.424 2.08411 272.783 2.01225 273.214 2.01225C273.923 2.01225 274.477 2.23811 274.877 2.70011C275.278 3.15184 275.473 3.75757 275.473 4.50703V7.65887C275.473 7.73073 275.452 7.79233 275.401 7.84367C275.35 7.895 275.288 7.91553 275.216 7.91553H274.693C274.621 7.91553 274.559 7.895 274.508 7.84367C274.456 7.79233 274.436 7.73073 274.436 7.65887V4.57889C274.436 4.04503 274.302 3.63437 274.046 3.33664C273.789 3.03891 273.409 2.89517 272.916 2.89517C272.444 2.89517 272.064 3.04917 271.777 3.3469C271.5 3.64463 271.356 4.06557 271.356 4.58916V7.66914C271.356 7.741 271.335 7.8026 271.284 7.85393C271.233 7.90527 271.171 7.9258 271.099 7.9258H270.586C270.524 7.90527 270.463 7.88473 270.411 7.8334Z" fill="#5D83A3"/>
<path d="M397.235 173.761C396.721 173.227 396.444 172.488 396.403 171.554C396.393 171.349 396.393 171.03 396.393 170.579C396.393 170.117 396.393 169.788 396.403 169.572C396.444 168.638 396.721 167.899 397.235 167.365C397.748 166.831 398.498 166.554 399.483 166.554C400.14 166.554 400.705 166.667 401.167 166.903C401.629 167.139 401.978 167.447 402.204 167.817C402.44 168.197 402.563 168.597 402.584 169.028C402.584 169.09 402.563 169.152 402.512 169.193C402.46 169.234 402.409 169.254 402.337 169.254H401.783C401.711 169.254 401.649 169.234 401.608 169.203C401.567 169.162 401.526 169.1 401.506 169.018C401.382 168.443 401.146 168.043 400.818 167.817C400.489 167.591 400.038 167.468 399.473 167.468C398.179 167.468 397.512 168.186 397.461 169.624C397.45 169.819 397.45 170.127 397.45 170.548C397.45 170.969 397.45 171.277 397.461 171.492C397.512 172.93 398.179 173.638 399.473 173.638C400.027 173.638 400.479 173.525 400.808 173.289C401.146 173.063 401.372 172.663 401.495 172.098C401.516 172.006 401.547 171.944 401.598 171.913C401.639 171.872 401.701 171.862 401.773 171.862H402.327C402.399 171.862 402.45 171.882 402.502 171.923C402.553 171.965 402.573 172.016 402.573 172.088C402.553 172.519 402.419 172.919 402.194 173.299C401.968 173.679 401.608 173.987 401.157 174.213C400.705 174.439 400.14 174.562 399.473 174.562C398.498 174.562 397.748 174.295 397.235 173.761Z" fill="#5D83A3"/>
<path d="M404.554 174.347C404.246 174.203 404 173.998 403.815 173.741C403.63 173.484 403.538 173.197 403.538 172.889C403.538 172.396 403.743 171.996 404.144 171.688C404.544 171.38 405.088 171.164 405.776 171.062L407.45 170.825V170.507C407.45 169.747 407.008 169.357 406.125 169.357C405.786 169.357 405.509 169.429 405.304 169.563C405.099 169.696 404.945 169.86 404.852 170.045C404.821 170.117 404.791 170.168 404.76 170.199C404.729 170.23 404.678 170.24 404.616 170.24H404.185C404.113 170.24 404.062 170.22 404.01 170.168C403.959 170.117 403.938 170.066 403.938 169.994C403.938 169.819 404.021 169.624 404.175 169.398C404.339 169.172 404.585 168.977 404.914 168.813C405.253 168.649 405.653 168.567 406.136 168.567C406.967 168.567 407.563 168.762 407.922 169.142C408.281 169.532 408.466 170.014 408.466 170.589V174.203C408.466 174.275 408.445 174.337 408.394 174.388C408.343 174.439 408.281 174.46 408.209 174.46H407.717C407.645 174.46 407.583 174.439 407.542 174.388C407.501 174.337 407.47 174.275 407.47 174.203V173.71C407.306 173.957 407.07 174.162 406.762 174.326C406.454 174.491 406.053 174.573 405.561 174.573C405.201 174.562 404.862 174.491 404.554 174.347ZM406.988 173.269C407.296 172.951 407.46 172.489 407.46 171.873V171.565L406.156 171.749C405.622 171.821 405.222 171.955 404.945 172.129C404.667 172.304 404.534 172.53 404.534 172.797C404.534 173.105 404.657 173.33 404.904 173.495C405.15 173.659 405.448 173.741 405.786 173.741C406.279 173.751 406.68 173.597 406.988 173.269Z" fill="#5D83A3"/>
<path d="M410.15 174.378C410.099 174.326 410.078 174.265 410.078 174.193V168.916C410.078 168.844 410.099 168.782 410.15 168.731C410.201 168.68 410.263 168.659 410.335 168.659H410.807C410.879 168.659 410.941 168.68 410.982 168.731C411.023 168.782 411.054 168.844 411.054 168.916V169.296C411.454 168.803 411.998 168.546 412.676 168.546C413.497 168.546 414.072 168.885 414.411 169.573C414.585 169.265 414.842 169.008 415.17 168.823C415.499 168.639 415.869 168.546 416.279 168.546C416.885 168.546 417.388 168.752 417.768 169.173C418.158 169.593 418.343 170.189 418.343 170.979V174.193C418.343 174.265 418.322 174.326 418.271 174.378C418.22 174.429 418.158 174.45 418.086 174.45H417.604C417.532 174.45 417.47 174.429 417.419 174.378C417.368 174.326 417.347 174.265 417.347 174.193V171.072C417.347 170.476 417.224 170.055 416.977 169.799C416.731 169.542 416.413 169.419 416.012 169.419C415.653 169.419 415.345 169.552 415.099 169.809C414.842 170.076 414.719 170.497 414.719 171.072V174.193C414.719 174.265 414.698 174.326 414.647 174.378C414.596 174.429 414.534 174.45 414.462 174.45H413.969C413.897 174.45 413.836 174.429 413.784 174.378C413.733 174.326 413.713 174.265 413.713 174.193V171.072C413.713 170.487 413.589 170.066 413.333 169.799C413.076 169.542 412.758 169.409 412.378 169.409C412.019 169.409 411.711 169.542 411.464 169.799C411.208 170.055 411.084 170.476 411.084 171.062V174.193C411.084 174.265 411.064 174.326 411.013 174.378C410.961 174.429 410.9 174.45 410.828 174.45H410.335C410.263 174.45 410.201 174.429 410.15 174.378Z" fill="#5D83A3"/>
<path d="M420.047 176.503C419.995 176.462 419.975 176.4 419.975 176.318V168.926C419.975 168.844 419.995 168.782 420.047 168.741C420.098 168.7 420.16 168.669 420.232 168.669H420.704C420.786 168.669 420.848 168.69 420.889 168.741C420.93 168.782 420.96 168.844 420.96 168.926V169.419C421.392 168.844 422.008 168.567 422.798 168.567C423.578 168.567 424.164 168.813 424.554 169.306C424.944 169.799 425.149 170.425 425.17 171.195C425.18 171.277 425.18 171.4 425.18 171.575C425.18 171.749 425.18 171.873 425.17 171.955C425.149 172.714 424.944 173.341 424.554 173.834C424.164 174.326 423.578 174.583 422.798 174.583C422.008 174.583 421.402 174.306 420.991 173.741V176.339C420.991 176.41 420.971 176.472 420.919 176.523C420.868 176.575 420.806 176.595 420.735 176.595H420.232C420.16 176.564 420.098 176.544 420.047 176.503ZM423.753 173.197C423.999 172.858 424.133 172.427 424.153 171.883C424.164 171.811 424.164 171.698 424.164 171.565C424.164 170.138 423.64 169.429 422.583 169.429C422.059 169.429 421.669 169.604 421.412 169.942C421.145 170.292 421.012 170.692 420.991 171.164C420.981 171.246 420.981 171.39 420.981 171.595C420.981 171.801 420.981 171.944 420.991 172.027C421.002 172.478 421.145 172.868 421.422 173.197C421.689 173.526 422.08 173.69 422.583 173.69C423.116 173.7 423.507 173.526 423.753 173.197Z" fill="#5D83A3"/>
<path d="M427.172 174.347C426.864 174.203 426.618 173.998 426.433 173.741C426.248 173.484 426.156 173.197 426.156 172.889C426.156 172.396 426.361 171.996 426.761 171.688C427.162 171.38 427.706 171.164 428.394 171.062L430.067 170.825V170.507C430.067 169.747 429.626 169.357 428.743 169.357C428.404 169.357 428.127 169.429 427.922 169.563C427.716 169.696 427.562 169.86 427.47 170.045C427.439 170.117 427.408 170.168 427.377 170.199C427.347 170.23 427.295 170.24 427.234 170.24H426.803C426.731 170.24 426.679 170.22 426.628 170.168C426.577 170.117 426.556 170.066 426.556 169.994C426.556 169.819 426.638 169.624 426.792 169.398C426.956 169.172 427.203 168.977 427.531 168.813C427.87 168.649 428.271 168.567 428.753 168.567C429.585 168.567 430.18 168.762 430.54 169.142C430.899 169.532 431.084 170.014 431.084 170.589V174.203C431.084 174.275 431.063 174.337 431.012 174.388C430.96 174.439 430.899 174.46 430.827 174.46H430.334C430.262 174.46 430.201 174.439 430.16 174.388C430.119 174.337 430.088 174.275 430.088 174.203V173.71C429.924 173.957 429.687 174.162 429.379 174.326C429.071 174.491 428.671 174.573 428.178 174.573C427.819 174.562 427.48 174.491 427.172 174.347ZM429.605 173.269C429.913 172.951 430.078 172.489 430.078 171.873V171.565L428.774 171.749C428.24 171.821 427.839 171.955 427.562 172.129C427.285 172.304 427.152 172.53 427.152 172.797C427.152 173.105 427.275 173.33 427.521 173.495C427.768 173.659 428.065 173.741 428.404 173.741C428.887 173.751 429.287 173.597 429.605 173.269Z" fill="#5D83A3"/>
<path d="M432.675 167.499C432.623 167.448 432.603 167.386 432.603 167.314V166.739C432.603 166.667 432.623 166.606 432.675 166.555C432.726 166.503 432.788 166.472 432.86 166.472H433.517C433.589 166.472 433.65 166.503 433.701 166.555C433.753 166.606 433.784 166.667 433.784 166.739V167.314C433.784 167.386 433.753 167.448 433.701 167.499C433.65 167.55 433.589 167.571 433.517 167.571H432.86C432.788 167.571 432.726 167.55 432.675 167.499ZM432.767 174.378C432.716 174.326 432.695 174.265 432.695 174.193V168.916C432.695 168.844 432.716 168.782 432.767 168.731C432.819 168.68 432.88 168.659 432.952 168.659H433.445C433.517 168.659 433.578 168.68 433.63 168.731C433.681 168.782 433.701 168.844 433.701 168.916V174.193C433.701 174.265 433.681 174.326 433.63 174.378C433.578 174.429 433.517 174.45 433.445 174.45H432.952C432.88 174.45 432.819 174.429 432.767 174.378Z" fill="#5D83A3"/>
<path d="M436.237 176.585C435.868 176.38 435.601 176.144 435.457 175.877C435.303 175.61 435.231 175.384 435.231 175.189C435.231 175.117 435.262 175.066 435.313 175.014C435.365 174.963 435.426 174.942 435.488 174.942H435.981C436.042 174.942 436.104 174.963 436.145 174.994C436.186 175.025 436.227 175.086 436.258 175.179C436.463 175.774 436.935 176.072 437.675 176.072C438.229 176.072 438.64 175.949 438.907 175.712C439.174 175.476 439.307 175.055 439.307 174.45V173.68C438.876 174.234 438.28 174.501 437.5 174.501C436.71 174.501 436.124 174.244 435.734 173.741C435.344 173.238 435.139 172.602 435.118 171.832L435.108 171.524L435.118 171.226C435.139 170.466 435.344 169.83 435.734 169.316C436.124 168.803 436.71 168.557 437.5 168.557C438.28 168.557 438.886 168.844 439.328 169.409V168.926C439.328 168.854 439.348 168.793 439.399 168.741C439.451 168.69 439.512 168.659 439.584 168.659H440.067C440.139 168.659 440.2 168.69 440.252 168.741C440.303 168.793 440.323 168.854 440.323 168.926V174.326C440.323 176.041 439.461 176.893 437.726 176.893C437.1 176.903 436.607 176.801 436.237 176.585ZM438.866 173.136C439.132 172.797 439.276 172.396 439.297 171.914C439.307 171.842 439.307 171.719 439.307 171.524C439.307 171.339 439.307 171.216 439.297 171.144C439.276 170.672 439.132 170.261 438.866 169.922C438.599 169.583 438.208 169.419 437.695 169.419C437.161 169.419 436.771 169.583 436.535 169.922C436.289 170.261 436.165 170.692 436.135 171.226L436.124 171.513L436.135 171.811C436.155 172.345 436.289 172.786 436.535 173.115C436.771 173.454 437.161 173.618 437.695 173.618C438.208 173.639 438.599 173.474 438.866 173.136Z" fill="#5D83A3"/>
<path d="M442.058 174.378C442.007 174.326 441.987 174.265 441.987 174.193V168.916C441.987 168.844 442.007 168.782 442.058 168.731C442.11 168.68 442.171 168.659 442.243 168.659H442.726C442.808 168.659 442.869 168.68 442.911 168.731C442.952 168.772 442.982 168.834 442.982 168.916V169.409C443.208 169.131 443.465 168.926 443.752 168.772C444.05 168.628 444.409 168.546 444.851 168.546C445.559 168.546 446.114 168.772 446.514 169.234C446.904 169.686 447.099 170.292 447.099 171.041V174.193C447.099 174.265 447.079 174.326 447.027 174.378C446.976 174.429 446.914 174.45 446.843 174.45H446.329C446.257 174.45 446.196 174.429 446.144 174.378C446.093 174.326 446.073 174.265 446.073 174.193V171.113C446.073 170.579 445.939 170.168 445.682 169.871C445.426 169.573 445.056 169.429 444.574 169.429C444.101 169.429 443.722 169.583 443.434 169.881C443.147 170.179 443.013 170.6 443.013 171.123V174.203C443.013 174.275 442.993 174.337 442.941 174.388C442.89 174.439 442.828 174.46 442.757 174.46H442.243C442.171 174.45 442.11 174.429 442.058 174.378Z" fill="#5D83A3"/>
<path d="M452.13 174.316C451.781 174.152 451.514 173.957 451.35 173.741C451.175 173.526 451.093 173.351 451.093 173.207C451.093 173.136 451.114 173.074 451.175 173.033C451.226 172.992 451.278 172.971 451.339 172.971H451.812C451.853 172.971 451.894 172.982 451.914 172.992C451.945 173.002 451.976 173.043 452.017 173.094C452.192 173.3 452.376 173.464 452.592 173.587C452.807 173.71 453.085 173.762 453.444 173.762C453.844 173.762 454.163 173.69 454.409 173.536C454.645 173.392 454.768 173.177 454.768 172.889C454.768 172.704 454.717 172.55 454.614 172.448C454.512 172.335 454.337 172.232 454.101 172.15C453.865 172.058 453.506 171.965 453.023 171.862C452.376 171.719 451.925 171.513 451.658 171.246C451.391 170.98 451.257 170.63 451.257 170.21C451.257 169.932 451.339 169.665 451.504 169.419C451.668 169.162 451.914 168.957 452.233 168.793C452.551 168.629 452.941 168.557 453.382 168.557C453.855 168.557 454.245 168.639 454.584 168.793C454.912 168.947 455.159 169.132 455.333 169.337C455.497 169.542 455.579 169.717 455.579 169.861C455.579 169.922 455.559 169.984 455.508 170.025C455.456 170.066 455.405 170.097 455.333 170.097H454.912C454.809 170.097 454.738 170.056 454.686 169.973C454.563 169.83 454.45 169.727 454.368 169.645C454.286 169.563 454.163 169.501 453.998 169.44C453.834 169.388 453.629 169.357 453.382 169.357C453.023 169.357 452.736 169.429 452.551 169.583C452.356 169.737 452.263 169.943 452.263 170.189C452.263 170.343 452.304 170.476 452.387 170.579C452.469 170.682 452.623 170.784 452.859 170.877C453.085 170.969 453.434 171.062 453.885 171.164C454.594 171.308 455.087 171.524 455.384 171.801C455.682 172.078 455.826 172.427 455.826 172.858C455.826 173.177 455.733 173.464 455.549 173.731C455.364 173.988 455.097 174.193 454.738 174.347C454.378 174.491 453.947 174.573 453.454 174.573C452.92 174.563 452.489 174.48 452.13 174.316Z" fill="#5D83A3"/>
<path d="M457.582 173.854C457.13 173.382 456.884 172.735 456.832 171.924L456.822 171.544L456.832 171.175C456.873 170.374 457.13 169.737 457.582 169.265C458.033 168.793 458.639 168.557 459.399 168.557C460.22 168.557 460.846 168.813 461.298 169.337C461.75 169.86 461.976 170.559 461.976 171.452V171.657C461.976 171.729 461.955 171.791 461.904 171.842C461.853 171.893 461.791 171.914 461.719 171.914H457.859V172.016C457.879 172.499 458.033 172.91 458.3 173.248C458.578 173.587 458.937 173.762 459.389 173.762C459.738 173.762 460.025 173.69 460.241 173.556C460.456 173.423 460.621 173.279 460.734 173.125C460.805 173.033 460.857 172.982 460.888 172.961C460.929 172.94 460.99 172.93 461.072 172.93H461.565C461.627 172.93 461.688 172.951 461.74 172.982C461.791 173.023 461.812 173.064 461.812 173.125C461.812 173.29 461.709 173.485 461.514 173.71C461.319 173.936 461.031 174.142 460.662 174.306C460.292 174.47 459.871 174.552 459.399 174.552C458.639 174.563 458.033 174.326 457.582 173.854ZM460.949 171.144V171.113C460.949 170.589 460.805 170.168 460.528 169.84C460.251 169.511 459.871 169.347 459.389 169.347C458.906 169.347 458.526 169.511 458.249 169.84C457.972 170.168 457.838 170.589 457.838 171.113V171.144H460.949Z" fill="#5D83A3"/>
<path d="M463.793 172.509V169.532H462.91C462.838 169.532 462.777 169.511 462.736 169.46C462.694 169.419 462.664 169.357 462.664 169.286V168.926C462.664 168.854 462.684 168.793 462.736 168.741C462.777 168.69 462.838 168.67 462.91 168.67H463.793V166.811C463.793 166.739 463.814 166.678 463.855 166.627C463.896 166.575 463.957 166.555 464.029 166.555H464.522C464.594 166.555 464.655 166.575 464.707 166.627C464.758 166.678 464.779 166.739 464.779 166.811V168.67H466.154C466.226 168.67 466.288 168.69 466.339 168.741C466.39 168.793 466.411 168.854 466.411 168.926V169.286C466.411 169.357 466.39 169.419 466.339 169.46C466.288 169.501 466.226 169.532 466.154 169.532H464.779V172.437C464.779 172.817 464.84 173.105 464.963 173.3C465.087 173.495 465.292 173.587 465.59 173.587H466.267C466.339 173.587 466.401 173.608 466.442 173.659C466.483 173.71 466.514 173.772 466.514 173.844V174.214C466.514 174.285 466.493 174.347 466.442 174.398C466.401 174.45 466.339 174.47 466.267 174.47H465.507C464.368 174.45 463.793 173.803 463.793 172.509Z" fill="#5D83A3"/>
<path d="M468.136 173.885C467.746 173.433 467.561 172.817 467.561 172.068V168.926C467.561 168.854 467.581 168.793 467.633 168.741C467.684 168.69 467.746 168.67 467.817 168.67H468.331C468.403 168.67 468.464 168.69 468.516 168.741C468.567 168.793 468.587 168.854 468.587 168.926V172.006C468.587 173.136 469.08 173.7 470.056 173.7C470.528 173.7 470.908 173.546 471.185 173.248C471.462 172.951 471.606 172.53 471.606 172.006V168.926C471.606 168.854 471.626 168.793 471.678 168.741C471.729 168.69 471.791 168.67 471.862 168.67H472.376C472.448 168.67 472.509 168.69 472.561 168.741C472.612 168.793 472.632 168.854 472.632 168.926V174.203C472.632 174.275 472.612 174.337 472.561 174.388C472.509 174.439 472.448 174.46 472.376 174.46H471.893C471.821 174.46 471.76 174.439 471.708 174.388C471.657 174.337 471.637 174.275 471.637 174.203V173.7C471.421 173.988 471.164 174.203 470.877 174.347C470.589 174.491 470.22 174.563 469.778 174.563C469.06 174.563 468.516 174.337 468.136 173.885Z" fill="#5D83A3"/>
<path d="M474.367 176.503C474.316 176.462 474.296 176.4 474.296 176.318V168.926C474.296 168.844 474.316 168.782 474.367 168.741C474.419 168.7 474.48 168.669 474.552 168.669H475.025C475.107 168.669 475.168 168.69 475.209 168.741C475.25 168.782 475.281 168.844 475.281 168.926V169.419C475.712 168.844 476.328 168.567 477.119 168.567C477.899 168.567 478.484 168.813 478.875 169.306C479.265 169.799 479.47 170.425 479.49 171.195C479.501 171.277 479.501 171.4 479.501 171.575C479.501 171.749 479.501 171.873 479.49 171.955C479.47 172.714 479.265 173.341 478.875 173.834C478.484 174.326 477.899 174.583 477.119 174.583C476.328 174.583 475.723 174.306 475.312 173.741V176.339C475.312 176.41 475.291 176.472 475.24 176.523C475.189 176.575 475.127 176.595 475.055 176.595H474.552C474.48 176.564 474.419 176.544 474.367 176.503ZM478.063 173.197C478.31 172.858 478.443 172.427 478.464 171.883C478.474 171.811 478.474 171.698 478.474 171.565C478.474 170.138 477.95 169.429 476.893 169.429C476.369 169.429 475.979 169.604 475.723 169.942C475.456 170.292 475.322 170.692 475.302 171.164C475.291 171.246 475.291 171.39 475.291 171.595C475.291 171.801 475.291 171.944 475.302 172.027C475.312 172.478 475.456 172.868 475.733 173.197C476 173.526 476.39 173.69 476.893 173.69C477.437 173.7 477.827 173.526 478.063 173.197Z" fill="#5D83A3"/>
<path d="M0.841873 165.847C0.328544 165.313 0.0513474 164.574 0.0102811 163.64C1.45403e-05 163.434 1.43051e-05 163.116 1.43051e-05 162.664C1.43051e-05 162.202 1.45403e-05 161.874 0.0102811 161.658C0.0513474 160.724 0.328544 159.985 0.841873 159.451C1.3552 158.917 2.10466 158.64 3.09025 158.64C3.74732 158.64 4.31198 158.753 4.77397 158.989C5.23597 159.225 5.58503 159.533 5.8109 159.903C6.04703 160.283 6.17023 160.683 6.19076 161.114C6.19076 161.176 6.17023 161.237 6.1189 161.278C6.06756 161.319 6.01623 161.34 5.94436 161.34H5.38997C5.3181 161.34 5.2565 161.319 5.21544 161.289C5.17437 161.248 5.1333 161.186 5.11277 161.104C4.98957 160.529 4.75344 160.129 4.42491 159.903C4.09638 159.677 3.64465 159.554 3.07999 159.554C1.7864 159.554 1.11907 160.272 1.06774 161.71C1.05747 161.905 1.05747 162.213 1.05747 162.634C1.05747 163.055 1.05747 163.363 1.06774 163.578C1.11907 165.015 1.7864 165.724 3.07999 165.724C3.63438 165.724 4.08611 165.611 4.41464 165.375C4.75344 165.149 4.97931 164.748 5.1025 164.184C5.12304 164.091 5.15384 164.03 5.20517 163.999C5.24623 163.958 5.30783 163.948 5.3797 163.948H5.9341C6.00596 163.948 6.0573 163.968 6.10863 164.009C6.15996 164.05 6.18049 164.102 6.18049 164.174C6.15996 164.605 6.02649 165.005 5.80063 165.385C5.5645 165.765 5.21544 166.073 4.76371 166.299C4.30171 166.535 3.74731 166.648 3.07999 166.648C2.10466 166.648 1.3552 166.381 0.841873 165.847Z" fill="#5D83A3"/>
<path d="M8.02871 165.959C7.58725 165.497 7.35112 164.891 7.32032 164.121L7.31005 163.639L7.32032 163.156C7.35112 162.397 7.58725 161.781 8.03898 161.319C8.49071 160.857 9.11697 160.631 9.91776 160.631C10.7186 160.631 11.3448 160.857 11.7965 161.319C12.2483 161.781 12.4844 162.386 12.5152 163.156C12.5255 163.321 12.5357 163.475 12.5357 163.639C12.5357 163.803 12.5255 163.957 12.5152 164.121C12.4844 164.881 12.2483 165.497 11.8068 165.959C11.3654 166.421 10.7391 166.647 9.91776 166.647C9.09644 166.647 8.47018 166.421 8.02871 165.959ZM11.0471 165.364C11.3243 165.066 11.4783 164.635 11.4988 164.07C11.5091 163.998 11.5091 163.854 11.5091 163.649C11.5091 163.444 11.5091 163.3 11.4988 163.228C11.4783 162.664 11.3243 162.232 11.0471 161.935C10.7699 161.637 10.39 161.483 9.91776 161.483C9.4455 161.483 9.06564 161.637 8.78844 161.935C8.51124 162.232 8.35724 162.664 8.33671 163.228L8.32644 163.649L8.33671 164.07C8.35724 164.635 8.51124 165.066 8.78844 165.364C9.06564 165.661 9.4455 165.815 9.91776 165.815C10.39 165.815 10.7699 165.661 11.0471 165.364Z" fill="#5D83A3"/>
<path d="M14.6195 166.401C14.2705 166.236 14.0035 166.041 13.8393 165.826C13.6647 165.61 13.5826 165.435 13.5826 165.292C13.5826 165.22 13.6031 165.158 13.6647 165.117C13.7161 165.076 13.7674 165.056 13.829 165.056H14.3013C14.3423 165.056 14.3834 165.066 14.4039 165.076C14.4347 165.086 14.4655 165.127 14.5066 165.179C14.6811 165.384 14.8659 165.548 15.0815 165.672C15.2971 165.795 15.5743 165.846 15.9336 165.846C16.334 165.846 16.6523 165.774 16.8987 165.62C17.1348 165.477 17.258 165.261 17.258 164.973C17.258 164.789 17.2067 164.635 17.104 164.532C17.0014 164.419 16.8268 164.316 16.5907 164.234C16.3546 164.142 15.9952 164.049 15.5127 163.947C14.8659 163.803 14.4142 163.598 14.1473 163.331C13.8803 163.064 13.7469 162.715 13.7469 162.294C13.7469 162.017 13.829 161.75 13.9933 161.503C14.1575 161.247 14.4039 161.041 14.7222 160.877C15.0405 160.713 15.4306 160.641 15.872 160.641C16.3443 160.641 16.7344 160.723 17.0732 160.877C17.4018 161.031 17.6482 161.216 17.8227 161.421C17.987 161.627 18.0691 161.801 18.0691 161.945C18.0691 162.006 18.0486 162.068 17.9972 162.109C17.9459 162.15 17.8946 162.181 17.8227 162.181H17.4018C17.2991 162.181 17.2272 162.14 17.1759 162.058C17.0527 161.914 16.9398 161.811 16.8576 161.729C16.7755 161.647 16.6523 161.586 16.488 161.524C16.3238 161.473 16.1184 161.442 15.872 161.442C15.5127 161.442 15.2252 161.514 15.0404 161.668C14.8454 161.822 14.753 162.027 14.753 162.273C14.753 162.427 14.7941 162.561 14.8762 162.664C14.9583 162.766 15.1123 162.869 15.3484 162.961C15.5743 163.054 15.9234 163.146 16.3751 163.249C17.0835 163.392 17.5763 163.608 17.874 163.885C18.1718 164.162 18.3155 164.511 18.3155 164.943C18.3155 165.261 18.2231 165.548 18.0383 165.815C17.8535 166.072 17.5866 166.277 17.2272 166.431C16.8679 166.575 16.4367 166.657 15.9439 166.657C15.3998 166.647 14.9686 166.565 14.6195 166.401Z" fill="#5D83A3"/>
<path d="M20.0711 164.594V161.616H19.1881C19.1163 161.616 19.0547 161.596 19.0136 161.544C18.9725 161.503 18.9417 161.442 18.9417 161.37V161.01C18.9417 160.939 18.9623 160.877 19.0136 160.826C19.0547 160.774 19.1163 160.754 19.1881 160.754H20.0711V158.896C20.0711 158.824 20.0916 158.762 20.1327 158.711C20.1737 158.659 20.2353 158.639 20.3072 158.639H20.8C20.8719 158.639 20.9335 158.659 20.9848 158.711C21.0361 158.762 21.0567 158.824 21.0567 158.896V160.754H22.4324C22.5042 160.754 22.5658 160.774 22.6172 160.826C22.6685 160.877 22.689 160.939 22.689 161.01V161.37C22.689 161.442 22.6685 161.503 22.6172 161.544C22.5658 161.585 22.5042 161.616 22.4324 161.616H21.0669V164.522C21.0669 164.902 21.1285 165.189 21.2517 165.384C21.3749 165.579 21.5803 165.672 21.878 165.672H22.5556C22.6274 165.672 22.689 165.692 22.7301 165.743C22.7712 165.795 22.802 165.856 22.802 165.928V166.298C22.802 166.37 22.7814 166.431 22.7301 166.483C22.689 166.534 22.6274 166.554 22.5556 166.554H21.7959C20.646 166.544 20.0711 165.887 20.0711 164.594Z" fill="#5D83A3"/>
<path d="M26.7136 168.587C26.6623 168.546 26.6417 168.485 26.6417 168.402V161.011C26.6417 160.928 26.6623 160.867 26.7136 160.826C26.7649 160.785 26.8265 160.754 26.8984 160.754H27.3707C27.4528 160.754 27.5144 160.774 27.5555 160.826C27.5965 160.867 27.6273 160.928 27.6273 161.011V161.503C28.0585 160.928 28.6745 160.651 29.465 160.651C30.2453 160.651 30.8305 160.898 31.2206 161.39C31.6108 161.883 31.8161 162.509 31.8366 163.279C31.8469 163.362 31.8469 163.485 31.8469 163.659C31.8469 163.834 31.8469 163.957 31.8366 164.039C31.8161 164.799 31.6108 165.425 31.2206 165.918C30.8305 166.411 30.2453 166.667 29.465 166.667C28.6745 166.667 28.0688 166.39 27.6581 165.826V168.423C27.6581 168.495 27.6376 168.557 27.5863 168.608C27.5349 168.659 27.4733 168.68 27.4015 168.68H26.8984C26.8265 168.649 26.7649 168.628 26.7136 168.587ZM30.4096 165.281C30.656 164.943 30.7894 164.511 30.81 163.967C30.8202 163.895 30.8202 163.783 30.8202 163.649C30.8202 162.222 30.2966 161.514 29.2392 161.514C28.7156 161.514 28.3254 161.688 28.0688 162.027C27.8019 162.376 27.6684 162.776 27.6479 163.249C27.6376 163.331 27.6376 163.475 27.6376 163.68C27.6376 163.885 27.6376 164.029 27.6479 164.111C27.6581 164.563 27.8019 164.953 28.079 165.281C28.346 165.61 28.7361 165.774 29.2392 165.774C29.7833 165.785 30.1632 165.62 30.4096 165.281Z" fill="#5D83A3"/>
<path d="M33.7155 165.949C33.2637 165.477 33.0173 164.83 32.966 164.019L32.9557 163.639L32.966 163.269C33.0071 162.468 33.2637 161.832 33.7155 161.36C34.1672 160.887 34.7729 160.651 35.5327 160.651C36.354 160.651 36.9802 160.908 37.432 161.431C37.8837 161.955 38.1096 162.653 38.1096 163.546V163.752C38.1096 163.824 38.089 163.885 38.0377 163.937C37.9864 163.988 37.9248 164.008 37.8529 164.008H33.9927V164.111C34.0132 164.594 34.1672 165.004 34.4341 165.343C34.7113 165.682 35.0707 165.856 35.5224 165.856C35.8715 165.856 36.1589 165.785 36.3745 165.651C36.5901 165.518 36.7544 165.374 36.8673 165.22C36.9392 165.127 36.9905 165.076 37.0213 165.056C37.0624 165.035 37.124 165.025 37.2061 165.025H37.6989C37.7605 165.025 37.8221 165.045 37.8734 165.076C37.9248 165.117 37.9453 165.158 37.9453 165.22C37.9453 165.384 37.8426 165.579 37.6476 165.805C37.4525 166.031 37.165 166.236 36.7954 166.401C36.4259 166.565 36.0049 166.647 35.5327 166.647C34.7729 166.647 34.1672 166.411 33.7155 165.949ZM37.0932 163.238V163.208C37.0932 162.684 36.9494 162.263 36.6722 161.935C36.3951 161.606 36.0152 161.442 35.5327 161.442C35.0501 161.442 34.6703 161.606 34.3931 161.935C34.1159 162.263 33.9824 162.684 33.9824 163.208V163.238H37.0932Z" fill="#5D83A3"/>
<path d="M39.5363 166.462C39.485 166.411 39.4645 166.349 39.4645 166.277V161.011C39.4645 160.939 39.485 160.877 39.5363 160.826C39.5877 160.775 39.6492 160.744 39.7211 160.744H40.1934C40.2755 160.744 40.3371 160.764 40.3884 160.816C40.4398 160.867 40.4603 160.929 40.4603 161.011V161.504C40.7683 161 41.2816 160.744 42.0106 160.744H42.4418C42.5239 160.744 42.5855 160.764 42.6266 160.816C42.6676 160.857 42.6984 160.918 42.6984 161V161.411C42.6984 161.483 42.6779 161.545 42.6266 161.596C42.5855 161.647 42.5239 161.668 42.4418 161.668H41.8052C41.3946 161.668 41.0763 161.791 40.8402 162.027C40.604 162.263 40.4911 162.592 40.4911 162.992V166.277C40.4911 166.349 40.4603 166.411 40.409 166.462C40.3576 166.514 40.296 166.534 40.2242 166.534H39.7211C39.639 166.544 39.5774 166.514 39.5363 166.462Z" fill="#5D83A3"/>
<path d="M46.2097 166.462C46.1584 166.411 46.1378 166.349 46.1378 166.277V158.885C46.1378 158.803 46.1584 158.742 46.2097 158.701C46.261 158.66 46.3226 158.629 46.3945 158.629H46.8873C46.9592 158.629 47.0208 158.649 47.0721 158.701C47.1234 158.752 47.144 158.814 47.144 158.885V166.277C47.144 166.349 47.1234 166.411 47.0721 166.462C47.0208 166.514 46.9592 166.534 46.8873 166.534H46.3945C46.3226 166.544 46.261 166.514 46.2097 166.462Z" fill="#5D83A3"/>
<path d="M49.2899 165.949C48.8381 165.477 48.5917 164.83 48.5404 164.019L48.5301 163.639L48.5404 163.269C48.5815 162.468 48.8381 161.832 49.2899 161.36C49.7416 160.887 50.3473 160.651 51.1071 160.651C51.9284 160.651 52.5546 160.908 53.0064 161.431C53.4581 161.955 53.684 162.653 53.684 163.546V163.752C53.684 163.824 53.6634 163.885 53.6121 163.937C53.5608 163.988 53.4992 164.008 53.4273 164.008H49.5671V164.111C49.5876 164.594 49.7416 165.004 50.0085 165.343C50.2857 165.682 50.6451 165.856 51.0968 165.856C51.4459 165.856 51.7333 165.785 51.9489 165.651C52.1645 165.518 52.3288 165.374 52.4417 165.22C52.5136 165.127 52.5649 165.076 52.5957 165.056C52.6368 165.035 52.6984 165.025 52.7805 165.025H53.2733C53.3349 165.025 53.3965 165.045 53.4478 165.076C53.4992 165.117 53.5197 165.158 53.5197 165.22C53.5197 165.384 53.417 165.579 53.222 165.805C53.0269 166.031 52.7394 166.236 52.3698 166.401C52.0002 166.565 51.5793 166.647 51.1071 166.647C50.3473 166.647 49.7416 166.411 49.2899 165.949ZM52.6573 163.238V163.208C52.6573 162.684 52.5136 162.263 52.2364 161.935C51.9592 161.606 51.5793 161.442 51.0968 161.442C50.6143 161.442 50.2344 161.606 49.9572 161.935C49.68 162.263 49.5465 162.684 49.5465 163.208V163.238H52.6573Z" fill="#5D83A3"/>
<path d="M55.6242 166.431C55.3162 166.288 55.0698 166.082 54.885 165.826C54.7002 165.569 54.6078 165.281 54.6078 164.973C54.6078 164.481 54.8131 164.08 55.2135 163.772C55.6139 163.464 56.158 163.249 56.8459 163.146L58.5193 162.91V162.592C58.5193 161.832 58.0779 161.442 57.1949 161.442C56.8562 161.442 56.5789 161.514 56.3736 161.647C56.1683 161.781 56.0143 161.945 55.9219 162.13C55.8911 162.201 55.8603 162.253 55.8295 162.284C55.7987 162.314 55.7474 162.325 55.6858 162.325H55.2546C55.1827 162.325 55.1314 162.304 55.08 162.253C55.0287 162.201 55.0082 162.15 55.0082 162.078C55.0082 161.904 55.0903 161.709 55.2443 161.483C55.4086 161.257 55.655 161.062 55.9835 160.898C56.3223 160.733 56.7227 160.651 57.2052 160.651C58.0368 160.651 58.6323 160.846 58.9916 161.226C59.3509 161.616 59.5357 162.099 59.5357 162.674V166.288C59.5357 166.359 59.5152 166.421 59.4639 166.472C59.4125 166.524 59.3509 166.544 59.2791 166.544H58.7863C58.7144 166.544 58.6528 166.524 58.6117 166.472C58.5707 166.421 58.5399 166.359 58.5399 166.288V165.795C58.3756 166.041 58.1395 166.247 57.8315 166.411C57.5235 166.575 57.1231 166.657 56.6303 166.657C56.271 166.647 55.9322 166.575 55.6242 166.431ZM58.0573 165.364C58.3653 165.045 58.5296 164.583 58.5296 163.967V163.659L57.2257 163.844C56.6919 163.916 56.2915 164.049 56.0143 164.224C55.7371 164.399 55.6036 164.624 55.6036 164.891C55.6036 165.199 55.7268 165.425 55.9732 165.589C56.2196 165.754 56.5174 165.836 56.8561 165.836C57.3387 165.836 57.7493 165.682 58.0573 165.364Z" fill="#5D83A3"/>
<path d="M61.5071 165.897C61.117 165.394 60.9116 164.758 60.8808 163.988L60.8706 163.649L60.8808 163.31C60.9116 162.55 61.117 161.914 61.5174 161.401C61.9075 160.887 62.4927 160.641 63.2627 160.641C64.0327 160.641 64.6384 160.918 65.0696 161.462V158.896C65.0696 158.824 65.0901 158.762 65.1415 158.711C65.1928 158.659 65.2544 158.639 65.3263 158.639H65.8293C65.9012 158.639 65.9628 158.659 66.0141 158.711C66.0654 158.762 66.086 158.824 66.086 158.896V166.288C66.086 166.359 66.0654 166.421 66.0141 166.472C65.9628 166.524 65.9012 166.544 65.8293 166.544H65.3468C65.2749 166.544 65.2133 166.524 65.1723 166.472C65.1312 166.421 65.1107 166.359 65.1107 166.288V165.805C64.6897 166.37 64.0737 166.647 63.2729 166.647C62.4824 166.647 61.8972 166.4 61.5071 165.897ZM64.6487 165.261C64.9053 164.912 65.0491 164.501 65.0696 164.029C65.0799 163.947 65.0799 163.803 65.0799 163.608C65.0799 163.403 65.0799 163.259 65.0696 163.177C65.0593 162.725 64.9156 162.335 64.6384 162.006C64.3715 161.678 63.9813 161.514 63.4783 161.514C62.9444 161.514 62.5543 161.678 62.3079 162.017C62.0615 162.355 61.928 162.787 61.9075 163.331L61.8972 163.649C61.8972 165.076 62.4208 165.784 63.4783 165.784C63.9916 165.784 64.3817 165.61 64.6487 165.261Z" fill="#5D83A3"/>
<path d="M20.0405 180.548C19.599 180.086 19.3629 179.48 19.3321 178.71L19.3218 178.228L19.3321 177.745C19.3629 176.985 19.599 176.369 20.0508 175.907C20.5025 175.445 21.1288 175.22 21.9296 175.22C22.7304 175.22 23.3566 175.445 23.8083 175.907C24.2601 176.369 24.4962 176.975 24.527 177.745C24.5373 177.909 24.5475 178.063 24.5475 178.228C24.5475 178.392 24.5373 178.546 24.527 178.71C24.4962 179.47 24.2601 180.086 23.8186 180.548C23.3771 181.01 22.7509 181.236 21.9296 181.236C21.1185 181.246 20.482 181.01 20.0405 180.548ZM23.0589 179.953C23.3361 179.655 23.4901 179.224 23.5106 178.659C23.5209 178.587 23.5209 178.443 23.5209 178.238C23.5209 178.033 23.5209 177.889 23.5106 177.817C23.4901 177.252 23.3361 176.821 23.0589 176.523C22.7817 176.226 22.4018 176.072 21.9296 176.072C21.4573 176.072 21.0774 176.226 20.8002 176.523C20.523 176.821 20.369 177.252 20.3485 177.817L20.3382 178.238L20.3485 178.659C20.369 179.224 20.523 179.655 20.8002 179.953C21.0774 180.25 21.4573 180.404 21.9296 180.404C22.4018 180.404 22.7817 180.261 23.0589 179.953Z" fill="#5D83A3"/>
<path d="M26.0361 183.176C25.9848 183.135 25.9642 183.074 25.9642 182.991V175.599C25.9642 175.517 25.9848 175.456 26.0361 175.415C26.0874 175.374 26.149 175.343 26.2209 175.343H26.6932C26.7753 175.343 26.8369 175.363 26.878 175.415C26.919 175.456 26.9498 175.517 26.9498 175.599V176.092C27.381 175.517 27.997 175.24 28.7875 175.24C29.5678 175.24 30.153 175.487 30.5431 175.979C30.9333 176.472 31.1386 177.098 31.1591 177.868C31.1694 177.95 31.1694 178.074 31.1694 178.248C31.1694 178.423 31.1694 178.546 31.1591 178.628C31.1386 179.388 30.9333 180.014 30.5431 180.507C30.153 181 29.5678 181.256 28.7875 181.256C27.997 181.256 27.3913 180.979 26.9806 180.414V183.012C26.9806 183.084 26.9601 183.145 26.9088 183.197C26.8574 183.248 26.7958 183.269 26.724 183.269H26.2209C26.1388 183.248 26.0772 183.228 26.0361 183.176ZM29.7321 179.87C29.9785 179.532 30.1119 179.1 30.1325 178.556C30.1427 178.484 30.1427 178.371 30.1427 178.238C30.1427 176.811 29.6191 176.103 28.5617 176.103C28.0381 176.103 27.648 176.277 27.3913 176.616C27.1244 176.965 26.9909 177.365 26.9704 177.838C26.9601 177.92 26.9601 178.063 26.9601 178.269C26.9601 178.474 26.9601 178.618 26.9704 178.7C26.9806 179.152 27.1244 179.542 27.4016 179.87C27.6685 180.199 28.0586 180.363 28.5617 180.363C29.0955 180.373 29.4857 180.209 29.7321 179.87Z" fill="#5D83A3"/>
<path d="M32.997 179.183V176.205H32.1141C32.0422 176.205 31.9806 176.185 31.9395 176.133C31.8985 176.092 31.8677 176.031 31.8677 175.959V175.599C31.8677 175.528 31.8882 175.466 31.9395 175.415C31.9806 175.363 32.0422 175.343 32.1141 175.343H32.997V173.485C32.997 173.413 33.0175 173.351 33.0586 173.3C33.0997 173.248 33.1613 173.228 33.2331 173.228H33.7259C33.7978 173.228 33.8594 173.248 33.9107 173.3C33.9621 173.351 33.9826 173.413 33.9826 173.485V175.343H35.3583C35.4302 175.343 35.4918 175.363 35.5431 175.415C35.5944 175.466 35.615 175.528 35.615 175.599V175.959C35.615 176.031 35.5944 176.092 35.5431 176.133C35.4918 176.174 35.4302 176.205 35.3583 176.205H33.9826V179.111C33.9826 179.491 34.0442 179.778 34.1674 179.973C34.2906 180.168 34.4959 180.261 34.7937 180.261H35.4712C35.5431 180.261 35.6047 180.281 35.6458 180.332C35.6868 180.384 35.7176 180.445 35.7176 180.517V180.887C35.7176 180.959 35.6971 181.02 35.6458 181.072C35.6047 181.123 35.5431 181.143 35.4712 181.143H34.7218C33.5719 181.133 32.997 180.486 32.997 179.183Z" fill="#5D83A3"/>
<path d="M36.7956 174.183C36.7443 174.131 36.7238 174.07 36.7238 173.998V173.423C36.7238 173.351 36.7443 173.289 36.7956 173.238C36.847 173.187 36.9086 173.156 36.9804 173.156H37.6375C37.7094 173.156 37.771 173.187 37.8223 173.238C37.8736 173.289 37.9044 173.351 37.9044 173.423V173.998C37.9044 174.07 37.8736 174.131 37.8223 174.183C37.771 174.234 37.7094 174.255 37.6375 174.255H36.9804C36.9086 174.255 36.847 174.224 36.7956 174.183ZM36.888 181.061C36.8367 181.01 36.8162 180.948 36.8162 180.876V175.599C36.8162 175.528 36.8367 175.466 36.888 175.415C36.9394 175.363 37.001 175.343 37.0728 175.343H37.5656C37.6375 175.343 37.6991 175.363 37.7504 175.415C37.8018 175.466 37.8223 175.528 37.8223 175.599V180.876C37.8223 180.948 37.8018 181.01 37.7504 181.061C37.6991 181.113 37.6375 181.133 37.5656 181.133H37.0728C36.9907 181.133 36.9291 181.102 36.888 181.061Z" fill="#5D83A3"/>
<path d="M39.5571 181.061C39.5057 181.01 39.4852 180.948 39.4852 180.877V175.6C39.4852 175.528 39.5057 175.466 39.5571 175.415C39.6084 175.363 39.67 175.343 39.7419 175.343H40.2141C40.286 175.343 40.3476 175.363 40.3887 175.415C40.4297 175.466 40.4605 175.528 40.4605 175.6V175.979C40.8609 175.487 41.405 175.23 42.0826 175.23C42.904 175.23 43.4789 175.569 43.8177 176.257C43.9922 175.949 44.2489 175.692 44.5774 175.507C44.9059 175.322 45.2755 175.23 45.6862 175.23C46.2919 175.23 46.795 175.435 47.1749 175.856C47.565 176.277 47.7498 176.873 47.7498 177.663V180.877C47.7498 180.948 47.7293 181.01 47.6779 181.061C47.6266 181.113 47.565 181.133 47.4931 181.133H47.0106C46.9387 181.133 46.8771 181.113 46.8258 181.061C46.7745 181.01 46.7539 180.948 46.7539 180.877V177.756C46.7539 177.16 46.6307 176.739 46.3843 176.483C46.1379 176.226 45.8197 176.103 45.4193 176.103C45.0599 176.103 44.7519 176.236 44.5056 176.493C44.2489 176.76 44.1257 177.181 44.1257 177.756V180.877C44.1257 180.948 44.1052 181.01 44.0538 181.061C44.0025 181.113 43.9409 181.133 43.869 181.133H43.3762C43.3044 181.133 43.2428 181.113 43.1914 181.061C43.1401 181.01 43.1196 180.948 43.1196 180.877V177.756C43.1196 177.17 42.9964 176.749 42.7397 176.483C42.483 176.216 42.1648 176.092 41.7849 176.092C41.4256 176.092 41.1176 176.226 40.8712 176.483C40.6248 176.739 40.4913 177.16 40.4913 177.745V180.877C40.4913 180.948 40.4708 181.01 40.4194 181.061C40.3681 181.113 40.3065 181.133 40.2347 181.133H39.7419C39.6597 181.133 39.5981 181.102 39.5571 181.061Z" fill="#5D83A3"/>
<path d="M49.3515 174.183C49.3001 174.131 49.2796 174.07 49.2796 173.998V173.423C49.2796 173.351 49.3001 173.289 49.3515 173.238C49.4028 173.187 49.4644 173.156 49.5363 173.156H50.1933C50.2652 173.156 50.3268 173.187 50.3781 173.238C50.4295 173.289 50.4603 173.351 50.4603 173.423V173.998C50.4603 174.07 50.4295 174.131 50.3781 174.183C50.3268 174.234 50.2652 174.255 50.1933 174.255H49.5363C49.4541 174.255 49.3925 174.224 49.3515 174.183ZM49.4336 181.061C49.3823 181.01 49.3617 180.948 49.3617 180.876V175.599C49.3617 175.528 49.3823 175.466 49.4336 175.415C49.4849 175.363 49.5465 175.343 49.6184 175.343H50.1112C50.1831 175.343 50.2447 175.363 50.296 175.415C50.3473 175.466 50.3679 175.528 50.3679 175.599V180.876C50.3679 180.948 50.3473 181.01 50.296 181.061C50.2447 181.113 50.1831 181.133 50.1112 181.133H49.6184C49.5465 181.133 49.4849 181.102 49.4336 181.061Z" fill="#5D83A3"/>
<path d="M51.7333 181.061C51.682 181.01 51.6614 180.948 51.6614 180.876V180.507C51.6614 180.445 51.682 180.384 51.7128 180.322C51.7436 180.26 51.7846 180.199 51.8154 180.148L54.9159 176.195H52.0105C51.9386 176.195 51.877 176.174 51.836 176.123C51.7949 176.072 51.7641 176.01 51.7641 175.938V175.589C51.7641 175.517 51.7846 175.456 51.836 175.404C51.877 175.353 51.9386 175.333 52.0105 175.333H55.9529C56.0247 175.333 56.0863 175.353 56.1377 175.404C56.189 175.456 56.2095 175.517 56.2095 175.589V175.979C56.2095 176.061 56.1582 176.174 56.0555 176.328L52.9961 180.271H56.1787C56.2608 180.271 56.3224 180.291 56.3635 180.332C56.4046 180.373 56.4354 180.445 56.4354 180.517V180.866C56.4354 180.938 56.4148 181 56.3635 181.051C56.3122 181.102 56.2506 181.123 56.1787 181.123H51.9181C51.836 181.133 51.7744 181.102 51.7333 181.061Z" fill="#5D83A3"/>
<path d="M58.0884 180.538C57.6367 180.065 57.3903 179.419 57.339 178.608L57.3287 178.228L57.339 177.858C57.38 177.057 57.6367 176.421 58.0884 175.949C58.5402 175.476 59.1459 175.24 59.9056 175.24C60.7269 175.24 61.3532 175.497 61.8049 176.02C62.2567 176.544 62.4825 177.242 62.4825 178.135V178.341C62.4825 178.412 62.462 178.474 62.4107 178.525C62.3593 178.577 62.2977 178.597 62.2259 178.597H58.3656V178.7C58.3862 179.182 58.5402 179.593 58.8071 179.932C59.0843 180.271 59.4436 180.445 59.8953 180.445C60.2444 180.445 60.5319 180.373 60.7475 180.24C60.9631 180.106 61.1273 179.963 61.2403 179.809C61.3121 179.716 61.3635 179.665 61.3943 179.644C61.4353 179.624 61.4969 179.614 61.5791 179.614H62.0719C62.1335 179.614 62.1951 179.634 62.2464 179.665C62.2977 179.706 62.3183 179.747 62.3183 179.809C62.3183 179.973 62.2156 180.168 62.0205 180.394C61.8255 180.62 61.538 180.825 61.1684 180.989C60.7988 181.154 60.3779 181.236 59.9056 181.236C59.1459 181.246 58.5402 181.01 58.0884 180.538ZM61.4661 177.827V177.796C61.4661 177.273 61.3224 176.852 61.0452 176.523C60.768 176.195 60.3881 176.031 59.9056 176.031C59.4231 176.031 59.0432 176.195 58.766 176.523C58.4888 176.852 58.3554 177.273 58.3554 177.796V177.827H61.4661Z" fill="#5D83A3"/>
<path d="M63.899 181.061C63.8477 181.01 63.8272 180.948 63.8272 180.876V175.61C63.8272 175.538 63.8477 175.476 63.899 175.425C63.9504 175.374 64.012 175.343 64.0838 175.343H64.5561C64.6382 175.343 64.6998 175.363 64.7511 175.415C64.8025 175.466 64.823 175.528 64.823 175.61V176.102C65.131 175.599 65.6443 175.343 66.3733 175.343H66.8045C66.8866 175.343 66.9482 175.363 66.9893 175.415C67.0303 175.466 67.0611 175.517 67.0611 175.599V176.01C67.0611 176.082 67.0406 176.144 66.9893 176.195C66.9482 176.246 66.8866 176.267 66.8045 176.267H66.1679C65.7573 176.267 65.439 176.39 65.2029 176.626C64.9667 176.862 64.8538 177.191 64.8538 177.591V180.876C64.8538 180.948 64.823 181.01 64.7717 181.061C64.7203 181.113 64.6587 181.133 64.5869 181.133H64.0838C64.012 181.133 63.9504 181.102 63.899 181.061Z" fill="#5D83A3"/>
<path d="M193.792 344.793C193.741 344.742 193.72 344.68 193.72 344.608V338.027H191.574C191.503 338.027 191.441 338.007 191.39 337.955C191.338 337.904 191.318 337.842 191.318 337.771V337.339C191.318 337.257 191.338 337.196 191.39 337.144C191.441 337.093 191.503 337.072 191.574 337.072H196.913C196.995 337.072 197.057 337.093 197.098 337.144C197.139 337.196 197.17 337.257 197.17 337.339V337.771C197.17 337.842 197.149 337.904 197.098 337.955C197.047 338.007 196.985 338.027 196.913 338.027H194.778V344.608C194.778 344.68 194.747 344.742 194.696 344.793C194.644 344.844 194.583 344.865 194.511 344.865H193.977C193.895 344.865 193.833 344.844 193.792 344.793Z" fill="#5D83A3"/>
<path d="M197.437 344.793C197.385 344.741 197.365 344.68 197.365 344.608V339.341C197.365 339.269 197.385 339.208 197.437 339.156C197.488 339.105 197.549 339.074 197.621 339.074H198.094C198.176 339.074 198.237 339.095 198.289 339.146C198.34 339.197 198.361 339.259 198.361 339.341V339.834C198.669 339.331 199.182 339.074 199.911 339.074H200.342C200.424 339.074 200.486 339.095 200.527 339.146C200.568 339.197 200.599 339.249 200.599 339.331V339.742C200.599 339.813 200.578 339.875 200.527 339.926C200.486 339.978 200.424 339.998 200.342 339.998H199.705C199.295 339.998 198.977 340.121 198.74 340.358C198.504 340.594 198.391 340.922 198.391 341.323V344.608C198.391 344.68 198.361 344.741 198.309 344.793C198.258 344.844 198.196 344.865 198.124 344.865H197.621C197.549 344.865 197.488 344.844 197.437 344.793Z" fill="#5D83A3"/>
<path d="M202.057 344.762C201.749 344.618 201.502 344.413 201.317 344.156C201.133 343.9 201.04 343.612 201.04 343.304C201.04 342.811 201.246 342.411 201.646 342.103C202.046 341.795 202.59 341.579 203.278 341.477L204.952 341.24V340.922C204.952 340.162 204.51 339.772 203.627 339.772C203.289 339.772 203.011 339.844 202.806 339.978C202.601 340.111 202.447 340.275 202.354 340.46C202.324 340.532 202.293 340.583 202.262 340.614C202.231 340.645 202.18 340.655 202.118 340.655H201.687C201.615 340.655 201.564 340.635 201.513 340.583C201.461 340.532 201.441 340.481 201.441 340.409C201.441 340.234 201.523 340.039 201.677 339.813C201.841 339.588 202.087 339.392 202.416 339.228C202.755 339.064 203.155 338.982 203.638 338.982C204.469 338.982 205.065 339.177 205.424 339.557C205.783 339.947 205.968 340.429 205.968 341.004V344.618C205.968 344.69 205.948 344.752 205.896 344.803C205.845 344.854 205.783 344.875 205.712 344.875H205.219C205.147 344.875 205.085 344.854 205.044 344.803C205.003 344.752 204.972 344.69 204.972 344.618V344.125C204.808 344.372 204.572 344.577 204.264 344.741C203.956 344.906 203.556 344.988 203.063 344.988C202.703 344.977 202.365 344.906 202.057 344.762ZM204.49 343.694C204.798 343.376 204.962 342.914 204.962 342.298V341.99L203.658 342.175C203.124 342.247 202.724 342.38 202.447 342.555C202.17 342.729 202.036 342.955 202.036 343.222C202.036 343.53 202.159 343.756 202.406 343.92C202.652 344.084 202.95 344.166 203.289 344.166C203.781 344.166 204.182 344.012 204.49 343.694Z" fill="#5D83A3"/>
<path d="M208.176 344.793C208.124 344.741 208.104 344.68 208.104 344.608V339.937H207.149C207.077 339.937 207.015 339.916 206.964 339.865C206.913 339.824 206.892 339.762 206.892 339.69V339.331C206.892 339.259 206.913 339.198 206.964 339.146C207.015 339.095 207.077 339.074 207.149 339.074H208.104V338.52C208.104 337.914 208.247 337.452 208.545 337.124C208.843 336.795 209.315 336.631 209.982 336.631H210.64C210.711 336.631 210.773 336.651 210.824 336.703C210.876 336.754 210.896 336.816 210.896 336.888V337.247C210.896 337.319 210.876 337.38 210.824 337.421C210.773 337.462 210.711 337.493 210.64 337.493H210.003C209.664 337.493 209.428 337.586 209.295 337.76C209.161 337.935 209.089 338.212 209.089 338.582V339.085H211.481V338.53C211.481 337.924 211.625 337.462 211.923 337.134C212.221 336.805 212.693 336.641 213.36 336.641H215.023C215.105 336.641 215.167 336.662 215.208 336.713C215.249 336.764 215.28 336.816 215.28 336.898V337.257C215.28 337.329 215.259 337.391 215.208 337.432C215.157 337.473 215.095 337.504 215.023 337.504H213.391C213.052 337.504 212.816 337.596 212.683 337.77C212.549 337.945 212.487 338.222 212.487 338.592V339.095H215.034C215.116 339.095 215.177 339.115 215.218 339.167C215.259 339.218 215.29 339.269 215.29 339.351V344.629C215.29 344.7 215.27 344.762 215.218 344.813C215.167 344.865 215.105 344.885 215.034 344.885H214.551C214.479 344.885 214.418 344.865 214.366 344.813C214.315 344.762 214.294 344.7 214.294 344.629V339.957H212.477V344.629C212.477 344.7 212.457 344.762 212.405 344.813C212.354 344.865 212.292 344.885 212.221 344.885H211.728C211.656 344.885 211.594 344.865 211.553 344.813C211.512 344.762 211.481 344.7 211.481 344.629V339.957H209.089V344.629C209.089 344.7 209.069 344.762 209.017 344.813C208.966 344.865 208.904 344.885 208.833 344.885H208.35C208.288 344.865 208.227 344.844 208.176 344.793Z" fill="#5D83A3"/>
<path d="M217.405 344.31C216.964 343.858 216.728 343.232 216.707 342.421L216.697 341.98L216.707 341.538C216.728 340.727 216.964 340.101 217.405 339.649C217.847 339.197 218.473 338.972 219.264 338.972C219.797 338.972 220.249 339.064 220.619 339.259C220.988 339.444 221.255 339.68 221.44 339.967C221.625 340.255 221.717 340.532 221.738 340.809C221.748 340.881 221.717 340.932 221.666 340.984C221.615 341.035 221.553 341.066 221.481 341.066H220.988C220.916 341.066 220.855 341.045 220.824 341.015C220.783 340.984 220.752 340.922 220.711 340.83C220.578 340.47 220.393 340.204 220.157 340.06C219.921 339.906 219.633 339.834 219.274 339.834C218.802 339.834 218.432 339.978 218.165 340.265C217.888 340.553 217.744 340.994 217.724 341.59L217.713 341.98L217.724 342.37C217.744 342.965 217.898 343.407 218.165 343.694C218.442 343.982 218.812 344.125 219.274 344.125C219.633 344.125 219.931 344.054 220.167 343.9C220.393 343.746 220.578 343.489 220.711 343.13C220.752 343.037 220.783 342.976 220.824 342.945C220.865 342.914 220.916 342.893 220.988 342.893H221.481C221.553 342.893 221.604 342.924 221.666 342.976C221.717 343.027 221.748 343.088 221.738 343.15C221.727 343.427 221.625 343.704 221.44 343.982C221.255 344.269 220.988 344.505 220.619 344.69C220.249 344.885 219.797 344.978 219.264 344.978C218.473 344.978 217.857 344.752 217.405 344.31Z" fill="#5D83A3"/>
<path d="M226.409 344.762C226.101 344.618 225.855 344.413 225.67 344.156C225.485 343.9 225.393 343.612 225.393 343.304C225.393 342.811 225.598 342.411 225.998 342.103C226.399 341.795 226.943 341.579 227.631 341.477L229.304 341.24V340.922C229.304 340.162 228.863 339.772 227.98 339.772C227.641 339.772 227.364 339.844 227.159 339.978C226.953 340.111 226.799 340.275 226.707 340.46C226.676 340.532 226.645 340.583 226.614 340.614C226.584 340.645 226.532 340.655 226.471 340.655H226.039C225.968 340.655 225.916 340.635 225.865 340.583C225.814 340.532 225.793 340.481 225.793 340.409C225.793 340.234 225.875 340.039 226.029 339.813C226.194 339.588 226.44 339.392 226.768 339.228C227.107 339.064 227.508 338.982 227.99 338.982C228.822 338.982 229.417 339.177 229.777 339.557C230.136 339.947 230.321 340.429 230.321 341.004V344.618C230.321 344.69 230.3 344.752 230.249 344.803C230.197 344.854 230.136 344.875 230.064 344.875H229.571C229.499 344.875 229.438 344.854 229.397 344.803C229.356 344.752 229.325 344.69 229.325 344.618V344.125C229.161 344.372 228.924 344.577 228.616 344.741C228.308 344.906 227.908 344.988 227.415 344.988C227.046 344.977 226.717 344.906 226.409 344.762ZM228.842 343.694C229.15 343.376 229.315 342.914 229.315 342.298V341.99L228.011 342.175C227.477 342.247 227.076 342.38 226.799 342.555C226.522 342.729 226.389 342.955 226.389 343.222C226.389 343.53 226.512 343.756 226.758 343.92C227.005 344.084 227.302 344.166 227.641 344.166C228.124 344.166 228.524 344.012 228.842 343.694Z" fill="#5D83A3"/>
<path d="M232.004 344.793C231.953 344.741 231.932 344.68 231.932 344.608V339.331C231.932 339.259 231.953 339.197 232.004 339.146C232.056 339.095 232.117 339.074 232.189 339.074H232.672C232.754 339.074 232.815 339.095 232.856 339.146C232.897 339.187 232.928 339.249 232.928 339.331V339.824C233.154 339.546 233.411 339.341 233.698 339.187C233.996 339.043 234.355 338.961 234.797 338.961C235.505 338.961 236.06 339.187 236.46 339.649C236.85 340.101 237.045 340.707 237.045 341.456V344.608C237.045 344.68 237.025 344.741 236.973 344.793C236.922 344.844 236.86 344.865 236.788 344.865H236.275C236.203 344.865 236.142 344.844 236.09 344.793C236.039 344.741 236.018 344.68 236.018 344.608V341.528C236.018 340.994 235.885 340.583 235.628 340.286C235.372 339.988 235.002 339.844 234.52 339.844C234.047 339.844 233.667 339.998 233.38 340.296C233.093 340.594 232.959 341.015 232.959 341.538V344.618C232.959 344.69 232.939 344.752 232.887 344.803C232.836 344.854 232.774 344.875 232.702 344.875H232.189C232.117 344.865 232.056 344.844 232.004 344.793Z" fill="#5D83A3"/>
<path d="M239.253 344.762C238.945 344.618 238.698 344.413 238.513 344.156C238.329 343.9 238.236 343.612 238.236 343.304C238.236 342.811 238.442 342.411 238.842 342.103C239.242 341.795 239.786 341.579 240.474 341.477L242.148 341.24V340.922C242.148 340.162 241.706 339.772 240.823 339.772C240.485 339.772 240.207 339.844 240.002 339.978C239.797 340.111 239.643 340.275 239.55 340.46C239.519 340.532 239.489 340.583 239.458 340.614C239.427 340.645 239.376 340.655 239.314 340.655H238.883C238.811 340.655 238.76 340.635 238.708 340.583C238.657 340.532 238.637 340.481 238.637 340.409C238.637 340.234 238.719 340.039 238.873 339.813C239.037 339.588 239.283 339.392 239.612 339.228C239.951 339.064 240.351 338.982 240.834 338.982C241.665 338.982 242.261 339.177 242.62 339.557C242.979 339.947 243.164 340.429 243.164 341.004V344.618C243.164 344.69 243.144 344.752 243.092 344.803C243.041 344.854 242.979 344.875 242.907 344.875H242.415C242.343 344.875 242.281 344.854 242.24 344.803C242.199 344.752 242.168 344.69 242.168 344.618V344.125C242.004 344.372 241.768 344.577 241.46 344.741C241.152 344.906 240.751 344.988 240.259 344.988C239.889 344.977 239.561 344.906 239.253 344.762ZM241.686 343.694C241.994 343.376 242.158 342.914 242.158 342.298V341.99L240.854 342.175C240.32 342.247 239.92 342.38 239.643 342.555C239.365 342.729 239.232 342.955 239.232 343.222C239.232 343.53 239.355 343.756 239.602 343.92C239.848 344.084 240.146 344.166 240.485 344.166C240.967 344.166 241.367 344.012 241.686 343.694Z" fill="#5D83A3"/>
<path d="M244.858 344.793C244.807 344.741 244.786 344.68 244.786 344.608V337.216C244.786 337.134 244.807 337.072 244.858 337.031C244.91 336.99 244.971 336.959 245.043 336.959H245.536C245.608 336.959 245.669 336.98 245.721 337.031C245.772 337.083 245.792 337.144 245.792 337.216V344.608C245.792 344.68 245.772 344.741 245.721 344.793C245.669 344.844 245.608 344.865 245.536 344.865H245.043C244.971 344.865 244.91 344.844 244.858 344.793Z" fill="#5D83A3"/>
<path d="M248.307 346.918C248.266 346.877 248.246 346.825 248.246 346.764C248.246 346.743 248.266 346.671 248.297 346.569L249.17 344.536L247.045 339.516C247.004 339.423 246.973 339.362 246.973 339.331C246.983 339.269 247.004 339.208 247.055 339.167C247.096 339.126 247.147 339.095 247.209 339.095H247.722C247.845 339.095 247.928 339.156 247.989 339.269L249.704 343.366L251.459 339.269C251.521 339.146 251.603 339.095 251.726 339.095H252.229C252.291 339.095 252.342 339.115 252.383 339.167C252.424 339.208 252.455 339.259 252.455 339.321C252.455 339.372 252.435 339.444 252.404 339.526L249.252 346.825C249.211 346.887 249.18 346.928 249.139 346.959C249.098 346.99 249.047 347 248.975 347H248.482C248.4 346.979 248.348 346.959 248.307 346.918Z" fill="#5D83A3"/>
<path d="M254.078 344.731C253.728 344.567 253.462 344.372 253.297 344.156C253.123 343.941 253.041 343.766 253.041 343.622C253.041 343.55 253.061 343.489 253.123 343.448C253.174 343.407 253.225 343.386 253.287 343.386H253.759C253.8 343.386 253.841 343.396 253.862 343.407C253.893 343.417 253.924 343.458 253.965 343.509C254.139 343.715 254.324 343.879 254.54 344.002C254.755 344.125 255.032 344.177 255.392 344.177C255.792 344.177 256.11 344.105 256.357 343.951C256.593 343.807 256.716 343.592 256.716 343.304C256.716 343.119 256.665 342.965 256.562 342.863C256.459 342.75 256.285 342.647 256.049 342.565C255.813 342.472 255.453 342.38 254.971 342.277C254.324 342.134 253.872 341.928 253.605 341.661C253.338 341.394 253.205 341.045 253.205 340.624C253.205 340.347 253.287 340.08 253.451 339.834C253.616 339.577 253.862 339.372 254.18 339.208C254.498 339.043 254.889 338.972 255.33 338.972C255.802 338.972 256.192 339.054 256.531 339.208C256.86 339.362 257.106 339.546 257.281 339.752C257.445 339.957 257.527 340.132 257.527 340.275C257.527 340.337 257.507 340.399 257.455 340.44C257.404 340.481 257.353 340.512 257.281 340.512H256.86C256.757 340.512 256.685 340.47 256.634 340.388C256.511 340.245 256.398 340.142 256.316 340.06C256.234 339.978 256.11 339.916 255.946 339.854C255.782 339.803 255.576 339.772 255.33 339.772C254.971 339.772 254.683 339.844 254.498 339.998C254.303 340.152 254.211 340.358 254.211 340.604C254.211 340.758 254.252 340.891 254.334 340.994C254.416 341.097 254.57 341.199 254.806 341.292C255.032 341.384 255.381 341.477 255.833 341.579C256.542 341.723 257.034 341.939 257.332 342.216C257.63 342.493 257.773 342.842 257.773 343.273C257.773 343.592 257.681 343.879 257.496 344.146C257.312 344.403 257.045 344.608 256.685 344.762C256.326 344.906 255.895 344.988 255.402 344.988C254.858 344.978 254.427 344.895 254.078 344.731Z" fill="#5D83A3"/>
<path d="M259.026 337.914C258.974 337.863 258.954 337.801 258.954 337.729V337.154C258.954 337.082 258.974 337.021 259.026 336.969C259.077 336.918 259.139 336.887 259.21 336.887H259.868C259.939 336.887 260.001 336.918 260.052 336.969C260.104 337.021 260.134 337.082 260.134 337.154V337.729C260.134 337.801 260.104 337.863 260.052 337.914C260.001 337.965 259.939 337.986 259.868 337.986H259.21C259.139 337.996 259.077 337.965 259.026 337.914ZM259.118 344.793C259.067 344.741 259.046 344.68 259.046 344.608V339.331C259.046 339.259 259.067 339.197 259.118 339.146C259.169 339.095 259.231 339.074 259.303 339.074H259.796C259.868 339.074 259.929 339.095 259.98 339.146C260.032 339.197 260.052 339.259 260.052 339.331V344.608C260.052 344.68 260.032 344.741 259.98 344.793C259.929 344.844 259.868 344.864 259.796 344.864H259.303C259.221 344.864 259.159 344.844 259.118 344.793Z" fill="#5D83A3"/>
<path d="M262.393 344.731C262.044 344.567 261.777 344.372 261.613 344.156C261.439 343.941 261.356 343.766 261.356 343.622C261.356 343.55 261.377 343.489 261.439 343.448C261.49 343.407 261.541 343.386 261.603 343.386H262.075C262.116 343.386 262.157 343.396 262.178 343.407C262.209 343.417 262.239 343.458 262.28 343.509C262.455 343.715 262.64 343.879 262.855 344.002C263.071 344.125 263.348 344.177 263.707 344.177C264.108 344.177 264.426 344.105 264.673 343.951C264.909 343.807 265.032 343.592 265.032 343.304C265.032 343.119 264.981 342.965 264.878 342.863C264.775 342.75 264.601 342.647 264.365 342.565C264.128 342.472 263.769 342.38 263.287 342.277C262.64 342.134 262.188 341.928 261.921 341.661C261.654 341.394 261.521 341.045 261.521 340.624C261.521 340.347 261.603 340.08 261.767 339.834C261.931 339.577 262.178 339.372 262.496 339.208C262.814 339.043 263.204 338.972 263.646 338.972C264.118 338.972 264.508 339.054 264.847 339.208C265.176 339.362 265.422 339.546 265.596 339.752C265.761 339.957 265.843 340.132 265.843 340.275C265.843 340.337 265.822 340.399 265.771 340.44C265.72 340.481 265.668 340.512 265.596 340.512H265.176C265.073 340.512 265.001 340.47 264.95 340.388C264.826 340.245 264.714 340.142 264.631 340.06C264.549 339.978 264.426 339.916 264.262 339.854C264.098 339.803 263.892 339.772 263.646 339.772C263.287 339.772 262.999 339.844 262.814 339.998C262.619 340.152 262.527 340.358 262.527 340.604C262.527 340.758 262.568 340.891 262.65 340.994C262.732 341.097 262.886 341.199 263.122 341.292C263.348 341.384 263.697 341.477 264.149 341.579C264.857 341.723 265.35 341.939 265.648 342.216C265.946 342.493 266.089 342.842 266.089 343.273C266.089 343.592 265.997 343.879 265.812 344.146C265.627 344.403 265.36 344.608 265.001 344.762C264.642 344.906 264.211 344.988 263.718 344.988C263.184 344.978 262.753 344.895 262.393 344.731Z" fill="#5D83A3"/>
<path d="M216.337 245.319C216.276 245.257 216.235 245.175 216.235 245.093V236.664C216.235 236.572 216.266 236.49 216.327 236.428C216.389 236.366 216.461 236.336 216.563 236.336H220.239C221.368 236.336 222.251 236.592 222.888 237.106C223.524 237.619 223.853 238.368 223.853 239.354C223.853 240.34 223.534 241.079 222.888 241.572C222.251 242.064 221.368 242.301 220.239 242.301H218.76V245.103C218.76 245.185 218.73 245.268 218.668 245.329C218.606 245.391 218.524 245.422 218.432 245.422H216.563C216.471 245.422 216.399 245.381 216.337 245.319ZM220.177 240.432C220.536 240.432 220.814 240.34 221.019 240.155C221.224 239.97 221.327 239.693 221.327 239.334C221.327 238.995 221.235 238.728 221.05 238.512C220.865 238.307 220.578 238.204 220.187 238.204H218.73V240.432H220.177Z" fill="#5D83A3"/>
<path d="M225.157 245.32C225.095 245.258 225.054 245.176 225.054 245.094V236.665C225.054 236.573 225.085 236.491 225.146 236.429C225.208 236.367 225.28 236.337 225.383 236.337H229.058C230.187 236.337 231.07 236.593 231.707 237.107C232.343 237.62 232.672 238.369 232.672 239.355C232.672 240.341 232.354 241.08 231.707 241.573C231.07 242.065 230.187 242.301 229.058 242.301H227.58V245.104C227.58 245.186 227.549 245.268 227.487 245.33C227.426 245.392 227.344 245.422 227.251 245.422H225.383C225.29 245.422 225.218 245.381 225.157 245.32ZM228.986 240.433C229.346 240.433 229.623 240.341 229.828 240.156C230.033 239.971 230.136 239.694 230.136 239.334C230.136 238.996 230.044 238.729 229.859 238.513C229.674 238.308 229.387 238.205 228.996 238.205H227.539V240.433H228.986Z" fill="#5D83A3"/>
<path d="M234.725 244.652C234.016 244.057 233.647 243.184 233.606 242.034C233.595 241.798 233.595 241.418 233.595 240.895C233.595 240.361 233.595 239.971 233.606 239.724C233.647 238.595 234.027 237.733 234.745 237.117C235.464 236.511 236.429 236.203 237.651 236.203C238.421 236.203 239.109 236.326 239.725 236.583C240.33 236.829 240.813 237.199 241.172 237.671C241.532 238.143 241.716 238.708 241.727 239.355C241.727 239.437 241.696 239.499 241.644 239.55C241.593 239.601 241.521 239.632 241.439 239.632H239.591C239.468 239.632 239.386 239.612 239.324 239.56C239.273 239.509 239.222 239.427 239.17 239.293C239.047 238.872 238.862 238.575 238.616 238.4C238.369 238.236 238.041 238.143 237.63 238.143C236.655 238.143 236.142 238.688 236.111 239.776C236.101 240.012 236.101 240.371 236.101 240.854C236.101 241.336 236.101 241.706 236.111 241.963C236.142 243.051 236.655 243.595 237.63 243.595C238.031 243.595 238.359 243.513 238.616 243.338C238.873 243.164 239.057 242.866 239.17 242.455C239.201 242.322 239.252 242.24 239.314 242.188C239.376 242.137 239.468 242.117 239.591 242.117H241.439C241.521 242.117 241.583 242.147 241.644 242.199C241.696 242.25 241.727 242.312 241.727 242.394C241.706 243.041 241.521 243.605 241.172 244.077C240.813 244.55 240.33 244.919 239.725 245.166C239.119 245.412 238.421 245.546 237.651 245.546C236.398 245.546 235.423 245.248 234.725 244.652Z" fill="#5D83A3"/>
<path d="M220.705 56.4337L222.976 58.7277C225.166 60.9407 228.731 60.9417 230.923 58.7277C232.921 56.7087 233.097 53.5353 231.45 51.3135L241.141 41.5234C241.455 41.2071 241.455 40.6934 241.141 40.3766L238.871 38.0826C238.557 37.7658 238.049 37.7658 237.736 38.0826L237.168 38.6565L234.329 35.7891C234.016 35.4723 233.508 35.4723 233.194 35.7891L231.491 37.5097L233.194 39.2298C233.508 39.5466 233.508 40.0603 233.194 40.3771C232.881 40.6939 232.372 40.6934 232.059 40.3776L230.356 38.6574L228.653 40.3776C228.339 40.6943 228.339 41.2076 228.653 41.5243L231.491 44.3917L228.045 47.8723C225.844 46.2089 222.703 46.3855 220.705 48.4049C218.514 50.6184 218.514 54.2202 220.705 56.4337ZM222.976 50.6984C223.814 49.8519 225.093 49.7714 226.014 50.3938C226.321 50.6019 228.391 52.7286 228.652 52.9929C229.591 53.9413 229.591 55.4849 228.653 56.4337C228.652 56.4342 228.652 56.4342 228.652 56.4342C227.714 57.3825 226.185 57.3835 225.246 56.4347C224.957 56.1431 222.878 54.0791 222.673 53.7696C222.055 52.8348 222.141 51.542 222.976 50.6984Z" fill="white"/>
<path d="M226.179 278.799C232.991 278.799 238.513 284.321 238.513 291.133C238.513 293.901 237.59 296.448 236.05 298.506L243.247 305.704L240.214 308.737L232.927 301.45C230.987 302.721 228.672 303.466 226.179 303.466C219.368 303.466 213.845 297.944 213.845 291.133C213.845 284.321 219.368 278.799 226.179 278.799ZM226.179 300.249C231.206 300.249 235.296 296.159 235.296 291.133C235.296 286.106 231.206 282.016 226.179 282.016C221.152 282.016 217.063 286.106 217.063 291.133C217.063 296.159 221.152 300.249 226.179 300.249Z" fill="white"/>
<path d="M228.861 288.988H232.078V296.495H228.861V288.988Z" fill="white"/>
<path d="M224.57 284.698H227.788V296.495H224.57V284.698Z" fill="white"/>
<path d="M220.28 286.843H223.498V296.495H220.28V286.843Z" fill="white"/>
<path d="M354.07 170.668C354.372 170.513 354.708 170.432 355.057 170.432C355.635 170.432 356.179 170.656 356.588 171.064L357.47 170.182C359.653 170.947 362.177 170.457 363.921 168.713C365.389 167.245 365.968 165.225 365.659 163.321C365.625 163.112 365.477 162.939 365.275 162.873C365.073 162.808 364.851 162.861 364.701 163.011L363.391 164.321C362.325 165.387 360.596 165.387 359.53 164.321C358.463 163.255 358.463 161.526 359.53 160.459L360.839 159.15C360.989 159 361.043 158.778 360.977 158.576C360.912 158.373 360.739 158.225 360.529 158.191C358.625 157.882 356.606 158.461 355.138 159.929C353.367 161.7 352.891 164.273 353.705 166.477L351.792 168.39L354.07 170.668Z" fill="white"/>
<path d="M350.585 174.134L348.317 171.865L340.384 179.798C339.353 180.829 339.353 182.501 340.384 183.533C341.416 184.564 343.088 184.564 344.119 183.533L350.958 176.694C350.268 176.001 350.144 174.954 350.585 174.134Z" fill="white"/>
<path d="M355.645 172.016C355.483 171.854 355.27 171.773 355.058 171.773C354.845 171.773 354.632 171.854 354.47 172.016L353.996 172.489L345.561 164.054L345.955 163.66C346.315 163.3 346.27 162.705 345.86 162.403L342.419 159.868C342.088 159.625 341.629 159.659 341.339 159.95L339.877 161.411C339.587 161.702 339.552 162.161 339.796 162.491L342.33 165.933C342.632 166.343 343.227 166.388 343.587 166.028L343.981 165.634L352.417 174.069L351.91 174.576C351.585 174.901 351.585 175.427 351.91 175.751L359.692 183.533C360.723 184.564 362.396 184.564 363.427 183.533C364.458 182.502 364.458 180.829 363.427 179.798L355.645 172.016Z" fill="white"/>
<path d="M112.766 164.735C113.506 164.6 114.39 164.505 115.673 164.505V162.841C113.723 162.841 112.58 163.049 111.589 163.284L112.766 164.735Z" fill="white"/>
<path d="M102.005 163.284C101.014 163.049 99.8702 162.841 97.9207 162.841V164.505C99.204 164.505 100.087 164.6 100.827 164.735L102.005 163.284Z" fill="white"/>
<path d="M106.797 163.951C108.913 163.951 109.943 163.693 111.033 163.421C111.216 163.375 111.399 163.329 111.589 163.284L113.688 158.113L113.079 157.746C112.977 157.684 110.536 156.24 106.797 156.24C103.058 156.24 100.617 157.684 100.515 157.746L99.9057 158.113L102.005 163.284C102.194 163.329 102.378 163.375 102.561 163.421C103.651 163.693 104.68 163.951 106.797 163.951Z" fill="white"/>
<path d="M116.361 170.69C115.385 168.348 114.136 166.288 112.766 164.735C112.286 164.823 111.866 164.928 111.437 165.035C110.297 165.32 109.118 165.615 106.797 165.615C104.475 165.615 103.297 165.32 102.157 165.035C101.728 164.928 101.308 164.823 100.827 164.735C99.4487 166.298 98.1918 168.377 97.2133 170.735C96.0787 173.471 95.4279 176.322 95.4279 178.557C95.4279 180.451 95.8939 181.828 96.8526 182.766C98.534 184.411 101.36 184.35 104.633 184.279C105.334 184.263 106.058 184.248 106.797 184.248C107.536 184.248 108.26 184.263 108.961 184.279C109.613 184.293 110.247 184.307 110.858 184.307C113.314 184.307 115.395 184.084 116.741 182.766C117.7 181.828 118.166 180.451 118.166 178.557C118.166 176.307 117.508 173.44 116.361 170.69ZM105.905 172.438C106.353 172.79 107.156 173.1 107.882 173.356C110.6 174.303 110.178 178.036 107.579 178.782V180.039H105.915V178.863C105.05 178.795 104.327 178.279 103.531 177.751L104.442 176.358L105.139 176.813C105.73 177.2 105.97 177.238 106.742 177.233C107.961 177.28 108.737 175.436 107.328 174.925C106.102 174.492 105.392 174.151 104.878 173.748C103.384 172.559 104.172 170.055 105.915 169.52V168.333H107.579V169.399C108.644 169.592 109.072 169.924 109.828 170.315L109.038 171.78C109.038 171.78 108.306 171.385 108.306 171.385C107.725 171.038 106.037 170.573 105.763 171.922C105.751 172.007 105.724 172.296 105.905 172.438Z" fill="white"/>
</svg>
