<svg width="497" height="426" viewBox="0 0 497 426" fill="none" xmlns="http://www.w3.org/2000/svg">
<path opacity="0.38" d="M65.6112 420.983C65.6112 420.983 -33.7294 347.525 17.851 277.983C69.4314 208.441 171.641 233.136 272.9 190.876C374.159 148.616 413.41 132.624 450.366 169.938C486.485 206.396 419.05 276.795 465.86 337.895C516.489 403.995 452.038 416.001 439.84 421H65.6112V420.983Z" fill="#DEE2E7"/>
<path d="M307 285.409C331.894 302.656 344.785 313.335 347.07 287.098C352.696 222.392 408.334 188.394 448.864 188.411" stroke="#80A5F9" stroke-width="1.0183" stroke-miterlimit="10" stroke-linecap="round" stroke-linejoin="round" stroke-dasharray="2.04 2.04"/>
<path d="M469.649 177.1C469.802 176.998 459.35 177.237 459.35 177.237L453.757 191.311L463.186 183.856L474.184 187.779L496.078 182.798L469.649 177.1Z" fill="#5B84F8"/>
<path d="M496.078 182.798L453.774 191.311L463.186 183.856L496.078 182.798Z" fill="#4174E5"/>
<path d="M496.078 182.798L454.797 169.031L459.35 177.237L496.078 182.798L463.186 183.856L470.757 198.151L496.078 182.798Z" fill="#80A5F9"/>
<path d="M399.099 114.135H365.304C360.786 114.135 357.137 110.484 357.137 105.964C357.137 101.443 360.786 97.7925 365.304 97.7925H399.099C403.618 97.7925 407.266 101.443 407.266 105.964C407.266 110.467 403.6 114.135 399.099 114.135Z" fill="#06D2FF"/>
<path d="M375.313 105.98C375.313 107.14 374.392 108.078 373.233 108.078C372.073 108.078 371.135 107.157 371.135 105.997C371.135 104.837 372.056 103.899 373.216 103.899C374.375 103.899 375.313 104.82 375.313 105.98Z" fill="white"/>
<path d="M384.282 105.946C384.282 107.106 383.361 108.045 382.202 108.045C381.042 108.045 380.104 107.106 380.104 105.964C380.104 104.803 381.025 103.865 382.185 103.865C383.344 103.865 384.282 104.803 384.282 105.946Z" fill="white"/>
<path d="M393.251 105.93C393.251 107.09 392.33 108.028 391.17 108.028C390.011 108.028 389.073 107.09 389.073 105.947C389.073 104.787 389.994 103.848 391.153 103.848C392.313 103.831 393.251 104.77 393.251 105.93Z" fill="white"/>
<path d="M130.006 80.9132H68.7761C62.8254 80.9132 58 76.0854 58 70.1318V13.1713C58 8.66771 61.6489 5 66.1674 5H130.006C134.507 5 138.173 8.65065 138.173 13.1713V72.7418C138.173 77.2455 134.507 80.9132 130.006 80.9132Z" fill="#FFD943"/>
<path d="M109.937 20.3362L117.064 21.4109L96.7908 34.5635L93.0055 29.4287L77.8643 38.2483" stroke="white" stroke-width="1.4507" stroke-miterlimit="10" stroke-linecap="round" stroke-linejoin="round"/>
<path d="M114.524 28.3198L117.064 21.4109" stroke="white" stroke-width="1.4507" stroke-miterlimit="10" stroke-linecap="round" stroke-linejoin="round"/>
<path d="M86.6284 48.3643H79.5011V62.5063H86.6284V48.3643Z" fill="white"/>
<path d="M96.5691 44.219H89.4418V62.5064H96.5691V44.219Z" fill="white"/>
<path d="M106.766 39.8176H99.6383V62.5063H106.766V39.8176Z" fill="white"/>
<path d="M117.064 36.0647H109.937V62.5063H117.064V36.0647Z" fill="white"/>
<path d="M65.2078 409.821H58.7966C57.1086 409.821 55.7445 408.457 55.7445 406.768V400.746C55.7445 399.057 57.1086 397.692 58.7966 397.692H65.2078C66.8958 397.692 68.2599 399.057 68.2599 400.746V406.768C68.2599 408.457 66.8958 409.821 65.2078 409.821Z" fill="#4084FB"/>
<path d="M465.499 379.569H395.454C393.766 379.569 392.402 378.204 392.402 376.515C392.402 374.826 393.766 373.462 395.454 373.462H465.499C467.187 373.462 468.551 374.826 468.551 376.515C468.551 378.204 467.187 379.569 465.499 379.569Z" fill="#FFD943"/>
<path opacity="0.38" d="M371.221 169.014H340.955C338.347 169.014 336.232 166.899 336.232 164.289C336.232 161.679 338.347 159.564 340.955 159.564H371.221C373.83 159.564 375.944 161.679 375.944 164.289C375.944 166.899 373.83 169.014 371.221 169.014Z" fill="#DEE2E7"/>
<path opacity="0.38" d="M195.699 214.972H151.878C149.269 214.972 147.155 212.856 147.155 210.246C147.155 207.636 149.269 205.521 151.878 205.521H195.699C198.307 205.521 200.422 207.636 200.422 210.246C200.422 212.856 198.307 214.972 195.699 214.972Z" fill="#DEE2E7"/>
<path d="M65.7598 360.913H16.0222C14.4365 360.913 13.1406 362.209 13.1406 363.796V364.137C13.1406 365.724 14.4365 367.02 16.0222 367.02H65.7598C67.3455 367.02 68.6414 365.724 68.6414 364.137V363.796C68.6414 362.209 67.3626 360.913 65.7598 360.913Z" fill="#FFD943"/>
<path d="M432.216 346.167H406.776C405.19 346.167 403.894 347.463 403.894 349.05V349.391C403.894 350.978 405.19 352.274 406.776 352.274H432.216C433.802 352.274 435.098 350.978 435.098 349.391V349.05C435.098 347.463 433.802 346.167 432.216 346.167Z" fill="#5B84F8"/>
<path d="M470.089 209.615C470.089 212.396 467.838 214.648 465.059 214.648C462.28 214.648 460.029 212.396 460.029 209.615C460.029 206.835 462.28 204.583 465.059 204.583C467.838 204.583 470.089 206.835 470.089 209.615Z" fill="#FFD943"/>
<path d="M320.46 64.0324C320.46 66.8131 318.209 69.0649 315.43 69.0649C312.651 69.0649 310.4 66.8131 310.4 64.0324C310.4 61.2518 312.651 59 315.43 59C318.209 59 320.46 61.2518 320.46 64.0324Z" fill="#5B84F8"/>
<path opacity="0.38" d="M408.948 185.977C408.948 189.833 405.827 192.954 401.974 192.954C398.12 192.954 395 189.833 395 185.977C395 182.122 398.12 179 401.974 179C405.827 179 408.948 182.122 408.948 185.977Z" stroke="#CED3D8" stroke-width="2.0366" stroke-miterlimit="10"/>
<path opacity="0.38" d="M20.7153 413.915C20.7153 417.771 17.5949 420.893 13.7414 420.893C9.88793 420.893 6.76761 417.771 6.76761 413.915C6.76761 410.06 9.88793 406.938 13.7414 406.938C17.5949 406.955 20.7153 410.077 20.7153 413.915Z" stroke="#CED3D8" stroke-width="2.0366" stroke-miterlimit="10"/>
<path opacity="0.38" d="M91.4583 122.921C91.4583 126.094 88.9006 128.652 85.7291 128.652C82.5577 128.652 80 126.094 80 122.921C80 119.748 82.5577 117.189 85.7291 117.189C88.9006 117.189 91.4583 119.765 91.4583 122.921Z" fill="#DEE2E7"/>
<path opacity="0.38" d="M424.458 278.732C424.458 281.905 421.901 284.464 418.729 284.464C415.558 284.464 413 281.905 413 278.732C413 275.559 415.558 273 418.729 273C421.884 273 424.458 275.559 424.458 278.732Z" fill="#DEE2E7"/>
<g opacity="0.1">
<path d="M101.06 323.819L101.82 324.835L109.135 319.361C110.5 320.61 111.637 321.974 113.136 323L109.053 332.197L109.153 332.334L109.101 332.392L115.824 335.3L122.54 338.225L122.549 338.201L122.722 338.28L126.623 329.165C128.405 329.555 130.217 329.822 132.044 329.956L133.178 339.805L133.366 339.787L133.369 339.815L140.651 338.944L147.939 338.104L147.933 338.073L148.121 338.055L146.948 328.218C148.675 327.667 149.939 326.403 151.603 325.594L157.057 332.955L157.261 332.8L163.077 328.437L171.243 324.236L171.176 324.147L165.293 316.283C166.069 315.269 167.06 313.933 168.081 312.432L176.859 316.591L182.596 303.049L173.435 299.173C173.84 297.331 174.074 295.498 174.217 293.617L184.031 292.484L182.301 277.718L172.472 278.866C171.909 277.082 171.216 275.331 170.389 273.614L178.321 267.699L169.45 255.767L161.511 261.686C160.113 260.401 158.635 259.232 157.09 258.181L161.006 249.081L147.367 243.196L143.445 252.302C141.609 251.894 139.745 251.623 137.869 251.483L136.714 241.637L121.959 243.373L123.114 253.206C121.336 253.773 119.584 254.467 117.876 255.298L111.962 247.361L100.053 256.251L105.97 264.194C104.69 265.601 103.522 267.077 102.473 268.624L93.3887 264.715L87.5178 278.382L96.6115 282.297C96.2102 284.136 95.9396 286.002 95.8028 287.884L85.9702 289.047L87.7184 303.819L97.5388 302.653C98.0921 304.385 99.3509 305.649 100.154 307.317L92.7958 312.77L92.2121 311.991L91.0081 312.892L95.4227 318.807L99.8191 324.738L101.06 323.819ZM125.696 278.309C132.549 273.17 142.269 274.567 147.401 281.429C152.53 288.289 151.134 298.022 144.281 303.161C137.428 308.301 127.711 306.9 122.582 300.044C117.453 293.178 118.843 283.448 125.696 278.309Z" fill="#06589C"/>
</g>
<path opacity="0.1" d="M131.731 372.726L131.299 369.097L140.958 367.94L141.39 371.569L131.731 372.726ZM143.798 371.277L143.381 367.648L153.047 366.534L153.463 370.163L143.798 371.277ZM114.966 370.132C114.735 370.132 114.504 370.087 114.285 370.001C114.166 369.977 114.051 369.94 113.938 369.892L107.049 366.89L108.505 363.541L114.002 365.934L114.03 365.873L117.38 367.319L116.644 369.03C116.45 369.484 116.079 369.837 115.62 370.014C115.407 370.093 115.188 370.132 114.966 370.132ZM154.698 368.954L153.542 359.281L157.166 358.849L158.322 368.522L154.698 368.954ZM129.885 368.111L128.769 358.432L132.393 358.012L133.509 367.691L129.885 368.111ZM104.82 365.916L102.984 365.115L95.8939 362.049L97.3411 358.694L106.274 362.564L104.82 365.916ZM118.335 365.075L114.981 363.635L118.815 354.681L122.169 356.121L118.335 365.075ZM170.991 361.443C170.903 361.443 170.815 361.437 170.726 361.425C170.246 361.355 169.814 361.096 169.525 360.706L167.06 357.379L169.991 355.202L171.365 357.056L174.372 354.8L176.558 357.723L172.085 361.078C171.766 361.315 171.383 361.443 170.991 361.443ZM92.8748 361.251L90.1932 358.773L90.8773 358.03C90.9047 357.896 90.9442 357.765 91.0019 357.64L94.0666 350.739L97.4019 352.224L94.6504 358.423C94.699 358.928 94.5409 359.449 94.1761 359.842L92.8748 361.251ZM153.253 356.861L152.685 352.099C152.582 351.229 153.107 350.41 153.941 350.142C154.695 349.901 155.439 349.545 156.361 348.988L157.92 348.041L159.808 351.168L158.249 352.115C157.622 352.492 157.039 352.809 156.473 353.068L156.874 356.426L153.253 356.861ZM131.098 356.645L129.28 356.49C127.222 356.313 125.136 356.03 123.084 355.649L121.29 355.317L121.953 351.725L123.747 352.057C125.686 352.416 127.654 352.681 129.596 352.848L131.414 353.004L131.098 356.645ZM178.507 356.261L176.321 353.339L179.726 350.784C179.808 350.723 179.896 350.668 179.984 350.623L184.855 348.117L186.521 351.366L181.787 353.801L178.507 356.261ZM165.609 355.418L159.815 347.593L162.745 345.417L168.54 353.241L165.609 355.418ZM188.683 350.251L187.017 347.003L191.383 344.756L191.085 344.357L194.006 342.168L195.6 344.299C195.922 344.729 196.037 345.28 195.916 345.803C195.794 346.327 195.451 346.771 194.973 347.018L188.683 350.251ZM98.387 350.002L95.0517 348.516L97.0705 343.971C97.0462 343.952 97.0249 343.934 97.0006 343.916L95.5807 342.768L97.8732 339.924L99.293 341.072C99.6579 341.367 100.008 341.629 100.36 341.87C101.087 342.366 101.354 343.313 100.999 344.12L98.387 350.002ZM80.8684 348.202C80.312 348.202 79.7648 347.95 79.406 347.472L79.257 347.274L78.7006 347.691C78.3115 347.983 77.825 348.108 77.3446 348.035C76.8643 347.965 76.4325 347.706 76.1437 347.316L74.3772 344.933L77.3081 342.756L77.9831 343.666L78.5334 343.252C79.3391 342.646 80.4823 342.811 81.0873 343.62L81.2363 343.821L84.45 341.416L86.6329 344.342L81.9599 347.84C81.6315 348.084 81.2485 348.202 80.8684 348.202ZM72.927 342.975L67.126 335.163L70.0478 332.977L75.8579 340.798L72.927 342.975ZM88.5818 342.884L86.3988 339.958L91.7134 335.982C92.4127 335.458 93.3886 335.504 94.0362 336.094C94.3646 336.393 94.6838 336.697 95 337.002L96.3104 338.271L93.7748 340.895L92.6681 339.824L88.5818 342.884ZM189.625 342.406L183.794 334.609L186.472 332.599L183.615 330.492L184.697 329.022C185.676 327.688 186.609 326.37 187.473 325.103C187.977 324.358 188.95 324.096 189.762 324.479L192.508 325.779L190.948 329.083L189.604 328.446C188.975 329.348 188.318 330.267 187.637 331.189L186.725 332.432L192.55 340.22L189.625 342.406ZM201.939 334.289L193.143 330.121L194.703 326.818L202.361 330.447L206.119 321.581L209.479 323.009L205.678 331.978L203.474 331.04L201.939 334.289ZM65.6696 333.211L61.7749 327.99C61.1729 327.183 61.3371 326.038 62.1428 325.435L64.721 323.502L66.9071 326.425L65.7882 327.265L68.5914 331.025L65.6696 333.211ZM68.5337 327.204L66.3628 324.266L74.1826 318.469L76.3535 321.407L68.5337 327.204ZM210.431 320.765L207.071 319.337L210.871 310.368L214.231 311.796L210.431 320.765ZM77.1075 319.681L76.244 318.071C75.8032 317.245 75.2893 316.472 74.7482 315.653C74.1644 314.773 73.5624 313.863 73.0456 312.87L72.2003 311.251L75.4353 309.561L76.2805 311.181C76.7092 312.003 77.2352 312.797 77.7885 313.635C78.351 314.487 78.9347 315.367 79.4577 316.341L80.3211 317.952L77.1075 319.681ZM56.2536 314.006L55.1074 304.331L58.7315 303.901L59.8777 313.577L56.2536 314.006ZM62.1945 313.415L61.7658 309.786L71.4281 308.639L71.8568 312.268L62.1945 313.415ZM209.978 311.668L201.015 307.877L202.434 304.513L211.397 308.304L209.978 311.668ZM198.774 306.928L197.004 306.179C196.196 305.835 195.743 304.964 195.931 304.105C196.332 302.285 196.639 300.409 196.877 298.375L197.086 296.561L200.257 296.929L199.862 293.489L209.528 292.372L209.944 296.001L200.701 297.069L200.501 298.796C200.312 300.403 200.084 301.919 199.801 303.393L200.194 303.557L198.774 306.928ZM54.8216 301.913L53.6754 292.238L57.2995 291.808L58.4457 301.484L54.8216 301.913ZM212.364 295.727L211.948 292.098L212.981 291.979L212.395 286.974L216.019 286.547L216.818 293.37C216.876 293.851 216.736 294.335 216.438 294.716C216.137 295.096 215.699 295.34 215.216 295.398L212.364 295.727ZM53.6085 289.991L53.1798 286.362L62.8421 285.217L63.2708 288.846L53.6085 289.991ZM65.6848 288.563L65.2561 284.934L69.3606 284.447C69.388 284.167 69.4154 283.889 69.4458 283.612L69.6434 281.795L73.2705 282.188L73.076 284.002C72.9969 284.733 72.93 285.479 72.8753 286.216C72.8114 287.089 72.1395 287.796 71.27 287.896L65.6848 288.563ZM212.109 284.553L210.975 274.878L214.599 274.451L215.733 284.127L212.109 284.553ZM73.6202 279.953L70.0447 279.222L70.2819 278.062L65.1619 275.858L66.603 272.503L73.0912 275.295C73.8938 275.639 74.3407 276.506 74.1522 277.362C74.0945 277.63 74.0367 277.895 73.982 278.163L73.6202 279.953ZM62.9272 274.896L56.813 272.262C56.3692 272.071 56.0195 271.711 55.8401 271.261C55.6607 270.81 55.6668 270.308 55.8584 269.863L57.0715 267.035L60.422 268.478L59.9294 269.626L64.3683 271.538L62.9272 274.896ZM196.147 273.191C195.359 273.191 194.651 272.683 194.408 271.915C194.295 271.559 194.18 271.203 194.061 270.847L193.48 269.114L196.94 267.951L197.418 269.376L202.644 268.764L203.067 272.393L196.36 273.176C196.287 273.188 196.217 273.191 196.147 273.191ZM210.692 272.457L210.583 271.516L205.481 272.113L205.058 268.484L211.972 267.677C212.975 267.559 213.878 268.277 213.994 269.279L214.316 272.031L210.692 272.457ZM192.657 267.007L191.915 265.339C191.656 264.758 191.383 264.167 191.103 263.592C190.723 262.803 190.954 261.856 191.656 261.332L196.408 257.789L198.588 260.721L195.031 263.372C195.104 263.534 195.177 263.692 195.247 263.853L195.989 265.522L192.657 267.007ZM61.3827 266.243L58.0322 264.8L61.8753 255.849L65.2257 257.292L61.3827 266.243ZM200.54 259.265L198.36 256.333L203.137 252.771L203.061 252.671L205.986 250.488L207.15 252.056C207.439 252.445 207.56 252.933 207.494 253.411C207.424 253.889 207.165 254.321 206.779 254.61L200.54 259.265ZM80.458 256.017L71.5193 252.171L72.9604 248.816L81.8991 252.662L80.458 256.017ZM66.1865 255.055L62.836 253.612L65.4325 247.562C65.8308 246.636 66.904 246.207 67.8283 246.606L70.7258 247.854L69.2846 251.209L68.0624 250.683L66.1865 255.055ZM84.2858 254.427L81.3822 252.214L82.4859 250.762C83.3706 249.599 84.3071 248.448 85.283 247.331L84.8999 246.816L87.8248 244.63L89.1017 246.341C89.6247 247.044 89.576 248.019 88.9862 248.664C87.7214 250.052 86.5113 251.505 85.3925 252.975L84.2858 254.427ZM201.607 250.719L195.797 242.904L198.725 240.721L204.535 248.536L201.607 250.719ZM83.4436 244.861L77.6243 237.052L80.5492 234.866L86.3684 242.676L83.4436 244.861ZM176.74 244.383L175.351 243.199C173.852 241.92 172.283 240.706 170.681 239.585L169.185 238.541L171.274 235.545L172.77 236.589C174.466 237.777 176.132 239.065 177.719 240.42L179.109 241.604L176.74 244.383ZM180.915 243.638L178.735 240.706L186.539 234.888L188.719 237.819L180.915 243.638ZM194.344 240.952L190.838 236.239L190.668 236.367L188.488 233.435L190.121 232.218C190.93 231.615 192.073 231.782 192.675 232.592L197.269 238.772L194.344 240.952ZM79.5367 235.591L77.3568 232.662L85.1553 226.838L87.3353 229.767L79.5367 235.591ZM174.086 235.183L170.736 233.737L174.585 224.789L177.935 226.235L174.086 235.183ZM107.064 234.748C106.502 234.748 105.954 234.489 105.602 234.014L103.623 231.356L106.547 229.17L107.636 230.631C108.609 230.187 109.597 229.764 110.591 229.368L112.285 228.692L113.634 232.087L111.941 232.762C110.558 233.314 109.183 233.919 107.861 234.565C107.605 234.687 107.332 234.748 107.064 234.748ZM113.844 230.08L112.71 220.405L116.334 219.978L117.468 229.654L113.844 230.08ZM148.784 229.855C148.653 229.855 148.52 229.84 148.389 229.812C147.306 229.572 146.197 229.359 145.096 229.176L143.296 228.878L143.889 225.273L145.689 225.571C146.361 225.681 147.033 225.803 147.699 225.937L148.872 223.215L152.223 224.661L150.459 228.753C150.167 229.432 149.499 229.855 148.784 229.855ZM102.166 229.401L97.0401 222.521L89.2872 228.311L87.1072 225.382L94.9058 219.558L96.3956 221.559L99.2748 219.409L105.094 227.218L102.166 229.401ZM138.052 228.387L136.915 218.712L140.539 218.286L141.676 227.961L138.052 228.387ZM177.215 224.667L168.279 220.81L169.723 217.455L178.659 221.309L177.215 224.667ZM153.183 222.423L149.833 220.977L153.685 212.032L157.036 213.478L153.183 222.423ZM166.047 219.848L157.112 215.99L158.556 212.635L167.491 216.489L166.047 219.848ZM112.424 217.984L111.92 213.673C111.862 213.192 111.999 212.708 112.3 212.328C112.601 211.947 113.039 211.703 113.519 211.646L118.876 211.015L119.302 214.644L115.757 215.062L116.048 217.558L112.424 217.984ZM136.632 216.291L136.206 212.656L133.798 212.939L133.372 209.31L137.592 208.814C138.59 208.695 139.499 209.414 139.617 210.416L140.256 215.865L136.632 216.291ZM121.716 214.361L121.29 210.732L130.952 209.597L131.378 213.226L121.716 214.361Z" fill="#06589C"/>
<path opacity="0.1" d="M134.999 317.831C133.959 317.831 132.91 317.77 131.883 317.645L132.315 314.016C134.093 314.229 135.933 314.226 137.708 314.013L138.146 317.639C137.112 317.767 136.051 317.831 134.999 317.831ZM125.793 316.153C123.835 315.41 121.968 314.43 120.241 313.233L122.315 310.225C123.799 311.251 125.404 312.095 127.085 312.734L125.793 316.153ZM144.236 316.141L142.941 312.725C144.619 312.085 146.224 311.242 147.708 310.213L149.785 313.218C148.058 314.415 146.191 315.398 144.236 316.141ZM115.547 309.074C114.154 307.503 112.954 305.768 111.978 303.917L115.206 302.212C116.046 303.804 117.076 305.296 118.274 306.648L115.547 309.074ZM154.47 309.056L151.739 306.633C152.937 305.281 153.968 303.786 154.804 302.191L158.033 303.89C157.06 305.747 155.862 307.482 154.47 309.056ZM109.749 298.047C109.25 296.019 108.995 293.925 108.992 291.818L112.64 291.815C112.643 293.626 112.862 295.432 113.291 297.173L109.749 298.047ZM160.259 298.017L156.717 297.146C157.145 295.404 157.361 293.599 157.361 291.787V291.733H161.01V291.787C161.01 293.894 160.757 295.989 160.259 298.017ZM113.279 286.453L109.734 285.586C110.232 283.549 110.977 281.57 111.95 279.71L115.182 281.406C114.346 283.004 113.708 284.703 113.279 286.453ZM156.704 286.38C156.273 284.633 155.625 282.937 154.783 281.342L158.009 279.634C158.988 281.491 159.742 283.464 160.246 285.5L156.704 286.38ZM118.244 276.964L115.51 274.543C116.897 272.972 118.475 271.569 120.193 270.375L122.272 273.377C120.795 274.403 119.439 275.609 118.244 276.964ZM151.709 276.909C150.511 275.56 149.152 274.357 147.668 273.334L149.739 270.326C151.463 271.517 153.044 272.914 154.436 274.482L151.709 276.909ZM127.037 270.859L125.735 267.446C127.69 266.7 129.739 266.192 131.822 265.939L132.263 269.565C130.475 269.782 128.718 270.217 127.037 270.859ZM142.895 270.832C141.214 270.196 139.45 269.766 137.66 269.553L138.088 265.924C140.174 266.171 142.223 266.673 144.184 267.413L142.895 270.832Z" fill="white"/>
<path d="M324.19 422.73H170.499C158.028 422.73 147.824 412.513 147.824 400.024V53.7436C147.824 41.2548 158.028 31.0374 170.499 31.0374H324.19C336.661 31.0374 346.865 41.2548 346.865 53.7436V400.024C346.865 412.513 336.661 422.73 324.19 422.73Z" fill="white"/>
<path d="M324.19 424.557H170.499C156.991 424.557 146 413.551 146 400.024V53.7436C146 40.2167 156.991 29.2107 170.499 29.2107H324.19C337.698 29.2107 348.689 40.2167 348.689 53.7436V400.024C348.689 413.551 337.698 424.557 324.19 424.557ZM170.496 32.8641C158.998 32.8641 149.645 42.2322 149.645 53.7436V400.024C149.645 411.538 159.001 420.903 170.496 420.903H324.187C335.685 420.903 345.038 411.535 345.038 400.024V53.7436C345.038 42.2292 335.682 32.8641 324.187 32.8641H170.496Z" fill="#06589C"/>
<path d="M334.269 83.2512H160.421V345.149H334.269V83.2512Z" fill="#06589C"/>
<path d="M273.683 60.9987H221.003C219.054 60.9987 217.458 59.4003 217.458 57.4488V57.2965C217.458 55.345 219.054 53.7466 221.003 53.7466H273.686C275.635 53.7466 277.231 55.345 277.231 57.2965V57.4488C277.231 59.4003 275.635 60.9987 273.683 60.9987Z" fill="white"/>
<path d="M273.683 62.8255H221.003C218.041 62.8255 215.633 60.4142 215.633 57.4488V57.2966C215.633 54.3312 218.041 51.9199 221.003 51.9199H273.686C276.647 51.9199 279.055 54.3312 279.055 57.2966V57.4488C279.055 60.4112 276.644 62.8255 273.683 62.8255ZM221.003 55.5703C220.054 55.5703 219.282 56.3436 219.282 57.2935V57.4458C219.282 58.3957 220.054 59.169 221.003 59.169H273.686C274.635 59.169 275.407 58.3957 275.407 57.4458V57.2935C275.407 56.3436 274.635 55.5703 273.686 55.5703H221.003Z" fill="#06589C"/>
<path d="M259.783 394.979H234.903C229.446 394.979 224.982 390.509 224.982 385.044C224.982 379.579 229.446 375.11 234.903 375.11H259.783C265.24 375.11 269.703 379.579 269.703 385.044C269.703 390.506 265.24 394.979 259.783 394.979Z" fill="white"/>
<path d="M259.783 375.11C265.24 375.11 269.703 379.579 269.703 385.044C269.703 390.509 265.24 394.979 259.783 394.979H234.903C229.446 394.979 224.983 390.509 224.983 385.044C224.983 379.579 229.446 375.11 234.903 375.11H259.783ZM259.783 371.457H234.903C227.421 371.457 221.334 377.552 221.334 385.044C221.334 392.537 227.421 398.632 234.903 398.632H259.783C267.265 398.632 273.352 392.537 273.352 385.044C273.352 377.552 267.265 371.457 259.783 371.457Z" fill="#06589C"/>
<path opacity="0.1" d="M334.266 83.3821H160.487L160.421 345.149L334.266 83.3821Z" fill="white"/>
<path d="M475 421.022H8V424.675H475V421.022Z" fill="#06589C"/>
<path d="M254.356 218.261L288.317 314.91L304.08 280.554L330.166 308.077L345.271 292.698L320.062 265.482L352.566 249.598L254.356 218.261Z" fill="#F3C729"/>
<path d="M254.356 218.261L288.317 314.91L304.08 280.554L330.166 308.077L337.98 300.12L254.399 218.277L254.356 218.261Z" fill="#AF8300"/>
<path d="M256.032 169L250.945 200.307L254.655 200.911L259.742 169.604L256.032 169Z" fill="#FFFBFC"/>
<path d="M216.311 184.396L213.973 187.343L238.775 207.073L241.113 204.125L216.311 184.396Z" fill="#FFFBFC"/>
<path d="M237.303 217.516L208 229.562L209.428 233.045L238.731 220.998L237.303 217.516Z" fill="#FFFBFC"/>
<path d="M247.115 227.385L243.311 258.876L247.043 259.328L250.847 227.837L247.115 227.385Z" fill="#FFFBFC"/>
<path d="M291.007 193.441L262.22 206.677L263.789 210.098L292.576 196.862L291.007 193.441Z" fill="#FFFBFC"/>
<path d="M348.221 69.1227L360.446 51.4948C355.409 46.1557 352.322 38.9555 352.322 31.0303C352.322 14.5671 365.65 1.22144 382.09 1.22144C398.531 1.22144 411.858 14.5671 411.858 31.0303C411.858 47.4935 398.531 60.8392 382.09 60.8392C377.767 60.8392 373.66 59.9147 369.953 58.2552L348.221 69.1227Z" fill="#5D83A3"/>
<path d="M348.221 70.3448C347.875 70.3448 347.536 70.1982 347.298 69.9233C346.934 69.5018 346.899 68.8848 347.218 68.4266L358.888 51.601C353.86 45.9198 351.102 38.6544 351.102 31.0327C351.102 13.9199 365.003 0 382.09 0C399.178 0 413.078 13.9199 413.078 31.0306C413.078 48.1414 399.178 62.0613 382.09 62.0613C377.887 62.0613 373.818 61.2345 369.987 59.6035L348.768 70.2145C348.593 70.302 348.406 70.3448 348.221 70.3448ZM382.09 2.44352C366.349 2.44352 353.542 15.2679 353.542 31.0306C353.542 38.3591 356.31 45.3293 361.335 50.6562C361.731 51.0756 361.778 51.717 361.451 52.1915L351.948 65.8956L369.41 57.1641C369.737 57.0012 370.119 56.993 370.453 57.1417C374.125 58.7849 378.042 59.6198 382.094 59.6198C397.835 59.6198 410.642 46.7954 410.642 31.0327C410.638 15.2679 397.831 2.44352 382.09 2.44352Z" fill="#5D83A3"/>
<path d="M395.499 30.5273L385.214 24.4491L374.926 18.3708V30.5273V42.6838L385.214 36.6056L395.499 30.5273Z" fill="white"/>
<path d="M374.926 43.906C374.717 43.906 374.51 43.853 374.32 43.7451C373.94 43.5272 373.706 43.122 373.706 42.6842V18.3712C373.706 17.9334 373.94 17.5282 374.32 17.3103C374.701 17.0924 375.168 17.0965 375.545 17.3185L396.117 29.475C396.489 29.6949 396.717 30.094 396.717 30.5277C396.717 30.9594 396.489 31.3605 396.117 31.5805L375.545 43.7369C375.355 43.8489 375.14 43.906 374.926 43.906ZM376.146 20.5113V40.5461L393.099 30.5297L376.146 20.5113Z" fill="white"/>
<path d="M4.21478 419.925C4.21478 423.115 27.6063 425.709 56.4745 425.709C85.3428 425.709 108.734 423.115 108.717 419.925C108.717 416.734 85.3257 414.141 56.4575 414.141C27.6233 414.141 4.21478 416.717 4.21478 419.925Z" fill="#8CE0E3"/>
<path d="M105.885 176.285C106.277 175.841 108.29 174.118 109.075 170.791C109.911 167.208 108.256 159.274 111.839 160.912C113.596 164.495 116.087 168.488 116.087 168.488C116.94 170.757 115.968 175.875 114.569 178.042C113.596 179.544 111.754 183.655 111.754 183.655C111.754 183.655 106.243 184.048 106.055 184.099L105.475 182.512C106.277 180.738 105.663 178.196 105.885 176.285Z" fill="#FFD1B9"/>
<path d="M103.854 223.171C103.854 223.171 111.242 221.499 112.231 213.429C112.828 208.447 113.101 182.718 113.101 182.718L103.154 182.308C103.154 182.308 94.4701 213.667 95.7839 216.346C98.5308 221.976 103.103 223.665 103.854 223.171Z" fill="#68D6B6"/>
<path d="M66.7793 192.22L98.2579 207.32L103.53 223.119L91.1774 221.089L60.7906 212.66L66.7793 192.22Z" fill="#68D6B6"/>
<path d="M53.3159 409.62L53.5036 417.86L60.26 417.997C60.26 417.997 60.6524 416.973 61.2325 416.99C61.7103 417.007 62.3074 418.048 62.9728 418.048C64.3889 418.082 65.9586 418.116 66.5899 418.116C67.8524 418.151 80.1368 418.406 80.1368 418.406C80.1368 418.406 80.4781 416.888 80.1198 416.359C79.9321 416.086 78.806 415.591 78.0724 415.352C74.6089 414.209 64.696 410.643 63.0411 406.958C60.9937 402.471 53.3159 409.62 53.3159 409.62Z" fill="#FFCFB1"/>
<path d="M80.2065 416.7C80.343 417.366 80.1041 418.423 80.1041 418.423C80.1041 418.423 67.8368 418.168 66.5572 418.133C65.9259 418.116 64.3562 418.082 62.9401 418.065C62.2917 418.048 61.6775 417.007 61.1998 417.007C60.6368 416.99 60.2273 418.014 60.2273 418.014L53.4709 417.877L53.1979 416.137L80.2065 416.7Z" fill="#FFAB7F"/>
<path d="M67.785 413.203C67.9215 413.425 68.3309 413.186 68.8428 412.777C70.0883 411.77 69.9859 411.889 69.6617 411.702C69.4399 411.582 69.184 411.463 68.4674 412.06C67.9556 412.487 67.6314 412.998 67.785 413.203Z" fill="white"/>
<path d="M65.9769 412.298C66.1134 412.52 66.5229 412.281 67.0348 411.872C68.2803 410.865 68.1779 410.985 67.8537 410.797C67.6319 410.678 67.376 410.541 66.6594 411.155C66.1476 411.582 65.8234 412.077 65.9769 412.298Z" fill="white"/>
<path d="M64.322 411.258C64.4585 411.479 64.868 411.241 65.3798 410.831C66.6253 409.824 66.5229 409.944 66.1988 409.756C65.977 409.637 65.721 409.5 65.0044 410.114C64.4926 410.541 64.1684 411.036 64.322 411.258Z" fill="white"/>
<path d="M64.2201 408.493L53.1471 409.603L48.9329 359.697C48.8305 356.558 49.2229 353.419 50.0589 350.382L53.8296 336.937L43.439 267.974L74.7471 256.236C74.7471 256.236 75.2419 349.699 64.2201 408.493Z" fill="#162873"/>
<path d="M0.23718 420.693C-0.223484 421.58 0.23718 423.559 0.23718 423.559C0.23718 423.559 10.6789 424.259 13.9718 423.235C14.8249 422.962 16.241 422.075 17.5888 421.119C17.8106 420.966 18.1689 420.061 18.3907 419.908C18.8002 419.618 19.0391 420.061 19.3803 419.788C20.2675 419.106 20.8988 418.56 20.8988 418.509C21.5301 413.237 20.1993 411.206 20.1993 411.206C20.1993 411.206 13.3746 408.34 11.8561 410.677C8.23908 416.171 1.56799 418.133 0.23718 420.693Z" fill="#FFCFB1"/>
<path d="M0 421.819C3.22465 422.092 9.99811 422.638 11.2095 422.313C16.2256 421.034 19.092 417.963 21.037 416.052C21.037 416.785 20.9858 417.587 20.8664 418.492C20.8493 418.56 20.2351 419.089 19.3479 419.771C19.0066 420.044 18.7678 419.601 18.3583 419.891C18.1365 420.044 17.7782 420.948 17.5564 421.102C16.2256 422.04 14.8095 422.945 13.9393 423.218C10.6465 424.258 0.204738 423.542 0.204738 423.542C0.204738 423.542 0 422.672 0 421.819Z" fill="#FFAB7F"/>
<path d="M5.37477 416.581C5.34065 416.803 5.78424 416.905 6.36434 416.837C7.54159 416.7 8.73591 416.717 9.94728 416.837C10.5444 416.905 11.0392 416.786 11.0563 416.547C11.0733 416.308 10.5956 416.018 9.99847 415.967C8.80415 415.847 7.6269 415.864 6.46671 416.001C5.88662 416.069 5.40889 416.342 5.37477 416.581Z" fill="white"/>
<path d="M7.28511 414.909C7.26805 415.148 7.71165 415.284 8.27468 415.284C9.43487 415.267 10.6292 415.369 11.8235 415.608C12.4207 415.728 12.8984 415.659 12.8984 415.404C12.8984 415.165 12.4207 414.823 11.8406 414.721C10.6633 414.499 9.48606 414.397 8.32587 414.431C7.7799 414.448 7.31924 414.687 7.28511 414.909Z" fill="white"/>
<path d="M9.14577 413.39C9.12871 413.629 9.57231 413.817 10.1524 413.868C11.3126 413.953 12.4898 414.175 13.6671 414.516C14.2472 414.687 14.7249 414.653 14.7249 414.397C14.7249 414.141 14.2472 413.765 13.6842 413.612C12.524 413.288 11.3467 413.083 10.2036 413.015C9.62349 412.964 9.16283 413.151 9.14577 413.39Z" fill="white"/>
<path d="M46.083 267.445L48.3181 265.671L74.7465 256.219C74.7465 256.219 74.8489 260.433 74.5588 275.277L47.0385 298.344L46.083 267.445Z" fill="#162873"/>
<path d="M33.8168 272.188L10.0158 411.77L20.1846 411.207C20.1846 411.207 38.1334 376.367 39.3789 352.77C39.7713 345.297 41.631 337.961 44.9922 331.256C58.8121 303.65 67.8206 259.341 67.8206 259.341L33.8168 272.188Z" fill="#162873"/>
<path d="M43.3364 275.396C41.9885 280.685 39.3952 285.667 35.8293 289.813" stroke="#97D2FF" stroke-width="0.4688" stroke-miterlimit="10"/>
<path d="M68.3655 268.537C68.6726 273.11 70.0546 277.614 72.3579 281.589" stroke="#97D2FF" stroke-width="0.4688" stroke-miterlimit="10"/>
<path d="M53.2658 269.885C52.9587 273.007 52.6516 276.146 52.3445 279.269C52.2421 280.378 52.1397 281.572 52.7198 282.545C53.2829 283.5 54.8013 283.961 55.535 283.108" stroke="#97D2FF" stroke-width="0.4688" stroke-miterlimit="10"/>
<path d="M57.7362 268.776C56.6102 278.399 55.2282 288.005 53.6073 297.576" stroke="#97D2FF" stroke-width="0.4688" stroke-miterlimit="10"/>
<path d="M57.4972 189.559L46.4412 191.026C43.1995 191.47 40.3502 193.364 38.6782 196.162C37.7739 197.663 35.4536 203.789 35.3683 205.529L33.8156 272.172L75.0195 263.47L73.3474 203.823C71.8801 196.469 71.9825 195.445 69.628 193.586L66.6081 192.033C62.6498 190.259 60.4318 189.15 57.4972 189.559Z" fill="#68D6B6"/>
<path d="M50.7581 179.868L51.2358 177.309L58.8112 182.274L58.777 185.618C57.2244 185.362 55.723 184.901 54.324 184.236C52.6007 183.178 51.3894 181.625 50.7581 179.868Z" fill="#FDD5BD"/>
<path d="M65.363 181.267C66.5915 180.704 67.6664 180.039 68.0588 179.288C69.4237 172.6 59.3573 160.366 59.3573 160.366L52.6009 160.401L47.2607 167.993L50.8607 177.513C51.8161 180.056 54.0512 181.932 56.8834 182.581C59.7327 182.905 62.7014 182.495 65.363 181.267Z" fill="#FFB78F"/>
<path d="M65.363 181.267C66.5915 180.704 67.6664 180.039 68.0588 179.288C69.4237 172.6 59.3573 160.366 59.3573 160.366L52.6009 160.401L47.2607 167.993L50.8607 177.513C51.8161 180.056 54.0512 181.932 56.8834 182.581C59.7327 182.905 62.7014 182.495 65.363 181.267Z" fill="#FDD5BD"/>
<path d="M48.3529 193.091L50.7757 179.851C51.3899 181.608 52.6183 183.161 54.3245 184.236C55.7235 184.901 57.225 185.362 58.7776 185.618L58.6923 193.074C58.6923 193.074 56.3207 195.599 53.8126 195.855C49.7861 196.247 48.3529 193.091 48.3529 193.091Z" fill="#FDD5BD"/>
<path d="M50.6735 172.821C50.4005 171.081 48.6432 167.549 50.3664 167.123C51.6289 166.816 55.7237 165.28 57.0716 164.7C60.2963 163.335 65.5171 159.65 63.4185 154.77C62.3778 152.33 59.0849 151.239 57.3105 151.256C55.5702 151.273 53.8981 152.006 52.6185 153.166C49.5986 155.913 46.0498 160.622 44.0024 161.049C40.573 161.748 38.2014 164.939 39.3958 167.584C40.6583 170.416 44.0024 174.067 46.5787 176.2C48.0801 177.428 49.7692 178.384 51.5948 179.032L50.6735 172.821Z" fill="#162873"/>
<path d="M48.8476 172.548C49.4959 171.73 50.9632 171.61 52.1234 172.258C53.2836 172.907 53.6931 174.101 53.0447 174.903C52.3964 175.722 50.9291 175.841 49.7689 175.193C48.6087 174.545 48.1992 173.367 48.8476 172.548Z" fill="#FDD5BD"/>
<path d="M64.2201 177.258C63.6571 177.275 62.5481 176.831 62.0704 176.166C63.3329 175.995 65.1073 175.21 65.9434 174.255C65.9775 175.057 65.8581 175.807 65.5168 176.473C65.3292 176.831 64.6126 177.241 64.2201 177.258Z" fill="white"/>
<path d="M106.38 169.768C107.233 169.631 107.932 170.467 107.625 171.269C107.574 171.389 107.523 171.525 107.455 171.644C107.13 172.293 106.619 172.873 105.953 173.163C106.038 173.794 108.205 173.794 108.7 176.695C108.837 177.462 109.963 182.103 109.263 182.393C108.137 182.871 104.844 182.479 103.957 182.393C102.933 179.032 102.507 175.5 102.848 172.003C102.899 171.406 103.036 170.706 103.564 170.399C103.769 170.28 104.008 170.228 104.247 170.194C104.964 170.041 105.663 169.887 106.38 169.768Z" fill="#FFD1B9"/>
<path d="M44.4285 191.999C44.4285 191.999 35.6929 191.641 31.4446 205.819C27.1962 219.997 21.9583 247.91 21.0882 255.4C20.8664 257.26 19.5185 265.756 25.0465 262.736C30.5744 259.716 40.982 243.133 45.674 217.745C48.6768 201.485 46.6977 193.04 44.4285 191.999Z" fill="#68D6B6"/>
<path d="M22.9137 259.154C22.9137 259.154 30.7108 246.835 35.3345 245.965C39.9582 245.095 57.3099 242.757 57.3099 242.757L57.2587 252.653C57.2587 252.653 25.7629 264.255 23.016 263.675C20.2691 263.078 22.5383 259.972 22.9137 259.154Z" fill="#68D6B6"/>
<path d="M56.6439 244.071L67.2391 241.87C67.7169 241.767 68.2116 241.75 68.6894 241.802L71.897 242.16L69.4401 244.924C69.3377 245.043 69.3377 245.231 69.4571 245.35L71.0098 246.886C71.6069 247.466 72.3917 247.824 73.2278 247.893L75.7188 248.08L80.8543 248.131L78.7899 251.168C78.7899 251.168 78.1415 252.09 76.8448 252.653C76.0259 253.011 73.1083 253.967 71.078 254.632C69.7643 255.059 68.3311 254.837 67.205 254.018L66.8296 253.745L62.0865 249.872L57.0192 250.537L56.6439 244.071Z" fill="#FDD5BD"/>
<path d="M42.8413 192.152C42.8925 194.541 44.1892 196.827 46.0831 198.277C47.9769 199.728 50.4167 200.393 52.8053 200.291C55.4157 200.188 57.9921 199.216 59.9371 197.476C61.8821 195.735 63.1617 193.244 63.3494 190.651" stroke="#F4F4F4" stroke-width="0.4688" stroke-miterlimit="10"/>
<path d="M43.3197 222.556C43.3368 223.17 36.9557 245.914 36.9557 245.914L52.9595 243.064L40.4363 242.723L43.3197 222.556Z" fill="#63CCAD"/>
<path d="M34.1406 260.894L57.1055 250.742L34.1406 266.029V260.894Z" fill="#63CCAD"/>
<path d="M128.299 164.734C136.534 156.499 136.534 143.147 128.299 134.912C120.063 126.676 106.711 126.676 98.4757 134.912C90.2404 143.147 90.2404 156.499 98.4757 164.734C106.711 172.97 120.063 172.97 128.299 164.734Z" fill="#97D2FF"/>
<path d="M125.011 160.725C125.011 160.725 125.011 159.872 125.011 159.446C124.994 155.18 121.514 151.751 117.248 151.768C115.832 151.768 110.936 151.802 109.537 151.802C105.271 151.819 101.842 155.3 101.859 159.565C101.859 160.009 101.859 160.845 101.859 160.845L125.011 160.725Z" fill="white"/>
<path d="M118.495 142.742C118.512 145.591 116.226 147.895 113.376 147.912C110.527 147.929 108.224 145.643 108.207 142.793C108.19 139.944 110.476 137.641 113.325 137.624C116.174 137.607 118.478 139.893 118.495 142.742Z" fill="white"/>
</svg>
