<svg width="138" height="119" viewBox="0 0 138 119" fill="none" xmlns="http://www.w3.org/2000/svg">
<g opacity="0.08">
<path d="M16.6034 37.1759C21.7143 29.5989 27.9754 22.8003 35.3607 17.1521C55.4064 1.83371 82.7423 -2.62083 102.814 15.1973C114.151 25.2654 124.33 38.655 127.59 53.7399C130.799 68.5912 124.693 90.5612 107.354 93.3291C95.9563 95.1541 84.1692 91.1407 72.9789 94.8427C60.2492 99.0551 49.8891 108.371 36.9432 112.306C27.2749 115.247 15.1333 114.962 7.47993 107.558C0.821067 101.114 -0.796085 90.9072 0.328138 81.704C2.27391 65.8493 7.71342 50.3406 16.6034 37.1759Z" fill="#F3C729"/>
<path d="M18.8605 19.3924C24.2145 19.3924 28.5547 15.0512 28.5547 9.69619C28.5547 4.34113 24.2145 0 18.8605 0C13.5065 0 9.16622 4.34113 9.16622 9.69619C9.16622 15.0512 13.5065 19.3924 18.8605 19.3924Z" fill="#F3C729"/>
<path d="M131.612 32.2889C134.797 32.2889 137.38 29.7059 137.38 26.5196C137.38 23.3334 134.797 20.7504 131.612 20.7504C128.426 20.7504 125.843 23.3334 125.843 26.5196C125.843 29.7059 128.426 32.2889 131.612 32.2889Z" fill="#F3C729"/>
<path d="M68.2658 114.028C68.2658 116.259 66.4584 118.067 64.2273 118.067C61.9961 118.067 60.1887 116.259 60.1887 114.028C60.1887 111.796 61.9961 109.988 64.2273 109.988C66.4584 109.988 68.2658 111.796 68.2658 114.028Z" fill="#F3C729"/>
</g>
<path d="M36.994 74.4094V90.0088C36.994 91.6548 38.3451 93.0059 39.991 93.0059H97.0087C98.6546 93.0059 100.006 91.6548 100.006 90.0088V74.4094H36.994Z" fill="#83E1E5"/>
<path d="M100.006 43.2108V33.3598C100.006 31.7139 98.6546 30.3628 97.0087 30.3628H39.991C38.3451 30.3628 36.994 31.7139 36.994 33.3598V43.2108H100.006Z" fill="#83E1E5"/>
<path d="M100.767 99H36.2571C33.3583 99 31 96.6417 31 93.7674V29.2571C31 26.3583 33.3583 24 36.2571 24H100.767C103.666 24 106.025 26.3583 106.025 29.2571V93.7674C106 96.6417 103.642 99 100.767 99ZM36.2571 25.4985C34.1936 25.4985 32.4985 27.169 32.4985 29.2571V93.7674C32.4985 95.831 34.169 97.526 36.2571 97.526H100.767C102.831 97.526 104.526 95.8555 104.526 93.7674V29.2571C104.526 27.1936 102.856 25.4985 100.767 25.4985H36.2571Z" fill="#06589C"/>
<path d="M36.9937 38.6415C36.576 38.6415 36.2321 38.2976 36.2321 37.8799V33.3598C36.2321 31.2963 37.9026 29.6012 39.9907 29.6012H40.6294C41.0471 29.6012 41.391 29.9451 41.391 30.3627C41.391 30.7804 41.0471 31.1243 40.6294 31.1243H39.9907C38.7379 31.1243 37.7306 32.1315 37.7306 33.3844V37.9291C37.7552 38.3221 37.4113 38.6415 36.9937 38.6415Z" fill="#06589C"/>
<path d="M46.5995 31.0998H44.3395C43.9219 31.0998 43.5779 30.7558 43.5779 30.3382C43.5779 29.9206 43.9219 29.5767 44.3395 29.5767H46.5995C47.0172 29.5767 47.3611 29.9206 47.3611 30.3382C47.3611 30.7804 47.0172 31.0998 46.5995 31.0998Z" fill="#06589C"/>
<path d="M97.0091 93.7674H96.3458C95.9282 93.7674 95.5843 93.4235 95.5843 93.0059C95.5843 92.5882 95.9282 92.2443 96.3458 92.2443H96.9845C98.2374 92.2443 99.2446 91.2371 99.2446 89.9842V85.4395C99.2446 85.0219 99.5885 84.678 100.006 84.678C100.424 84.678 100.768 85.0219 100.768 85.4395V89.9842C100.768 92.0723 99.0727 93.7674 97.0091 93.7674Z" fill="#06589C"/>
<path d="M92.6611 93.7676H90.401C89.9834 93.7676 89.6395 93.4237 89.6395 93.0061C89.6395 92.5884 89.9834 92.2445 90.401 92.2445H92.6611C93.0787 92.2445 93.4227 92.5884 93.4227 93.0061C93.4227 93.4237 93.0787 93.7676 92.6611 93.7676Z" fill="#06589C"/>
<path d="M50.2597 79.2489H42.9391C42.1038 79.2489 41.4405 79.9122 41.4405 80.7474V85.7589C41.4405 86.5941 42.1038 87.2574 42.9391 87.2574H50.2352C51.0704 87.2574 51.7337 86.5941 51.7337 85.7589V80.7474C51.7583 79.9368 51.0704 79.2489 50.2597 79.2489Z" fill="white"/>
<path d="M64.8525 79.2489H57.5564C56.7212 79.2489 56.0579 79.9122 56.0579 80.7474V85.7589C56.0579 86.5941 56.7212 87.2574 57.5564 87.2574H64.8525C65.6878 87.2574 66.3511 86.5941 66.3511 85.7589V80.7474C66.3511 79.9368 65.6878 79.2489 64.8525 79.2489Z" fill="white"/>
<path d="M79.4446 79.2489H72.1485C71.3133 79.2489 70.65 79.9122 70.65 80.7474V85.7589C70.65 86.5941 71.3133 87.2574 72.1485 87.2574H79.4446C80.2799 87.2574 80.9431 86.5941 80.9431 85.7589V80.7474C80.9677 79.9368 80.2799 79.2489 79.4446 79.2489Z" fill="white"/>
<path d="M94.0607 79.2489H86.7646C85.9293 79.2489 85.266 79.9122 85.266 80.7474V85.7589C85.266 86.5941 85.9293 87.2574 86.7646 87.2574H94.0607C94.8959 87.2574 95.5592 86.5941 95.5592 85.7589V80.7474C95.5592 79.9368 94.8959 79.2489 94.0607 79.2489Z" fill="white"/>
<path d="M57.2611 40.4346C56.9663 40.4346 56.696 40.2626 56.5732 39.9924L54.6816 35.7179L52.7655 39.9924C52.6672 40.2626 52.397 40.4346 52.1022 40.4346C51.8074 40.4346 51.5372 40.2626 51.4143 39.9924L48.8349 34.1703C48.663 33.8018 48.8349 33.3596 49.228 33.1876C49.5965 33.0157 50.0386 33.1876 50.2106 33.5807L52.1022 37.8552L53.9938 33.5807C54.1166 33.3105 54.3868 33.1385 54.6816 33.1385C54.9764 33.1385 55.2466 33.3105 55.3695 33.5807L57.2611 37.8552L59.1526 33.5807C59.3246 33.2122 59.7668 33.0402 60.1353 33.1876C60.5038 33.3596 60.6757 33.8018 60.5283 34.1703L57.9489 39.9924C57.8261 40.2626 57.5558 40.4346 57.2611 40.4346Z" fill="#06589C"/>
<path d="M71.0912 40.4346C70.7964 40.4346 70.5262 40.2626 70.4034 39.9924L68.5118 35.7179L66.6202 39.9924C66.4974 40.2626 66.2272 40.4346 65.9324 40.4346C65.6376 40.4346 65.3674 40.2626 65.2445 39.9924L62.6651 34.1703C62.4931 33.8018 62.6651 33.3596 63.0582 33.1876C63.4266 33.0157 63.8688 33.1876 64.0408 33.5807L65.9324 37.8552L67.824 33.5807C67.9468 33.3105 68.217 33.1385 68.5118 33.1385C68.8066 33.1385 69.0768 33.3105 69.1997 33.5807L71.0912 37.8552L72.9828 33.5807C73.1548 33.2122 73.597 33.0402 73.9655 33.1876C74.3339 33.3596 74.5059 33.8018 74.3585 34.1703L71.7791 39.9924C71.6563 40.2626 71.386 40.4346 71.0912 40.4346Z" fill="#06589C"/>
<path d="M84.9216 40.4346C84.6268 40.4346 84.3566 40.2626 84.2338 39.9924L82.3422 35.7179L80.4506 39.9924C80.3278 40.2626 80.0575 40.4346 79.7627 40.4346C79.468 40.4346 79.1977 40.2626 79.0749 39.9924L76.4955 34.1703C76.3235 33.8018 76.4955 33.3596 76.8885 33.1876C77.257 33.0157 77.6992 33.1876 77.8712 33.5807L79.7627 37.8552L81.6543 33.5807C81.7772 33.3105 82.0474 33.1385 82.3422 33.1385C82.637 33.1385 82.9072 33.3105 83.03 33.5807L84.9216 37.8552L86.8132 33.5807C86.9851 33.2122 87.4273 33.0402 87.7958 33.1876C88.1643 33.3596 88.3363 33.8018 88.1889 34.1703L85.6095 39.9924C85.4866 40.2626 85.2164 40.4346 84.9216 40.4346Z" fill="#06589C"/>
<path d="M81.9283 78.5492C89.3441 71.1334 89.3441 59.11 81.9283 51.6942C74.5125 44.2784 62.4891 44.2784 55.0733 51.6942C47.6575 59.11 47.6575 71.1334 55.0733 78.5492C62.4891 85.965 74.5125 85.965 81.9283 78.5492Z" fill="#F3C729"/>
<path d="M68.512 46.134C63.1566 46.134 58.8084 54.6339 58.8084 65.1236C58.8084 75.6132 63.1566 84.1131 68.512 84.1131C73.8674 84.1131 78.2156 75.6132 78.2156 65.1236C78.2156 54.6339 73.8674 46.134 68.512 46.134Z" fill="#F3C729"/>
<path d="M83.2269 53.1353C79.7386 48.8854 74.4569 46.1586 68.5119 46.1586C62.5669 46.1586 57.2853 48.8854 53.7969 53.1353C57.2853 55.4691 62.5669 56.9676 68.5119 56.9676C74.4323 56.9676 79.7386 55.4691 83.2269 53.1353Z" fill="#F3C729"/>
<path d="M53.7969 77.1365C57.2853 81.411 62.5669 84.1132 68.5119 84.1132C74.4569 84.1132 79.7386 81.3864 83.2269 77.1365C79.7386 74.8027 74.4569 73.3042 68.5119 73.3042C62.5669 73.3042 57.2853 74.8027 53.7969 77.1365Z" fill="#F3C729"/>
<path d="M68.5113 84.8752C57.6286 84.8752 48.7603 76.0068 48.7603 65.1241C48.7603 54.2414 57.6286 45.373 68.5113 45.373C79.3941 45.373 88.2624 54.2414 88.2624 65.1241C88.2378 76.0314 79.3941 84.8752 68.5113 84.8752ZM68.5113 46.8961C58.4393 46.8961 50.2588 55.0766 50.2588 65.1487C50.2588 75.2207 58.4393 83.4012 68.5113 83.4012C78.5834 83.4012 86.7639 75.2207 86.7639 65.1487C86.7393 55.0766 78.5588 46.8961 68.5113 46.8961Z" fill="#06589C"/>
<path d="M68.512 84.8752C65.6132 84.8752 62.9601 82.7625 60.9702 78.9056C59.0787 75.2207 58.0469 70.3321 58.0469 65.1241C58.0469 59.9407 59.0787 55.0521 60.9702 51.3426C62.9355 47.4857 65.6132 45.373 68.512 45.373C71.4108 45.373 74.0639 47.4857 76.0538 51.3426C77.9453 55.0275 78.9771 59.9161 78.9771 65.1241C78.9771 70.3075 77.9453 75.1962 76.0538 78.9056C74.0639 82.7625 71.3862 84.8752 68.512 84.8752ZM68.512 46.8961C66.2274 46.8961 64.0164 48.7386 62.3214 52.055C60.5526 55.5434 59.57 60.1863 59.57 65.1487C59.57 70.111 60.5526 74.754 62.3214 78.2424C64.0164 81.5588 66.2274 83.4012 68.512 83.4012C70.7966 83.4012 73.0076 81.5588 74.7026 78.2424C76.4714 74.754 77.454 70.111 77.454 65.1487C77.454 60.1863 76.4714 55.5434 74.7026 52.055C73.0076 48.714 70.7966 46.8961 68.512 46.8961Z" fill="#06589C"/>
<path d="M68.5114 57.7297C62.6401 57.7297 57.1373 56.2804 53.3787 53.7501C53.2067 53.6272 53.0839 53.4553 53.0594 53.2342C53.0348 53.0131 53.0839 52.8165 53.2313 52.6446C56.9899 48.0262 62.5664 45.373 68.5359 45.373C74.4809 45.373 80.0574 48.0262 83.8406 52.6446C83.9634 52.8165 84.0371 53.0131 84.0125 53.2342C83.9879 53.4307 83.8651 53.6272 83.6932 53.7501C79.8854 56.2804 74.3826 57.7297 68.5114 57.7297ZM54.9264 52.9639C58.4147 55.0521 63.3034 56.2312 68.5114 56.2312C73.7194 56.2312 78.608 55.0521 82.0964 52.9639C78.6326 49.1071 73.7194 46.8961 68.5114 46.8961C63.3034 46.8961 58.3902 49.0825 54.9264 52.9639Z" fill="#06589C"/>
<path d="M68.5118 84.8753C62.5668 84.8753 56.9904 82.2221 53.2072 77.6037C53.0844 77.4318 53.0107 77.2352 53.0352 77.0141C53.0598 76.8176 53.1826 76.6211 53.3546 76.4982C57.1132 73.968 62.616 72.5186 68.4873 72.5186C74.3585 72.5186 79.8613 73.968 83.6199 76.4982C83.7919 76.6211 83.9147 76.793 83.9393 77.0141C83.9638 77.2107 83.9147 77.4318 83.7673 77.6037C80.0333 82.2467 74.4568 84.8753 68.5118 84.8753ZM54.9268 77.3089C58.3906 81.1658 63.3038 83.3767 68.5118 83.3767C73.7198 83.3767 78.633 81.1658 82.0968 77.3089C78.6084 75.2208 73.7198 74.0416 68.5118 74.0416C63.3038 74.0416 58.3906 75.2454 54.9268 77.3089Z" fill="#06589C"/>
<path d="M68.5125 84.8752C68.0949 84.8752 67.7509 84.5312 67.7509 84.1136V46.1346C67.7509 45.717 68.0949 45.373 68.5125 45.373C68.9301 45.373 69.274 45.717 69.274 46.1346V84.1382C69.2495 84.5558 68.9301 84.8752 68.5125 84.8752Z" fill="#06589C"/>
<path d="M87.5014 65.8856H49.4978C49.0802 65.8856 48.7363 65.5417 48.7363 65.1241C48.7363 64.7065 49.0802 64.3625 49.4978 64.3625H87.5014C87.919 64.3625 88.263 64.7065 88.263 65.1241C88.2384 65.5417 87.919 65.8856 87.5014 65.8856Z" fill="#06589C"/>
</svg>
