<svg width="30" height="27" viewBox="0 0 30 27" fill="none" xmlns="http://www.w3.org/2000/svg">
<path d="M29.625 11.625C29.625 12.1328 29.4726 12.6406 29.168 13.0469C28.8633 13.4531 28.457 13.7578 28 13.9102V19.75C28 20.6641 27.6445 21.4766 27.0351 22.0859C26.4258 22.6953 25.664 23 24.75 23L24.293 22.5938C22.8711 21.4258 21.8047 20.5625 21.043 19.9531C19.6719 18.9883 18.3515 18.2266 17.0312 17.668C15.4062 17.0586 13.7305 16.6523 12.0039 16.5508C11.1914 16.8555 10.6328 17.3633 10.3281 18.125C10.0234 18.9375 10.125 19.5977 10.5312 20.207C10.6328 20.4102 10.6836 20.6133 10.582 20.8164C10.3281 21.4258 10.3281 21.9844 10.582 22.4922C10.7344 22.9492 11.0898 23.4062 11.5976 23.9141C11.9023 24.2188 12.0547 24.625 11.9531 25.0312C11.8515 25.4375 11.6484 25.7422 11.2422 25.8945C10.582 26.1992 9.76952 26.3008 8.75389 26.25C7.73827 26.1992 6.97655 25.9961 6.46873 25.6406C6.21483 25.5391 6.06248 25.2852 5.96092 24.9805L5.70702 24.2695C5.1992 22.6953 4.84373 21.4766 4.74217 20.6133C4.53905 19.1914 4.58983 17.8203 4.99608 16.5H2.81248C2.10155 16.5 1.54295 16.2969 1.08592 15.7891C0.57811 15.332 0.374985 14.7734 0.374985 14.0625L0.374985 9.1875C0.374985 8.52734 0.57811 7.96875 1.08592 7.46094C1.54295 7.00391 2.10155 6.75 2.81248 6.75H10.9375C12.8672 6.75 14.7461 6.44531 16.4726 5.78516C17.8945 5.27734 19.3672 4.46484 20.789 3.44922C21.6523 2.83984 22.8203 1.92578 24.293 0.65625L24.75 0.25C25.664 0.25 26.4258 0.605469 27.0351 1.21484C27.6445 1.82422 28 2.58594 28 3.5V9.33984C28.457 9.54297 28.8633 9.84766 29.168 10.2539C29.4726 10.6602 29.625 11.1172 29.625 11.625ZM24.75 18.7344V4.51563C23.0234 5.9375 21.4492 7.05469 19.9258 7.81641C17.793 8.93359 15.6094 9.59375 13.375 9.84766V13.4023C15.6094 13.707 17.793 14.3672 19.9258 15.4336C21.4492 16.2461 23.0234 17.3125 24.75 18.7344Z" fill="white"/>
</svg>
