<svg width="540" height="528" viewBox="0 0 540 528" fill="none" xmlns="http://www.w3.org/2000/svg">
<path opacity="0.1" d="M275.486 527.818C421.573 527.818 540 523.471 540 518.108C540 512.745 421.573 508.398 275.486 508.398C129.399 508.398 10.9719 512.745 10.9719 518.108C10.9719 523.471 129.399 527.818 275.486 527.818Z" fill="#044072"/>
<path opacity="0.05" fill-rule="evenodd" clip-rule="evenodd" d="M241.961 521.979C359.856 521.979 455.429 520.246 455.429 518.108C455.429 515.97 359.856 514.237 241.961 514.237C124.066 514.237 28.4922 515.97 28.4922 518.108C28.4922 520.246 124.066 521.979 241.961 521.979Z" fill="#044072"/>
<path fill-rule="evenodd" clip-rule="evenodd" d="M121.607 76.3816H429.367C438.758 76.3816 446.443 84.4079 446.443 94.2117V371.373C446.443 381.176 438.758 389.203 429.367 389.203H121.607C112.219 389.203 104.531 381.179 104.531 371.373V94.2117C104.531 84.4053 112.217 76.3816 121.607 76.3816Z" fill="url(#paint0_linear)"/>
<path fill-rule="evenodd" clip-rule="evenodd" d="M121.607 76.3816H429.367C438.758 76.3816 446.443 84.0607 446.443 93.4443V98.8865H104.531V93.4443C104.531 84.0581 112.217 76.3816 121.607 76.3816Z" fill="#3E4992"/>
<path fill-rule="evenodd" clip-rule="evenodd" d="M383.992 81.889C387.169 81.889 389.742 84.4601 389.742 87.634C389.742 90.808 387.169 93.379 383.992 93.379C380.816 93.379 378.243 90.808 378.243 87.634C378.245 84.4601 380.818 81.889 383.992 81.889Z" fill="#5462BE"/>
<path fill-rule="evenodd" clip-rule="evenodd" d="M403.798 81.889C406.975 81.889 409.548 84.4601 409.548 87.634C409.548 90.808 406.975 93.379 403.798 93.379C400.622 93.379 398.049 90.808 398.049 87.634C398.049 84.4601 400.622 81.889 403.798 81.889Z" fill="#5462BE"/>
<path fill-rule="evenodd" clip-rule="evenodd" d="M423.601 81.889C426.778 81.889 429.351 84.4601 429.351 87.634C429.351 90.808 426.778 93.379 423.601 93.379C420.425 93.379 417.852 90.808 417.852 87.634C417.852 84.4601 420.425 81.889 423.601 81.889Z" fill="#5462BE"/>
<path opacity="0.5" fill-rule="evenodd" clip-rule="evenodd" d="M261.26 117.583H391.312C393.582 117.583 395.437 119.439 395.437 121.705V201.709C395.437 203.977 393.579 205.83 391.312 205.83H261.26C258.99 205.83 257.135 203.977 257.135 201.709V121.705C257.135 119.439 258.99 117.583 261.26 117.583Z" fill="#CDE7FF"/>
<path fill-rule="evenodd" clip-rule="evenodd" d="M260.936 117.583H383.666C385.758 117.583 387.467 119.293 387.467 121.381V195.121C387.467 197.209 385.756 198.919 383.666 198.919H260.936C258.843 198.919 257.135 197.209 257.135 195.121V121.384C257.135 119.293 258.843 117.583 260.936 117.583Z" fill="url(#paint1_linear)"/>
<path d="M287.931 143.481H267.31V194.479H287.931V143.481Z" fill="white"/>
<path d="M317.718 125.883H297.097V194.479H317.718V125.883Z" fill="white"/>
<path d="M347.505 163.593H326.884V194.479H347.505V163.593Z" fill="white"/>
<path d="M377.292 133.427H356.671V194.481H377.292V133.427Z" fill="white"/>
<path opacity="0.5" fill-rule="evenodd" clip-rule="evenodd" d="M352.585 333.43V337.802V370.803C352.585 378.185 346.317 384.234 338.672 384.234H232.916C225.271 384.234 219.003 378.19 219.003 370.803V337.802V333.43C219.003 326.043 225.265 320 232.916 320H338.672C346.325 320 352.585 326.043 352.585 333.43Z" fill="#CDE7FF"/>
<path fill-rule="evenodd" clip-rule="evenodd" d="M346.861 332.089V336.024V365.729C346.861 372.373 340.862 377.818 333.542 377.818H232.318C225 377.818 219 372.378 219 365.729V336.024V332.089C219 325.439 224.993 320 232.318 320H333.542C340.868 320 346.861 325.439 346.861 332.089Z" fill="url(#paint2_linear)"/>
<path fill-rule="evenodd" clip-rule="evenodd" d="M267.299 335.585H336.654C338.387 335.585 339.805 336.764 339.805 338.195V344.021C339.805 345.452 338.383 346.632 336.654 346.632H267.299C265.57 346.632 264.149 345.456 264.149 344.021V338.195C264.149 336.76 265.566 335.585 267.299 335.585Z" fill="white"/>
<path fill-rule="evenodd" clip-rule="evenodd" d="M265.778 356.211H308.02C308.804 356.211 309.443 356.851 309.443 357.635V360.809C309.443 361.593 308.802 362.231 308.02 362.231H265.778C264.994 362.231 264.353 361.591 264.353 360.809V357.635C264.355 356.851 264.996 356.211 265.778 356.211Z" fill="white"/>
<path opacity="0.2" d="M243.124 365.517C252.301 365.263 259.534 357.624 259.279 348.455C259.025 339.286 251.38 332.058 242.203 332.313C233.027 332.567 225.794 340.206 226.049 349.375C226.303 358.544 233.948 365.771 243.124 365.517Z" fill="white"/>
<path fill-rule="evenodd" clip-rule="evenodd" d="M242.678 338.142C248.629 338.142 253.453 342.962 253.453 348.908C253.453 354.854 248.629 359.674 242.678 359.674C236.727 359.674 231.903 354.854 231.903 348.908C231.903 342.962 236.727 338.142 242.678 338.142ZM242.678 343.201C239.524 343.201 236.966 345.756 236.966 348.908C236.966 352.06 239.524 354.615 242.678 354.615C245.832 354.615 248.389 352.06 248.389 348.908C248.391 345.756 245.834 343.201 242.678 343.201Z" fill="white"/>
<path opacity="0.5" fill-rule="evenodd" clip-rule="evenodd" d="M134.579 109.048H235.596C241.688 109.048 246.672 114.028 246.672 120.115V221.938C246.672 228.025 241.688 233.005 235.596 233.005H134.579C128.487 233.005 123.503 228.025 123.503 221.938V120.115C123.503 114.028 128.487 109.048 134.579 109.048Z" fill="#CDE7FF"/>
<path fill-rule="evenodd" clip-rule="evenodd" d="M133.794 109.048H227.677C233.34 109.048 237.972 113.676 237.972 119.335V213.969C237.972 219.625 233.34 224.256 227.677 224.256H133.794C128.13 224.256 123.499 219.628 123.499 213.969V119.335C123.501 113.676 128.133 109.048 133.794 109.048Z" fill="url(#paint3_linear)"/>
<path fill-rule="evenodd" clip-rule="evenodd" d="M237.971 192.983V213.966C237.971 219.623 233.34 224.253 227.677 224.253H133.793C128.133 224.253 123.499 219.625 123.499 213.966V192.983H237.971Z" fill="white"/>
<path d="M157.264 109.048H137.088V192.983H157.264V109.048Z" fill="url(#paint4_linear)"/>
<path opacity="0.5" fill-rule="evenodd" clip-rule="evenodd" d="M149.294 132.545L137.401 115.169L129.543 134.001L136.105 133.516C136.751 142.077 138.3 150.576 140.81 158.787C142.121 163.047 144.433 169.481 147.617 174.947C154.71 187.118 163.717 190.253 169.816 174.918C171.292 171.167 172.491 167.323 174.048 163.601C174.693 162.1 176.822 157.19 178.849 157.151C181.485 157.177 184.62 166.213 185.361 168.208C186.678 171.77 187.966 175.5 189.807 178.826C191.782 182.31 194.52 185.359 198.89 185.08C204.898 184.578 208.182 180.029 210.959 175.25C211.899 173.637 212.821 171.877 213.944 170.387C216.711 166.788 219.574 171.332 221.347 173.942C223.113 176.534 224.537 179.097 226.065 181.827C227.079 183.594 229.641 183.605 231.041 182.459C232.222 181.491 232.003 179.525 231.621 178.857C228.262 172.966 223.565 162.053 215.504 162.264C210.23 162.499 207.701 167.667 205.382 171.648C203.879 174.237 201.719 178.194 198.373 178.473C196.803 178.58 194.731 173.939 194.251 172.83C192.036 167.73 190.573 162.217 187.906 157.326C185.944 153.776 183.204 150.547 178.805 150.524C173.883 150.61 171.01 154.655 169.025 158.641C166.658 163.452 165.247 168.67 163.191 173.608C159.477 182.399 156.799 177.923 152.795 170.619C150.096 165.697 148.085 160.226 146.549 154.836C144.519 147.715 143.265 140.292 142.717 133.028L149.294 132.545Z" fill="white"/>
<path opacity="0.25" fill-rule="evenodd" clip-rule="evenodd" d="M133.321 210.717H217.178C217.962 210.717 218.605 211.359 218.605 212.142V214.606C218.605 215.389 217.962 216.031 217.178 216.031H133.321C132.537 216.031 131.894 215.389 131.894 214.606V212.142C131.894 211.359 132.534 210.717 133.321 210.717Z" fill="#02C9DE"/>
<path opacity="0.25" fill-rule="evenodd" clip-rule="evenodd" d="M133.321 200.106H170.49C171.274 200.106 171.916 200.748 171.916 201.531V203.995C171.916 204.779 171.274 205.421 170.49 205.421H133.321C132.537 205.421 131.894 204.781 131.894 203.995V201.531C131.894 200.748 132.534 200.106 133.321 200.106Z" fill="#02C9DE"/>
<path opacity="0.5" d="M156.84 374.826C170.957 374.239 181.924 362.328 181.336 348.222C180.749 334.116 168.828 323.157 154.711 323.744C140.594 324.331 129.626 336.243 130.214 350.349C130.802 364.455 142.723 375.414 156.84 374.826Z" fill="#CDE7FF"/>
<path d="M152.418 368.173C164.697 368.173 174.651 358.227 174.651 345.958C174.651 333.689 164.697 323.742 152.418 323.742C140.14 323.742 130.186 333.689 130.186 345.958C130.186 358.227 140.14 368.173 152.418 368.173Z" fill="url(#paint5_linear)"/>
<path fill-rule="evenodd" clip-rule="evenodd" d="M141.884 333.802L155.998 347.756L164.587 338.542H167.18L154.012 358.113L137.657 333.802H141.884Z" fill="white"/>
<path opacity="0.5" fill-rule="evenodd" clip-rule="evenodd" d="M179.931 242.151H132.618C128.791 242.151 125.659 245.461 125.659 249.473V296.406C125.659 300.415 128.807 303.728 132.618 303.728H179.931C183.742 303.728 186.89 300.434 186.89 296.406V249.473C186.89 245.445 183.758 242.151 179.931 242.151Z" fill="#CDE7FF"/>
<path fill-rule="evenodd" clip-rule="evenodd" d="M172.622 242.151H131.68C128.368 242.151 125.659 245.014 125.659 248.486V289.1C125.659 292.572 128.381 295.435 131.68 295.435H172.622C175.921 295.435 178.643 292.585 178.643 289.1V248.486C178.645 245.001 175.934 242.151 172.622 242.151Z" fill="url(#paint6_linear)"/>
<path fill-rule="evenodd" clip-rule="evenodd" d="M152.152 247.645C161.086 247.645 168.327 254.881 168.327 263.808C168.327 272.734 161.086 279.97 152.152 279.97C143.219 279.97 135.977 272.734 135.977 263.808C135.975 254.881 143.219 247.645 152.152 247.645ZM152.152 251.829C145.533 251.829 140.167 257.191 140.167 263.808C140.167 270.424 145.533 275.786 152.152 275.786C158.772 275.786 164.14 270.424 164.14 263.808C164.14 257.191 158.772 251.829 152.152 251.829Z" fill="white"/>
<path fill-rule="evenodd" clip-rule="evenodd" d="M138.47 284.84H165.836C166.483 284.84 167.014 285.456 167.014 286.208V288.573C167.014 289.325 166.483 289.941 165.836 289.941H138.47C137.822 289.941 137.292 289.325 137.292 288.573V286.208C137.289 285.454 137.819 284.84 138.47 284.84Z" fill="white"/>
<path fill-rule="evenodd" clip-rule="evenodd" d="M167.45 296.904C167.042 297.517 164.022 298.332 163.231 298.807L162.737 307.582C163.299 307.488 166.373 306.794 166.914 306.992C172.784 309.127 174.905 306.864 178.473 307.632C179.296 308.376 183.097 308.347 184.149 308.198C185.785 307.968 186.433 306.478 186.576 304.565C186.908 300.133 187.436 296.813 186.903 294.542C186.49 292.785 186.323 292.628 183.324 292.521C181.608 292.461 179.839 292.354 179.191 293.281C176.287 294.001 174.871 292.44 172.183 292.869C169.947 293.224 169.249 294.187 167.45 296.904Z" fill="#FFA698"/>
<path fill-rule="evenodd" clip-rule="evenodd" d="M179.435 293.143C178.928 293.461 178.695 294.056 178.57 295.058C178.244 297.723 177.99 301.459 177.807 304.176C177.685 305.992 177.854 307.512 178.962 307.697C175.279 307.196 176.995 302.116 173.053 301.049C171.334 300.584 167.345 301.469 165.211 302.456C169.937 299.112 170.117 300.206 173.967 298.457C175.051 297.966 177.468 293.641 179.435 293.143Z" fill="url(#paint7_linear)"/>
<path fill-rule="evenodd" clip-rule="evenodd" d="M177.136 284.182C176.308 285.148 173.941 287.693 173.173 288.69C171.446 290.932 169.255 292.362 168.549 295.343C167.831 298.387 177.63 297.549 175.383 293.641C175.357 292.994 175.639 291.284 176.446 290.527C178.384 288.716 178.131 286.14 177.136 284.182Z" fill="#FFA698"/>
<path fill-rule="evenodd" clip-rule="evenodd" d="M99.798 266.824C112.418 300.482 129.379 298.371 165.629 296.857C166.932 296.802 167.274 305.656 165.927 307.937C156.797 313.345 129.321 318.524 112.616 314.066C91.3997 308.407 81.4654 288.126 72.3069 265.9C70.4288 259.385 67.5814 244.45 74.3628 244.648C94.537 245.241 94.6206 253.022 99.798 266.824Z" fill="url(#paint8_linear)"/>
<path opacity="0.4" fill-rule="evenodd" clip-rule="evenodd" d="M97.4001 278.238C111.929 321.982 142.286 310.357 165.927 307.94C156.797 313.348 129.321 318.526 112.616 314.068C91.3998 308.409 81.4655 288.128 72.3071 265.903C70.4289 259.388 69.5642 245.222 76.0556 247.185C95.2398 252.99 92.7556 264.253 97.4001 278.238Z" fill="url(#paint9_linear)"/>
<path fill-rule="evenodd" clip-rule="evenodd" d="M36.5822 356.092L41.4802 340.554L32.9016 328.422L22.6512 339.917C26.4938 344.513 31.0992 349.843 36.5822 356.092Z" fill="#4B4ECA"/>
<path fill-rule="evenodd" clip-rule="evenodd" d="M0.55448 515.591C4.97959 519.464 6.47378 521.075 12.1867 521.304C16.8469 521.492 18.4352 520.286 21.1101 518.141C24.0776 515.76 25.0101 514.26 24.9918 512.104C24.9553 507.987 22.889 504.234 22.6565 499.074L13.2891 499.502L9.24796 497.604C7.43769 499.982 3.59249 504.362 0.88623 508.222C-0.448617 510.125 -0.030658 513.568 0.55448 515.591Z" fill="#16193B"/>
<path opacity="0.5" fill-rule="evenodd" clip-rule="evenodd" d="M23.5942 504.807C23.1501 503.05 22.7505 501.176 22.6564 499.069L13.289 499.498L9.24788 497.6C8.53474 498.537 7.50552 499.782 6.35614 501.184C10.0159 505.086 21.2092 507.268 23.5942 504.807Z" fill="#16193B"/>
<path fill-rule="evenodd" clip-rule="evenodd" d="M72.4898 495.585C71.7218 499.396 69.3969 502.306 69.0286 505.109C68.3964 509.933 71.1785 514.78 76.8888 514.83L114.244 515.161C112.266 502.411 92.2983 509.479 85.5927 495.34L76.8992 495.828L72.4898 495.585Z" fill="#16193B"/>
<path opacity="0.5" fill-rule="evenodd" clip-rule="evenodd" d="M72.4898 495.585C72.239 496.83 71.8237 497.979 71.364 499.057C74.8617 501.481 81.6143 503.123 89.4327 500.44C87.9229 499.13 86.6037 497.477 85.5928 495.342L76.8993 495.83L72.4898 495.585Z" fill="#16193B"/>
<path fill-rule="evenodd" clip-rule="evenodd" d="M98.082 332.867C99.6075 342.016 100.106 350.731 99.9785 362.109C99.5004 404.85 92.6198 453.253 88.0406 495.958C81.9437 498.292 75.2407 498.169 70.1625 496.081C69.4233 471.355 69.162 445.874 67.8716 421.446C66.2468 390.677 62.3676 366.601 55.3486 328.218L84.245 327.239L98.082 332.867Z" fill="url(#paint10_linear)"/>
<path opacity="0.3" fill-rule="evenodd" clip-rule="evenodd" d="M79.7154 332.867C81.241 342.015 81.2488 368.349 81.1208 379.727C80.695 417.838 74.8541 458.359 70.1625 496.081C69.4233 471.355 69.162 445.874 67.8716 421.446C66.4479 394.498 63.295 372.685 57.8198 341.898L79.7154 332.867Z" fill="#1E2353"/>
<path fill-rule="evenodd" clip-rule="evenodd" d="M40.9003 336.051C38.6146 342.966 35.6053 348.191 32.4549 362.333C29.0303 377.704 28.0559 392.193 25.4881 407.137C20.4544 436.431 14.1615 466.08 5.39227 497.796C10.46 502.009 20.3812 502.014 24.0044 500.732C34.8294 476.123 41.4906 452.118 51.0226 427.167C64.0838 392.982 78.3308 358.741 89.6366 326.263L40.9003 336.051Z" fill="url(#paint11_linear)"/>
<path fill-rule="evenodd" clip-rule="evenodd" d="M34.1346 352.79L35.7255 333.702C21.9199 308.19 22.599 311.189 38.4187 286.231C38.241 304.792 39.6725 323.261 38.6015 341.41C58.8071 345.735 80.4755 347.325 100.007 340.676C99.759 328.633 96.9378 310.678 94.0643 294.054C92.0947 282.66 94.255 271.87 91.9458 261.787C89.9056 252.886 84.9502 247.439 77.7954 245.361C72.678 243.876 67.0382 243.252 61.3174 243.482C48.7814 243.983 34.5291 247.449 25.5691 258.333C16.0632 269.881 3.46972 296.585 4.99525 311.8C5.75541 319.37 10.6037 325.986 34.1346 352.79Z" fill="url(#paint12_linear)"/>
<path opacity="0.4" fill-rule="evenodd" clip-rule="evenodd" d="M34.1347 352.79L35.7255 333.702C25.6789 315.136 23.0563 311.471 29.1689 301.2C22.3849 309.665 24.9606 314.721 26.4757 324.582C27.45 330.94 28.4766 337.513 25.4282 342.798C27.9986 345.779 30.8903 349.092 34.1347 352.79Z" fill="url(#paint13_linear)"/>
<path fill-rule="evenodd" clip-rule="evenodd" d="M52.8067 234.785C52.6056 238.619 52.394 241.589 51.7043 245.366C53.3657 251.182 58.7965 255 64.2012 254.272C68.8536 253.643 70.0709 247.355 68.4801 243.471C68.2502 241.584 68.1666 239.989 68.1117 238.086L56.3567 234.662L52.8067 234.785Z" fill="#FFA698"/>
<path fill-rule="evenodd" clip-rule="evenodd" d="M52.8067 234.785C52.7493 235.904 52.6892 236.951 52.616 237.964C57.6472 243.568 64.2874 244.463 68.4801 243.471C68.2502 241.584 68.1666 239.989 68.1117 238.086L56.3567 234.662L52.8067 234.785Z" fill="url(#paint14_linear)"/>
<path fill-rule="evenodd" clip-rule="evenodd" d="M50.9652 230.232C47.9455 230.801 47.1775 229.783 46.4748 227.771C45.7512 225.696 45.8113 226.267 44.5313 224.675C43.907 223.902 43.4995 223.151 43.2069 222.386C42.2325 219.831 42.7915 218.28 42.7524 216.315C42.7027 213.872 41.6422 212.945 41.2085 211.366C39.0952 203.718 45.6833 197.046 52.8643 200.562C55.4608 195.895 59.5803 195.807 63.3341 197.963C67.7148 195.316 71.9205 195.611 74.8932 199.015C80.6557 205.616 75.2589 212.191 71.2935 213.96L58.6817 222.924L50.9652 230.232Z" fill="url(#paint15_linear)"/>
<path fill-rule="evenodd" clip-rule="evenodd" d="M50.9651 230.232C47.9454 230.801 47.1774 229.783 46.4747 227.771C45.7511 225.696 45.8112 226.267 44.5312 224.675C43.9069 223.903 43.4994 223.151 43.2068 222.386C42.2325 219.831 42.7915 218.28 42.7523 216.315L42.7497 216.237C44.6253 219.455 48.6037 220.076 48.9824 215.555C50.9599 214.002 52.2347 212.06 52.5089 209.797C52.8564 206.929 54.0685 205.344 57.2815 206.253C64.7211 208.359 70.8076 212.246 77.346 206.052C76.8758 209.803 73.7986 212.841 71.2909 213.961L58.679 222.924L50.9651 230.232Z" fill="#22043D"/>
<path fill-rule="evenodd" clip-rule="evenodd" d="M72.7902 213.073C73.3414 220.875 74.577 228.865 71.5468 236.283C70.4445 238.976 68.6917 240.652 64.4886 239.752C61.5733 239.128 58.5327 237.797 55.8291 236.7C51.7279 235.035 52.3235 233.393 51.6338 231.963C51.3569 231.391 50.9207 230.757 50.2938 230.018C48.6794 228.123 45.9757 226.977 45.8739 224.294C45.7824 221.828 47.6397 220.509 48.5906 222.198C49.9202 224.56 52.9452 228.549 50.6595 216.101C53.1489 214.216 53.6296 213.472 54.2852 211.436C54.9278 209.445 55.6201 207.887 57.992 209.15C62.869 211.752 67.0878 214.276 72.7902 213.073Z" fill="url(#paint16_linear)"/>
<path fill-rule="evenodd" clip-rule="evenodd" d="M72.7905 213.073C72.8453 213.835 72.9054 214.597 72.9655 215.362C65.3822 216.662 61.5892 213.331 56.7514 210.257C55.0143 213.227 54.5676 214.094 52.099 216.495C52.1617 217.359 53.0629 222.156 52.4491 224.511C51.9501 226.427 50.9235 226.153 49.8159 224.988C49.0714 224.208 47.4388 220.697 46.0413 222.921C46.5141 221.41 47.8359 220.859 48.5882 222.198C49.9178 224.56 52.9428 228.549 50.6571 216.101C53.1465 214.216 53.6272 213.472 54.2828 211.436C54.9254 209.445 55.6177 207.887 57.9896 209.15C62.8692 211.752 67.088 214.276 72.7905 213.073Z" fill="#FFA698"/>
<path fill-rule="evenodd" clip-rule="evenodd" d="M63.078 261.218L65.1312 309.428L73.6131 320.098L79.1641 307.243L66.2544 260.312C67.5867 256.371 67.1478 255.47 66.3876 254.888C65.4943 254.207 66.3615 254.126 63.3888 254.486C61.4296 254.724 59.4287 254.922 59.716 257.039C59.9354 258.668 61.3434 259.842 63.078 261.218Z" fill="url(#paint17_linear)"/>
<path fill-rule="evenodd" clip-rule="evenodd" d="M52.0728 242.691C50.3801 243.254 49.1184 243.823 48.8206 244.909C47.8018 248.65 54.2645 259.197 58.4701 260.187C59.8886 257.55 61.1059 256.063 63.6136 254.314C56.6494 252.265 52.8356 248.856 52.0728 242.691Z" fill="#B18EF6"/>
<path fill-rule="evenodd" clip-rule="evenodd" d="M68.4724 243.184C69.7289 243.228 70.8469 243.641 71.0637 243.884C72.8453 245.867 72.9288 254.267 70.0763 259.043C67.6443 256.666 65.5702 255.384 63.4047 254.374C69.6348 250.647 69.0941 247.031 68.4724 243.184Z" fill="#B18EF6"/>
<path fill-rule="evenodd" clip-rule="evenodd" d="M435.422 237.927C436.07 241.816 437.219 245.632 434.86 250.806L456.954 250.949C449.494 243.988 449.016 239.812 449.102 233.271L440.842 234.928L435.422 237.927Z" fill="url(#paint18_linear)"/>
<path fill-rule="evenodd" clip-rule="evenodd" d="M429.132 211.648C425.713 216.114 423.375 226.281 424.519 234.043C424.905 236.664 425.263 239.934 427.068 240.898C429.033 241.949 432.045 241.493 436.608 240.973C443.23 240.224 442.488 238.645 445.939 232.529L451.642 218.4L439.792 206.694L429.132 211.648Z" fill="url(#paint19_linear)"/>
<path fill-rule="evenodd" clip-rule="evenodd" d="M429.132 211.648C428.607 212.332 428.111 213.151 427.646 214.073C429.492 215.185 430.66 215.467 434.328 215.114C434.571 218.761 436.383 227.915 440.769 226.826C441.548 226.633 442.441 225.579 443.277 225.036C444.304 224.373 445.699 224.715 445.09 226.672C443.442 231.997 441.995 232.994 443.781 236.656C444.34 235.578 444.975 234.231 445.934 232.532L451.636 218.403L439.787 206.697L429.132 211.648Z" fill="#FFA698"/>
<path fill-rule="evenodd" clip-rule="evenodd" d="M435.498 213.665C425.01 214.944 423.498 208.247 425.932 203.274C428.973 197.062 438.215 192.883 444.309 202.7C448.805 200.487 450.542 200.936 452.535 205.965C460.719 204.086 463.645 211.402 461.701 218.299C459.928 224.597 455.218 228.63 451.425 233.532C450.294 234.993 449.246 236.531 448.382 238.227C445.842 237.436 445.27 236.421 444.866 234.591C444.581 233.315 446.015 229 446.302 226.179C446.516 224.08 445.111 222.433 442.883 223.848C442.222 224.268 441.817 225.296 440.788 226.226C435.832 223.258 436.253 218.948 435.498 213.665Z" fill="url(#paint20_linear)"/>
<path fill-rule="evenodd" clip-rule="evenodd" d="M435.498 213.666C425.01 214.945 423.497 208.247 425.932 203.275C425.971 203.194 426.013 203.113 426.055 203.032C426.434 207.328 428.965 209.855 433.275 209.709C438.121 209.544 439.542 209.917 440.385 215.991C440.832 219.197 441.119 221.22 443.115 220.703C447.438 219.58 449.852 221.483 449.883 226.714C449.899 229.301 450.879 231.219 452.739 231.9C452.292 232.435 451.853 232.978 451.425 233.532C450.294 234.991 449.575 236.734 449.319 238.773C441.827 236.439 445.764 231.438 446.3 226.179C446.514 224.08 445.108 222.433 442.88 223.848C442.219 224.268 441.814 225.297 440.785 226.226C435.832 223.258 436.253 218.949 435.498 213.666Z" fill="#22043D"/>
<path fill-rule="evenodd" clip-rule="evenodd" d="M473.187 252.638C477.194 256.326 481.277 259.832 484.122 263.507C508.05 294.443 490.292 323.003 435.258 312.004C441.407 273.52 448.494 282.634 473.187 252.638Z" fill="url(#paint21_linear)"/>
<path opacity="0.35" fill-rule="evenodd" clip-rule="evenodd" d="M494.393 286.406C496.352 306.574 476.047 320.155 435.257 312.004C439.967 282.517 445.231 280.971 458.542 268.369L474.297 275.427C475.611 284.892 476.961 293.97 477.896 303.492C487.272 299.55 492.141 295.416 494.393 286.406Z" fill="#17ACC8"/>
<path fill-rule="evenodd" clip-rule="evenodd" d="M511.218 520.917L485.841 521.321C484.576 519.917 484.237 515.088 485.569 513.016C487.442 510.103 488.57 506.984 488.701 504.089L498.246 504.525L502.363 502.593C504.21 505.016 508.126 509.479 510.881 513.412C512.237 515.349 511.814 518.857 511.218 520.917Z" fill="#0F2F64"/>
<path opacity="0.3" fill-rule="evenodd" clip-rule="evenodd" d="M487.742 509.933C488.194 508.142 488.601 506.234 488.698 504.089L498.243 504.525L502.36 502.593C503.086 503.546 504.134 504.817 505.304 506.245C501.576 510.215 490.171 512.441 487.742 509.933Z" fill="#1E2353"/>
<path fill-rule="evenodd" clip-rule="evenodd" d="M470.11 337.988C472.438 345.033 475.504 350.355 478.715 364.766C482.205 380.427 483.197 395.19 485.812 410.415C490.94 440.26 497.35 470.472 506.287 502.786C501.122 507.08 491.016 507.083 487.325 505.777C476.296 480.704 469.509 456.247 459.797 430.824C446.49 395.994 431.974 361.106 420.454 328.014L470.11 337.988Z" fill="url(#paint22_linear)"/>
<path opacity="0.5" fill-rule="evenodd" clip-rule="evenodd" d="M448.985 337.508C454.199 353.278 483.5 467.024 487.325 505.778C476.296 480.704 469.509 456.247 459.797 430.824C446.49 395.994 431.974 361.106 420.454 328.014L448.985 337.508Z" fill="url(#paint23_linear)"/>
<path fill-rule="evenodd" clip-rule="evenodd" d="M437.925 500.536C438.706 504.42 441.077 507.385 441.451 510.238C442.094 515.153 439.259 520.092 433.442 520.144L395.382 520.481C397.398 507.49 417.742 514.691 424.576 500.286L433.434 500.784L437.925 500.536Z" fill="#0F2F64"/>
<path opacity="0.3" fill-rule="evenodd" clip-rule="evenodd" d="M437.925 500.536C438.181 501.805 438.604 502.974 439.074 504.073C435.508 506.545 428.63 508.215 420.663 505.483C422.202 504.149 423.544 502.465 424.576 500.288L433.434 500.787L437.925 500.536Z" fill="#1E2353"/>
<path fill-rule="evenodd" clip-rule="evenodd" d="M411.847 334.746C410.292 344.067 409.783 352.947 409.914 364.539C410.402 408.089 417.411 457.406 422.076 500.915C428.288 503.293 435.119 503.167 440.291 501.04C441.043 475.849 441.48 449.066 444.066 424.278C448.363 383.094 465.277 354.244 455.385 330.009L425.942 329.012L411.847 334.746Z" fill="url(#paint24_linear)"/>
<path fill-rule="evenodd" clip-rule="evenodd" d="M480.042 261.682C488.894 276.31 475.191 274.216 473.882 284.613C471.346 308.326 470.162 324.569 474.506 348.812C447.603 358.551 425.6 354.925 410.865 348.969C413.803 330.351 410.46 284.869 415.222 267.602C417.999 257.537 405.635 255.12 413.226 252.174C427.134 246.776 446.822 242.331 461.239 246.635C465.844 248.01 469.619 249.43 473.299 252.87C475.538 254.959 477.795 257.971 480.042 261.682Z" fill="url(#paint25_linear)"/>
<path opacity="0.35" fill-rule="evenodd" clip-rule="evenodd" d="M437.277 354.735C426.932 354.213 418.038 351.866 410.862 348.966C413.801 330.351 410.457 284.866 415.219 267.599C417.993 257.535 406.406 256.736 413.994 253.789C418.312 252.113 428.058 256.692 430.321 261.787C445.268 295.463 444.097 324.083 437.277 354.735Z" fill="#17ACC8"/>
<path fill-rule="evenodd" clip-rule="evenodd" d="M378.818 365.938L392.618 336.573C393.224 335.284 394.778 334.72 396.069 335.328L442.151 357.073C443.442 357.682 444.003 359.229 443.397 360.521L429.599 389.886C428.993 391.175 427.439 391.739 426.149 391.131L380.066 369.386C378.773 368.777 378.209 367.23 378.818 365.938Z" fill="#9FD2FB"/>
<path opacity="0.5" fill-rule="evenodd" clip-rule="evenodd" d="M413.889 343.631L427.185 349.906C423.91 355.254 420.955 360.143 418.56 365.982C418.594 370.234 417.335 374.768 409.37 383.11L400.974 379.148L406.403 371.925L413.889 343.631Z" fill="#9FD2FB"/>
<path fill-rule="evenodd" clip-rule="evenodd" d="M398.681 379.171C402.333 381.009 404.268 381.951 405.198 381.682C407.562 380.998 411.747 374.585 413.625 371.012C415.289 367.846 412.656 364.066 414.009 361.902C412.079 358.694 408.077 353.959 404.759 353.907C403.984 361.821 394.133 370.009 392.605 374.407C391.68 377.075 396.782 378.216 398.681 379.171Z" fill="url(#paint26_linear)"/>
<path fill-rule="evenodd" clip-rule="evenodd" d="M401.552 380.586C403.414 381.468 404.551 381.867 405.198 381.679C407.563 380.996 411.747 374.582 413.626 371.009C415.29 367.843 412.656 364.063 414.01 361.9C412.082 358.692 414.03 362.124 410.71 362.072C411.071 369.443 406.35 373.922 401.552 380.586Z" fill="url(#paint27_linear)"/>
<path fill-rule="evenodd" clip-rule="evenodd" d="M433.484 287.27C434.625 298.157 435.012 309.164 433.619 317.487C431.201 331.924 426.036 345.542 415.057 363.531C408.32 365.188 402.474 360.681 403.179 355.716C407.552 346.64 412.492 321.588 412.534 315.391C412.617 302.97 410.514 291.464 406.622 273.556C403.561 259.643 407.134 253.966 413.748 251.933C431.383 246.509 432.225 275.273 433.484 287.27Z" fill="url(#paint28_linear)"/>
<path opacity="0.5" fill-rule="evenodd" clip-rule="evenodd" d="M81.7113 65.7236C77.297 65.7236 73.7172 69.3025 73.7172 73.7171C73.7172 78.1317 77.2957 81.7105 81.7113 81.7105C86.1255 81.7105 89.704 78.1317 89.704 73.7171C89.7053 69.3025 86.1268 65.7236 81.7113 65.7236Z" fill="url(#paint29_linear)"/>
<path opacity="0.5" fill-rule="evenodd" clip-rule="evenodd" d="M491.596 180.296C486.936 180.296 483.158 184.074 483.158 188.734C483.158 193.394 486.936 197.171 491.596 197.171C496.256 197.171 500.033 193.394 500.033 188.734C500.033 184.074 496.256 180.296 491.596 180.296Z" fill="url(#paint30_linear)"/>
<path opacity="0.5" d="M163.865 421.875C166.563 421.875 168.75 419.688 168.75 416.99C168.75 414.292 166.563 412.105 163.865 412.105C161.167 412.105 158.98 414.292 158.98 416.99C158.98 419.688 161.167 421.875 163.865 421.875Z" fill="url(#paint31_linear)"/>
<path opacity="0.5" fill-rule="evenodd" clip-rule="evenodd" d="M359.704 0C355.78 0 352.599 3.18137 352.599 7.10526C352.599 11.0292 355.78 14.2105 359.704 14.2105C363.628 14.2105 366.809 11.0292 366.809 7.10526C366.809 3.18137 363.628 0 359.704 0Z" fill="url(#paint32_linear)"/>
<defs>
<linearGradient id="paint0_linear" x1="256.119" y1="345.784" x2="295.963" y2="112.966" gradientUnits="userSpaceOnUse">
<stop stop-color="#D1E8FF"/>
<stop offset="1" stop-color="#EAEFFF"/>
</linearGradient>
<linearGradient id="paint1_linear" x1="320.278" y1="192.448" x2="324.811" y2="115.688" gradientUnits="userSpaceOnUse">
<stop stop-color="#965CF2"/>
<stop offset="1" stop-color="#FF8ADC"/>
</linearGradient>
<linearGradient id="paint2_linear" x1="325.283" y1="366.231" x2="234.224" y2="328.927" gradientUnits="userSpaceOnUse">
<stop stop-color="#6D6AFE"/>
<stop offset="1" stop-color="#3FB0F7"/>
</linearGradient>
<linearGradient id="paint3_linear" x1="156.209" y1="110.783" x2="194.196" y2="197.446" gradientUnits="userSpaceOnUse">
<stop stop-color="#1C8EF4"/>
<stop offset="1" stop-color="#00CFDD"/>
</linearGradient>
<linearGradient id="paint4_linear" x1="105.117" y1="87.4265" x2="160.168" y2="170.787" gradientUnits="userSpaceOnUse">
<stop stop-color="#1C8EF4"/>
<stop offset="1" stop-color="#00CFDD"/>
</linearGradient>
<linearGradient id="paint5_linear" x1="152.629" y1="326.011" x2="152.263" y2="360.712" gradientUnits="userSpaceOnUse">
<stop stop-color="#A77EF7"/>
<stop offset="1" stop-color="#5E65D6"/>
</linearGradient>
<linearGradient id="paint6_linear" x1="140.51" y1="253.662" x2="166.747" y2="287.803" gradientUnits="userSpaceOnUse">
<stop stop-color="#94E69A"/>
<stop offset="1" stop-color="#17ADC9"/>
</linearGradient>
<linearGradient id="paint7_linear" x1="175.514" y1="299.316" x2="171.512" y2="297.411" gradientUnits="userSpaceOnUse">
<stop stop-color="#FF8A78"/>
<stop offset="1" stop-color="#FFA799"/>
</linearGradient>
<linearGradient id="paint8_linear" x1="117.334" y1="279.282" x2="98.9995" y2="310.703" gradientUnits="userSpaceOnUse">
<stop stop-color="#A77EF7"/>
<stop offset="1" stop-color="#5E65D6"/>
</linearGradient>
<linearGradient id="paint9_linear" x1="103.796" y1="260.562" x2="131.228" y2="310.715" gradientUnits="userSpaceOnUse">
<stop stop-color="#A77EF7"/>
<stop offset="1" stop-color="#5E65D6"/>
</linearGradient>
<linearGradient id="paint10_linear" x1="91.1234" y1="365.237" x2="52.7185" y2="457.992" gradientUnits="userSpaceOnUse">
<stop stop-color="#40457F"/>
<stop offset="1" stop-color="#1E2353"/>
</linearGradient>
<linearGradient id="paint11_linear" x1="76.4857" y1="360.533" x2="-0.665639" y2="462.063" gradientUnits="userSpaceOnUse">
<stop stop-color="#40457F"/>
<stop offset="1" stop-color="#1E2353"/>
</linearGradient>
<linearGradient id="paint12_linear" x1="42.6202" y1="270.311" x2="66.4731" y2="339.559" gradientUnits="userSpaceOnUse">
<stop stop-color="#A77EF7"/>
<stop offset="1" stop-color="#5E65D6"/>
</linearGradient>
<linearGradient id="paint13_linear" x1="28.0708" y1="308.657" x2="31.4911" y2="349.117" gradientUnits="userSpaceOnUse">
<stop stop-color="#A77EF7"/>
<stop offset="1" stop-color="#5E65D6"/>
</linearGradient>
<linearGradient id="paint14_linear" x1="60.6593" y1="239.061" x2="60.127" y2="241.26" gradientUnits="userSpaceOnUse">
<stop stop-color="#FF8A78"/>
<stop offset="1" stop-color="#FFA799"/>
</linearGradient>
<linearGradient id="paint15_linear" x1="58.5884" y1="201.265" x2="59.6599" y2="212.738" gradientUnits="userSpaceOnUse">
<stop stop-color="#5A2D68"/>
<stop offset="1" stop-color="#22043D"/>
</linearGradient>
<linearGradient id="paint16_linear" x1="62.6241" y1="218.764" x2="57.5444" y2="233.215" gradientUnits="userSpaceOnUse">
<stop stop-color="#FFB89E"/>
<stop offset="1" stop-color="#FFA799"/>
</linearGradient>
<linearGradient id="paint17_linear" x1="58.4267" y1="269.995" x2="78.6313" y2="303.208" gradientUnits="userSpaceOnUse">
<stop stop-color="#40457F"/>
<stop offset="1" stop-color="#1E2353"/>
</linearGradient>
<linearGradient id="paint18_linear" x1="443.472" y1="240.832" x2="445.592" y2="249.589" gradientUnits="userSpaceOnUse">
<stop stop-color="#FF8A78"/>
<stop offset="1" stop-color="#FFA799"/>
</linearGradient>
<linearGradient id="paint19_linear" x1="435.122" y1="219.999" x2="440.717" y2="234.008" gradientUnits="userSpaceOnUse">
<stop stop-color="#FFB89E"/>
<stop offset="1" stop-color="#FFA799"/>
</linearGradient>
<linearGradient id="paint20_linear" x1="436.087" y1="202.412" x2="444.677" y2="212.539" gradientUnits="userSpaceOnUse">
<stop stop-color="#5A2D68"/>
<stop offset="1" stop-color="#22043D"/>
</linearGradient>
<linearGradient id="paint21_linear" x1="459.578" y1="280.946" x2="466.912" y2="305.001" gradientUnits="userSpaceOnUse">
<stop stop-color="#94E69A"/>
<stop offset="1" stop-color="#17ADC9"/>
</linearGradient>
<linearGradient id="paint22_linear" x1="434.628" y1="364.85" x2="508.751" y2="460.885" gradientUnits="userSpaceOnUse">
<stop stop-color="#3874C2"/>
<stop offset="1" stop-color="#214075"/>
</linearGradient>
<linearGradient id="paint23_linear" x1="434.712" y1="366.352" x2="493.346" y2="463.445" gradientUnits="userSpaceOnUse">
<stop stop-color="#3874C2"/>
<stop offset="1" stop-color="#214075"/>
</linearGradient>
<linearGradient id="paint24_linear" x1="419.413" y1="372.481" x2="458.41" y2="459.371" gradientUnits="userSpaceOnUse">
<stop stop-color="#3874C2"/>
<stop offset="1" stop-color="#214075"/>
</linearGradient>
<linearGradient id="paint25_linear" x1="438.015" y1="276.884" x2="454.719" y2="336.735" gradientUnits="userSpaceOnUse">
<stop stop-color="#94E69A"/>
<stop offset="1" stop-color="#17ADC9"/>
</linearGradient>
<linearGradient id="paint26_linear" x1="402.973" y1="367.325" x2="411.207" y2="369.469" gradientUnits="userSpaceOnUse">
<stop stop-color="#FFB89E"/>
<stop offset="1" stop-color="#FFA799"/>
</linearGradient>
<linearGradient id="paint27_linear" x1="412.872" y1="371.621" x2="406.196" y2="370.795" gradientUnits="userSpaceOnUse">
<stop stop-color="#FF8A78"/>
<stop offset="1" stop-color="#FFA799"/>
</linearGradient>
<linearGradient id="paint28_linear" x1="420.932" y1="279.089" x2="412.904" y2="346.931" gradientUnits="userSpaceOnUse">
<stop stop-color="#94E69A"/>
<stop offset="1" stop-color="#17ADC9"/>
</linearGradient>
<linearGradient id="paint29_linear" x1="81.1865" y1="66.4147" x2="82.1639" y2="80.0003" gradientUnits="userSpaceOnUse">
<stop stop-color="#6D6AFE"/>
<stop offset="1" stop-color="#3FB0F7"/>
</linearGradient>
<linearGradient id="paint30_linear" x1="491.571" y1="181.891" x2="491.624" y2="196.299" gradientUnits="userSpaceOnUse">
<stop stop-color="#FA5DB1"/>
<stop offset="1" stop-color="#FEBFBF"/>
</linearGradient>
<linearGradient id="paint31_linear" x1="163.44" y1="414.645" x2="164.449" y2="420.21" gradientUnits="userSpaceOnUse">
<stop stop-color="#A77EF7"/>
<stop offset="1" stop-color="#5E65D6"/>
</linearGradient>
<linearGradient id="paint32_linear" x1="357.716" y1="1.00893" x2="360.494" y2="9.53135" gradientUnits="userSpaceOnUse">
<stop stop-color="#1C8EF4"/>
<stop offset="1" stop-color="#00CFDD"/>
</linearGradient>
</defs>
</svg>
