<svg width="24" height="27" viewBox="0 0 24 27" fill="none" xmlns="http://www.w3.org/2000/svg">
<path d="M22.2373 4.26163L19.8104 1.8099C17.4693 -0.555255 13.6593 -0.556292 11.3171 1.8099C9.18121 3.96767 8.99338 7.35935 10.7536 9.73384L0.396386 20.1971C0.0612714 20.5352 0.0612714 21.0842 0.396386 21.4227L2.82276 23.8745C3.15787 24.213 3.70083 24.213 4.03594 23.8745L4.64305 23.2612L7.67653 26.3257C8.01164 26.6642 8.5546 26.6642 8.88972 26.3257L10.71 24.4868L8.88972 22.6483C8.5546 22.3098 8.5546 21.7608 8.88972 21.4222C9.22483 21.0837 9.76779 21.0842 10.1029 21.4217L11.9232 23.2601L13.743 21.4217C14.0781 21.0832 14.0781 20.5346 13.743 20.1961L10.7095 17.1316L14.3932 13.4117C16.7446 15.1895 20.1019 15.0007 22.2378 12.8424C24.579 10.4768 24.579 6.62731 22.2373 4.26163ZM19.8104 10.3912C18.9149 11.2959 17.5473 11.382 16.5635 10.7168C16.235 10.4944 14.0232 8.22153 13.744 7.93898C12.7407 6.92541 12.7407 5.27572 13.7435 4.26163C13.744 4.26112 13.744 4.26112 13.744 4.26112C14.7468 3.24755 16.3808 3.24651 17.3846 4.2606C17.693 4.57218 19.9146 6.77817 20.1338 7.10894C20.7947 8.10799 20.7029 9.48965 19.8104 10.3912Z" fill="white"/>
</svg>
