<svg width="70" height="50" viewBox="0 0 70 50" fill="none" xmlns="http://www.w3.org/2000/svg">
<path d="M65.2057 0H4.65861C2.08968 0 0 2.09002 0 4.65895V11.4904C0 11.9571 0.378191 12.3353 0.844931 12.3353H69.0197C69.4865 12.3353 69.8647 11.9571 69.8647 11.4904V4.65895C69.8643 2.09002 67.7747 0 65.2057 0ZM4.65861 1.68986H65.2057C66.8429 1.68986 68.1745 3.02181 68.1745 4.65895V10.6455H1.68986V4.65895C1.68986 3.02215 3.02147 1.68986 4.65861 1.68986Z" fill="#06589C"/>
<path d="M69.0194 14.0251C68.5527 14.0251 68.1745 14.4033 68.1745 14.8701V45.3413C68.1745 46.9785 66.8429 48.3101 65.2057 48.3101H4.65861C3.02147 48.3101 1.68986 46.9785 1.68986 45.3413V14.8701C1.68986 14.4033 1.31167 14.0251 0.844931 14.0251C0.378191 14.0251 0 14.4033 0 14.8701V45.3413C0 47.9103 2.09002 50 4.65861 50H65.2057C67.7747 50 69.8643 47.9099 69.8643 45.3413V14.8701C69.8643 14.4033 69.4861 14.0251 69.0194 14.0251Z" fill="#06589C"/>
<path d="M7.65406 6.89909H9.88671C10.3534 6.89909 10.7316 6.5209 10.7316 6.05416C10.7316 5.58742 10.3534 5.20923 9.88671 5.20923H7.65406C7.18732 5.20923 6.80913 5.58742 6.80913 6.05416C6.80913 6.5209 7.18732 6.89909 7.65406 6.89909Z" fill="#06589C"/>
<path d="M46.4661 6.89909H48.6988C49.1655 6.89909 49.5437 6.5209 49.5437 6.05416C49.5437 5.58742 49.1655 5.20923 48.6988 5.20923H46.4661C45.9994 5.20923 45.6212 5.58742 45.6212 6.05416C45.6212 6.5209 45.9994 6.89909 46.4661 6.89909Z" fill="#06589C"/>
<path d="M53.2902 6.89909H55.5228C55.9896 6.89909 56.3677 6.5209 56.3677 6.05416C56.3677 5.58742 55.9896 5.20923 55.5228 5.20923H53.2902C52.8234 5.20923 52.4452 5.58742 52.4452 6.05416C52.4452 6.5209 52.8238 6.89909 53.2902 6.89909Z" fill="#06589C"/>
<path d="M60.1145 6.89909H62.3472C62.8139 6.89909 63.1921 6.5209 63.1921 6.05416C63.1921 5.58742 62.8139 5.20923 62.3472 5.20923H60.1145C59.6478 5.20923 59.2696 5.58742 59.2696 6.05416C59.2696 6.5209 59.6478 6.89909 60.1145 6.89909Z" fill="#06589C"/>
<path d="M38.0699 43.4436C37.8888 43.4436 37.7069 43.424 37.5288 43.3855C36.1627 43.0878 35.2938 41.7345 35.5916 40.3688L36.0722 38.1621H30.3003L29.5844 41.4483C29.3326 42.6045 28.2917 43.4436 27.1095 43.4436C26.9283 43.4436 26.7465 43.424 26.5684 43.3855C25.9066 43.2412 25.3405 42.8478 24.9748 42.2783C24.6088 41.7085 24.4868 41.0305 24.6308 40.3691L25.1114 38.1625H22.9767C21.5789 38.1625 20.4419 37.0255 20.4419 35.6277C20.4419 34.2298 21.5789 33.0929 22.9767 33.0929H26.2159L27.4991 27.2014H25.3642C23.9663 27.2014 22.8294 26.0644 22.8294 24.6666C22.8294 23.2687 23.9663 22.1318 25.3642 22.1318H28.6033L29.3191 18.8457C29.6165 17.4809 30.9681 16.611 32.3352 16.9084C33.7013 17.2062 34.5702 18.5594 34.2724 19.9251L33.7918 22.1318H39.5637L40.2796 18.8457C40.577 17.4809 41.9289 16.611 43.2956 16.9084C43.9574 17.0527 44.5235 17.4461 44.8892 18.0156C45.2552 18.5854 45.3772 19.2634 45.2332 19.9248L44.7526 22.1314H46.8873C48.2851 22.1314 49.4221 23.2684 49.4221 24.6662C49.4221 26.0641 48.2851 27.201 46.8873 27.201H43.6481L42.3649 33.0926H44.4995C45.8973 33.0926 47.0343 34.2295 47.0343 35.6273C47.0343 37.0252 45.8973 38.1621 44.4995 38.1621H41.2604L40.5445 41.4483C40.2931 42.6045 39.2521 43.4436 38.0699 43.4436ZM29.6196 36.4723H37.1209C37.3767 36.4723 37.6187 36.5882 37.7789 36.7873C37.9391 36.9863 38.0006 37.2473 37.9462 37.4974L37.2422 40.729C37.1942 40.9494 37.2351 41.1755 37.3571 41.3658C37.4788 41.5557 37.6677 41.6865 37.8881 41.7348C38.3349 41.8312 38.7965 41.5338 38.8939 41.089L39.7547 37.1381C39.8392 36.7501 40.1829 36.473 40.58 36.473H44.4998C44.9659 36.473 45.3448 36.0941 45.3448 35.628C45.3448 35.162 44.9659 34.7831 44.4998 34.7831H41.3161C41.0603 34.7831 40.8183 34.6672 40.6581 34.4681C40.4979 34.269 40.4364 34.0081 40.4908 33.758L42.1425 26.1766C42.227 25.7886 42.5707 25.5115 42.9678 25.5115H46.8876C47.3537 25.5115 47.7325 25.1326 47.7325 24.6666C47.7325 24.2005 47.3537 23.8216 46.8876 23.8216H43.7039C43.4481 23.8216 43.2061 23.7057 43.0459 23.5066C42.8857 23.3076 42.8242 23.0467 42.8786 22.7966L43.5826 19.5649C43.6816 19.1096 43.392 18.6584 42.9367 18.5591C42.4804 18.461 42.0299 18.75 41.9309 19.2049L41.0701 23.1558C40.9856 23.5438 40.6419 23.821 40.2448 23.821H32.7435C32.4876 23.821 32.2456 23.705 32.0854 23.506C31.9252 23.3069 31.8637 23.046 31.9181 22.7959L32.6221 19.5642C32.6701 19.3438 32.6292 19.1177 32.5072 18.9274C32.3855 18.7375 32.1966 18.6067 31.9763 18.5584C31.5203 18.4604 31.0698 18.7493 30.9705 19.2042L30.1096 23.1551C30.0251 23.5431 29.6814 23.8203 29.2843 23.8203H25.3642C24.8981 23.8203 24.5192 24.1991 24.5192 24.6652C24.5192 25.1313 24.8981 25.5101 25.3642 25.5101H28.5479C28.8037 25.5101 29.0457 25.6261 29.2059 25.8251C29.3661 26.0242 29.4276 26.2851 29.3732 26.5352L27.7215 34.1166C27.637 34.5046 27.2933 34.7817 26.8962 34.7817H22.9767C22.5107 34.7817 22.1318 35.1606 22.1318 35.6267C22.1318 36.0927 22.5107 36.4716 22.9767 36.4716H26.1604C26.4163 36.4716 26.6583 36.5875 26.8185 36.7866C26.9787 36.9857 27.0402 37.2466 26.9858 37.4967L26.2818 40.7284C26.1827 41.1836 26.4724 41.6348 26.9276 41.7342C27.3738 41.8305 27.8361 41.5331 27.9334 41.0883L28.7942 37.1374C28.8787 36.7494 29.2221 36.4723 29.6196 36.4723ZM37.857 34.7824H30.3557C30.0998 34.7824 29.8578 34.6665 29.6976 34.4674C29.5375 34.2684 29.4759 34.0074 29.5304 33.7573L31.182 26.1759C31.2665 25.788 31.6102 25.5108 32.0074 25.5108H39.5087C39.7645 25.5108 40.0065 25.6267 40.1667 25.8258C40.3269 26.0249 40.3884 26.2858 40.334 26.5359L38.6823 34.1173C38.5982 34.5056 38.2544 34.7824 37.857 34.7824ZM31.4047 33.0926H37.1766L38.4599 27.201H32.688L31.4047 33.0926Z" fill="#34C872"/>
</svg>
