<svg width="50" height="50" viewBox="0 0 50 50" fill="none" xmlns="http://www.w3.org/2000/svg">
<path d="M44.2922 25.4392C43.9111 25.4392 43.6023 25.1304 43.6023 24.7493V17.7033C43.6023 17.3222 43.9111 17.0134 44.2922 17.0134C44.6733 17.0134 44.9821 17.3222 44.9821 17.7033V24.7493C44.9821 25.1304 44.6733 25.4392 44.2922 25.4392Z" fill="#34C872"/>
<path d="M32.1998 6.39764H25.2507C24.8696 6.39764 24.5608 6.08884 24.5608 5.70773C24.5608 5.32663 24.8696 5.01782 25.2507 5.01782H32.1998C32.5809 5.01782 32.8897 5.32663 32.8897 5.70773C32.8897 6.08884 32.5809 6.39764 32.1998 6.39764Z" fill="#34C872"/>
<path d="M44.2922 26.819H37.8275C37.5562 26.819 37.3101 26.9779 37.1986 27.2255C37.0871 27.4727 37.131 27.7625 37.3106 27.9659C38.1584 28.9254 38.6253 30.154 38.6253 31.4257C38.6253 32.8689 38.0505 34.2132 37.0065 35.2105C35.9631 36.207 34.5913 36.7186 33.1455 36.6535C30.4328 36.5299 28.2433 34.3048 28.1608 31.5882C28.1202 30.2561 28.586 28.9698 29.4727 27.9662C29.6523 27.7628 29.6962 27.473 29.5845 27.2258C29.473 26.9785 29.2268 26.8195 28.9555 26.8195H23.181V22.3768C24.1615 22.9276 25.2709 23.2221 26.4076 23.2221C28.2314 23.2221 29.9297 22.4957 31.19 21.1766C32.4495 19.8583 33.0972 18.1264 33.0139 16.3001C32.8574 12.8709 30.0456 10.103 26.612 9.99842C25.3997 9.96144 24.22 10.2556 23.181 10.8398V5.70773C23.181 5.32663 22.8722 5.01782 22.4911 5.01782H3.03974C1.36354 5.01782 0 6.38136 0 8.05757V46.9602C0 48.6364 1.36354 50 3.03974 50H41.9427C43.6189 50 44.9824 48.6364 44.9824 46.9602V27.5089C44.9821 27.1278 44.6733 26.819 44.2922 26.819ZM3.03974 6.39764H21.8012V12.1722C21.8012 12.4435 21.9601 12.6896 22.2077 12.8011C22.4546 12.9123 22.7447 12.8687 22.9481 12.6891C23.9518 11.8024 25.2405 11.3393 26.5701 11.3769C29.2867 11.4597 31.5118 13.6494 31.6354 16.3619C31.7014 17.8085 31.1889 19.1795 30.1924 20.2226C29.1951 21.2666 27.8511 21.8414 26.4078 21.8414C25.1365 21.8414 23.9076 21.3745 22.9481 20.5267C22.745 20.3474 22.4549 20.3032 22.2077 20.4147C21.9604 20.5262 21.8012 20.7723 21.8012 21.0436V26.819H17.3595C17.944 25.7797 18.2379 24.5991 18.2009 23.3879C18.0966 19.9547 15.3287 17.1426 11.8998 16.9861C10.071 16.9053 8.34129 17.5505 7.02301 18.81C5.7039 20.0703 4.97729 21.7686 4.97729 23.5924C4.97729 24.7291 5.27174 25.8385 5.82257 26.819H1.37982V8.05757C1.37982 7.14219 2.12437 6.39764 3.03974 6.39764ZM1.37982 46.9602V28.1988H7.15465C7.42592 28.1988 7.67208 28.0398 7.78357 27.7923C7.89506 27.545 7.85118 27.2553 7.67153 27.0519C6.82376 26.0924 6.35683 24.8638 6.35683 23.5921C6.35683 22.1488 6.93167 20.8046 7.97564 19.8073C9.01906 18.8105 10.3906 18.2983 11.8364 18.3643C14.5491 18.4882 16.7389 20.713 16.8214 23.4296C16.862 24.7617 16.3961 26.0479 15.5095 27.0516C15.3298 27.255 15.2859 27.5448 15.3974 27.792C15.5089 28.0393 15.7551 28.1985 16.0263 28.1985H21.8012V32.6404C20.7619 32.056 19.5802 31.7629 18.3704 31.799C14.9374 31.9033 12.125 34.671 11.9683 38.0996C11.8847 39.9264 12.5324 41.6584 13.7919 42.977C15.0522 44.2961 16.7507 45.0227 18.5746 45.0227C19.7113 45.0227 20.8204 44.7282 21.8009 44.1774V48.6201H3.03974C2.12437 48.6201 1.37982 47.8756 1.37982 46.9602ZM43.6023 46.9602C43.6023 47.8756 42.8578 48.6201 41.9424 48.6201H23.181V42.8456C23.181 42.5743 23.022 42.3282 22.7745 42.2167C22.5272 42.1046 22.2375 42.1488 22.0341 42.3284C21.0745 43.1762 19.846 43.6431 18.5746 43.6431C17.1313 43.6431 15.7868 43.0683 14.7895 42.0241C13.793 40.9806 13.2802 39.6094 13.3465 38.1628C13.4706 35.4503 15.6957 33.2611 18.412 33.1783C19.7416 33.1388 21.0301 33.6038 22.0338 34.4905C22.2372 34.6702 22.5269 34.7143 22.7742 34.6026C23.0215 34.4911 23.1807 34.2449 23.1807 33.9736V28.1988H27.6226C27.0381 29.2381 26.7442 30.4187 26.7812 31.6299C26.8855 35.0631 29.6534 37.8752 33.0823 38.0317C34.9117 38.1145 36.6409 37.4673 37.9591 36.2078C39.2782 34.9475 40.0049 33.2492 40.0049 31.4254C40.0049 30.2887 39.7104 29.1793 39.1596 28.1988H43.6023V46.9602Z" fill="#06589C"/>
<path d="M48.932 6.40347C48.9317 6.40347 48.9315 6.40347 48.9312 6.4032L47.5737 6.05327L48.2865 4.84565C48.6163 4.28572 48.5255 3.57374 48.066 3.11398L46.886 1.93423C46.4265 1.47475 45.7145 1.38396 45.1538 1.71401L43.9467 2.42655L43.5968 1.06853C43.434 0.439335 42.8663 0 42.2164 0H40.5477C39.8978 0 39.3301 0.439336 39.1673 1.06909L38.8174 2.42628L37.6095 1.71346C37.0495 1.38396 36.3376 1.47503 35.8781 1.93396L34.6978 3.11426C34.2383 3.57374 34.1478 4.28572 34.4778 4.84648L35.1904 6.05355L33.8324 6.40347C33.2032 6.56629 32.7638 7.13395 32.7638 7.78384V9.4526C32.7638 10.1025 33.2032 10.6702 33.8332 10.8332L35.1904 11.1832L34.4776 12.3911C34.1481 12.951 34.2389 13.663 34.6983 14.1225L35.8784 15.3025C36.3378 15.7622 37.0501 15.853 37.6106 15.5224L38.8176 14.8099L39.1678 16.1682C39.3307 16.7971 39.8983 17.2367 40.5479 17.2367H42.2167C42.8663 17.2367 43.4342 16.7974 43.5973 16.1674L43.9473 14.8099L45.1549 15.5227C45.7151 15.8525 46.4271 15.7617 46.8866 15.3022L48.0666 14.1222C48.5263 13.6627 48.6169 12.9504 48.2865 12.39L47.574 11.1829L48.9323 10.8327C49.5612 10.6699 50.0008 10.1022 50.0008 9.45232V7.78357C50.0005 7.13367 49.5609 6.56629 48.932 6.40347ZM48.6207 9.45232C48.6207 9.4733 48.6064 9.49179 48.5868 9.49675L46.3413 10.0754C46.1312 10.1295 45.959 10.2791 45.876 10.4795C45.7929 10.6798 45.8089 10.9075 45.9193 11.094L47.0977 13.0904C47.1084 13.1083 47.1054 13.1315 47.0908 13.1464L45.9108 14.3264C45.8959 14.3413 45.8729 14.3438 45.8553 14.3339L43.8584 13.1552C43.6716 13.0448 43.4439 13.0288 43.2438 13.1119C43.0435 13.1949 42.8936 13.3671 42.8398 13.5772L42.2614 15.8219C42.2559 15.8423 42.2377 15.8563 42.2167 15.8563H40.5479C40.527 15.8563 40.5088 15.842 40.5035 15.8224L39.9248 13.5769C39.8707 13.3669 39.7212 13.1947 39.5208 13.1116C39.4361 13.0766 39.3464 13.0592 39.2567 13.0592C39.135 13.0592 39.0136 13.0915 38.906 13.1549L36.9096 14.3333C36.8914 14.3443 36.8688 14.341 36.8536 14.3264L35.6736 13.1464C35.6587 13.1315 35.6559 13.1083 35.6661 13.0912L36.8448 11.0943C36.9549 10.9075 36.9712 10.6798 36.8881 10.4795C36.8053 10.2791 36.6328 10.1293 36.4228 10.0754L34.1779 9.49703C34.1574 9.49179 34.1434 9.47357 34.1434 9.45232V7.78357C34.1434 7.76259 34.1574 7.74438 34.1773 7.73914L36.4228 7.16044C36.6328 7.10635 36.805 6.95678 36.8881 6.75643C36.9712 6.55608 36.9552 6.32841 36.8448 6.14158L35.6664 4.14553C35.6556 4.12732 35.6587 4.10414 35.6733 4.08951L36.8533 2.90949C36.8682 2.89486 36.8911 2.89155 36.9085 2.90204L38.9054 4.08068C39.092 4.19079 39.3196 4.20707 39.5202 4.12401C39.7206 4.04122 39.8704 3.86874 39.9243 3.65873L40.5027 1.41376C40.5079 1.39362 40.5261 1.37927 40.5471 1.37927H42.2159C42.2368 1.37927 42.2553 1.39334 42.2603 1.41294L42.839 3.65846C42.8931 3.86847 43.0427 4.04067 43.243 4.12373C43.4436 4.2068 43.671 4.19079 43.8579 4.08041L45.8539 2.90204C45.8721 2.89128 45.895 2.89431 45.9102 2.90921L47.0902 4.08896C47.1051 4.10386 47.1079 4.12704 47.0977 4.14443L45.919 6.14131C45.8089 6.32786 45.7926 6.55553 45.8757 6.75588C45.9585 6.95623 46.131 7.1058 46.341 7.15989L48.5862 7.73859C48.6064 7.74411 48.6204 7.76232 48.6204 7.78302V9.45232H48.6207Z" fill="#06589C"/>
<path d="M41.3819 5.29028C39.547 5.29028 38.0541 6.78325 38.0541 8.61813C38.0541 10.453 39.547 11.946 41.3819 11.946C43.2168 11.946 44.7098 10.453 44.7098 8.61813C44.7098 6.78325 43.2171 5.29028 41.3819 5.29028ZM41.3819 10.5662C40.3076 10.5662 39.4339 9.69219 39.4339 8.61813C39.4339 7.54408 40.3079 6.6701 41.3819 6.6701C42.456 6.6701 43.33 7.54408 43.33 8.61813C43.33 9.69219 42.4563 10.5662 41.3819 10.5662Z" fill="#06589C"/>
</svg>
