<svg width="556" height="532" viewBox="0 0 556 532" fill="none" xmlns="http://www.w3.org/2000/svg">
<path d="M498.386 237.08L499.343 235.915C499.413 235.829 506.344 227.365 512.893 216.124C521.738 200.947 525.729 188.205 524.753 178.243C524.136 171.933 521.476 166.807 516.849 163.007C510.624 157.897 505.852 159.457 502.943 161.666C497.035 166.147 492.813 177.841 491.654 192.944C490.459 208.477 492.692 224.057 497.781 235.7L498.386 237.08ZM508.754 161.451C510.937 161.451 513.252 162.448 515.677 164.438C519.91 167.914 522.343 172.617 522.913 178.419C524.913 198.824 503.693 227.345 498.874 233.526C488.807 208.719 493.11 171.44 504.06 163.136C505.544 162.014 507.114 161.451 508.754 161.451Z" fill="#DCDFFE"/>
<path d="M490.74 277.21L490.513 275.657C490.498 275.552 488.959 265.144 484.746 252.868C480.841 241.491 473.769 226.118 462.257 217.508C456.794 213.423 453.111 213.947 450.987 215.108C447.562 216.977 445.781 221.919 446.227 228.327C446.789 236.459 450.713 245.733 456.997 253.763C464.764 263.694 475.924 271.607 489.279 276.658L490.74 277.21ZM454.337 216.128C456.302 216.128 458.609 217.09 461.152 218.994C480.103 233.167 487.05 266.661 488.42 274.344C476.053 269.402 465.713 261.915 458.449 252.625C452.389 244.88 448.609 235.978 448.07 228.201C447.679 222.536 449.101 218.247 451.873 216.734C452.615 216.328 453.439 216.128 454.337 216.128Z" fill="#DCDFFE"/>
<path d="M506.208 279.884C512.378 279.884 520.32 278.977 530.212 276.216C545.23 272.025 556.496 257.493 554.841 248.974C554.259 245.971 551.557 241.131 540.002 242.437C526.229 243.997 513.057 252.833 504.431 259.972C495.121 267.678 488.951 275.126 488.889 275.2L488.206 276.029L489.123 276.584C489.455 276.783 494.797 279.884 506.208 279.884ZM543.598 244.075C549.05 244.075 552.353 245.893 553.025 249.329C554.52 257.035 543.489 270.59 529.716 274.434C506.719 280.849 494.497 276.952 491.084 275.481C495.403 270.551 517.224 246.878 540.209 244.278C541.415 244.141 542.548 244.075 543.598 244.075Z" fill="#DCDFFE"/>
<path d="M475.698 325.013L475.319 323.391C475.288 323.266 472.285 310.54 466.279 297.106C458.149 278.922 448.683 268.151 438.143 265.097C431.68 263.225 427.1 264.945 425.569 269.808C423.523 276.318 427.346 287.136 435.308 297.376C444.774 309.551 458.559 319.172 474.124 324.474L475.698 325.013ZM433.371 266.192C434.793 266.192 436.277 266.481 437.628 266.876C459.082 273.093 470.801 313.433 473.097 322.155C458.535 316.866 445.684 307.709 436.765 296.242C429.283 286.62 425.491 276.224 427.33 270.368C428.334 267.185 430.747 266.192 433.371 266.192Z" fill="#DCDFFE"/>
<path d="M509.382 331.902C513.034 331.902 516.724 331.601 520.32 330.874C536.651 327.578 544.356 317.906 543.313 310.481C542.559 305.121 536.96 299.78 523.507 300.859C496.422 303.045 474.026 322.707 473.804 322.906L472.714 323.876L474.054 324.45C474.901 324.81 491.693 331.902 509.382 331.902ZM526.908 302.572C536.737 302.572 540.908 306.642 541.482 310.739C542.419 317.421 534.624 326.1 519.953 329.06C502.326 332.618 481.719 325.436 476.198 323.313C481.083 319.34 500.666 304.562 523.651 302.705C524.803 302.615 525.885 302.572 526.908 302.572Z" fill="#DCDFFE"/>
<path d="M453.025 375.593L452.842 374.08C452.826 373.951 451.241 361.096 446.473 346.904C442.04 333.716 433.867 316.631 420.09 310.125C414.139 307.314 410.675 308.35 408.821 309.715C405.833 311.912 404.662 316.557 405.525 322.789C406.72 331.445 411.699 341.989 418.837 350.99C424.901 358.633 435.503 369.013 451.6 375.058L453.025 375.593ZM413.331 310.192C415.029 310.192 417.041 310.727 419.305 311.799C442.119 322.574 449.499 364.189 450.792 372.759C422.683 361.518 409.238 336.137 407.36 322.535C406.606 317.089 407.54 312.96 409.922 311.208C410.839 310.532 411.987 310.192 413.331 310.192Z" fill="#DCDFFE"/>
<path d="M503.408 398.113C513.147 398.113 522.257 393.171 524.487 386.138C526.416 380.054 522.503 374.096 513.76 369.791C501.748 363.876 485.464 365.162 473.917 367.285C461.472 369.568 451.694 373.29 451.6 373.326L450.089 373.904L451.358 374.913C451.596 375.105 475.631 394.059 498.991 397.765C500.46 398 501.94 398.113 503.408 398.113ZM492.15 367.359C499.542 367.359 506.844 368.45 512.944 371.453C520.898 375.367 524.37 380.387 522.726 385.579C520.719 391.92 510.593 397.734 499.28 395.939C479.513 392.804 459.176 378.459 453.845 374.487C458.98 372.708 475.784 367.359 492.15 367.359Z" fill="#DCDFFE"/>
<path d="M424.456 422.666L424.167 421.13C424.14 420.989 421.477 407.012 416.205 393.062C409.024 374.065 400.651 364.161 391.326 363.626C385.586 363.293 381.716 366.194 380.701 371.574C379.369 378.651 382.954 388.961 390.057 398.488C398.289 409.526 409.976 417.939 422.972 422.181L424.456 422.666ZM390.424 365.451C390.682 365.451 390.947 365.459 391.217 365.475C409.793 366.546 420.129 410.933 422.027 419.906C410 415.636 399.222 407.684 391.537 397.382C384.836 388.398 381.294 378.4 382.516 371.918C383.317 367.676 386.043 365.451 390.424 365.451Z" fill="#DCDFFE"/>
<path d="M471.18 449.573C481.348 449.573 489.994 444.408 492.064 438.184C493.063 435.177 493.844 427.553 479.517 421.665C465.678 415.977 451.042 415.941 441.201 416.915C430.552 417.967 423.269 420.324 422.965 420.426L421.746 420.825L422.508 421.857C422.656 422.056 437.542 441.859 463.569 448.607C466.15 449.272 468.712 449.573 471.18 449.573ZM450.987 418.307C459.683 418.307 469.469 419.534 478.818 423.378C487.889 427.107 492.079 432.292 490.31 437.601C488.042 444.424 476.069 449.932 464.037 446.812C442.099 441.124 428.271 425.935 424.839 421.802C428.338 420.821 438.546 418.307 450.987 418.307Z" fill="#DCDFFE"/>
<path d="M362.113 487.575C386.39 469.7 408.723 445.319 428.49 415.101C444.29 390.951 458.5 363.039 470.723 332.141C491.529 279.548 499.464 235.927 499.538 235.489L497.718 235.165C497.64 235.599 489.732 279.067 468.989 331.496C449.866 379.831 415.608 445.89 361.015 486.085L362.113 487.575Z" fill="#DCDFFE"/>
<path d="M155.401 406.273L155.225 404.955C155.186 404.658 151.472 374.565 169.111 324.466C172.692 314.297 175.957 305.578 178.835 297.888C190.296 267.271 195.041 254.596 183.396 245.025C179.717 242.003 175.66 240.857 171.329 241.62C159.368 243.731 149.141 259.612 146.29 264.433C144.213 267.944 142.995 268.401 142.733 268.288C142.362 268.123 141.503 266.524 141.979 261.164C142.44 255.992 143.979 248.981 146.419 240.896L146.673 240.06C154.694 213.528 165.675 177.195 151.722 168.371C147.892 165.947 144.404 165.212 141.066 166.119C133.755 168.105 128.784 177.719 123.52 187.9C123.114 188.69 122.704 189.48 122.29 190.273C114.133 205.936 111.805 205.416 111.704 205.388C111.626 205.365 109.814 204.634 111.509 191.364C111.696 189.886 111.903 188.33 112.114 186.712C113.785 173.954 116.073 156.486 115.718 141.324C115.289 123.019 111.192 112.04 103.199 107.759C96.1228 103.967 89.4062 103.509 83.2363 106.391C72.1929 111.552 63.6253 127.39 58.4511 152.189C53.2887 176.934 58.2793 197.733 61.2588 210.158C62.8911 216.973 64.1837 222.353 62.3562 223.005C60.7512 223.576 56.2526 219.436 51.8946 215.436C43.9089 208.106 32.9592 198.058 22.5367 198.843C17.9678 199.188 13.8598 201.58 10.3296 205.963C7.40479 209.591 6.17471 213.642 6.67845 217.997C8.24437 231.517 25.731 245.134 38.5004 255.077C41.9095 257.731 44.8539 260.022 46.9274 261.891C49.8367 264.511 49.8288 265.269 49.8171 265.347C49.8132 265.363 49.6141 265.895 47.0875 265.602C45.0725 265.371 42.3234 264.71 39.1408 263.952C32.4867 262.36 24.2003 260.382 16.8901 260.887C8.11942 261.493 2.62505 265.684 0.563187 273.339C-0.483353 277.217 -0.0694122 280.814 1.78937 284.028C7.37744 293.693 25.2742 298.404 39.6524 302.193C48.6027 304.55 57.057 306.779 59.4039 309.488C61.9305 312.409 62.8872 314.567 62.4069 316.283C61.5439 319.368 55.7918 321.757 46.1504 324.845C44.2057 325.467 43.1864 326.929 43.2762 328.958C43.6003 336.25 59.0954 352.694 80.9596 368.943C106.213 387.713 132.877 401.214 154.104 405.983L155.401 406.273ZM173.872 243.246C176.824 243.246 179.624 244.321 182.224 246.456C192.846 255.186 188.562 266.634 177.105 297.235C174.223 304.933 170.955 313.66 167.37 323.848C158.072 350.254 154.764 370.937 153.628 383.635C152.675 394.293 153.031 401.163 153.261 403.88C132.482 398.922 106.623 385.7 82.0648 367.449C60.9543 351.76 45.4201 335.534 45.1272 328.868C45.0726 327.668 45.5646 326.968 46.7166 326.601C57.4436 323.168 63.0903 320.705 64.1915 316.776C64.8553 314.406 63.7815 311.705 60.8058 308.268C58.084 305.125 50.1608 303.037 40.1249 300.394C26.0786 296.692 8.59584 292.086 3.39047 283.09C1.76598 280.279 1.42232 277.245 2.34781 273.812C6.59647 258.064 25.9224 262.685 38.7113 265.742C46.1972 267.533 50.7153 268.612 51.5783 265.891C52.3046 263.6 48.4426 260.468 39.6329 253.607C27.828 244.415 9.98993 230.52 8.51384 217.774C8.06476 213.876 9.12691 210.389 11.7667 207.116C15.0079 203.093 18.5771 200.99 22.6734 200.681C32.3071 199.958 42.9052 209.689 50.645 216.793C56.4752 222.145 60.3294 225.684 62.977 224.741C66.3705 223.533 65.1248 218.333 63.059 209.72C60.1147 197.444 55.1904 176.898 60.2669 152.56C65.3161 128.355 73.5323 112.967 84.0251 108.06C89.6366 105.437 95.7948 105.883 102.332 109.382C119.201 118.417 113.621 161.013 110.286 186.465C110.075 188.088 109.868 189.644 109.681 191.122C107.994 204.305 109.478 206.624 111.153 207.148C112.93 207.707 115.984 206.385 123.93 191.126C124.344 190.332 124.754 189.538 125.16 188.749C130.233 178.939 135.025 169.673 141.55 167.902C144.361 167.14 147.368 167.804 150.738 169.931C163.504 178.001 152.312 215.022 144.908 239.516L144.654 240.353C140.683 253.489 137.899 268.17 141.991 269.973C143.659 270.708 145.642 269.156 147.884 265.367C153.546 255.792 162.766 245.001 171.654 243.434C172.399 243.312 173.141 243.246 173.872 243.246Z" fill="#DCDFFE"/>
<path d="M187.852 451.485L189.222 450.241C135.513 390.825 112.414 309.167 102.5 251.128C91.7491 188.209 93.7406 138.744 93.7641 138.251L91.917 138.169C91.8975 138.661 89.8942 188.326 100.68 251.437C107.014 288.513 116.456 322.914 128.741 353.691C144.108 392.194 163.996 425.094 187.852 451.485Z" fill="#DCDFFE"/>
<path d="M105.389 275.755L106.018 274.015C95.1348 270.063 69.5453 253.986 69.2876 253.822L68.3035 255.39C69.3618 256.054 94.3226 271.732 105.389 275.755Z" fill="#DCDFFE"/>
<path d="M102.992 255.358C112.887 249.846 128.214 224.542 128.859 223.467L127.277 222.509C127.121 222.767 111.559 248.465 102.094 253.74L102.992 255.358Z" fill="#DCDFFE"/>
<path d="M129.148 351.552C140.82 342.799 152.125 306.978 152.601 305.457L150.836 304.906C150.723 305.273 139.234 341.677 128.039 350.071L129.148 351.552Z" fill="#DCDFFE"/>
<path d="M116.382 314.786L116.558 312.944C96.0486 310.997 76.9219 299.937 76.7305 299.827L75.7972 301.426C75.9886 301.536 95.4551 312.796 116.382 314.786Z" fill="#DCDFFE"/>
<path d="M207.865 482.821C61.9618 420.805 179.35 360.013 146.166 293.623C100.126 201.514 115.843 125.959 204.342 111.677C292.838 97.3946 424.917 164.204 451.128 223.627C487.366 305.778 398.679 335.284 389.296 365.299C379.658 396.115 467.595 593.219 207.865 482.821Z" fill="#DCDFFE"/>
<path d="M235.93 223.627C235.93 223.627 205.842 221.766 213.211 189.847C213.211 189.847 199.555 183.56 201.25 158.957C202.944 134.353 227.679 132.93 227.679 132.93C227.679 132.93 221.665 117.827 234.735 109.096C247.805 100.366 254.284 114.66 254.284 114.66C254.284 114.66 258.813 86.3496 290.835 89.0552C322.856 91.7607 324.008 118.1 324.008 118.1C324.008 118.1 345.598 116.145 352.885 136.198C360.172 156.251 348.105 163.351 348.105 163.351C348.105 163.351 357.571 168.485 355.615 184.174C353.658 199.86 338.167 205.658 322.34 206.819C306.513 207.98 235.93 223.627 235.93 223.627Z" fill="#252144"/>
<path d="M143.33 322.648C155.991 280.826 217.018 254.369 217.018 254.369L254.924 273.8L262.679 277.249L267.584 273.3L274.215 265.136C282.782 267.576 306.482 276.987 327.214 281.878C347.945 286.769 374.242 280.181 374.242 280.181C369.778 258.943 362.449 225.574 362.449 225.574C370.469 223.819 391.248 213.481 391.248 213.481C391.248 213.481 402.116 230.891 409.629 246.08C417.142 261.27 444.149 304.781 426.737 329.373C409.324 353.961 327.71 352.366 327.71 352.366C339.952 385.184 343.888 492.247 343.826 516.1C327.225 552.003 228.674 513.485 172.376 500.109C173.797 476.984 176.718 455.488 174.848 435.259C172.067 405.151 130.67 364.47 143.33 322.648Z" fill="#FE5A4E"/>
<path d="M215.663 256.277C215.663 256.277 235.383 231.118 242.041 207.261C248.699 183.404 276.648 249.799 276.648 249.799L274.219 265.132L266.479 278.719L239.999 274.832L215.663 256.277Z" fill="#F7AFA4"/>
<path d="M242.041 207.261C248.699 183.404 276.648 249.799 276.648 249.799L274.219 265.132L272.52 269.159C267.006 269.871 262.078 268.901 258.228 266.685C248.317 260.969 239.956 234.058 237.523 220.069C239.206 216.117 240.764 211.828 242.041 207.261Z" fill="#E98786"/>
<path d="M200.004 335.073L201.847 334.936C200.445 315.763 207.974 299.98 214.538 290.115C221.661 279.411 230.041 272.835 230.115 272.772L228.093 271.697C227.776 271.955 220.275 278.152 213 289.087C206.275 299.198 198.563 315.38 200.004 335.073Z" fill="white"/>
<path d="M191.171 323.676C191.171 323.676 229.377 353.46 240.944 392.245L333.965 381.802C333.965 381.802 336.925 406.253 337.25 418.303C337.25 418.303 264.745 445.96 237.742 450.851C210.739 455.746 205.315 453.228 182.959 418.146C160.602 383.065 157.802 369.146 154.639 354.848" fill="#E54545"/>
<path d="M188.855 326.55C188.855 326.55 222.251 371.93 233.97 411.218L328.768 393.054C328.768 393.054 332.806 406.515 337.253 418.299C337.253 418.299 258.763 465.45 236.461 469.493C209.107 474.45 203.612 471.901 180.963 436.362C177.304 430.618 173.915 425.043 170.787 419.663C163.527 400.979 151.824 375.453 146.165 352.753L188.855 326.55Z" fill="#D13F3F"/>
<path d="M330.42 171.249C330.42 171.249 334.992 199.281 316.736 230.926C298.48 262.572 275.589 268.006 263.437 260.996C251.281 253.986 241.452 215.073 242.041 207.257C242.635 199.442 255.533 163.523 255.533 163.523C255.533 163.523 291.416 134.083 299.343 141.66C307.271 149.245 330.42 171.249 330.42 171.249Z" fill="#F7AFA4"/>
<path d="M337.328 178.126C337.328 178.126 328.717 188.522 307.603 180.304C284.918 171.476 288.827 151.759 288.827 151.759C288.827 151.759 282.341 163.891 265.054 166.323C265.054 166.323 260.188 189.589 251.976 194.48C243.763 199.375 257.458 177.371 239.585 175.377C221.712 173.384 239.917 126.588 239.917 126.588L282.357 111.043L313.87 122.722C313.87 122.722 342.064 136.773 343.622 147.447C345.181 158.124 337.328 178.126 337.328 178.126Z" fill="#252144"/>
<path d="M384.359 200.325C384.359 200.325 379.349 166.303 358.996 150.699C343.544 138.849 327.955 141.422 316.92 152.869C308.918 161.17 320.2 161.506 326.62 159.094C330.267 157.721 340.412 154.003 343.041 158.085C344.907 160.986 332.364 163.336 330.42 171.249C328.475 179.162 330.646 179.889 332.407 187.81C333.758 193.89 336.789 194.68 341.744 196.064C346.696 197.448 348.406 196.936 348.406 196.936C348.406 196.936 348.964 195.192 356.903 208.598C361.308 216.046 384.359 200.325 384.359 200.325Z" fill="#F7AFA4"/>
<path d="M349.183 416.364L346.95 415.765C344.446 415.097 343.013 412.466 343.802 409.995L364.838 344.222C365.584 341.892 367.638 340.23 370.067 339.984L401.382 337.337C402.432 337.247 403.482 337.513 404.369 338.087L408.536 340.801L349.183 416.364Z" fill="#3D3B66"/>
<path d="M407.77 340.715L372.43 345.156C371.149 345.317 370.083 346.22 369.712 347.463L349.179 416.364L382.036 410.98C384.254 410.616 386.101 409.072 386.851 406.949L409.508 342.877C409.918 341.731 408.977 340.558 407.77 340.715Z" fill="#252144"/>
<path d="M330.045 388.179C330.045 388.179 340.272 379.452 343.423 373.001C346.575 366.554 359.824 363.77 364.546 361.092C369.267 358.414 376.292 358.938 369.435 371.355C369.435 371.355 386.453 367 393.946 363.34C401.44 359.681 406.071 355.779 407.708 356.924C409.344 358.066 407.294 368.962 399.367 373.756C399.367 373.756 398.89 381.372 392.537 386.501C392.537 386.501 389.077 395.822 379.267 399.65C369.458 403.477 335.113 415.062 335.113 415.062L330.045 388.179Z" fill="#F7AFA4"/>
<path d="M190.027 316.408C190.027 316.408 222.989 361.202 234.559 399.986L316.326 389.899C316.326 389.899 327.03 416.884 327.225 419.198C327.225 419.198 264.019 452.611 237.016 457.502C210.012 462.393 204.588 459.879 182.232 424.797C159.876 389.715 147.661 360.846 144.494 346.548" fill="#FE5A4E"/>
<path d="M240.985 210.443C232.197 209.817 225.58 202.176 226.205 193.378C226.831 184.579 234.462 177.954 243.25 178.58C252.038 179.207 258.655 186.847 258.03 195.646C257.404 204.444 249.773 211.069 240.985 210.443Z" fill="#F7AFA4"/>
<path d="M274.215 265.132C274.215 265.132 271.563 271.349 254.74 269.472C237.914 267.596 219.588 250.667 219.588 250.667C219.588 250.667 215.093 253.423 212.059 256.711C212.059 256.711 234.333 284.959 259.852 283.668C285.371 282.382 278.87 266.606 278.87 266.606L274.215 265.132Z" fill="white"/>
<path d="M333.489 385.039C333.489 385.039 319.361 388.914 316.33 389.899C316.33 389.899 320.485 411.222 327.229 419.198C327.229 419.198 341.881 414.049 343.63 412.168C343.626 412.172 335.687 404.533 333.489 385.039Z" fill="white"/>
<path d="M356.903 208.602C356.903 208.602 361.347 222.579 362.452 225.57C362.452 225.57 383.563 220.55 391.252 213.478C391.252 213.478 385.519 199.027 383.571 197.358C383.571 197.358 376.268 205.607 356.903 208.602Z" fill="white"/>
<path d="M328.159 352.245C328.202 352.245 328.245 352.241 328.288 352.237C328.791 352.166 329.147 351.697 329.076 351.193C329.057 351.044 326.905 336.117 319.376 318.938C314.948 308.835 309.551 299.933 303.338 292.473C295.548 283.125 286.445 276.033 276.285 271.392C275.82 271.181 275.273 271.384 275.058 271.849C274.847 272.315 275.051 272.862 275.515 273.077C297.961 283.324 310.824 304.054 317.662 319.638C325.101 336.59 327.221 351.306 327.245 351.451C327.311 351.908 327.706 352.245 328.159 352.245Z" fill="white"/>
<path d="M159.767 82.8466C161.337 82.8466 162.715 82.2914 163.875 81.1928C165.085 80.0472 165.726 78.6202 165.78 76.9625C165.835 75.2774 165.292 73.7995 164.164 72.5719C163.031 71.3403 161.614 70.6913 159.95 70.6327C158.255 70.574 156.787 71.1292 155.577 72.2825C154.366 73.432 153.726 74.8669 153.667 76.5558C153.612 78.2175 154.155 79.6797 155.288 80.9073C156.42 82.1389 157.849 82.7879 159.544 82.8466C159.614 82.8466 159.693 82.8466 159.767 82.8466ZM159.888 72.4819C161.055 72.521 162.008 72.9589 162.805 73.823C163.605 74.6909 163.972 75.6957 163.933 76.896C163.894 78.0689 163.461 79.0346 162.602 79.8478C161.75 80.6571 160.762 81.0285 159.603 80.9934C158.408 80.9543 157.439 80.5125 156.647 79.6484C155.846 78.7805 155.475 77.7874 155.518 76.6145C155.557 75.4142 155.994 74.4368 156.85 73.6236C157.697 72.8143 158.689 72.4389 159.888 72.4819ZM160.212 67.3133C162.324 67.3133 164.09 65.6361 164.183 63.5131C164.636 53.3948 164.008 50.6697 163.48 49.5437C162.406 46.3925 159.267 43.3899 153.886 40.3677C153.792 40.3129 153.714 40.266 153.655 40.223C151.289 38.4597 150.305 34.5852 150.73 28.7011C150.805 26.496 151.754 24.7367 153.632 23.2901C155.541 21.82 158.134 21.1319 161.333 21.2414C165.265 21.3743 168.186 22.7271 170.263 25.3779C171.333 26.7189 172.005 28.5174 172.274 30.7342C172.505 32.6421 174.145 34.1317 176.094 34.1942C177.249 34.2294 178.355 33.7681 179.136 32.9197C179.924 32.0635 180.299 30.9062 180.166 29.745C179.682 25.5382 178.101 21.9803 175.473 19.1771C172.114 15.5958 167.471 13.68 161.676 13.4846C155.983 13.2891 151.383 14.6262 148.009 17.4451C144.682 20.2249 142.881 23.7671 142.667 27.9739C142.659 28.099 142.643 28.2241 142.612 28.361C142.143 30.4175 142.21 33.2598 142.815 37.0522C143.44 40.9815 145.427 44.2031 148.723 46.6193C148.954 46.7913 149.227 46.9399 149.528 47.0689C152.3 48.2457 154.421 49.9973 155.83 52.2766C155.967 52.4995 156.061 52.7614 156.1 53.0586C156.322 54.6733 156.373 58.0981 156.244 63.2433C156.19 65.4171 157.908 67.2429 160.079 67.3172C160.122 67.3133 160.165 67.3133 160.212 67.3133ZM160.696 19.3765C157.373 19.3765 154.624 20.1975 152.511 21.82C150.199 23.599 148.981 25.8822 148.887 28.5995C148.407 35.2108 149.606 39.5114 152.554 41.7087C152.679 41.8025 152.816 41.8885 152.984 41.9824C157.904 44.7465 160.852 47.5068 161.747 50.1849L161.793 50.2983C162.266 51.264 162.742 54.3253 162.34 63.431C162.289 64.5922 161.29 65.4992 160.153 65.464C158.986 65.4249 158.068 64.4475 158.099 63.2863C158.232 57.9691 158.181 54.5364 157.939 52.8005C157.861 52.2492 157.685 51.7449 157.408 51.2992C155.791 48.6875 153.386 46.6896 150.254 45.3603C150.086 45.29 149.938 45.2079 149.825 45.1219C146.896 42.9715 145.205 40.2347 144.65 36.7551C144.092 33.2481 144.018 30.5621 144.424 28.7676C144.479 28.5291 144.51 28.2906 144.522 28.0638C144.713 24.3457 146.244 21.3352 149.2 18.8643C152.214 16.3426 156.393 15.154 161.622 15.3299C166.913 15.5059 171.122 17.2261 174.133 20.4399C176.484 22.9499 177.898 26.1481 178.339 29.9522C178.409 30.5778 178.21 31.1994 177.784 31.6608C177.363 32.1182 176.785 32.3606 176.164 32.341C175.117 32.3059 174.239 31.5161 174.118 30.5074C173.809 27.9465 173.005 25.8314 171.724 24.2245C169.326 21.1671 165.855 19.5368 161.407 19.3882C161.161 19.3804 160.926 19.3765 160.696 19.3765Z" fill="#DCDFFE"/>
<path d="M187.93 181.371H187.941C189.714 181.371 191.062 179.788 190.8 178.036C190.234 174.236 188.722 171.116 186.266 168.665C183.127 165.533 178.917 163.969 173.633 163.969C168.432 163.969 164.351 165.29 161.395 167.933C158.505 170.518 157.029 173.689 156.963 177.442C156.959 177.61 156.939 177.778 156.908 177.946C156.553 179.78 156.709 182.415 157.373 185.848C158.048 189.331 159.892 192.103 162.906 194.164C163.09 194.289 163.293 194.39 163.504 194.469C166.351 195.567 168.533 197.252 170.049 199.528C170.256 199.84 170.396 200.192 170.459 200.564C170.736 202.124 170.896 205.4 170.939 210.381C170.951 211.968 172.243 213.251 173.829 213.251C175.414 213.251 176.699 211.972 176.718 210.385C176.796 203.273 176.453 198.992 175.684 197.545C174.668 194.813 171.677 192.158 166.702 189.581C166.597 189.527 166.487 189.464 166.39 189.398C163.816 187.615 162.645 183.756 162.875 177.821C162.875 175.507 163.84 173.552 165.773 171.96C167.706 170.369 170.299 169.572 173.555 169.572C177.523 169.572 180.608 170.885 182.818 173.516C183.974 174.869 184.728 176.672 185.079 178.916C185.298 180.327 186.504 181.371 187.93 181.371ZM173.712 215.225C172.345 215.225 171.189 215.706 170.244 216.664C169.299 217.626 168.826 218.787 168.826 220.155C168.826 221.496 169.299 222.65 170.244 223.608C171.189 224.569 172.345 225.046 173.712 225.046C175.051 225.046 176.195 224.565 177.14 223.608C178.085 222.646 178.558 221.496 178.558 220.155C178.558 218.787 178.085 217.626 177.14 216.664C176.191 215.706 175.051 215.225 173.712 215.225Z" fill="white"/>
<path d="M291.272 3.9097C303.073 5.02006 314.362 9.47321 323.691 16.8078C328.276 20.4126 333.376 24.9674 334.688 30.9179C335.922 36.5049 333.298 41.3177 328.416 44.0193C323.398 46.7991 317.295 47.8938 311.652 48.4647C305.42 49.0941 299.09 48.7344 292.955 47.4638C289.737 46.7952 286.574 45.8686 283.509 44.6801C280.97 43.6948 278.19 42.6666 276.042 40.9541C274.18 39.4684 273.047 37.236 273.879 34.8667C274.75 32.3841 277.249 31.0313 279.701 30.613C282.802 30.0812 286.109 30.2806 289.241 30.2924C292.67 30.3041 296.102 30.394 299.527 30.5973C306.236 30.9922 312.937 31.7976 319.509 33.2207C331.22 35.7581 342.556 40.3833 352.143 47.6632C356.622 51.0646 360.668 54.986 364.096 59.4548C367.564 63.9784 370.805 69.2252 371.719 74.9411C372.609 80.5359 370.673 85.5599 366.061 88.8831C361.246 92.3511 354.982 93.8758 349.171 94.4897C336.062 95.8737 322.692 92.2611 310.317 88.285C297.684 84.2267 285.438 78.933 273.828 72.5015C270.899 70.879 268.018 69.1822 265.171 67.4189C263.769 66.5509 265.058 64.3263 266.467 65.1982C276.62 71.4811 287.3 76.8999 298.399 81.2944C309.18 85.5599 320.454 89.2116 331.904 91.1469C337.691 92.1243 343.642 92.5504 349.492 91.8819C354.92 91.2602 361.074 89.7276 365.385 86.1815C374.765 78.4599 365.733 64.9871 359.742 58.1685C344.896 41.2669 322.309 34.6517 300.554 33.2325C294.544 32.8415 288.488 32.732 282.47 32.9431C280.228 33.0213 274.422 34.1317 276.523 37.7521C277.772 39.9063 281.15 40.9698 283.306 41.8534C293.873 46.1892 305.771 47.3426 316.967 45.0984C321.602 44.1679 327.323 42.9129 330.537 39.1283C334.832 34.077 331.173 27.4735 327.311 23.4895C319.771 15.7092 309.754 10.2864 299.25 7.79594C296.622 7.1743 293.959 6.74033 291.268 6.48619C289.64 6.3259 289.624 3.75331 291.272 3.9097Z" fill="#DCDFFE"/>
<path d="M157.061 99.5645C175.969 99.5645 193.756 94.4232 207.146 85.0868C220.638 75.6801 228.069 63.1417 228.069 49.7822C228.069 36.4228 220.638 23.8805 207.146 14.4776C193.756 5.14126 175.969 0 157.061 0C138.152 0 120.365 5.14126 106.975 14.4776C93.483 23.8844 86.0518 36.4228 86.0518 49.7822C86.0518 63.1417 93.483 75.684 106.975 85.0868C120.365 94.4232 138.156 99.5645 157.061 99.5645ZM157.061 1.84929C195.197 1.84929 226.222 23.3526 226.222 49.7822C226.222 76.2118 195.197 97.7152 157.061 97.7152C118.924 97.7152 87.8988 76.2118 87.8988 49.7822C87.8988 23.3526 118.928 1.84929 157.061 1.84929Z" fill="#DCDFFE"/>
<path d="M214.909 103.693C215.519 103.693 216.139 103.646 216.768 103.552C219.279 103.177 221.54 102.082 223.133 100.475C224.797 98.7982 225.551 96.7573 225.246 94.736C224.637 90.6699 219.841 88.0074 214.558 88.801C212.047 89.1764 209.786 90.2711 208.193 91.878C206.529 93.5552 205.776 95.5961 206.08 97.6174C206.619 101.199 210.403 103.693 214.909 103.693ZM216.448 90.5135C220.041 90.5135 223.02 92.3471 223.418 95.0136C223.633 96.4406 223.067 97.9185 221.821 99.1735C220.505 100.499 218.615 101.406 216.495 101.723C212.223 102.364 208.369 100.401 207.912 97.3437C207.697 95.9167 208.263 94.4388 209.509 93.1838C210.825 91.8584 212.715 90.9514 214.835 90.6347C215.378 90.5526 215.921 90.5135 216.448 90.5135Z" fill="#DCDFFE"/>
<path d="M53.9313 286.094C51.9245 284.085 51.9244 280.827 53.9313 278.818C55.9382 276.809 59.192 276.809 61.1989 278.818C63.2058 280.827 63.2058 284.085 61.1989 286.094C59.192 288.104 55.9382 288.104 53.9313 286.094Z" fill="#F94B4B"/>
<path d="M476.276 201.772C473.791 201.772 471.777 199.755 471.777 197.268C471.777 194.78 473.791 192.764 476.276 192.764C478.76 192.764 480.774 194.78 480.774 197.268C480.774 199.755 478.76 201.772 476.276 201.772Z" fill="#6F6FEF"/>
<path d="M383.758 449.932C381.349 449.932 379.396 447.977 379.396 445.565C379.396 443.153 381.349 441.198 383.758 441.198C386.167 441.198 388.12 443.153 388.12 445.565C388.12 447.977 386.167 449.932 383.758 449.932Z" fill="white"/>
<path d="M423.418 237.62C419.73 237.62 416.74 234.627 416.74 230.934C416.74 227.242 419.73 224.249 423.418 224.249C427.105 224.249 430.095 227.242 430.095 230.934C430.095 234.627 427.105 237.62 423.418 237.62Z" fill="white"/>
<path d="M425.745 219.823C423.761 219.823 422.152 218.213 422.152 216.226C422.152 214.239 423.761 212.629 425.745 212.629C427.729 212.629 429.338 214.239 429.338 216.226C429.338 218.213 427.729 219.823 425.745 219.823Z" fill="white"/>
<path d="M159.493 258.58C155.885 258.58 152.96 255.651 152.96 252.039C152.96 248.426 155.885 245.498 159.493 245.498C163.102 245.498 166.026 248.426 166.026 252.039C166.026 255.651 163.102 258.58 159.493 258.58Z" fill="white"/>
<path d="M160.622 273.957C158.657 273.957 157.064 272.362 157.064 270.395C157.064 268.428 158.657 266.833 160.622 266.833C162.587 266.833 164.179 268.428 164.179 270.395C164.179 272.362 162.587 273.957 160.622 273.957Z" fill="white"/>
<path d="M187.428 128.975C185.999 125.658 187.527 121.809 190.84 120.378C194.153 118.948 197.998 120.477 199.426 123.794C200.855 127.112 199.327 130.961 196.014 132.391C192.701 133.822 188.857 132.292 187.428 128.975Z" fill="white"/>
<path d="M349.433 256.437C350.077 258.525 352.292 259.698 354.377 259.053C356.462 258.408 357.634 256.191 356.989 254.103C356.345 252.015 354.131 250.843 352.046 251.488C349.96 252.129 348.793 254.346 349.433 256.437Z" fill="white"/>
<path d="M419.446 157.174C419.868 157.174 420.297 157.119 420.731 157.01C422.082 156.673 423.129 155.892 423.839 154.687C424.55 153.487 424.741 152.197 424.406 150.848C424.066 149.48 423.289 148.416 422.102 147.689C421.176 147.122 420.188 146.876 419.161 146.95C420.497 146.246 421.246 144.694 420.883 143.162C419.001 135.205 417.896 133.188 417.224 132.41C415.666 130.166 412.534 128.512 407.653 127.347C407.591 127.331 407.528 127.316 407.469 127.292C405.302 126.471 403.721 123.723 402.768 119.125C402.35 117.444 402.69 115.919 403.795 114.425C404.927 112.897 406.751 111.814 409.219 111.2C412.245 110.445 414.764 110.84 416.916 112.404C418.009 113.186 418.903 114.398 419.587 116.013C420.239 117.565 421.895 118.397 423.519 117.991L423.527 117.987C424.48 117.748 425.284 117.107 425.729 116.228C426.174 115.344 426.214 114.308 425.835 113.393C424.515 110.199 422.48 107.759 419.786 106.144C416.346 104.084 412.277 103.615 407.688 104.76C403.182 105.883 399.874 107.959 397.851 110.93C395.852 113.87 395.231 117.064 396.004 120.427C396.024 120.509 396.036 120.599 396.039 120.692C396.129 122.417 396.813 124.633 398.129 127.468C399.503 130.424 401.788 132.512 404.923 133.677C405.154 133.763 405.412 133.821 405.685 133.856C408.055 134.154 410.055 135.025 411.624 136.456C411.765 136.582 411.874 136.738 411.956 136.922C412.484 138.102 413.276 140.749 414.315 144.792C414.702 146.289 416.045 147.302 417.525 147.333C416.51 147.744 415.705 148.444 415.127 149.421C414.416 150.621 414.229 151.923 414.569 153.292C414.905 154.64 415.674 155.692 416.865 156.419C417.681 156.924 418.544 157.174 419.446 157.174ZM419.52 148.792C420.083 148.792 420.618 148.952 421.141 149.269C421.91 149.742 422.394 150.402 422.613 151.294C422.828 152.166 422.711 152.967 422.25 153.745C421.793 154.519 421.149 155 420.286 155.215C419.399 155.438 418.595 155.317 417.829 154.848C417.06 154.378 416.58 153.726 416.365 152.854C416.143 151.962 416.26 151.149 416.72 150.371C417.177 149.597 417.829 149.116 418.72 148.893C418.993 148.827 419.259 148.792 419.52 148.792ZM412.019 108.987C410.984 108.987 409.902 109.128 408.774 109.409C405.88 110.128 403.709 111.446 402.311 113.331C400.874 115.27 400.421 117.358 400.964 119.543C402.061 124.841 403.978 127.957 406.813 129.028C406.934 129.075 407.067 129.114 407.223 129.153C411.609 130.201 414.471 131.667 415.729 133.508L415.807 133.606C416.271 134.122 417.31 136.105 419.083 143.596C419.278 144.413 418.774 145.245 417.962 145.445C417.146 145.648 416.314 145.152 416.107 144.338C415.026 140.139 414.221 137.469 413.647 136.179C413.464 135.764 413.202 135.401 412.874 135.1C411.019 133.407 408.676 132.375 405.919 132.031C405.786 132.015 405.669 131.988 405.572 131.952C402.873 130.948 400.987 129.231 399.812 126.698C398.613 124.117 397.969 122.069 397.89 120.606C397.879 120.407 397.851 120.212 397.808 120.02C397.145 117.139 397.66 114.507 399.382 111.978C401.139 109.393 404.088 107.572 408.137 106.563C412.234 105.542 415.834 105.937 418.841 107.74C421.188 109.147 422.965 111.29 424.132 114.109C424.304 114.527 424.288 115 424.085 115.403C423.882 115.809 423.527 116.091 423.09 116.2L423.304 117.099L423.082 116.2C422.348 116.384 421.594 116.005 421.297 115.297C420.481 113.362 419.372 111.884 418.005 110.907C416.236 109.632 414.237 108.987 412.019 108.987Z" fill="#DCDFFE"/>
<path d="M162.301 523.974C162.348 523.974 162.395 523.97 162.442 523.963L172.044 522.195C172.47 522.117 172.751 521.711 172.673 521.284C172.595 520.862 172.192 520.581 171.763 520.655L162.93 522.277L161.309 513.434C161.231 513.011 160.825 512.73 160.399 512.804C159.974 512.882 159.692 513.289 159.771 513.715L161.536 523.329C161.606 523.712 161.934 523.974 162.301 523.974Z" fill="#3D325C"/>
<path d="M192.354 518.45C192.401 518.45 192.448 518.446 192.495 518.438L212.945 514.677C213.371 514.599 213.652 514.192 213.574 513.766C213.496 513.344 213.09 513.062 212.664 513.137L192.213 516.898C191.788 516.976 191.507 517.382 191.585 517.809C191.659 518.184 191.987 518.45 192.354 518.45ZM233.255 510.928C233.302 510.928 233.349 510.924 233.396 510.916L253.846 507.155C254.272 507.077 254.553 506.67 254.475 506.244C254.397 505.821 253.995 505.54 253.565 505.614L233.115 509.375C232.689 509.454 232.408 509.86 232.486 510.286C232.56 510.666 232.888 510.928 233.255 510.928ZM274.16 503.409C274.207 503.409 274.254 503.405 274.301 503.397L294.751 499.636C295.177 499.558 295.458 499.152 295.38 498.725C295.302 498.303 294.896 498.022 294.47 498.096L274.02 501.857C273.594 501.935 273.313 502.342 273.391 502.768C273.461 503.147 273.789 503.409 274.16 503.409ZM315.061 495.891C315.108 495.891 315.155 495.887 315.202 495.879L335.652 492.118C336.078 492.04 336.359 491.633 336.281 491.207C336.203 490.785 335.797 490.503 335.371 490.578L314.921 494.339C314.495 494.417 314.214 494.823 314.292 495.25C314.362 495.625 314.69 495.891 315.061 495.891ZM355.962 488.369C356.009 488.369 356.056 488.365 356.103 488.357L376.553 484.596C376.979 484.518 377.26 484.111 377.182 483.685C377.104 483.263 376.702 482.981 376.272 483.055L355.822 486.816C355.396 486.895 355.115 487.301 355.193 487.727C355.263 488.107 355.591 488.369 355.962 488.369ZM396.863 480.85C396.91 480.85 396.957 480.846 397.004 480.839L417.455 477.077C417.88 476.999 418.161 476.593 418.083 476.166C418.005 475.744 417.599 475.463 417.173 475.537L396.723 479.298C396.297 479.376 396.016 479.783 396.094 480.209C396.164 480.584 396.492 480.85 396.863 480.85Z" fill="#3D325C"/>
<path d="M437.765 473.328C437.811 473.328 437.858 473.324 437.905 473.316L447.508 471.549C447.933 471.471 448.214 471.064 448.136 470.638L446.371 461.024C446.293 460.602 445.887 460.316 445.461 460.395C445.036 460.473 444.755 460.88 444.833 461.306L446.453 470.149L437.62 471.772C437.194 471.85 436.913 472.257 436.991 472.683C437.066 473.066 437.394 473.328 437.765 473.328Z" fill="#3D325C"/>
<path d="M442.127 442.997C442.173 442.997 442.22 442.993 442.267 442.985C442.693 442.907 442.974 442.5 442.896 442.074L439.42 423.12C439.342 422.697 438.936 422.412 438.51 422.49C438.085 422.568 437.804 422.975 437.882 423.401L441.357 442.355C441.428 442.731 441.756 442.997 442.127 442.997ZM435.172 405.088C435.219 405.088 435.265 405.084 435.312 405.076C435.738 404.998 436.019 404.592 435.941 404.165L432.465 385.211C432.387 384.789 431.981 384.503 431.556 384.582C431.13 384.66 430.849 385.066 430.927 385.493L434.402 404.447C434.473 404.822 434.801 405.088 435.172 405.088ZM428.217 367.176C428.264 367.176 428.311 367.172 428.357 367.164C428.783 367.086 429.064 366.679 428.986 366.253L425.511 347.299C425.433 346.877 425.026 346.595 424.601 346.669C424.175 346.748 423.894 347.154 423.972 347.58L427.448 366.535C427.522 366.914 427.85 367.176 428.217 367.176ZM421.266 329.267C421.313 329.267 421.36 329.263 421.407 329.256C421.832 329.177 422.113 328.771 422.035 328.345L418.56 309.39C418.482 308.964 418.072 308.687 417.65 308.761C417.224 308.839 416.943 309.246 417.021 309.672L420.497 328.626C420.567 329.005 420.895 329.267 421.266 329.267ZM414.311 291.359C414.358 291.359 414.405 291.355 414.452 291.347C414.877 291.269 415.158 290.862 415.08 290.436L411.605 271.482C411.527 271.056 411.117 270.778 410.695 270.852C410.269 270.931 409.988 271.337 410.066 271.763L413.542 290.718C413.616 291.093 413.944 291.359 414.311 291.359ZM407.36 253.45C407.407 253.45 407.454 253.446 407.501 253.439C407.926 253.36 408.208 252.954 408.129 252.528L404.654 233.573C404.576 233.147 404.174 232.866 403.744 232.944C403.318 233.022 403.037 233.429 403.115 233.855L406.591 252.809C406.661 253.184 406.989 253.45 407.36 253.45ZM400.405 215.542C400.452 215.542 400.499 215.538 400.546 215.53C400.972 215.452 401.253 215.045 401.175 214.619L397.699 195.665C397.621 195.239 397.219 194.961 396.789 195.035C396.364 195.114 396.082 195.52 396.161 195.946L399.636 214.901C399.706 215.276 400.034 215.542 400.405 215.542ZM393.451 177.629C393.497 177.629 393.544 177.626 393.591 177.618C394.017 177.54 394.298 177.133 394.22 176.707L390.744 157.753C390.666 157.326 390.264 157.045 389.834 157.123C389.409 157.201 389.128 157.608 389.206 158.034L392.681 176.988C392.755 177.368 393.083 177.629 393.451 177.629ZM386.5 139.721C386.546 139.721 386.593 139.717 386.64 139.709C387.066 139.631 387.347 139.224 387.269 138.798L383.793 119.844C383.715 119.418 383.309 119.136 382.884 119.215C382.458 119.293 382.177 119.699 382.255 120.126L385.73 139.08C385.801 139.459 386.129 139.721 386.5 139.721Z" fill="#3D325C"/>
<path d="M379.545 101.813C379.592 101.813 379.638 101.809 379.685 101.801C380.111 101.723 380.392 101.316 380.314 100.89L378.549 91.2759C378.471 90.8497 378.065 90.5682 377.639 90.6464L368.037 92.4136C367.611 92.4918 367.33 92.8984 367.408 93.3246C367.486 93.7507 367.888 94.0322 368.318 93.954L377.151 92.3315L378.772 101.175C378.846 101.551 379.178 101.813 379.545 101.813Z" fill="#3D325C"/>
<path d="M122.774 139.084C122.821 139.084 122.868 139.08 122.915 139.072L143.366 135.311C143.791 135.233 144.072 134.826 143.994 134.4C143.916 133.974 143.51 133.692 143.084 133.77L122.634 137.532C122.208 137.61 121.927 138.016 122.005 138.443C122.075 138.822 122.403 139.084 122.774 139.084ZM163.676 131.565C163.722 131.565 163.769 131.561 163.816 131.554L184.267 127.792C184.692 127.714 184.973 127.308 184.895 126.882C184.817 126.455 184.415 126.174 183.985 126.252L163.535 130.013C163.109 130.091 162.828 130.498 162.906 130.924C162.977 131.299 163.305 131.565 163.676 131.565ZM204.577 124.043C204.623 124.043 204.67 124.039 204.717 124.031L225.168 120.27C225.593 120.192 225.875 119.785 225.796 119.359C225.718 118.933 225.312 118.652 224.887 118.73L204.436 122.491C204.01 122.569 203.729 122.976 203.807 123.402C203.878 123.781 204.206 124.043 204.577 124.043ZM245.478 116.525C245.525 116.525 245.571 116.521 245.618 116.513L266.069 112.752C266.494 112.674 266.776 112.267 266.698 111.841C266.619 111.415 266.217 111.137 265.788 111.211L245.337 114.973C244.911 115.051 244.63 115.457 244.708 115.884C244.779 116.263 245.107 116.525 245.478 116.525ZM286.379 109.006C286.426 109.006 286.473 109.002 286.519 108.995L306.97 105.234C307.396 105.155 307.677 104.749 307.599 104.323C307.521 103.896 307.114 103.619 306.689 103.693L286.238 107.454C285.813 107.532 285.531 107.939 285.61 108.365C285.68 108.741 286.008 109.006 286.379 109.006ZM327.28 101.484C327.327 101.484 327.374 101.48 327.421 101.472L347.871 97.7112C348.297 97.6331 348.578 97.2264 348.5 96.8003C348.422 96.3741 348.016 96.0965 347.59 96.1708L327.139 99.932C326.714 100.01 326.433 100.417 326.511 100.843C326.581 101.222 326.909 101.484 327.28 101.484Z" fill="#3D325C"/>
<path d="M94.4827 154.226C94.5295 154.226 94.5764 154.222 94.6233 154.214C95.0489 154.136 95.3301 153.729 95.252 153.303L93.6314 144.46L102.465 142.837C102.89 142.759 103.171 142.352 103.093 141.926C103.015 141.5 102.609 141.218 102.183 141.297L92.5809 143.064C92.1553 143.142 91.8741 143.549 91.9522 143.975L93.7173 153.589C93.7837 153.96 94.1156 154.226 94.4827 154.226Z" fill="#3D325C"/>
<path d="M157.064 495.406C157.111 495.406 157.158 495.402 157.205 495.394C157.631 495.316 157.912 494.91 157.834 494.483L154.358 475.529C154.28 475.107 153.874 474.822 153.448 474.9C153.023 474.978 152.742 475.384 152.82 475.811L156.295 494.765C156.365 495.144 156.693 495.406 157.064 495.406ZM150.11 457.498C150.156 457.498 150.203 457.494 150.25 457.486C150.676 457.408 150.957 457.001 150.879 456.575L147.403 437.621C147.325 437.198 146.919 436.917 146.494 436.991C146.068 437.069 145.787 437.476 145.865 437.902L149.34 456.856C149.411 457.236 149.739 457.498 150.11 457.498ZM143.155 419.589C143.202 419.589 143.248 419.585 143.295 419.577C143.721 419.499 144.002 419.093 143.924 418.666L140.449 399.712C140.371 399.286 139.96 399.008 139.539 399.083C139.113 399.161 138.832 399.568 138.91 399.994L142.385 418.948C142.46 419.323 142.788 419.589 143.155 419.589ZM136.204 381.681C136.251 381.681 136.298 381.677 136.344 381.669C136.77 381.591 137.051 381.184 136.973 380.758L133.498 361.804C133.42 361.378 133.013 361.1 132.588 361.174C132.162 361.252 131.881 361.659 131.959 362.085L135.435 381.039C135.505 381.415 135.833 381.681 136.204 381.681ZM129.249 343.768C129.296 343.768 129.343 343.764 129.39 343.757C129.815 343.678 130.096 343.272 130.018 342.846L126.543 323.891C126.465 323.469 126.063 323.184 125.633 323.262C125.207 323.34 124.926 323.747 125.004 324.173L128.48 343.127C128.55 343.506 128.878 343.768 129.249 343.768ZM122.298 305.86C122.345 305.86 122.392 305.856 122.439 305.848C122.864 305.77 123.145 305.363 123.067 304.937L119.592 285.983C119.514 285.557 119.112 285.279 118.682 285.353C118.256 285.432 117.975 285.838 118.053 286.264L121.529 305.219C121.599 305.598 121.927 305.86 122.298 305.86ZM115.343 267.951C115.39 267.951 115.437 267.947 115.484 267.94C115.909 267.861 116.191 267.455 116.113 267.029L112.637 248.074C112.559 247.652 112.153 247.367 111.727 247.445C111.302 247.523 111.02 247.93 111.098 248.356L114.574 267.31C114.644 267.689 114.972 267.951 115.343 267.951ZM108.388 230.043C108.435 230.043 108.482 230.039 108.529 230.031C108.955 229.953 109.236 229.546 109.158 229.12L105.682 210.166C105.604 209.74 105.198 209.462 104.772 209.537C104.347 209.615 104.066 210.021 104.144 210.447L107.619 229.402C107.693 229.777 108.021 230.043 108.388 230.043ZM101.437 192.134C101.484 192.134 101.531 192.131 101.578 192.123C102.004 192.045 102.285 191.638 102.207 191.212L98.7313 172.258C98.6532 171.831 98.2471 171.554 97.8214 171.628C97.3958 171.706 97.1146 172.113 97.1927 172.539L100.668 191.493C100.739 191.869 101.067 192.134 101.437 192.134Z" fill="#3D325C"/>
</svg>
