<svg width="138" height="119" viewBox="0 0 138 119" fill="none" xmlns="http://www.w3.org/2000/svg">
<g opacity="0.08">
<path d="M16.6034 37.1759C21.7143 29.5989 27.9754 22.8003 35.3607 17.1521C55.4064 1.83371 82.7423 -2.62083 102.814 15.1973C114.151 25.2654 124.33 38.655 127.59 53.7399C130.799 68.5912 124.693 90.5612 107.354 93.3291C95.9563 95.1541 84.1692 91.1407 72.9789 94.8427C60.2492 99.0551 49.8891 108.371 36.9432 112.306C27.2749 115.247 15.1333 114.962 7.47993 107.558C0.821067 101.114 -0.796085 90.9072 0.328138 81.704C2.27391 65.8493 7.71342 50.3406 16.6034 37.1759Z" fill="#FE5A4E"/>
<path d="M18.8605 19.3924C24.2145 19.3924 28.5548 15.0512 28.5548 9.69619C28.5548 4.34113 24.2145 0 18.8605 0C13.5065 0 9.16623 4.34113 9.16623 9.69619C9.16623 15.0512 13.5065 19.3924 18.8605 19.3924Z" fill="#FE5A4E"/>
<path d="M131.612 32.2889C134.797 32.2889 137.38 29.7059 137.38 26.5196C137.38 23.3334 134.797 20.7504 131.612 20.7504C128.426 20.7504 125.843 23.3334 125.843 26.5196C125.843 29.7059 128.426 32.2889 131.612 32.2889Z" fill="#FE5A4E"/>
<path d="M68.2658 114.028C68.2658 116.259 66.4584 118.067 64.2273 118.067C61.9961 118.067 60.1887 116.259 60.1887 114.028C60.1887 111.796 61.9961 109.988 64.2273 109.988C66.4584 109.988 68.2658 111.796 68.2658 114.028Z" fill="#FE5A4E"/>
</g>
<g clip-path="url(#clip0)">
<path d="M31.1055 73.4981V33.5701C31.1055 31.6674 32.6674 30.1055 34.5701 30.1055H90.4296C92.3323 30.1055 93.8942 31.6674 93.8942 33.5701V73.4981C93.8942 75.4008 92.3323 76.9627 90.4296 76.9627H34.5701C32.639 76.9911 31.1055 75.4292 31.1055 73.4981Z" fill="#83E1E5"/>
<path d="M80.5471 99H44.4529C43.9701 99 43.5725 98.6024 43.5725 98.1197V96.6145C43.5725 93.2635 46.2987 90.5089 49.6782 90.5089H53.3983C54.7331 90.5089 55.8406 89.4014 55.8406 88.0666V86.0504C55.8406 84.4033 54.5059 83.0401 52.8304 83.0401H30.3389C27.4139 83.0685 25 80.6831 25 77.7296V29.3389C25 26.4139 27.4139 24 30.3389 24H94.6327C97.5861 24 100 26.4139 100 29.3389V77.7013C100 80.6547 97.5861 83.0685 94.6327 83.0685H72.1412C70.4941 83.0685 69.131 84.4033 69.131 86.0788V88.095C69.131 89.4298 70.2385 90.5373 71.5733 90.5373H75.2934C78.6445 90.5373 81.3991 93.2635 81.3991 96.6429V98.1481C81.4275 98.6024 81.0299 99 80.5471 99ZM45.3048 97.2677H79.6952V96.6429C79.6952 94.2291 77.7357 92.2696 75.3218 92.2696H71.6017C69.3014 92.2696 67.4271 90.3953 67.4271 88.095V86.0788C67.4271 83.4661 69.557 81.3362 72.1696 81.3362H94.6611C96.649 81.3362 98.2677 79.7175 98.2677 77.7296V29.3389C98.2677 27.351 96.649 25.7323 94.6611 25.7323H30.3389C28.351 25.7323 26.7323 27.351 26.7323 29.3389V77.7013C26.7323 79.6891 28.351 81.3078 30.3389 81.3078H52.8304C55.443 81.3078 57.5729 83.4377 57.5729 86.0504V88.0666C57.5729 90.3669 55.6986 92.2412 53.3983 92.2412H49.6782C47.2643 92.2412 45.3048 94.2007 45.3048 96.6145V97.2677Z" fill="#06589C"/>
<path d="M58.7091 83.0684H51.8935C51.4107 83.0684 51.0132 82.6709 51.0132 82.1881C51.0132 81.7053 51.4107 81.3077 51.8935 81.3077H58.7091C59.1919 81.3077 59.5895 81.7053 59.5895 82.1881C59.5611 82.6993 59.1919 83.0684 58.7091 83.0684Z" fill="#06589C"/>
<path d="M63.9339 83.0684H62.514C62.0312 83.0684 61.6337 82.6709 61.6337 82.1881C61.6337 81.7053 62.0312 81.3077 62.514 81.3077H63.9339C64.4167 81.3077 64.8143 81.7053 64.8143 82.1881C64.7859 82.6993 64.3883 83.0684 63.9339 83.0684Z" fill="#06589C"/>
<path d="M72.6236 92.2695H64.3597C63.8769 92.2695 63.4794 91.8719 63.4794 91.3891C63.4794 90.9064 63.8769 90.5088 64.3597 90.5088H72.6236C73.1064 90.5088 73.504 90.9064 73.504 91.3891C73.504 91.8719 73.1064 92.2695 72.6236 92.2695Z" fill="#06589C"/>
<path d="M31.1054 33.968C30.6226 33.968 30.225 33.5704 30.225 33.0876C30.225 30.9578 31.9573 29.2255 34.0872 29.2255H36.6714C37.1542 29.2255 37.5518 29.623 37.5518 30.1058C37.5518 30.5886 37.1542 30.9578 36.6714 30.9578H34.0872C32.9228 30.9578 31.9573 31.9233 31.9573 33.0876C31.9573 33.5704 31.5881 33.968 31.1054 33.968Z" fill="#06589C"/>
<path d="M31.1054 49.019C30.6226 49.019 30.225 48.6215 30.225 48.1387V37.0633C30.225 36.5806 30.6226 36.183 31.1054 36.183C31.5881 36.183 31.9857 36.5806 31.9857 37.0633V48.1387C31.9573 48.6215 31.5881 49.019 31.1054 49.019Z" fill="#06589C"/>
<path d="M41.1297 30.9577H39.9938C39.511 30.9577 39.1135 30.5601 39.1135 30.0774C39.1135 29.5946 39.511 29.197 39.9938 29.197H41.1013C41.5841 29.197 41.9817 29.5946 41.9817 30.0774C41.9817 30.5601 41.5841 30.9577 41.1297 30.9577Z" fill="#06589C"/>
<path d="M90.913 77.8432H88.3287C87.8459 77.8432 87.4484 77.4456 87.4484 76.9628C87.4484 76.4801 87.8459 76.0825 88.3287 76.0825H90.913C92.0773 76.0825 93.0428 75.1169 93.0428 73.9526C93.0428 73.4698 93.4404 73.0723 93.9232 73.0723C94.406 73.0723 94.8035 73.4698 94.8035 73.9526C94.7751 76.1109 93.0428 77.8432 90.913 77.8432Z" fill="#06589C"/>
<path d="M93.8947 70.8572C93.4119 70.8572 93.0144 70.4596 93.0144 69.9768V58.9015C93.0144 58.4187 93.4119 58.0211 93.8947 58.0211C94.3775 58.0211 94.7751 58.4187 94.7751 58.9015V69.9768C94.7751 70.488 94.3775 70.8572 93.8947 70.8572Z" fill="#06589C"/>
<path d="M85.006 77.8433H83.8985C83.4157 77.8433 83.0181 77.4458 83.0181 76.963C83.0181 76.4802 83.4157 76.0826 83.8985 76.0826H85.006C85.4888 76.0826 85.8864 76.4802 85.8864 76.963C85.8864 77.4458 85.4888 77.8433 85.006 77.8433Z" fill="#06589C"/>
<path d="M80.0646 44.0491L110.848 30.2191L80.8882 63.8427L80.0646 44.0491Z" fill="#ECF4F7"/>
<path d="M80.8883 64.723C80.8031 64.723 80.6895 64.6946 80.6043 64.6662C80.2635 64.5526 80.0363 64.2402 80.0363 63.8994L79.2128 44.1058C79.1844 43.765 79.4116 43.4242 79.724 43.2823L110.479 29.4239C110.849 29.2535 111.303 29.3671 111.53 29.7078C111.786 30.0486 111.757 30.503 111.473 30.787L81.5414 64.439C81.3711 64.6094 81.1155 64.723 80.8883 64.723ZM80.9451 44.5886L81.655 61.656L107.498 32.6613L80.9451 44.5886Z" fill="#06589C"/>
<path d="M80.0646 44.0491L110.848 30.2191L65.8086 30.3043L80.0646 44.0491Z" fill="#ECF4F7"/>
<path d="M80.0644 44.9294C79.8372 44.9294 79.6384 44.8442 79.468 44.6738L65.212 30.929C64.9565 30.6734 64.8713 30.3042 65.0133 29.9918C65.1552 29.651 65.4676 29.4523 65.8084 29.4523L110.848 29.3671C111.246 29.3671 111.615 29.651 111.7 30.0486C111.785 30.4462 111.587 30.8438 111.217 31.0142L80.4336 44.8442C80.32 44.901 80.178 44.9294 80.0644 44.9294ZM67.9383 31.1562L80.2348 42.9983L106.759 31.071L67.9383 31.1562Z" fill="#06589C"/>
<path d="M69.0742 48.9906L74.7255 38.9092L80.0644 44.0493L69.0742 48.9906Z" fill="#ECF4F7"/>
<path d="M69.0744 49.8707C68.8472 49.8707 68.5916 49.7855 68.4212 49.5867C68.1657 49.3028 68.1089 48.9052 68.3076 48.5644L73.9589 38.483C74.1009 38.2558 74.3281 38.0854 74.5837 38.057C74.8393 38.0286 75.1232 38.1138 75.322 38.2842L80.6609 43.4243C80.8597 43.6231 80.9733 43.9071 80.9165 44.1911C80.8597 44.475 80.6893 44.7022 80.4053 44.8442L69.4152 49.7855C69.3016 49.8423 69.188 49.8707 69.0744 49.8707ZM74.9245 40.3005L71.0907 47.1161L78.531 43.7651L74.9245 40.3005Z" fill="#06589C"/>
<path d="M69.0742 48.9903L80.3768 51.4609L80.0644 44.049L69.0742 48.9903Z" fill="#ECF4F7"/>
<path d="M80.3766 52.3413C80.3198 52.3413 80.263 52.3413 80.2062 52.3129L68.8753 49.8422C68.5061 49.757 68.2221 49.4446 68.1937 49.0755C68.1653 48.7063 68.3641 48.3371 68.7049 48.1951L79.695 43.2538C79.9506 43.1402 80.263 43.1686 80.5186 43.3106C80.7742 43.4526 80.9162 43.7366 80.9162 44.0206L81.2286 51.4325C81.2286 51.6881 81.115 51.9721 80.9162 52.1425C80.7742 52.2561 80.5754 52.3413 80.3766 52.3413ZM71.8287 48.7063L79.4679 50.3818L79.2407 45.3553L71.8287 48.7063Z" fill="#06589C"/>
<path d="M45.4188 60.9177C45.1065 60.9177 44.7657 60.7189 44.6237 60.4065C44.4249 59.9806 44.5953 59.4694 45.0497 59.2422L46.8672 58.3903C47.2931 58.1915 47.8043 58.3619 48.0315 58.8162C48.2303 59.2422 48.0599 59.7534 47.6055 59.9806L45.788 60.8325C45.646 60.8893 45.5324 60.9177 45.4188 60.9177Z" fill="#06589C"/>
<path d="M51.638 58.0212C51.3256 58.0212 50.9848 57.8224 50.8428 57.51C50.644 57.084 50.8144 56.5729 51.2688 56.3457L60.2142 52.1711C60.6402 51.9723 61.1514 52.1427 61.3786 52.5971C61.5774 53.0231 61.407 53.5343 60.9526 53.7614L52.0071 57.936C51.8935 57.9928 51.7799 58.0212 51.638 58.0212Z" fill="#06589C"/>
<path d="M63.9343 52.2848C63.6219 52.2848 63.2811 52.086 63.1392 51.7736C62.9404 51.3476 63.1392 50.8365 63.5651 50.6093L70.6079 47.3151C71.0339 47.1163 71.5451 47.2867 71.7722 47.741C71.971 48.167 71.8006 48.6782 71.3463 48.9054L64.3035 52.1996C64.1615 52.2564 64.0479 52.2848 63.9343 52.2848Z" fill="#06589C"/>
</g>
<defs>
<clipPath id="clip0">
<rect width="86.7001" height="75" fill="white" transform="translate(25 24)"/>
</clipPath>
</defs>
</svg>
