<svg width="138" height="119" viewBox="0 0 138 119" fill="none" xmlns="http://www.w3.org/2000/svg">
<path opacity="0.1" d="M16.6034 37.5424C21.7143 29.9653 27.9754 23.1668 35.3607 17.5186C55.4064 2.20016 82.7423 -2.25438 102.814 15.5638C114.151 25.6319 124.33 39.0215 127.59 54.1063C130.799 68.9577 124.693 90.9276 107.354 93.6955C95.9563 95.5206 84.1692 91.5072 72.9789 95.2092C60.2492 99.4215 49.8891 108.737 36.9432 112.673C27.2749 115.614 15.1333 115.328 7.47993 107.924C0.821067 101.48 -0.796085 91.2736 0.328138 82.0705C2.27391 66.2158 7.71342 50.7071 16.6034 37.5424Z" fill="#FE5A4E"/>
<path opacity="0.1" d="M18.8605 19.3924C24.2145 19.3924 28.5548 15.0512 28.5548 9.69619C28.5548 4.34113 24.2145 0 18.8605 0C13.5065 0 9.16626 4.34113 9.16626 9.69619C9.16626 15.0512 13.5065 19.3924 18.8605 19.3924Z" fill="#FE5A4E"/>
<path opacity="0.1" d="M131.612 32.2889C134.797 32.2889 137.38 29.7059 137.38 26.5196C137.38 23.3334 134.797 20.7504 131.612 20.7504C128.426 20.7504 125.843 23.3334 125.843 26.5196C125.843 29.7059 128.426 32.2889 131.612 32.2889Z" fill="#FE5A4E"/>
<path opacity="0.1" d="M68.2658 114.028C68.2658 116.259 66.4584 118.067 64.2273 118.067C61.9961 118.067 60.1887 116.259 60.1887 114.028C60.1887 111.796 61.9961 109.988 64.2273 109.988C66.4584 109.988 68.2658 111.796 68.2658 114.028Z" fill="#FE5A4E"/>
<path d="M40.6487 53.9791V76.2537C40.6487 78.5397 42.5159 80.4001 44.8104 80.4001H83.8383C86.1328 80.4001 88 78.5397 88 76.2537V53.9791H40.6487ZM59.3626 74.4431H56.5336V62.6967H54.6275V60.1711H59.3626V74.4431ZM69.3647 74.5408C66.5347 74.5408 64.3928 73.131 64.2744 70.1363H66.9472C67.0064 71.3692 67.8313 72.2501 69.3055 72.2501C70.6807 72.2501 71.3882 71.3886 71.3882 70.2534C71.3882 68.6482 70.3663 68.0604 68.3224 68.0604H67.7527V65.8093H68.3224C69.9344 65.8093 71.1126 65.3587 71.1126 63.9499C71.1126 62.8331 70.4255 62.1678 69.1677 62.1678C67.8313 62.1678 67.2616 63.0294 67.1636 63.9296H64.4714C64.6092 61.287 66.4949 59.8385 69.2463 59.8385C72.1937 59.8385 73.766 61.5026 73.766 63.6163C73.766 65.3984 72.646 66.4949 71.6046 66.8468V66.9252C73.0585 67.3757 74.0212 68.5506 74.0212 70.4883C74.0212 72.8177 72.3704 74.5408 69.3647 74.5408Z" fill="#FE5A4E"/>
<path d="M83.8383 41.3132H78.4558V39.9863C78.4558 38.1195 76.9261 36.6001 75.0468 36.6001C73.1685 36.6001 71.6398 38.1195 71.6398 39.9863V41.3132H68.0098V39.9863C68.0098 38.1195 66.4811 36.6001 64.6018 36.6001C62.7225 36.6001 61.1938 38.1195 61.1938 39.9863V41.3132H57.0089V39.9863C57.0089 38.1195 55.4802 36.6001 53.6009 36.6001C51.7217 36.6001 50.1929 38.1195 50.1929 39.9863V41.3132H44.8104C42.5159 41.3132 40.6487 43.1736 40.6487 45.4596V51.2139H88V45.4596C88 43.1736 86.1328 41.3132 83.8383 41.3132ZM54.2344 41.3132H52.9674V39.9863C52.9674 39.6491 53.2578 39.3644 53.6009 39.3644C53.9441 39.3644 54.2344 39.6491 54.2344 39.9863V41.3132ZM65.2353 41.3132H63.9683V39.9863C63.9683 39.6491 64.2578 39.3644 64.6018 39.3644C64.9449 39.3644 65.2353 39.6491 65.2353 39.9863V41.3132ZM75.6813 41.3132H74.4143V39.9863C74.4143 39.6491 74.7037 39.3644 75.0468 39.3644C75.3909 39.3644 75.6813 39.6491 75.6813 39.9863V41.3132Z" fill="#FE5A4E"/>
</svg>
