<svg width="1920" height="217" viewBox="0 0 1920 217" fill="none" xmlns="http://www.w3.org/2000/svg">
<path d="M954.544 -50.0693C1128.6 -89.8943 1221.56 52.9783 1221.56 52.9783C1221.56 52.9783 1075.68 -47.3664 906.672 69.9038C737.648 187.18 562.389 63.9156 535.952 -4.99542L541.955 -53.2476C602.01 38.9967 780.479 -10.2451 954.544 -50.0693Z" fill="#E4F4F0"/>
<path opacity="0.05" d="M302.78 9.54225C467.04 -45.2178 570.21 83.7823 570.21 83.7823C570.21 83.7823 419.96 0.762253 267.87 129.712C115.77 258.662 -64.99 156.312 -97 92.3623L-95.75 45.2823C-29.1 128.552 138.53 64.3022 302.78 9.54225Z" fill="#44BFBC"/>
<path opacity="0.07" d="M1117 114.888C1117 114.888 1295.4 51.8163 1536.03 166.601C1776.65 281.386 1933.57 175.073 2022 95.3796L1911.27 -103C1911.27 -103 1849.75 87.3136 1602.01 69.8931C1354.28 52.4725 1301.29 20.2087 1117 114.888Z" fill="#44BFBC"/>
</svg>
