<svg width="21" height="20" viewBox="0 0 21 20" fill="none" xmlns="http://www.w3.org/2000/svg">
<path d="M10.3899 20C15.9127 20 20.3899 15.5228 20.3899 10C20.3899 4.47715 15.9127 0 10.3899 0C4.86704 0 0.389893 4.47715 0.389893 10C0.389893 15.5228 4.86704 20 10.3899 20Z" fill="#FE5A4E"/>
<path d="M9.48781 10.8122L9.22534 6.88319C9.17629 6.11775 9.1516 5.56812 9.1516 5.23461C9.1516 4.7807 9.27032 4.42656 9.50844 4.17255C9.74622 3.91819 10.0594 3.79102 10.4477 3.79102C10.9179 3.79102 11.2324 3.95371 11.3911 4.27909C11.5497 4.60448 11.6289 5.07361 11.6289 5.68582C11.6289 6.04672 11.6096 6.41304 11.5714 6.7851L11.2186 10.8291C11.1804 11.3104 11.0982 11.6794 10.9727 11.9365C10.8468 12.1935 10.6392 12.322 10.3493 12.322C10.054 12.322 9.84905 12.1976 9.73405 11.949C9.61905 11.6994 9.53685 11.3209 9.48781 10.8122ZM10.3983 16.2094C10.0648 16.2094 9.77362 16.1015 9.52468 15.8854C9.27574 15.6693 9.1516 15.3672 9.1516 14.9789C9.1516 14.64 9.27032 14.3515 9.50844 14.1137C9.74622 13.8759 10.0374 13.7569 10.3821 13.7569C10.7264 13.7569 11.0204 13.8759 11.2639 14.1137C11.5071 14.3515 11.6289 14.64 11.6289 14.9789C11.6289 15.3618 11.5057 15.6625 11.2598 15.8813C11.0133 16.1002 10.7264 16.2094 10.3983 16.2094Z" fill="white"/>
</svg>
