<svg width="70" height="70" viewBox="0 0 70 70" fill="none" xmlns="http://www.w3.org/2000/svg">
<g clip-path="url(#clip0)">
<path d="M5.59451 46.7048V8.39167C5.59451 6.85548 6.85557 5.59442 8.39176 5.59442H61.6083C63.1445 5.59442 64.4055 6.85548 64.4055 8.39167V46.6819C64.4055 48.2181 63.1445 49.4791 61.6083 49.4791H8.39176C6.85557 49.502 5.59451 48.241 5.59451 46.7048Z" fill="#83E1E5"/>
<path d="M17.2191 33.2231C15.2473 33.2231 13.6652 34.8051 13.6652 36.7769V42.3714H20.773V36.7769C20.773 34.828 19.168 33.2231 17.2191 33.2231Z" fill="#FDDF7F"/>
<path d="M24.3269 23.2491C22.3551 23.2491 20.773 24.8312 20.773 26.803V42.3713H27.8808V26.803C27.8808 24.8312 26.2987 23.2491 24.3269 23.2491Z" fill="#FDDF7F"/>
<path d="M31.4347 29.2565C29.4628 29.2565 27.8808 30.8385 27.8808 32.8104V42.3715H34.9885V32.8104C35.0115 30.8385 33.4065 29.2565 31.4347 29.2565Z" fill="#FDDF7F"/>
<path d="M38.5653 20.1081C36.5935 20.1081 35.0114 21.6902 35.0114 23.662V42.3485H42.1192V23.662C42.1192 21.7131 40.5372 20.1081 38.5653 20.1081Z" fill="#FDDF7F"/>
<path d="M45.6731 18.5491C43.7013 18.5491 42.1192 20.1311 42.1192 22.103V42.3716H49.227V22.103C49.227 20.1541 47.6449 18.5491 45.6731 18.5491Z" fill="#FDDF7F"/>
<path d="M52.8038 11.7621C50.832 11.7621 49.2499 13.3441 49.2499 15.3159V42.3713H56.3577V15.3159C56.3577 13.3441 54.7527 11.7621 52.8038 11.7621Z" fill="#FDDF7F"/>
<path d="M20.773 43.0821H13.6652C13.2755 43.0821 12.9545 42.7611 12.9545 42.3713V36.7769C12.9545 34.4382 14.8575 32.5122 17.2191 32.5122C19.5578 32.5122 21.4838 34.4152 21.4838 36.7769V42.3713C21.4609 42.7611 21.1628 43.0821 20.773 43.0821ZM14.3531 41.6835H20.0622V36.7998C20.0622 35.2177 18.7782 33.9337 17.1962 33.9337C15.6141 33.9337 14.3302 35.2177 14.3302 36.7998V41.6835H14.3531Z" fill="#1C1D21"/>
<path d="M27.8808 43.0823H20.773C20.3832 43.0823 20.0622 42.7613 20.0622 42.3715V26.8032C20.0622 24.4646 21.9653 22.5386 24.3269 22.5386C26.6885 22.5386 28.5915 24.4416 28.5915 26.8032V42.3715C28.5915 42.7613 28.2705 43.0823 27.8808 43.0823ZM21.4608 41.6837H27.17V26.8032C27.17 25.2212 25.886 23.9372 24.304 23.9372C22.7219 23.9372 21.4608 25.2212 21.4608 26.8032V41.6837Z" fill="#1C1D21"/>
<path d="M35.0114 43.0822H27.9037C27.5139 43.0822 27.1929 42.7612 27.1929 42.3714V32.2371C27.1929 29.8984 29.0959 27.9724 31.4576 27.9724C33.8192 27.9724 35.7222 29.8755 35.7222 32.2371V42.3714C35.6993 42.7612 35.4012 43.0822 35.0114 43.0822ZM28.5915 41.6835H34.3007V32.26C34.3007 30.678 33.0167 29.394 31.4346 29.394C29.8526 29.394 28.5686 30.678 28.5686 32.26V41.6835H28.5915Z" fill="#1C1D21"/>
<path d="M42.1192 43.0822H35.0114C34.6217 43.0822 34.3007 42.7612 34.3007 42.3714V23.6849C34.3007 21.3462 36.2037 19.4202 38.5653 19.4202C40.904 19.4202 42.83 21.3232 42.83 23.6849V42.3714C42.83 42.7612 42.509 43.0822 42.1192 43.0822ZM35.6993 41.6835H41.4084V23.6849C41.4084 22.1028 40.1244 20.8188 38.5424 20.8188C36.9603 20.8188 35.6764 22.1028 35.6764 23.6849V41.6835H35.6993Z" fill="#1C1D21"/>
<path d="M49.227 43.0822H42.1192C41.7294 43.0822 41.4084 42.7612 41.4084 42.3715V22.1029C41.4084 19.7642 43.3115 17.8382 45.6731 17.8382C48.0347 17.8382 49.9378 19.7413 49.9378 22.1029V42.3715C49.9378 42.7612 49.6168 43.0822 49.227 43.0822ZM42.83 41.6836H48.5391V22.1029C48.5391 20.5208 47.2552 19.2369 45.6731 19.2369C44.0911 19.2369 42.8071 20.5208 42.8071 22.1029V41.6836H42.83Z" fill="#1C1D21"/>
<path d="M56.3577 43.0823H49.2499C48.8601 43.0823 48.5392 42.7613 48.5392 42.3715V15.3162C48.5392 12.9775 50.4422 11.0515 52.8038 11.0515C55.1425 11.0515 57.0685 12.9546 57.0685 15.3162V42.3715C57.0455 42.7613 56.7475 43.0823 56.3577 43.0823ZM49.9378 41.6837H55.6469V15.3162C55.6469 13.7341 54.3629 12.4501 52.7809 12.4501C51.1988 12.4501 49.9149 13.7341 49.9149 15.3162V41.6837H49.9378Z" fill="#1C1D21"/>
<path d="M51.9096 70H18.0904C17.7006 70 17.3796 69.679 17.3796 69.2892V67.8906C17.3796 64.7953 19.9017 62.2961 22.9741 62.2961H26.4592C27.7891 62.2961 28.8667 61.2185 28.8667 59.8886V58.0085C28.8667 56.4035 27.5598 55.0966 25.9548 55.0966H4.90665C2.20111 55.0966 0 52.8955 0 50.19V4.90665C0 2.20111 2.20111 0 4.90665 0H65.1163C67.8218 0 70.0229 2.20111 70.0229 4.90665V50.2129C70.0229 52.9184 67.8218 55.1196 65.1163 55.1196H44.0681C42.4632 55.1196 41.1562 56.4265 41.1562 58.0314V59.9116C41.1562 61.2414 42.2339 62.319 43.5637 62.319H47.0488C50.1441 62.319 52.6433 64.8411 52.6433 67.9135V69.3121C52.6204 69.7019 52.2994 70 51.9096 70ZM18.8012 68.6014H51.2218V67.8906C51.2218 65.5748 49.3416 63.6947 47.0259 63.6947H43.5408C41.4543 63.6947 39.7347 61.998 39.7347 59.8886V58.0085C39.7347 55.624 41.6836 53.6751 44.0681 53.6751H65.1163C67.0423 53.6751 68.6243 52.1159 68.6243 50.167V4.90665C68.6243 2.98067 67.0652 1.39862 65.1163 1.39862H4.90665C2.98068 1.39862 1.39862 2.95775 1.39862 4.90665V50.2129C1.39862 52.1389 2.95775 53.7209 4.90665 53.7209H25.9548C28.3393 53.7209 30.2882 55.6698 30.2882 58.0544V59.9345C30.2882 62.021 28.5916 63.7406 26.4822 63.7406H22.9971C20.6813 63.7406 18.8012 65.6207 18.8012 67.9365V68.6014Z" fill="#1C1D21"/>
<path d="M31.4347 55.0965H25.0606C24.6708 55.0965 24.3498 54.7755 24.3498 54.3857C24.3498 53.996 24.6708 53.675 25.0606 53.675H31.4347C31.8244 53.675 32.1454 53.996 32.1454 54.3857C32.1454 54.7755 31.8244 55.0965 31.4347 55.0965Z" fill="#1C1D21"/>
<path d="M36.3413 55.0965H35.0114C34.6217 55.0965 34.3007 54.7755 34.3007 54.3857C34.3007 53.996 34.6217 53.675 35.0114 53.675H36.3413C36.7311 53.675 37.0521 53.996 37.0521 54.3857C37.0291 54.7755 36.7311 55.0965 36.3413 55.0965Z" fill="#1C1D21"/>
<path d="M44.4808 63.7175H36.7311C36.3413 63.7175 36.0203 63.3965 36.0203 63.0068C36.0203 62.617 36.3413 62.296 36.7311 62.296H44.4808C44.8706 62.296 45.1916 62.617 45.1916 63.0068C45.1687 63.3965 44.8706 63.7175 44.4808 63.7175Z" fill="#1C1D21"/>
<path d="M5.5945 9.10238C5.20472 9.10238 4.88373 8.78138 4.88373 8.3916C4.88373 6.46563 6.44285 4.88358 8.39175 4.88358H10.8221C11.2119 4.88358 11.5329 5.20457 11.5329 5.59435C11.5329 5.98413 11.2119 6.30513 10.8221 6.30513H8.39175C7.22241 6.30513 6.28235 7.24519 6.28235 8.41453C6.30528 8.78138 5.98428 9.10238 5.5945 9.10238Z" fill="#1C1D21"/>
<path d="M5.5945 23.2034C5.20472 23.2034 4.88373 22.8824 4.88373 22.4926V12.129C4.88373 11.7392 5.20472 11.4182 5.5945 11.4182C5.98428 11.4182 6.30528 11.7392 6.30528 12.129V22.4926C6.30528 22.8824 5.98428 23.2034 5.5945 23.2034Z" fill="#1C1D21"/>
<path d="M14.9722 6.30513H13.9404C13.5506 6.30513 13.2296 5.98413 13.2296 5.59435C13.2296 5.20457 13.5506 4.88358 13.9404 4.88358H14.9951C15.3849 4.88358 15.7059 5.20457 15.7059 5.59435C15.683 5.98413 15.362 6.30513 14.9722 6.30513Z" fill="#1C1D21"/>
<path d="M61.6083 50.1897H59.1779C58.7881 50.1897 58.4671 49.8687 58.4671 49.4789C58.4671 49.0892 58.7881 48.7682 59.1779 48.7682H61.6083C62.7776 48.7682 63.7177 47.8281 63.7177 46.6588C63.7177 46.269 64.0387 45.948 64.4285 45.948C64.8182 45.948 65.1392 46.269 65.1392 46.6588C65.1163 48.6306 63.5343 50.1897 61.6083 50.1897Z" fill="#1C1D21"/>
<path d="M64.4055 43.6553C64.0157 43.6553 63.6947 43.3343 63.6947 42.9445V32.5809C63.6947 32.1912 64.0157 31.8702 64.4055 31.8702C64.7953 31.8702 65.1163 32.1912 65.1163 32.5809V42.9445C65.1163 43.3572 64.7953 43.6553 64.4055 43.6553Z" fill="#1C1D21"/>
<path d="M56.0825 50.19H55.0279C54.6381 50.19 54.3171 49.869 54.3171 49.4792C54.3171 49.0894 54.6381 48.7684 55.0279 48.7684H56.0825C56.4723 48.7684 56.7933 49.0894 56.7933 49.4792C56.7933 49.869 56.4723 50.19 56.0825 50.19Z" fill="#1C1D21"/>
</g>
<defs>
<clipPath id="clip0">
<rect width="70" height="70" fill="white"/>
</clipPath>
</defs>
</svg>
