<svg width="62" height="50" viewBox="0 0 62 50" fill="none" xmlns="http://www.w3.org/2000/svg">
<g clip-path="url(#clip0)">
<path d="M52.6497 42.0508H8.72654C8.3729 42.0508 8.08589 41.7638 8.08589 41.4101V15.222C8.08589 14.8683 8.3729 14.5813 8.72654 14.5813H18.4406C18.7942 14.5813 19.0812 14.8683 19.0812 15.222C19.0812 15.5756 18.7942 15.8626 18.4406 15.8626H9.3672V40.7695H52.0091V15.8626H43.1459C42.7922 15.8626 42.5052 15.5756 42.5052 15.222C42.5052 14.8683 42.7922 14.5813 43.1459 14.5813H52.6497C53.0034 14.5813 53.2904 14.8683 53.2904 15.222V41.4101C53.2904 41.7655 53.0034 42.0508 52.6497 42.0508Z" fill="#EBE7F2"/>
<path d="M35.3009 37.7098C33.3311 37.7098 31.5389 36.5754 30.6916 34.8055H23.4941C23.2412 34.8055 22.9901 34.7201 22.7885 34.568L21.4252 33.5276C21.1399 33.3089 20.969 32.9638 20.969 32.6051C20.969 32.2446 21.1399 31.9012 21.4252 31.6825L22.7868 30.6421C22.9884 30.4884 23.2378 30.4046 23.4923 30.4046H30.6899C31.6022 28.4963 33.6061 27.3398 35.7246 27.5174C38.2872 27.731 40.3424 29.9109 40.4039 32.4838C40.4363 33.8693 39.9204 35.1779 38.95 36.1722C37.9814 37.1614 36.6847 37.7098 35.3009 37.7098ZM23.5351 33.5225H30.8351C31.2536 33.5225 31.6329 33.7685 31.802 34.1478C32.4154 35.5333 33.7889 36.4268 35.3026 36.4268C36.3396 36.4268 37.31 36.0168 38.0377 35.2719C38.7638 34.5287 39.1516 33.5464 39.1277 32.5094C39.0816 30.584 37.544 28.9491 35.6238 28.7902C33.9991 28.6552 32.4615 29.5658 31.8038 31.0573C31.6363 31.4365 31.2571 31.6808 30.8368 31.6808H23.5385L22.334 32.6017L23.5351 33.5225Z" fill="#34C872"/>
<path d="M30.6881 27.2679C30.4387 27.2679 30.2115 27.1227 30.1073 26.8972L27.7941 21.9121C22.9183 20.6085 19.5408 16.2265 19.5408 11.1491C19.5425 5.00051 24.543 0 30.6881 0C36.8333 0 41.8355 5.00051 41.8355 11.1474C41.8355 16.2265 38.458 20.6085 33.5822 21.9103L31.269 26.8955C31.1648 27.1227 30.9376 27.2679 30.6881 27.2679ZM30.6881 1.28131C25.2486 1.28131 20.8221 5.70779 20.8221 11.1474C20.8221 15.7362 23.9365 19.6809 28.3955 20.7418C28.5868 20.7879 28.7457 20.9178 28.8277 21.0954L30.6881 25.1051L32.5486 21.0954C32.6306 20.9178 32.7912 20.7862 32.9808 20.7418C37.4398 19.6792 40.5542 15.7344 40.5542 11.1474C40.5542 5.70609 36.1294 1.28131 30.6881 1.28131Z" fill="#34C872"/>
<path d="M43.9488 12.4168H54.9475C55.3541 12.4168 55.6856 12.7482 55.6856 13.1548V41.4102C55.6856 41.7638 55.9726 42.0509 56.3262 42.0509C56.6799 42.0509 56.9669 41.7638 56.9669 41.4102V13.1548C56.9669 12.041 56.0614 11.1355 54.9475 11.1355H43.9488C43.5952 11.1355 43.3082 11.4225 43.3082 11.7762C43.3082 12.1298 43.5952 12.4168 43.9488 12.4168Z" fill="#06589C"/>
<path d="M5.05176 42.0509C5.4054 42.0509 5.69241 41.7638 5.69241 41.4102V13.1548C5.69241 12.7482 6.02384 12.4168 6.43044 12.4168H17.5385C17.8922 12.4168 18.1792 12.1298 18.1792 11.7762C18.1792 11.4225 17.8922 11.1355 17.5385 11.1355H6.43044C5.31656 11.1355 4.4111 12.041 4.4111 13.1548V41.4102C4.4111 41.7656 4.69812 42.0509 5.05176 42.0509Z" fill="#06589C"/>
<path d="M58.4857 44.217H2.89234C1.29668 44.217 0 45.5137 0 47.1077C0 48.7033 1.29668 50 2.89234 50H58.4857C60.0813 50 61.378 48.7033 61.378 47.1077C61.378 45.5137 60.0796 44.217 58.4857 44.217ZM58.4857 48.7187H2.89234C2.00396 48.7187 1.28131 47.996 1.28131 47.1077C1.28131 46.2193 2.00396 45.4966 2.89234 45.4966H58.4857C59.374 45.4966 60.0967 46.2193 60.0967 47.1077C60.0967 47.996 59.374 48.7187 58.4857 48.7187Z" fill="#06589C"/>
<path d="M16.1496 19.5904V38.6545C16.1496 39.0081 16.4366 39.2951 16.7902 39.2951C17.1439 39.2951 17.4309 39.0081 17.4309 38.6545V23.2634H25.1307C25.4843 23.2634 25.7713 22.9764 25.7713 22.6228C25.7713 22.2691 25.4843 21.9821 25.1307 21.9821H17.4309V20.231H21.1467C21.5003 20.231 21.7873 19.944 21.7873 19.5904C21.7873 19.2367 21.5003 18.9497 21.1467 18.9497H16.7902C16.4366 18.9497 16.1496 19.2367 16.1496 19.5904Z" fill="#06589C"/>
<path d="M40.7917 20.231H43.9471V21.9821H36.1295C35.7758 21.9821 35.4888 22.2691 35.4888 22.6228C35.4888 22.9764 35.7758 23.2634 36.1295 23.2634H43.9471V38.6545C43.9471 39.0081 44.2341 39.2951 44.5878 39.2951C44.9414 39.2951 45.2284 39.0081 45.2284 38.6545V19.5904C45.2284 19.2367 44.9414 18.9497 44.5878 18.9497H40.7917C40.4381 18.9497 40.151 19.2367 40.151 19.5904C40.151 19.944 40.4381 20.231 40.7917 20.231Z" fill="#06589C"/>
<path d="M27.8556 15.9105C28.2742 16.329 28.8328 16.5614 29.4256 16.5614C30.0184 16.5614 30.5771 16.329 30.9957 15.9105L37.1921 9.71405C37.6123 9.29549 37.843 8.73684 37.843 8.14403C37.843 7.55121 37.6123 6.99256 37.1921 6.57229C36.7735 6.15373 36.2148 5.9231 35.622 5.9231C35.0292 5.9231 34.4706 6.15373 34.052 6.57229L29.4256 11.1987L27.3243 9.09903C26.9057 8.67876 26.3471 8.44812 25.7543 8.44812C25.1614 8.44812 24.6045 8.67876 24.1842 9.09732C23.764 9.51759 23.5333 10.0745 23.5333 10.6691C23.5333 11.2619 23.764 11.8205 24.1842 12.2391L27.8556 15.9105ZM25.0897 10.0028C25.2674 9.8251 25.5031 9.72772 25.7543 9.72772C26.0054 9.72772 26.2412 9.8251 26.4188 10.0028L28.9729 12.5568C29.224 12.8063 29.6289 12.8063 29.8801 12.5568L34.9592 7.47775C35.3145 7.12411 35.933 7.1224 36.2883 7.47775C36.466 7.65542 36.5634 7.89118 36.5634 8.14232C36.5634 8.39345 36.466 8.62922 36.2883 8.80689L30.0919 15.0033C29.7366 15.3586 29.1181 15.3586 28.7628 15.0033L25.0914 11.3319C24.9137 11.1542 24.8163 10.9185 24.8163 10.6673C24.8146 10.4162 24.912 10.1804 25.0897 10.0028Z" fill="#06589C"/>
<path d="M36.6471 34.0692C36.2934 34.0692 36.0064 33.7822 36.0064 33.4286V31.4656C36.0064 31.112 36.2934 30.825 36.6471 30.825C37.0007 30.825 37.2877 31.112 37.2877 31.4656V33.4286C37.2877 33.7822 37.0007 34.0692 36.6471 34.0692Z" fill="#34C872"/>
</g>
<defs>
<clipPath id="clip0">
<rect width="61.378" height="50" fill="white"/>
</clipPath>
</defs>
</svg>
