<svg width="21" height="24" viewBox="0 0 21 24" fill="none" xmlns="http://www.w3.org/2000/svg">
<path d="M19.3899 10C19.3899 17 10.3899 23 10.3899 23C10.3899 23 1.38989 17 1.38989 10C1.38989 7.61305 2.3381 5.32387 4.02593 3.63604C5.71376 1.94821 8.00294 1 10.3899 1C12.7768 1 15.066 1.94821 16.7539 3.63604C18.4417 5.32387 19.3899 7.61305 19.3899 10Z" stroke="#34C872" stroke-width="2" stroke-linecap="round" stroke-linejoin="round"/>
<path d="M10.3899 13C12.0467 13 13.3899 11.6569 13.3899 10C13.3899 8.34315 12.0467 7 10.3899 7C8.73304 7 7.38989 8.34315 7.38989 10C7.38989 11.6569 8.73304 13 10.3899 13Z" stroke="#34C872" stroke-width="2" stroke-linecap="round" stroke-linejoin="round"/>
</svg>
