<svg width="165" height="41" viewBox="0 0 165 41" fill="none" xmlns="http://www.w3.org/2000/svg">
<g clip-path="url(#clip0)">
<path d="M48.7801 10.1594C53.9276 10.1594 57.5931 13.1123 58.611 17.7384H52.4772C51.7494 16.2069 50.3834 15.3677 48.6957 15.3677C46.0797 15.3677 44.3604 17.3922 44.3604 20.5183C44.3604 23.6705 46.0797 25.6951 48.6957 25.6951C50.3834 25.6951 51.7494 24.8559 52.4772 23.3243H58.6163C57.5984 27.9556 53.9329 30.9033 48.7854 30.9033C42.6199 30.9033 38.5747 26.6234 38.5747 20.5183C38.5694 14.4393 42.6147 10.1594 48.7801 10.1594Z" fill="#06589C"/>
<path d="M71.1528 30.9558C65.3355 30.9558 60.6204 26.6182 60.6204 20.4816C60.6204 14.3502 65.3355 10.0388 71.1528 10.0388C77.0018 10.0388 81.6535 14.3502 81.6535 20.4816C81.6535 26.6182 76.9701 30.9558 71.1528 30.9558ZM71.1528 25.6951C74.0905 25.6951 75.8678 23.6391 75.8678 20.4868C75.8678 17.2769 74.0957 15.2523 71.1528 15.2523C68.1835 15.2523 66.4377 17.2769 66.4377 20.4868C66.443 23.6391 68.1835 25.6951 71.1528 25.6951Z" fill="#06589C"/>
<path d="M84.2167 10.3586H91.1099L96.2575 23.6075L101.289 10.3586H108.156V30.7564H102.455V19.5006L98.5833 30.7564H93.8103L89.9127 19.4167V30.7564H84.2114V10.3586H84.2167Z" fill="#06589C"/>
<path d="M121.251 30.9558C115.434 30.9558 110.719 26.6182 110.719 20.4816C110.719 14.3502 115.434 10.0388 121.251 10.0388C127.1 10.0388 131.752 14.3502 131.752 20.4816C131.752 26.6182 127.069 30.9558 121.251 30.9558ZM121.251 25.6951C124.189 25.6951 125.966 23.6391 125.966 20.4868C125.966 17.2769 124.194 15.2523 121.251 15.2523C118.282 15.2523 116.536 17.2769 116.536 20.4868C116.536 23.6391 118.282 25.6951 121.251 25.6951Z" fill="#0ABF53"/>
<path d="M120.17 10.3586H156.261V14.8746H144.289V30.7564H138.587V14.8746H120.17V10.3586Z" fill="#0ABF53"/>
<path d="M165 14.9008H157.585V18.2261H164.13V22.5375H157.585V26.2142H165V30.7564H151.878V10.3586H165V14.9008Z" fill="#0ABF53"/>
<path d="M24.6142 32.9016L27.7101 36.5311L26.9664 36.956L21.1227 40.3128C20.7272 40.5383 20.3053 40.7114 19.8675 40.832C19.8622 40.832 19.857 40.832 19.857 40.832C19.7462 40.8635 19.6354 40.8897 19.5247 40.9107C18.876 41.0313 18.2009 41.0313 17.5469 40.9107C17.4362 40.8897 17.3254 40.8635 17.2146 40.832C17.2094 40.832 17.2094 40.832 17.2041 40.832C16.7769 40.7166 16.3602 40.5435 15.9647 40.3128L6.27617 34.7531L2.58431 32.6341C0.980981 31.711 0 30.0169 0 28.1811V12.8238C0 10.9881 0.980981 9.2887 2.57903 8.37083L15.9647 0.686939C17.5627 -0.230933 19.5352 -0.230933 21.128 0.686939L30.7743 6.22039L27.1932 9.78173L21.0858 6.27809C19.4878 5.36021 17.5153 5.36021 15.9172 6.27809L7.4101 11.1717C5.81205 12.0895 4.82052 13.7837 4.82052 15.6194V25.3908C4.82052 27.2265 5.80678 28.9207 7.4101 29.8385L9.35624 30.9557L15.9172 34.7164C16.6398 35.1307 17.4309 35.3563 18.2378 35.3877C18.4382 35.4087 18.6334 35.4087 18.8338 35.3877C19.6407 35.3563 20.4318 35.1307 21.1544 34.7164L24.2608 32.9331C24.3821 32.9331 24.4982 32.9226 24.6142 32.9016Z" fill="#06589C"/>
<path fill-rule="evenodd" clip-rule="evenodd" d="M29.8778 30.7828L29.1341 30.143L27.5044 28.7373L27.6996 28.5799C28.0107 28.2443 27.9844 27.7722 27.7048 27.4628L26.7766 26.5239C27.8156 25.0763 28.5276 23.2458 28.6542 21.2684C28.7122 20.403 28.6594 19.5533 28.5118 18.7404C28.1742 16.8627 27.3198 15.1528 26.1068 13.7209C24.3083 11.7226 21.8031 10.3851 18.9287 10.1963C18.0585 10.1386 17.2041 10.1911 16.3814 10.3379C14.488 10.6736 12.7422 11.5233 11.3499 12.7349C9.34571 14.5234 8.00082 17.0148 7.81095 19.8733C7.61581 22.7318 8.61261 25.4277 10.3583 27.4208C12.1093 29.4139 14.662 30.7461 17.5311 30.9454C19.2927 31.0608 20.9593 30.7619 22.4729 30.1062C22.5257 30.1639 22.5257 30.2216 22.6364 30.2898L23.744 31.4175C24.013 31.7269 24.4876 31.7007 24.8041 31.4385L24.9254 31.2706L25.669 32.136L26.7608 33.4158L28.8599 35.8705L33.0211 33.4788L29.8778 30.7828ZM23.5805 26.6708V26.7285C22.0194 28.0869 19.915 28.8212 17.6841 28.6744C15.4004 28.517 13.4648 27.51 12.046 25.8998C10.6801 24.3473 9.93114 22.307 10.0894 20.0359C10.1632 18.9239 10.4585 17.8749 10.9227 16.9361C11.3921 15.992 12.0355 15.158 12.8161 14.471C14.4405 13.1125 16.4974 12.3153 18.7758 12.4726C21.0067 12.6195 22.9845 13.6842 24.3558 15.242C25.7218 16.7945 26.5234 18.903 26.3705 21.1111C26.2228 23.3927 25.1469 25.3071 23.5805 26.6708Z" fill="#0ABF53"/>
<path fill-rule="evenodd" clip-rule="evenodd" d="M21.898 16.144H23.2904C22.647 15.4097 21.8506 14.8171 20.9593 14.4184C21.3495 14.9429 21.6607 15.5356 21.898 16.144ZM15.5058 14.4184C14.6092 14.8171 13.8129 15.4045 13.1747 16.144H14.5618C14.8044 15.5356 15.1103 14.9429 15.5058 14.4184ZM23.2904 24.8559H21.898C21.6554 25.4591 21.3495 26.057 20.954 26.5763C21.8506 26.1777 22.647 25.5902 23.2904 24.8559ZM20.8116 24.8559H18.7336V27.0798C19.7093 26.7861 20.4055 25.7371 20.8116 24.8559ZM17.7262 24.8559H15.6482C16.0491 25.7371 16.7505 26.7861 17.7262 27.0798V24.8559ZM14.5618 24.8559H13.1747C13.8181 25.5902 14.6092 26.1777 15.5058 26.5763C15.1103 26.0518 14.8044 25.4644 14.5618 24.8559ZM12.4521 23.8542H14.2242C13.9816 22.9835 13.8287 22.0184 13.7918 21.0009H11.5555C11.6347 22.0341 11.9511 23.0045 12.4521 23.8542ZM15.2738 23.8542H17.7262V21.0009H14.7991C14.8413 22.0341 15.0101 23.0045 15.2738 23.8542ZM18.7336 23.8542H21.186C21.4497 23.0045 21.6132 22.0341 21.6554 21.0009H18.7283L18.7336 23.8542ZM22.2356 23.8542H24.0077C24.5034 23.0045 24.8252 22.0341 24.899 21.0009H22.6628C22.6311 22.0184 22.4782 22.9835 22.2356 23.8542ZM12.4521 17.1458C11.9511 17.9955 11.6347 18.9658 11.5608 19.9991H13.797C13.834 18.9816 13.9869 18.0165 14.2295 17.1458H12.4521ZM24.0077 17.1458H22.2356C22.4782 18.0165 22.6311 18.9816 22.6681 19.9991H24.9043C24.8252 18.9658 24.5087 17.9955 24.0077 17.1458ZM21.1913 17.1458H18.7336V19.9991H21.6607C21.6185 18.9658 21.455 17.9955 21.1913 17.1458ZM17.7262 17.1458H15.2738C15.0101 17.9955 14.8466 18.9658 14.8044 19.9991H17.7315V17.1458H17.7262ZM15.6535 16.144H17.7315V13.9202C16.7558 14.2139 16.0543 15.2576 15.6535 16.144ZM18.7336 16.144H20.8116C20.4107 15.2629 19.7093 14.2139 18.7336 13.9202V16.144Z" fill="#0ABF53"/>
</g>
<defs>
<clipPath id="clip0">
<rect width="165" height="41" fill="white"/>
</clipPath>
</defs>
</svg>
