<svg width="139" height="115" viewBox="0 0 139 115" fill="none" xmlns="http://www.w3.org/2000/svg">
<path d="M17.3579 34.0833C22.4688 26.5063 28.7298 19.7077 36.1151 14.0595C56.1609 -1.25888 83.4968 -5.71342 103.569 12.1047C114.906 22.1729 125.084 35.5624 128.345 50.6473C131.553 65.4986 125.448 87.4686 108.109 90.2365C96.7107 92.0615 84.9237 88.0481 73.7334 91.7501C61.0037 95.9625 50.6435 105.278 37.6977 109.214C28.0294 112.155 15.8877 111.869 8.23438 104.465C1.57552 98.0211 -0.0416292 87.8146 1.08259 78.6114C3.02836 62.7567 8.46788 47.248 17.3579 34.0833Z" fill="#F7E7E6"/>
<path d="M132.366 29.1965C135.552 29.1965 138.134 26.6135 138.134 23.4272C138.134 20.2409 135.552 17.6579 132.366 17.6579C129.18 17.6579 126.598 20.2409 126.598 23.4272C126.598 26.6135 129.18 29.1965 132.366 29.1965Z" fill="#F7E7E6"/>
<path d="M69.0203 110.935C69.0203 113.167 67.2129 114.974 64.9817 114.974C62.7506 114.974 60.9432 113.167 60.9432 110.935C60.9432 108.703 62.7506 106.896 64.9817 106.896C67.2129 106.896 69.0203 108.703 69.0203 110.935Z" fill="#F7E7E6"/>
<path d="M84.0663 29.1883C87.5613 35.0403 89.1159 42.1097 88.2114 48.9002C87.921 51.0773 85.4248 69.793 85.0892 72.3082H63.9086C63.5771 69.8223 61.1664 51.7491 60.7865 48.9002C59.8819 42.1097 61.4365 35.0403 64.9315 29.1883H84.0663Z" fill="#EEFAFF"/>
<path d="M74.4989 52.8556C78.0801 52.8556 80.9831 49.9525 80.9831 46.3714C80.9831 42.7903 78.0801 39.8872 74.4989 39.8872C70.9178 39.8872 68.0147 42.7903 68.0147 46.3714C68.0147 49.9525 70.9178 52.8556 74.4989 52.8556Z" fill="#91DEF5"/>
<path d="M54.1337 86.2767C54.1386 86.2865 54.1418 86.2978 54.1451 86.3075C54.338 86.2897 54.5244 86.2492 54.7222 86.2492C58.3031 86.2492 61.2064 89.1525 61.2064 92.7334C64.7873 92.7334 68.0148 89.8301 68.0148 86.2492V78.7924H80.9832V86.2492C80.9832 89.8301 84.2107 92.7334 87.7916 92.7334C87.7916 89.1525 90.6949 86.2492 94.2758 86.2492C94.4735 86.2492 94.66 86.2897 94.8529 86.3075C94.8561 86.2978 94.8593 86.2865 94.8642 86.2767C96.3442 82.0798 100.895 79.1814 105.738 79.8655C110.52 80.5398 114.459 85.3317 114.377 89.6534C114.278 94.7467 109.758 99.2176 104.326 99.2176H44.6717C39.0969 99.2176 34.6212 94.5522 34.6212 89.4913C34.6212 85.2198 38.5393 80.5317 43.2598 79.8655C48.1034 79.1814 52.6537 82.0798 54.1337 86.2767Z" fill="#F3C729"/>
<path d="M96.3394 66.4481C96.8905 67.0916 97.1937 67.9103 97.1937 68.7581C97.1937 70.7195 95.605 72.3082 93.6436 72.3082H85.0893L87.4674 56.0977L96.3394 66.4481Z" fill="#FE5A4E"/>
<path d="M85.0892 72.3081L84.2252 78.7923C80.2696 78.7923 69.3835 78.7923 64.7726 78.7923L63.9086 72.3081H85.0892Z" fill="#FE5A4E"/>
<path d="M84.0664 29.1883H64.9315C67.2901 25.2362 70.5339 21.8417 74.4989 19.462C78.464 21.8417 81.7077 25.2362 84.0664 29.1883Z" fill="#FE5A4E"/>
<path d="M63.9087 72.3082H55.3544C53.3929 72.3082 51.8043 70.7195 51.8043 68.7581C51.8043 67.9103 52.1075 67.0916 52.6586 66.4481L61.5306 56.0977L63.9087 72.3082Z" fill="#FE5A4E"/>
<path d="M74.4989 54.4767C78.9681 54.4767 82.6041 50.8407 82.6041 46.3714C82.6041 41.9022 78.9681 38.2662 74.4989 38.2662C70.0296 38.2662 66.3936 41.9022 66.3936 46.3714C66.3936 50.8407 70.0296 54.4767 74.4989 54.4767ZM74.4989 41.5083C77.1804 41.5083 79.362 43.6899 79.362 46.3714C79.362 49.053 77.1804 51.2346 74.4989 51.2346C71.8173 51.2346 69.6357 49.053 69.6357 46.3714C69.6357 43.6899 71.8173 41.5083 74.4989 41.5083Z" fill="#044072"/>
<path d="M62.6211 90.9128C61.8274 87.4694 58.8338 84.8576 55.2059 84.643C53.09 80.2694 48.1464 77.5387 43.0332 78.2609C37.6884 79.0153 33 84.2633 33 89.4918C33 95.3647 38.1167 100.839 44.6715 100.839H67.2041C68.0993 100.839 68.8252 100.113 68.8252 99.2181C68.8252 98.3228 68.0993 97.5971 67.2041 97.5971H44.6715C40.1811 97.5971 36.2421 93.8097 36.2421 89.4918C36.2421 85.8946 39.7627 81.9968 43.4862 81.4712C46.7786 81.006 50.0659 82.5466 51.7914 85.1794C50.7487 85.5841 49.7913 86.2022 48.9905 87.0043C48.358 87.6378 48.3588 88.6643 48.9923 89.297C49.3087 89.6129 49.7232 89.7708 50.1376 89.7708C50.5529 89.7708 50.968 89.6121 51.2846 89.2952C52.1023 88.4762 53.171 87.9256 54.7219 87.871C57.4034 87.871 59.585 90.0526 59.585 92.7341C59.585 93.6294 60.3109 94.3551 61.2061 94.3551C65.7753 94.3551 69.6355 90.6434 69.6355 86.2499V80.4141H79.3618V86.2499C79.3618 90.6434 83.222 94.3551 87.7913 94.3551C88.6864 94.3551 89.4123 93.6294 89.4123 92.7341C89.4123 90.0526 91.5939 87.871 94.2724 87.871C95.7342 87.9163 96.8498 88.431 97.7127 89.2952C98.3427 89.9261 99.3688 89.9321 100.005 89.297C100.639 88.6645 100.64 87.638 100.007 87.0043C99.2062 86.2022 98.2488 85.5841 97.206 85.1794C98.9311 82.5469 102.218 81.0065 105.512 81.4712C109.305 82.0062 112.826 85.9677 112.756 89.6225C112.672 93.9452 108.811 97.5971 104.326 97.5971H81.7935C80.8984 97.5971 80.1725 98.3228 80.1725 99.2181C80.1725 100.113 80.8984 100.839 81.7935 100.839H104.326C110.535 100.839 115.88 95.7314 115.997 89.6849C116.099 84.3672 111.411 79.0289 105.965 78.2609C100.849 77.5389 95.907 80.2708 93.7917 84.643C90.1638 84.8574 87.1702 87.4694 86.3766 90.9128C84.2507 90.3038 82.6041 88.3848 82.6041 86.2497V80.414H84.2251C85.0378 80.414 85.7246 79.8124 85.8319 79.0071L86.509 73.9298H93.6434C96.4948 73.9298 98.8146 71.6101 98.8146 68.7586C98.8146 67.5258 98.3727 66.331 97.5701 65.3937L88.9831 55.3757L89.8179 49.1148C91.468 36.7301 85.4424 24.1401 75.333 18.0727C74.8195 17.7645 74.178 17.7645 73.6645 18.0727C63.5529 24.1414 57.53 36.7327 59.1796 49.1153L60.0144 55.3759L51.4271 65.3943C50.625 66.3311 50.1831 67.5258 50.1831 68.7586C50.1831 71.6101 52.503 73.9298 55.3543 73.9298H62.4886L63.1658 79.0071C63.2731 79.8124 63.9599 80.414 64.7725 80.414H66.3936V86.2497C66.3936 88.3848 64.7469 90.3038 62.6211 90.9128ZM95.108 67.5031C95.4076 67.853 95.5725 68.2987 95.5725 68.7588C95.5725 69.8225 94.707 70.6878 93.6434 70.6878H86.9414L88.4082 59.6871L95.108 67.5031ZM74.4988 21.3769C76.9682 23 79.1828 25.1035 81.0297 27.5678H67.968C69.8147 25.1035 72.0295 23 74.4988 21.3769ZM65.8697 30.8099H83.1282C86.1801 36.2958 87.4142 42.6077 86.6045 48.6865L83.6701 70.6877H65.3273L62.3933 48.6868C61.5835 42.6079 62.8176 36.2962 65.8697 30.8099ZM55.3543 70.6877C54.2905 70.6877 53.4252 69.8224 53.4252 68.7586C53.4252 68.2987 53.5902 67.8528 53.8892 67.5036L60.5894 59.6871L62.0563 70.6877H55.3543ZM65.7596 73.9298H83.2379L82.8059 77.1719H66.1919L65.7596 73.9298Z" fill="#044072"/>
<path d="M74.499 100.839C75.3943 100.839 76.1201 100.113 76.1201 99.2177C76.1201 98.3224 75.3943 97.5966 74.499 97.5966C73.6037 97.5966 72.878 98.3224 72.878 99.2177C72.878 100.113 73.6037 100.839 74.499 100.839Z" fill="#044072"/>
</svg>
