<svg width="138" height="119" viewBox="0 0 138 119" fill="none" xmlns="http://www.w3.org/2000/svg">
<g opacity="0.08">
<path d="M16.6034 37.1759C21.7143 29.5989 27.9754 22.8003 35.3607 17.1521C55.4064 1.83371 82.7423 -2.62083 102.814 15.1973C114.151 25.2654 124.33 38.655 127.59 53.7399C130.799 68.5912 124.693 90.5612 107.354 93.3291C95.9563 95.1541 84.1692 91.1407 72.9789 94.8427C60.2492 99.0551 49.8891 108.371 36.9432 112.306C27.2749 115.247 15.1333 114.962 7.47993 107.558C0.821067 101.114 -0.796085 90.9072 0.328138 81.704C2.27391 65.8493 7.71342 50.3406 16.6034 37.1759Z" fill="#34C872"/>
<path d="M18.8605 19.3924C24.2145 19.3924 28.5548 15.0512 28.5548 9.69619C28.5548 4.34113 24.2145 0 18.8605 0C13.5065 0 9.16623 4.34113 9.16623 9.69619C9.16623 15.0512 13.5065 19.3924 18.8605 19.3924Z" fill="#34C872"/>
<path d="M131.612 32.2889C134.797 32.2889 137.38 29.7059 137.38 26.5196C137.38 23.3334 134.797 20.7504 131.612 20.7504C128.426 20.7504 125.843 23.3334 125.843 26.5196C125.843 29.7059 128.426 32.2889 131.612 32.2889Z" fill="#34C872"/>
<path d="M68.2658 114.028C68.2658 116.259 66.4584 118.067 64.2273 118.067C61.9961 118.067 60.1887 116.259 60.1887 114.028C60.1887 111.796 61.9961 109.988 64.2273 109.988C66.4584 109.988 68.2658 111.796 68.2658 114.028Z" fill="#34C872"/>
</g>
<g clip-path="url(#clip0)">
<path d="M28.994 74.0409V32.9911C28.994 31.3451 30.3451 29.994 31.991 29.994H89.0087C90.6546 29.994 92.0058 31.3451 92.0058 32.9911V74.0163C92.0058 75.6622 90.6546 77.0133 89.0087 77.0133H31.991C30.3451 77.0379 28.994 75.6868 28.994 74.0409Z" fill="#83E1E5"/>
<path d="M78.6174 99H42.3826C41.965 99 41.621 98.6561 41.621 98.2384V96.7399C41.621 93.4235 44.3233 90.7458 47.6151 90.7458H51.3492C52.774 90.7458 53.9286 89.5912 53.9286 88.1664V86.152C53.9286 84.4324 52.5283 83.0321 50.8087 83.0321H28.2571C25.3583 83.0321 23 80.6738 23 77.775V29.2571C23 26.3583 25.3583 24 28.2571 24H92.7674C95.6662 24 98.0246 26.3583 98.0246 29.2571V77.7995C98.0246 80.6983 95.6662 83.0567 92.7674 83.0567H70.2159C68.4962 83.0567 67.096 84.4569 67.096 86.1765V88.191C67.096 89.6158 68.2506 90.7704 69.6754 90.7704H73.4094C76.7258 90.7704 79.4035 93.4726 79.4035 96.7645V98.263C79.379 98.6806 79.035 99 78.6174 99ZM43.1441 97.5015H77.8804V96.7399C77.8804 94.2588 75.866 92.2443 73.3849 92.2443H69.6508C67.4153 92.2443 65.5729 90.4265 65.5729 88.1664V86.152C65.5729 83.5971 67.661 81.509 70.2159 81.509H92.7674C94.831 81.509 96.526 79.8385 96.526 77.7504V29.2571C96.526 27.1936 94.8555 25.4985 92.7674 25.4985H28.2571C26.1936 25.4985 24.4985 27.169 24.4985 29.2571V77.7995C24.4985 79.8631 26.169 81.5581 28.2571 81.5581H50.8087C53.3636 81.5581 55.4517 83.6462 55.4517 86.2011V88.2155C55.4517 90.451 53.6338 92.2935 51.3737 92.2935H47.6397C45.1585 92.2935 43.1441 94.3079 43.1441 96.7891V97.5015Z" fill="#044072"/>
<path d="M56.6802 83.0321H49.8508C49.4332 83.0321 49.0893 82.6882 49.0893 82.2706C49.0893 81.853 49.4332 81.509 49.8508 81.509H56.6802C57.0978 81.509 57.4417 81.853 57.4417 82.2706C57.4417 82.6882 57.0978 83.0321 56.6802 83.0321Z" fill="#044072"/>
<path d="M61.9371 83.0321H60.5122C60.0946 83.0321 59.7507 82.6882 59.7507 82.2706C59.7507 81.853 60.0946 81.509 60.5122 81.509H61.9371C62.3547 81.509 62.6986 81.853 62.6986 82.2706C62.6986 82.6882 62.3547 83.0321 61.9371 83.0321Z" fill="#044072"/>
<path d="M70.658 92.2689H62.3547C61.937 92.2689 61.5931 91.925 61.5931 91.5074C61.5931 91.0898 61.937 90.7458 62.3547 90.7458H70.658C71.0756 90.7458 71.4195 91.0898 71.4195 91.5074C71.4195 91.925 71.0756 92.2689 70.658 92.2689Z" fill="#044072"/>
<path d="M28.994 33.7527C28.5764 33.7527 28.2325 33.4088 28.2325 32.9911C28.2325 30.9276 29.9029 29.2325 31.9911 29.2325H34.595C35.0127 29.2325 35.3566 29.5765 35.3566 29.9941C35.3566 30.4117 35.0127 30.7556 34.595 30.7556H31.9911C30.7382 30.7556 29.731 31.7628 29.731 33.0157C29.7555 33.4088 29.4116 33.7527 28.994 33.7527Z" fill="#044072"/>
<path d="M28.994 48.8607C28.5764 48.8607 28.2325 48.5168 28.2325 48.0991V36.9953C28.2325 36.5777 28.5764 36.2338 28.994 36.2338C29.4116 36.2338 29.7555 36.5777 29.7555 36.9953V48.0991C29.7555 48.5168 29.4116 48.8607 28.994 48.8607Z" fill="#044072"/>
<path d="M39.0417 30.7556H37.9362C37.5186 30.7556 37.1747 30.4117 37.1747 29.9941C37.1747 29.5765 37.5186 29.2325 37.9362 29.2325H39.0663C39.4839 29.2325 39.8278 29.5765 39.8278 29.9941C39.8032 30.4117 39.4593 30.7556 39.0417 30.7556Z" fill="#044072"/>
<path d="M89.0088 77.7749H86.4048C85.9871 77.7749 85.6432 77.431 85.6432 77.0134C85.6432 76.5958 85.9871 76.2518 86.4048 76.2518H89.0088C90.2616 76.2518 91.2688 75.2446 91.2688 73.9918C91.2688 73.5741 91.6128 73.2302 92.0304 73.2302C92.448 73.2302 92.7919 73.5741 92.7919 73.9918C92.7674 76.1044 91.0723 77.7749 89.0088 77.7749Z" fill="#044072"/>
<path d="M92.0056 70.7737C91.5879 70.7737 91.244 70.4297 91.244 70.0121V58.9083C91.244 58.4907 91.5879 58.1467 92.0056 58.1467C92.4232 58.1467 92.7671 58.4907 92.7671 58.9083V70.0121C92.7671 70.4543 92.4232 70.7737 92.0056 70.7737Z" fill="#044072"/>
<path d="M83.0883 77.7749H81.9583C81.5407 77.7749 81.1967 77.431 81.1967 77.0134C81.1967 76.5958 81.5407 76.2518 81.9583 76.2518H83.0883C83.5059 76.2518 83.8499 76.5958 83.8499 77.0134C83.8253 77.4556 83.5059 77.7749 83.0883 77.7749Z" fill="#044072"/>
<path opacity="0.6" d="M42.2597 64.7058H34.9391C34.1038 64.7058 33.4406 65.3691 33.4406 66.2043V71.2158C33.4406 72.051 34.1038 72.7143 34.9391 72.7143H42.2352C43.0704 72.7143 43.7337 72.051 43.7337 71.2158V66.2043C43.7583 65.3691 43.0704 64.7058 42.2597 64.7058Z" fill="white"/>
<path opacity="0.6" d="M56.8522 64.7058H49.5561C48.7209 64.7058 48.0576 65.3691 48.0576 66.2043V71.2158C48.0576 72.051 48.7209 72.7143 49.5561 72.7143H56.8522C57.6875 72.7143 58.3508 72.051 58.3508 71.2158V66.2043C58.3508 65.3691 57.6875 64.7058 56.8522 64.7058Z" fill="white"/>
<path opacity="0.6" d="M71.4443 64.7058H64.1482C63.313 64.7058 62.6497 65.3691 62.6497 66.2043V71.2158C62.6497 72.051 63.313 72.7143 64.1482 72.7143H71.4443C72.2796 72.7143 72.9429 72.051 72.9429 71.2158V66.2043C72.9674 65.3691 72.2796 64.7058 71.4443 64.7058Z" fill="white"/>
<path opacity="0.6" d="M86.0607 64.7058H78.7646C77.9294 64.7058 77.2661 65.3691 77.2661 66.2043V71.2158C77.2661 72.051 77.9294 72.7143 78.7646 72.7143H86.0607C86.896 72.7143 87.5593 72.051 87.5593 71.2158V66.2043C87.5593 65.3691 86.896 64.7058 86.0607 64.7058Z" fill="white"/>
<rect opacity="0.6" x="35" y="36" width="32" height="24" rx="3" fill="white"/>
<rect opacity="0.6" x="71" y="36" width="16" height="24" rx="3" fill="white"/>
</g>
<defs>
<clipPath id="clip0">
<rect width="75" height="75" fill="white" transform="translate(23 24)"/>
</clipPath>
</defs>
</svg>
