<svg width="139" height="119" viewBox="0 0 139 119" fill="none" xmlns="http://www.w3.org/2000/svg">
<path d="M17.3579 38.0833C22.4688 30.5063 28.7298 23.7077 36.1151 18.0595C56.1609 2.74112 83.4968 -1.71342 103.569 16.1047C114.906 26.1729 125.084 39.5624 128.345 54.6473C131.553 69.4986 125.448 91.4686 108.109 94.2365C96.7107 96.0615 84.9237 92.0481 73.7334 95.7501C61.0037 99.9625 50.6435 109.278 37.6977 113.214C28.0294 116.155 15.8877 115.869 8.23438 108.465C1.57552 102.021 -0.0416292 91.8146 1.08259 82.6114C3.02836 66.7567 8.46788 51.248 17.3579 38.0833Z" fill="#E4F4EB"/>
<path d="M19.6149 20.2998C24.9689 20.2998 29.3092 15.9587 29.3092 10.6037C29.3092 5.2486 24.9689 0.907471 19.6149 0.907471C14.2609 0.907471 9.92065 5.2486 9.92065 10.6037C9.92065 15.9587 14.2609 20.2998 19.6149 20.2998Z" fill="#E4F4EB"/>
<path d="M132.366 33.1965C135.552 33.1965 138.134 30.6135 138.134 27.4272C138.134 24.2409 135.552 21.6579 132.366 21.6579C129.18 21.6579 126.598 24.2409 126.598 27.4272C126.598 30.6135 129.18 33.1965 132.366 33.1965Z" fill="#E4F4EB"/>
<path d="M69.0203 114.935C69.0203 117.167 67.2129 118.974 64.9817 118.974C62.7506 118.974 60.9432 117.167 60.9432 114.935C60.9432 112.703 62.7506 110.896 64.9817 110.896C67.2129 110.896 69.0203 112.703 69.0203 114.935Z" fill="#CAEDD9"/>
<g clip-path="url(#clip0)">
<path d="M75.0845 96.975V99.0979C75.0845 99.2844 75.0745 99.4709 75.0545 99.6523C74.7781 102.15 72.6602 104.093 70.0895 104.093H62.4305C59.8598 104.093 57.7419 102.15 57.4655 99.6523C57.4455 99.4709 57.4355 99.2844 57.4355 99.0979V96.975C58.0965 97.2697 58.8291 97.4329 59.6 97.4329H72.92C73.6909 97.4329 74.4235 97.2697 75.0845 96.975Z" fill="#50758D"/>
<path d="M66.0103 31.2046C65.3205 31.2046 64.7616 30.6456 64.7616 29.9558V21.5371C64.7616 20.8473 65.3205 20.2884 66.0103 20.2884C66.7002 20.2884 67.2591 20.8473 67.2591 21.5371V29.9558C67.2591 30.6456 66.7 31.2046 66.0103 31.2046Z" fill="#FFE7C9"/>
<path d="M43.5953 40.4894C43.2756 40.4894 42.9561 40.3675 42.7122 40.1238L36.7592 34.1706C36.2715 33.6828 36.2715 32.8922 36.7592 32.4045C37.2472 31.9169 38.0377 31.9172 38.5252 32.4045L44.4783 38.3577C44.9659 38.8456 44.9659 39.6361 44.4783 40.1238C44.2343 40.3675 43.9147 40.4894 43.5953 40.4894Z" fill="#FFE7C9"/>
<path d="M34.3106 62.9044H25.8917C25.2019 62.9044 24.6429 62.3454 24.6429 61.6556C24.6429 60.9658 25.2019 60.4069 25.8917 60.4069H34.3104C35.0002 60.4069 35.5591 60.9658 35.5591 61.6556C35.5591 62.3454 35.0002 62.9044 34.3106 62.9044Z" fill="#FFE7C9"/>
<path d="M37.6423 91.2725C37.3228 91.2725 37.0031 91.1506 36.7592 90.9068C36.2715 90.419 36.2715 89.6285 36.7592 89.1408L42.7122 83.1878C43.2 82.7003 43.9906 82.7003 44.4783 83.1878C44.9659 83.6756 44.9659 84.4662 44.4783 84.9538L38.5252 90.9068C38.2813 91.1506 37.9618 91.2725 37.6423 91.2725Z" fill="#FFE7C9"/>
<path d="M94.3783 91.2725C94.0588 91.2725 93.7391 91.1506 93.4952 90.9068L87.5421 84.9538C87.0545 84.466 87.0545 83.6755 87.5421 83.1878C88.03 82.7003 88.8205 82.7003 89.3082 83.1878L95.2612 89.1408C95.7489 89.6286 95.7489 90.4192 95.2612 90.9068C95.0175 91.1506 94.6978 91.2725 94.3783 91.2725Z" fill="#FFE7C9"/>
<path d="M106.129 62.9043H97.7101C97.0203 62.9043 96.4614 62.3454 96.4614 61.6556C96.4614 60.9658 97.0203 60.4069 97.7101 60.4069H106.129C106.819 60.4069 107.378 60.9658 107.378 61.6556C107.378 62.3454 106.818 62.9043 106.129 62.9043Z" fill="#FFE7C9"/>
<path d="M88.4253 40.4894C88.1057 40.4894 87.7861 40.3675 87.5421 40.1238C87.0545 39.6359 87.0545 38.8454 87.5421 38.3577L93.4952 32.4045C93.983 31.917 94.7735 31.917 95.2612 32.4045C95.7489 32.8924 95.7489 33.6829 95.2612 34.1706L89.3082 40.1238C89.0644 40.3675 88.7448 40.4894 88.4253 40.4894Z" fill="#FFE7C9"/>
<path d="M66.2601 95.768C66.2601 95.768 58.0966 97.2698 57.4356 96.9751V99.098C57.4356 99.2844 57.4456 99.4709 57.4656 99.6524C57.742 102.15 59.8598 104.093 62.4306 104.093H64.5951C62.4231 104.093 60.5748 102.706 59.8868 100.769C59.7704 100.442 60.0089 100.097 60.3563 100.097H72.92C73.6793 100.097 74.4019 99.9388 75.0546 99.6524C75.0745 99.4709 75.0845 99.2844 75.0845 99.098V96.9751C74.4235 97.2698 66.2601 95.768 66.2601 95.768Z" fill="#2B597F"/>
<path d="M78.248 92.105C78.248 94.2761 76.9476 96.1459 75.0845 96.9751C74.4235 97.2698 73.6909 97.4329 72.92 97.4329H59.6001C58.8292 97.4329 58.0966 97.2698 57.4356 96.9751C55.5725 96.1459 54.2721 94.2761 54.2721 92.105C54.2721 92.105 54.1939 84.3228 54.1789 84.1197V84.113L66.2601 82.448L78.203 84.113L78.248 92.105Z" fill="#50758D"/>
<path d="M63.7626 97.433H59.6001C58.8292 97.433 58.0966 97.2698 57.4356 96.9751C55.5725 96.1459 54.2721 94.2761 54.2721 92.105C54.2721 92.105 54.1939 84.3228 54.1789 84.1197V84.113H58.3414V84.1197C58.3564 84.3228 58.4346 92.105 58.4346 92.105C58.4346 94.2761 59.735 96.1459 61.5981 96.9751C62.2589 97.2698 62.9915 97.433 63.7626 97.433Z" fill="#2B597F"/>
<path d="M78.2481 92.0217H74.0023C73.313 92.0217 72.7536 91.4623 72.7536 90.773C72.7536 90.0837 73.313 89.5243 74.0023 89.5243H78.2348L78.2414 90.773L78.2481 92.0217Z" fill="#2B597F"/>
<path d="M69.4236 90.773C69.4236 91.4623 68.8641 92.0218 68.1748 92.0218H54.2705L54.2422 89.5243H68.1748C68.8641 89.5243 69.4236 90.0837 69.4236 90.773Z" fill="#2B597F"/>
<path d="M66.032 35.3571C66.0318 35.3571 66.0316 35.3571 66.0315 35.3571L66.032 35.3566C53.1731 35.1588 42.3593 46.3661 42.5906 59.1315C42.5906 65.6432 45.1696 71.5456 49.3488 75.8397C51.8113 78.3721 53.9425 80.7131 54.1789 84.113L78.2031 84.153C78.3379 80.6531 80.3276 78.2889 82.8068 75.6998C86.906 71.4191 89.4301 65.575 89.4301 59.1315C89.4299 46.008 78.9573 35.3687 66.032 35.3571Z" fill="#34C872"/>
<path d="M78.2029 84.1463V84.153L54.1787 84.113C53.9423 80.7131 51.8111 78.3721 49.3486 75.8397C45.1694 71.5456 42.5904 65.6432 42.5904 59.1315C42.3589 46.366 53.1731 35.1589 66.0318 35.357C66.6811 35.357 67.3238 35.3854 67.9599 35.437C56.1084 36.4759 46.5347 47.1136 46.7529 59.1315C46.7529 65.6432 49.3319 71.5456 53.5111 75.8397C55.9736 78.3721 58.1048 80.7131 58.3412 84.113L78.2029 84.1463Z" fill="#119A4B"/>
<path d="M66.5983 71.0313C66.0999 71.6732 65.343 72.0616 64.531 72.0918C64.4967 72.0931 64.4624 72.0938 64.4283 72.0938C63.6532 72.0938 62.9123 71.7659 62.3903 71.1885L54.5649 62.5307C53.5475 61.405 53.6353 59.6679 54.761 58.6505C55.8865 57.633 57.6234 57.7207 58.6413 58.8464L64.2689 65.0727L73.2477 53.5091C74.1781 52.3108 75.9041 52.0936 77.1024 53.0241C78.3008 53.9547 78.5179 55.6806 77.5874 56.8789L66.5983 71.0313Z" fill="#EEC42E"/>
<path d="M66.0103 31.2046C66.7002 31.2046 67.2591 30.6456 67.2591 29.9558V21.5371C67.2591 20.8473 66.7002 20.2884 66.0103 20.2884C65.3205 20.2884 64.7616 20.8473 64.7616 21.5371V29.9558C64.7616 30.6456 65.3205 31.2046 66.0103 31.2046Z" fill="#044072"/>
<path d="M42.7122 40.1238C43.2 40.6113 43.9904 40.6113 44.4783 40.1238C44.9659 39.6359 44.9659 38.8454 44.4783 38.3577L38.5252 32.4045C38.0376 31.9172 37.247 31.9169 36.7592 32.4045C36.2715 32.8924 36.2715 33.6829 36.7592 34.1706L42.7122 40.1238Z" fill="#044072"/>
<path d="M34.3106 60.4069H25.8917C25.2019 60.4069 24.6429 60.9658 24.6429 61.6556C24.6429 62.3454 25.2019 62.9044 25.8917 62.9044H34.3104C35.0002 62.9044 35.5591 62.3454 35.5591 61.6556C35.5591 60.9658 35.0002 60.4069 34.3106 60.4069Z" fill="#044072"/>
<path d="M42.7122 83.1876L36.7592 89.1406C36.2715 89.6285 36.2715 90.419 36.7592 90.9067C37.247 91.3942 38.0374 91.3942 38.5252 90.9067L44.4783 84.9537C44.9659 84.4658 44.9659 83.6753 44.4783 83.1876C43.9906 82.7003 43.2 82.7003 42.7122 83.1876Z" fill="#044072"/>
<path d="M89.3084 83.1876C88.8205 82.7001 88.03 82.7001 87.5423 83.1876C87.0547 83.6754 87.0547 84.4659 87.5423 84.9536L93.4953 90.9066C93.9832 91.3941 94.7735 91.3941 95.2614 90.9066C95.7491 90.4188 95.7491 89.6283 95.2614 89.1406L89.3084 83.1876Z" fill="#044072"/>
<path d="M106.129 60.4069H97.7101C97.0203 60.4069 96.4614 60.9658 96.4614 61.6556C96.4614 62.3454 97.0203 62.9043 97.7101 62.9043H106.129C106.819 62.9043 107.378 62.3454 107.378 61.6556C107.378 60.9658 106.818 60.4069 106.129 60.4069Z" fill="#044072"/>
<path d="M93.4953 32.4045L87.5423 38.3577C87.0547 38.8456 87.0547 39.6361 87.5423 40.1238C88.0302 40.6113 88.8205 40.6113 89.3084 40.1238L95.2614 34.1706C95.7491 33.6828 95.7491 32.8922 95.2614 32.4045C94.7736 31.917 93.983 31.917 93.4953 32.4045Z" fill="#044072"/>
<path d="M90.6793 59.1315C90.6793 45.3334 79.6129 34.1078 66.0104 34.1078C61.2455 34.1078 56.6208 35.4886 52.6365 38.1008C48.7601 40.6424 45.6699 44.218 43.7 48.4409C43.4085 49.0659 43.6789 49.809 44.3037 50.1006C44.9293 50.3924 45.6719 50.1217 45.9634 49.4968C49.6162 41.6655 57.4851 36.6053 66.0104 36.6053C78.2358 36.6053 88.1818 46.7105 88.1818 59.1315C88.1818 65.0312 85.9523 70.6089 81.9044 74.8368C79.5713 77.2736 77.5853 79.6019 77.0743 82.8643H55.273C54.6292 79.4775 52.319 77.1014 50.2431 74.968C46.1134 70.724 43.839 65.0996 43.839 59.1315C43.839 57.6578 43.9801 56.1839 44.258 54.7506C44.3893 54.0736 43.9469 53.4182 43.2698 53.2869C42.5928 53.1565 41.9375 53.598 41.8061 54.2752C41.4977 55.8648 41.3416 57.4986 41.3416 59.1315C41.3416 65.754 43.8672 71.9969 48.4532 76.7098C51.0871 79.4164 52.9515 81.5769 52.9515 84.7435C52.9515 84.7545 52.9517 84.7659 52.952 84.7769L53.0236 92.105C53.0236 94.4824 54.2919 96.5692 56.1871 97.7247V99.0979C56.1871 102.541 58.988 105.342 62.4308 105.342H70.0898C73.5327 105.342 76.3335 102.541 76.3335 99.0979V97.7247C78.2288 96.5692 79.497 94.4824 79.497 92.105C79.497 92.105 79.4882 83.9422 79.4715 83.8608C79.7085 80.9667 81.4627 78.9096 83.7084 76.5639C88.2034 71.8688 90.6793 65.6777 90.6793 59.1315ZM73.8359 99.0979C73.8359 101.164 72.1552 102.844 70.0896 102.844H62.4307C60.3651 102.844 58.6844 101.164 58.6844 99.0979V98.6166C58.984 98.6586 59.2893 98.6817 59.6002 98.6817H72.9201C73.231 98.6817 73.5363 98.6584 73.8359 98.6166V99.0979ZM72.9201 96.1842H59.6002C57.3508 96.1842 55.521 94.3544 55.521 92.105V92.0217H68.1749C68.8647 92.0217 69.4236 91.4628 69.4236 90.773C69.4236 90.0832 68.8647 89.5242 68.1749 89.5242H55.521V85.3618H76.9607L76.9993 89.5242H74.0024C73.3126 89.5242 72.7536 90.0832 72.7536 90.773C72.7536 91.4628 73.3126 92.0217 74.0024 92.0217H76.9993V92.105C76.9993 94.3544 75.1694 96.1842 72.9201 96.1842Z" fill="#044072"/>
<path d="M74.1289 59.2967C73.706 59.8413 73.8047 60.6258 74.3493 61.0487C74.8938 61.4718 75.6783 61.3732 76.1014 60.8283L78.5736 57.6447C79.2282 56.8017 79.5153 55.7542 79.3821 54.6951C79.2487 53.636 78.7111 52.6923 77.8679 52.0376C77.025 51.383 75.9768 51.0943 74.9184 51.2293C73.8593 51.3625 72.9156 51.9001 72.2611 52.7433L64.196 63.1301L59.5674 58.0088C58.0897 56.3744 55.5577 56.2469 53.9235 57.7239C53.1317 58.4397 52.666 59.4209 52.612 60.487C52.5582 61.5529 52.9227 62.576 53.6383 63.3681L61.4639 72.026C63.0392 73.8532 66.1519 73.7411 67.5846 71.7973L72.5271 65.432C72.9501 64.8874 72.8513 64.1028 72.3067 63.6799C71.7621 63.257 70.9777 63.3554 70.5546 63.9004L65.6121 70.2656C65.0756 70.9946 63.905 71.037 63.3169 70.3514L55.4915 61.6934C54.9373 61.0804 54.9853 60.131 55.5985 59.5769C56.2112 59.0234 57.1608 59.0707 57.7149 59.6839L63.3426 65.9103C63.8331 66.4791 64.8081 66.4465 65.2553 65.8388L74.2341 54.2752C74.7148 53.6289 75.7114 53.5035 76.3366 54.0107C76.9832 54.4915 77.1084 55.4873 76.6012 56.1134L74.1289 59.2967Z" fill="#044072"/>
</g>
<defs>
<clipPath id="clip0">
<rect width="85.0533" height="85.0533" fill="white" transform="translate(23.4836 20.2884)"/>
</clipPath>
</defs>
</svg>
