<svg width="21" height="25" viewBox="0 0 21 25" fill="none" xmlns="http://www.w3.org/2000/svg">
<path d="M11.3708 23.3265L12.1064 24.0038L11.3708 23.3265ZM9.629 23.3265L8.89332 24.0038L9.629 23.3265ZM18.2499 10.5C18.2499 11.255 17.967 12.2344 17.4259 13.3793C16.8928 14.5071 16.1492 15.7128 15.3209 16.8968C13.6648 19.2639 11.729 21.4609 10.6351 22.6491L12.1064 24.0038C13.2256 22.7882 15.2294 20.5163 16.9596 18.0433C17.8244 16.8072 18.6356 15.5001 19.2341 14.234C19.8245 12.9849 20.2499 11.6894 20.2499 10.5H18.2499ZM10.3647 22.6491C9.27071 21.4609 7.33499 19.2639 5.67888 16.8968C4.85056 15.7128 4.10695 14.5071 3.57386 13.3793C3.03272 12.2344 2.74988 11.255 2.74988 10.5H0.749878C0.749878 11.6894 1.17529 12.9849 1.76567 14.234C2.36412 15.5001 3.17533 16.8072 4.04014 18.0433C5.77031 20.5163 7.77414 22.7882 8.89332 24.0038L10.3647 22.6491ZM2.74988 10.5C2.74988 6.21979 6.21967 2.75 10.4999 2.75V0.75C5.1151 0.75 0.749878 5.11522 0.749878 10.5H2.74988ZM10.4999 2.75C14.7801 2.75 18.2499 6.21979 18.2499 10.5H20.2499C20.2499 5.11522 15.8847 0.75 10.4999 0.75V2.75ZM10.6351 22.6491C10.5918 22.6961 10.5438 22.7125 10.4999 22.7125C10.4559 22.7125 10.4079 22.6961 10.3647 22.6491L8.89332 24.0038C9.7633 24.9487 11.2365 24.9487 12.1064 24.0038L10.6351 22.6491Z" fill="#5D83A3"/>
<path d="M14.2499 10.5C14.2499 12.5711 12.5709 14.25 10.4999 14.25C8.42881 14.25 6.74988 12.5711 6.74988 10.5C6.74988 8.42893 8.42881 6.75 10.4999 6.75C12.5709 6.75 14.2499 8.42893 14.2499 10.5Z" stroke="#5D83A3" stroke-width="2"/>
</svg>
