<svg width="42" height="44" viewBox="0 0 42 44" fill="none" xmlns="http://www.w3.org/2000/svg">
<path d="M38.7281 38.7546H3.27188C3.00215 38.7546 2.7836 38.5361 2.7836 38.2664C2.7836 37.9966 3.00215 37.7781 3.27188 37.7781H38.7281C38.9979 37.7781 39.2164 37.9966 39.2164 38.2664C39.2164 38.5361 38.9977 38.7546 38.7281 38.7546Z" fill="#EBE7F2"/>
<path d="M35.709 7.19595C36.3075 6.5106 36.6506 5.6229 36.6506 4.67681C36.6506 2.56392 34.9317 0.844971 32.8188 0.844971C30.7061 0.844971 28.9872 2.56392 28.9872 4.67681C28.9872 5.6227 29.3303 6.5104 29.9284 7.19556C29.518 7.2481 29.1211 7.36333 28.7434 7.54028C28.4991 7.65454 28.3938 7.94517 28.5081 8.1895C28.6225 8.43364 28.9129 8.5395 29.1573 8.42485C29.562 8.2356 29.9961 8.1395 30.4473 8.1395H31.2897C31.5149 8.1395 31.7112 7.98521 31.7643 7.76626C31.8172 7.54731 31.7137 7.32036 31.5133 7.21724C30.5575 6.72466 29.9635 5.75142 29.9635 4.6772C29.9635 3.10278 31.2444 1.82192 32.8186 1.82192C34.3928 1.82192 35.6739 3.10278 35.6739 4.6772C35.6739 5.75142 35.0799 6.72466 34.1239 7.21724C33.9237 7.32036 33.82 7.54731 33.8731 7.76626C33.926 7.9854 34.1223 8.1395 34.3477 8.1395H35.1901C36.8715 8.1395 38.2395 9.50747 38.2395 11.1891V16.6708C38.2395 16.9405 38.4581 17.159 38.7278 17.159C38.9975 17.159 39.2161 16.9405 39.2161 16.6708V11.1887C39.2165 9.14438 37.6848 7.45103 35.709 7.19595Z" fill="#06589C"/>
<path d="M3.27188 17.1587C3.54161 17.1587 3.76016 16.9402 3.76016 16.6705V11.1886C3.76016 9.50718 5.12813 8.13901 6.80977 8.13901H7.65235C7.87774 8.13901 8.07384 7.98472 8.12696 7.76577C8.18009 7.54683 8.07638 7.31987 7.87599 7.21675C6.91993 6.72417 6.32618 5.75093 6.32618 4.67671C6.32618 3.1023 7.60704 1.82144 9.18126 1.82144C10.7555 1.82144 12.0365 3.1023 12.0365 4.67671C12.0365 5.75093 11.4426 6.72417 10.4867 7.21675C10.2865 7.31987 10.1826 7.54683 10.2358 7.76577C10.2889 7.98491 10.485 8.13901 10.7104 8.13901H11.5529C12.0041 8.13901 12.4383 8.23511 12.8432 8.42437C13.0873 8.53823 13.3779 8.43315 13.4924 8.18882C13.6067 7.94468 13.5012 7.65386 13.2568 7.5396C12.8787 7.36284 12.4818 7.24761 12.0719 7.19507C12.6701 6.50991 13.0131 5.62241 13.0131 4.67632C13.0131 2.56343 11.2942 0.844482 9.18126 0.844482C7.06856 0.844482 5.34962 2.56343 5.34962 4.67632C5.34962 5.62241 5.69278 6.5103 6.29122 7.19526C4.31505 7.45034 2.7836 9.1439 2.7836 11.1882V16.6699C2.7836 16.94 3.00215 17.1587 3.27188 17.1587Z" fill="#06589C"/>
<path d="M3.27188 23.6753C3.54161 23.6753 3.76016 23.4567 3.76016 23.187C3.76016 21.5056 5.12813 20.1374 6.80977 20.1374H7.65235C7.87774 20.1374 8.07383 19.9831 8.12696 19.7642C8.18008 19.5452 8.07637 19.3183 7.87598 19.2151C6.91993 18.7226 6.32618 17.7493 6.32618 16.6751C6.32618 15.1007 7.60704 13.8198 9.18126 13.8198C10.7555 13.8198 12.0365 15.1007 12.0365 16.6751C12.0365 17.7493 11.4426 18.7226 10.4867 19.2151C10.2865 19.3183 10.1826 19.5452 10.2357 19.7642C10.2889 19.9833 10.485 20.1374 10.7104 20.1374H11.5529C13.2344 20.1374 14.6025 21.5054 14.6025 23.187C14.6025 23.4567 14.8211 23.6753 15.0908 23.6753C15.3606 23.6753 15.5791 23.4567 15.5791 23.187C15.5791 21.5056 16.9471 20.1374 18.6287 20.1374C18.8984 20.1374 19.117 19.9188 19.117 19.6491C19.117 19.3794 18.8984 19.1608 18.6287 19.1608C17.102 19.1608 15.7711 20.0149 15.0887 21.2706C14.4846 20.1606 13.3768 19.3626 12.0715 19.194C12.6699 18.5089 13.0131 17.6212 13.0131 16.6751C13.0131 14.5622 11.2941 12.8433 9.18126 12.8433C7.06856 12.8433 5.34962 14.5622 5.34962 16.6751C5.34962 17.6212 5.69278 18.5091 6.29122 19.194C4.31505 19.4491 2.7836 21.1427 2.7836 23.187C2.7836 23.4567 3.00215 23.6753 3.27188 23.6753Z" fill="#06589C"/>
<path d="M35.709 19.1942C36.3075 18.5089 36.6506 17.6212 36.6506 16.6751C36.6506 14.5622 34.9317 12.8433 32.8188 12.8433C30.7061 12.8433 28.9872 14.5622 28.9872 16.6751C28.9872 17.6212 29.3303 18.5089 29.9288 19.1942C28.6239 19.3628 27.5159 20.1608 26.9116 21.2708C26.2291 20.0151 24.8983 19.161 23.3715 19.161C23.1018 19.161 22.8832 19.3796 22.8832 19.6493C22.8832 19.9191 23.1018 20.1376 23.3715 20.1376C25.053 20.1376 26.4209 21.5056 26.4209 23.1872C26.4209 23.4569 26.6395 23.6755 26.9092 23.6755C27.179 23.6755 27.3975 23.4569 27.3975 23.1872C27.3975 21.5058 28.7657 20.1376 30.4471 20.1376H31.2895C31.5147 20.1376 31.711 19.9833 31.7641 19.7644C31.817 19.5454 31.7135 19.3185 31.5133 19.2153C30.5573 18.7228 29.9633 17.7495 29.9633 16.6753C29.9633 15.1009 31.2442 13.82 32.8184 13.82C34.3926 13.82 35.6737 15.1009 35.6737 16.6753C35.6737 17.7495 35.0797 18.7228 34.1239 19.2153C33.9235 19.3185 33.8198 19.5454 33.8729 19.7644C33.9258 19.9835 34.1221 20.1376 34.3475 20.1376H35.1899C36.8713 20.1376 38.2393 21.5056 38.2393 23.1872C38.2393 23.4569 38.4579 23.6755 38.7276 23.6755C38.9973 23.6755 39.2159 23.4569 39.2159 23.1872C39.2164 21.1429 37.6848 19.4495 35.709 19.1942Z" fill="#06589C"/>
<path d="M35.709 31.1925C36.3074 30.5072 36.6506 29.6195 36.6506 28.6734C36.6506 26.5605 34.9317 24.8416 32.8188 24.8416C30.7061 24.8416 28.9871 26.5605 28.9871 28.6734C28.9871 29.6195 29.3303 30.5072 29.9287 31.1925C28.6223 31.3613 27.5131 32.1609 26.9094 33.273C26.3057 32.1609 25.1967 31.3611 23.8901 31.1923C24.4885 30.5072 24.8317 29.6195 24.8317 28.6734C24.8317 26.5605 23.1127 24.8416 21 24.8416C18.8871 24.8416 17.1682 26.5605 17.1682 28.6734C17.1682 29.6195 17.5113 30.5074 18.11 31.1925C16.8033 31.3613 15.6944 32.1609 15.0906 33.273C14.4869 32.1609 13.3779 31.3613 12.0713 31.1925C12.6697 30.5074 13.0129 29.6197 13.0129 28.6736C13.0129 26.5607 11.294 24.8417 9.18107 24.8417C7.06838 24.8417 5.34943 26.5607 5.34943 28.6736C5.34943 29.6197 5.6926 30.5076 6.29103 31.1925C4.31486 31.4476 2.78342 33.1412 2.78342 35.1855V40.6671C2.78342 40.9369 3.00197 41.1554 3.2717 41.1554H38.728C38.9977 41.1554 39.2162 40.9369 39.2162 40.6671V35.1855C39.2164 33.1412 37.6848 31.4478 35.709 31.1925ZM3.76017 35.1853C3.76017 33.5039 5.12814 32.1357 6.80978 32.1357H7.65236C7.87775 32.1357 8.07385 31.9814 8.12697 31.7625C8.1801 31.5435 8.07639 31.3166 7.876 31.2134C6.91994 30.7209 6.32619 29.7476 6.32619 28.6734C6.32619 27.099 7.60705 25.8181 9.18127 25.8181C10.7555 25.8181 12.0365 27.099 12.0365 28.6734C12.0365 29.7476 11.4426 30.7209 10.4867 31.2134C10.2865 31.3166 10.1826 31.5435 10.2358 31.7625C10.2889 31.9816 10.485 32.1357 10.7104 32.1357H11.5529C13.2344 32.1357 14.6026 33.5037 14.6026 35.1853V40.1787H3.76017V35.1853ZM15.5789 35.1853C15.5789 33.5039 16.9469 32.1357 18.6285 32.1357H19.4711C19.6965 32.1357 19.8926 31.9814 19.9457 31.7625C19.9988 31.5435 19.8951 31.3166 19.6947 31.2134C18.7387 30.7209 18.1447 29.7476 18.1447 28.6734C18.1447 27.099 19.4256 25.8181 21 25.8181C22.5744 25.8181 23.8551 27.099 23.8551 28.6734C23.8551 29.7476 23.2613 30.721 22.3053 31.2134C22.1049 31.3168 22.0012 31.5435 22.0543 31.7626C22.1072 31.9818 22.3033 32.1359 22.5289 32.1359H23.3715C25.0529 32.1359 26.4209 33.5039 26.4209 35.1855V40.1789H15.5787V35.1853H15.5789ZM38.2399 40.1789H27.3977V35.1855C27.3977 33.5041 28.7658 32.1359 30.4473 32.1359H31.2897C31.5149 32.1359 31.7112 31.9816 31.7643 31.7626C31.8172 31.5437 31.7137 31.3167 31.5135 31.2136C30.5574 30.721 29.9635 29.7478 29.9635 28.6736C29.9635 27.0992 31.2444 25.8183 32.8186 25.8183C34.3928 25.8183 35.6739 27.0992 35.6739 28.6736C35.6739 29.7478 35.0799 30.721 34.124 31.2136C33.9237 31.3167 33.8199 31.5437 33.8731 31.7626C33.926 31.9818 34.1223 32.1359 34.3477 32.1359H35.1901C36.8715 32.1359 38.2395 33.5039 38.2395 35.1855V40.1789H38.2399Z" fill="#06589C"/>
<path d="M19.1084 14.5178C19.3945 14.804 19.775 14.9616 20.1797 14.9616C20.5844 14.9616 20.9649 14.804 21.251 14.5178L25.2768 10.492C25.5631 10.2059 25.7205 9.82524 25.7205 9.42056C25.7205 9.01587 25.5629 8.6352 25.277 8.34927C24.991 8.06333 24.6104 7.90552 24.2057 7.90552C23.8008 7.90552 23.4203 8.06313 23.1344 8.34927L20.1797 11.3038L18.8658 9.98989C18.5799 9.70376 18.1992 9.54614 17.7945 9.54614C17.3897 9.54614 17.0092 9.70376 16.7233 9.9897C16.4371 10.2758 16.2793 10.6565 16.2793 11.0612C16.2793 11.4659 16.4371 11.8465 16.7233 12.1325L19.1084 14.5178ZM17.4139 10.6801C17.5154 10.5786 17.6506 10.5225 17.7945 10.5225C17.9383 10.5225 18.0736 10.5786 18.1752 10.6801L19.8346 12.3393C20.0252 12.5301 20.3346 12.5301 20.525 12.3393L23.825 9.0395C24.0278 8.83618 24.3828 8.83599 24.5863 9.0395C24.6881 9.14126 24.7442 9.27642 24.7442 9.42036C24.7442 9.56431 24.6881 9.69946 24.5863 9.80122L20.5606 13.8272C20.357 14.0305 20.0026 14.0305 19.799 13.8272L17.4139 11.4418C17.3121 11.3401 17.2561 11.2049 17.2561 11.061C17.2561 10.917 17.3119 10.7821 17.4139 10.6801Z" fill="#06589C"/>
<path d="M41.3356 43.5882H0.664474C0.394748 43.5882 0.176193 43.3696 0.176193 43.0999V23.5015C0.176193 23.2317 0.394748 23.0132 0.664474 23.0132H41.3356C41.6053 23.0132 41.8238 23.2317 41.8238 23.5015V43.0999C41.8238 43.3696 41.6053 43.5882 41.3356 43.5882ZM1.15276 42.6116H40.8473V23.9897H1.15276V42.6116Z" fill="#34C872"/>
<path d="M27.3496 18.2712H14.6504C14.3807 18.2712 14.1621 18.0527 14.1621 17.783V5.08374C14.1621 4.81401 14.3807 4.59546 14.6504 4.59546H27.3496C27.6194 4.59546 27.8379 4.81401 27.8379 5.08374V17.783C27.8379 18.0527 27.6194 18.2712 27.3496 18.2712ZM15.1387 17.2947H26.8614V5.57202H15.1387V17.2947Z" fill="#34C872"/>
<path d="M21 23.9894C20.7303 23.9894 20.5117 23.7709 20.5117 23.5012V17.916C20.5117 17.6463 20.7303 17.4277 21 17.4277C21.2697 17.4277 21.4883 17.6463 21.4883 17.916V23.5012C21.4883 23.7709 21.2697 23.9894 21 23.9894Z" fill="#34C872"/>
</svg>
