<svg width="23" height="22" viewBox="0 0 23 22" fill="none" xmlns="http://www.w3.org/2000/svg">
<path d="M21.278 15.9201V18.9201C21.2791 19.1986 21.2221 19.4743 21.1105 19.7294C20.9989 19.9846 20.8353 20.2137 20.6301 20.402C20.4249 20.5902 20.1826 20.7336 19.9188 20.8228C19.6549 20.912 19.3754 20.9452 19.098 20.9201C16.0208 20.5857 13.065 19.5342 10.468 17.8501C8.05184 16.3148 6.00335 14.2663 4.46801 11.8501C2.77799 9.2413 1.72625 6.27109 1.39801 3.1801C1.37302 2.90356 1.40588 2.62486 1.49451 2.36172C1.58314 2.09859 1.72558 1.85679 1.91278 1.65172C2.09997 1.44665 2.32781 1.28281 2.5818 1.17062C2.83579 1.05843 3.11035 1.00036 3.38801 1.0001H6.38801C6.87332 0.995321 7.3438 1.16718 7.71177 1.48363C8.07974 1.80008 8.32009 2.23954 8.38801 2.7201C8.51463 3.68016 8.74946 4.62282 9.08801 5.5301C9.22255 5.88802 9.25167 6.27701 9.17192 6.65098C9.09216 7.02494 8.90687 7.36821 8.63801 7.6401L7.36801 8.9101C8.79156 11.4136 10.8645 13.4865 13.368 14.9101L14.638 13.6401C14.9099 13.3712 15.2532 13.1859 15.6271 13.1062C16.0011 13.0264 16.3901 13.0556 16.748 13.1901C17.6553 13.5286 18.5979 13.7635 19.558 13.8901C20.0438 13.9586 20.4874 14.2033 20.8045 14.5776C21.1217 14.9519 21.2902 15.4297 21.278 15.9201Z" fill="white" stroke="#34C872" stroke-width="2" stroke-linecap="round" stroke-linejoin="round"/>
</svg>
