<svg width="21" height="20" viewBox="0 0 21 20" fill="none" xmlns="http://www.w3.org/2000/svg">
<path d="M18.3742 10.8946C19.6012 7.80907 19.5391 4.34319 18.1821 1.33092L14.0856 1.25002C14.0178 1.24869 13.962 1.30304 13.9615 1.37087L13.927 6.39609C13.9268 6.42866 13.9396 6.45996 13.9626 6.48299L18.3742 10.8946ZM18.3742 10.8946C17.7661 12.4239 16.8412 13.8599 15.6003 15.1008C14.3594 16.3417 12.9234 17.2665 11.3941 17.8747M11.3941 17.8747C8.30858 19.1017 4.8427 19.0396 1.83043 17.6826L1.74954 13.5861C1.7482 13.5183 1.80256 13.4625 1.87039 13.462L6.8956 13.4275C6.92817 13.4273 6.95947 13.4401 6.9825 13.4631L11.3941 17.8747Z" stroke="#5D83A3" stroke-width="2"/>
</svg>
