<svg width="41" height="50" viewBox="0 0 41 50" fill="none" xmlns="http://www.w3.org/2000/svg">
<path d="M5.00259 12.7294C4.82896 12.7294 4.65561 12.6633 4.52295 12.5309C4.25789 12.2658 4.25789 11.8366 4.52295 11.5719L11.5708 4.52398C11.8359 4.25893 12.265 4.25893 12.5298 4.52398C12.7946 4.78903 12.7949 5.21822 12.5298 5.483L5.48196 12.5306C5.34957 12.663 5.17621 12.7294 5.00259 12.7294Z" fill="#EBE7F2"/>
<path d="M39.8453 50.0001H4.20473C3.83008 50.0001 3.5265 49.6965 3.5265 49.3218C3.5265 48.9472 3.83008 48.6436 4.20473 48.6436H39.1668V4.20508C39.1668 3.83043 39.4704 3.52686 39.845 3.52686C40.2197 3.52686 40.5233 3.83043 40.5233 4.20508V49.3221C40.5235 49.6965 40.2197 50.0001 39.8453 50.0001Z" fill="#34C872"/>
<path d="M36.3185 0H12.0507C11.8709 0 11.6983 0.0716214 11.5711 0.198586L0.198586 11.5714C0.0713501 11.6986 0 11.8709 0 12.051V45.7953C0 46.1699 0.303575 46.4735 0.678227 46.4735H36.3185C36.6932 46.4735 36.9968 46.1699 36.9968 45.7953V0.678227C36.9968 0.303575 36.6929 0 36.3185 0ZM11.3725 2.31547V11.3731H2.3152L11.3725 2.31547ZM35.6403 45.1168H1.35618V12.7295H12.0507C12.4254 12.7295 12.729 12.4259 12.729 12.0513V1.35645H35.64V45.1168H35.6403Z" fill="#06589C"/>
<path d="M18.4982 14.8298C12.5445 14.8298 7.70031 19.6737 7.70031 25.6278C7.70031 31.5818 12.5442 36.4257 18.4982 36.4257C24.4523 36.4257 29.2962 31.5818 29.2962 25.6278C29.2962 19.6737 24.452 14.8298 18.4982 14.8298ZM27.9126 24.9493H18.8737L14.074 17.2902C15.3947 16.5864 16.9003 16.186 18.4982 16.186C23.4759 16.1863 27.5634 20.0592 27.9126 24.9493ZM18.4982 35.069C13.2924 35.069 9.05676 30.8336 9.05676 25.6275C9.05676 22.5044 10.5822 19.7318 12.9259 18.0121L17.9236 25.9875C18.0476 26.1853 18.2647 26.3057 18.4982 26.3057H27.9126C27.5634 31.196 23.4759 35.069 18.4982 35.069Z" fill="#34C872"/>
<path d="M27.8786 7.70118H21.414C21.0394 7.70118 20.7358 7.39761 20.7358 7.02295C20.7358 6.6483 21.0394 6.34473 21.414 6.34473H27.8786C28.2533 6.34473 28.5569 6.6483 28.5569 7.02295C28.5569 7.39761 28.2533 7.70118 27.8786 7.70118Z" fill="#34C872"/>
<path d="M27.8786 10.9531H21.414C21.0394 10.9531 20.7358 10.6496 20.7358 10.2749C20.7358 9.90025 21.0394 9.59668 21.414 9.59668H27.8786C28.2533 9.59668 28.5569 9.90025 28.5569 10.2749C28.5569 10.6496 28.2533 10.9531 27.8786 10.9531Z" fill="#34C872"/>
<path d="M8.44742 41.4873H6.569C6.19435 41.4873 5.89078 41.1837 5.89078 40.8091C5.89078 40.4344 6.19435 40.1309 6.569 40.1309H8.44742C8.82208 40.1309 9.12565 40.4344 9.12565 40.8091C9.12565 41.1837 8.82208 41.4873 8.44742 41.4873Z" fill="#34C872"/>
<path d="M30.4274 41.4873H12.573C12.1983 41.4873 11.8947 41.1837 11.8947 40.8091C11.8947 40.4344 12.1983 40.1309 12.573 40.1309H30.4274C30.8021 40.1309 31.1057 40.4344 31.1057 40.8091C31.1057 41.1837 30.8021 41.4873 30.4274 41.4873Z" fill="#34C872"/>
</svg>
