<svg width="138" height="119" viewBox="0 0 138 119" fill="none" xmlns="http://www.w3.org/2000/svg">
<path d="M16.6034 37.1759C21.7143 29.5989 27.9754 22.8003 35.3607 17.1521C55.4064 1.83371 82.7423 -2.62083 102.814 15.1973C114.151 25.2654 124.33 38.655 127.59 53.7399C130.799 68.5912 124.693 90.5612 107.354 93.3291C95.9563 95.1541 84.1692 91.1407 72.9789 94.8427C60.2492 99.0551 49.8891 108.371 36.9432 112.306C27.2749 115.247 15.1333 114.962 7.47993 107.558C0.821067 101.114 -0.796085 90.9072 0.328138 81.704C2.27391 65.8493 7.71342 50.3406 16.6034 37.1759Z" fill="#E4F4EB"/>
<path d="M18.8605 19.3924C24.2145 19.3924 28.5548 15.0512 28.5548 9.69619C28.5548 4.34113 24.2145 0 18.8605 0C13.5065 0 9.16626 4.34113 9.16626 9.69619C9.16626 15.0512 13.5065 19.3924 18.8605 19.3924Z" fill="#E4F4EB"/>
<path d="M131.612 32.2889C134.797 32.2889 137.38 29.7059 137.38 26.5196C137.38 23.3334 134.797 20.7504 131.612 20.7504C128.426 20.7504 125.843 23.3334 125.843 26.5196C125.843 29.7059 128.426 32.2889 131.612 32.2889Z" fill="#E4F4EB"/>
<path d="M68.2658 114.028C68.2658 116.259 66.4584 118.067 64.2273 118.067C61.9961 118.067 60.1887 116.259 60.1887 114.028C60.1887 111.796 61.9961 109.988 64.2273 109.988C66.4584 109.988 68.2658 111.796 68.2658 114.028Z" fill="#CAEDD9"/>
<path d="M67.9245 24.2881C60.9415 31.0806 56.7008 42.5864 57.3113 53.1925C52.6683 58.0503 49.9999 64.6564 49.9999 71.4955C49.9953 71.8918 50.2173 72.2554 50.5688 72.4326C50.9202 72.6097 51.341 72.5725 51.6555 72.3347L58.1067 67.4582L58.1899 68.9501C58.2223 69.5049 58.6755 69.9338 59.2258 69.9338H78.0521C78.3342 69.9338 78.5931 69.8172 78.7827 69.6261C78.9585 69.4489 79.0695 69.2112 79.0833 68.9454L79.1666 67.4536L85.6177 72.33C85.9322 72.5678 86.353 72.5538 86.6999 72.3766C86.7877 72.33 86.871 72.2694 86.9403 72.1995C87.1484 71.9897 87.2687 71.682 87.2733 71.3883C87.2733 64.6424 84.605 58.0363 79.962 53.1739C80.5678 42.5538 76.3595 31.0247 69.3488 24.2741C68.9557 23.9011 68.3268 23.9011 67.9245 24.2881ZM73.8207 43.8359C73.8207 45.2718 73.2426 46.5771 72.3038 47.5235C71.3651 48.4699 70.0702 49.0526 68.6459 49.0526C65.7926 49.0526 63.4664 46.7077 63.4664 43.8312C63.4664 40.9501 65.7879 38.6098 68.6459 38.6098C71.4946 38.6144 73.8207 40.9594 73.8207 43.8359Z" fill="#34C872"/>
<path d="M62.241 79.9346C62.241 83.0955 67.1707 92.4008 67.7302 93.4498C67.9106 93.7901 68.262 93.9952 68.6413 93.9999C68.9234 93.9999 69.1823 93.888 69.3766 93.6922C69.4459 93.6223 69.506 93.5384 69.5569 93.4498C70.1165 92.4008 75.0462 83.0955 75.0462 79.9346C75.0462 76.3775 72.1744 73.4824 68.6459 73.4824C65.1128 73.4824 62.241 76.3775 62.241 79.9346Z" fill="#34C872"/>
</svg>
