<svg width="73" height="70" viewBox="0 0 73 70" fill="none" xmlns="http://www.w3.org/2000/svg">
<g clip-path="url(#clip0)">
<path d="M67.2986 69.2653H5.07108C2.67772 69.2653 0.734589 67.3221 0.734589 64.9288V11.1847C0.734589 8.79133 2.67772 6.84821 5.07108 6.84821H67.2986C69.6919 6.84821 71.6351 8.79133 71.6351 11.1847V64.9288C71.6351 67.3221 69.6919 69.2653 67.2986 69.2653Z" fill="#ECF4F7"/>
<path d="M71.6351 19.1468V11.1847C71.6351 8.79133 69.6919 6.84821 67.2986 6.84821H5.07108C2.67772 6.84821 0.734589 8.79133 0.734589 11.1847V19.1468H71.6351Z" fill="#83E1E5"/>
<path d="M0.734597 29.3838C0.331754 29.3838 0 29.052 0 28.6492V26.6587C0 26.2558 0.331754 25.9241 0.734597 25.9241C1.13744 25.9241 1.46919 26.2558 1.46919 26.6587V28.6492C1.4455 29.052 1.11374 29.3838 0.734597 29.3838Z" fill="#1C1D21"/>
<path d="M0.734597 46.6823C0.331754 46.6823 0 46.3506 0 45.9477V32.5117C0 32.1089 0.331754 31.7771 0.734597 31.7771C1.13744 31.7771 1.46919 32.1089 1.46919 32.5117V45.9477C1.4455 46.3506 1.11374 46.6823 0.734597 46.6823Z" fill="#1C1D21"/>
<path d="M67.2986 70.0002H5.07109C2.27488 70.0002 0 67.7253 0 64.9291V50.2134C0 49.8106 0.331754 49.4788 0.734597 49.4788C1.13744 49.4788 1.46919 49.8106 1.46919 50.2134V64.9291C1.46919 66.9196 3.08057 68.5547 5.09479 68.5547H67.2986C69.2891 68.5547 70.9242 66.9433 70.9242 64.9291V11.185C70.9242 9.19446 69.3128 7.55939 67.2986 7.55939H5.07109C3.08057 7.55939 1.4455 9.17076 1.4455 11.185V22.8201C1.4455 23.2229 1.11374 23.5547 0.7109 23.5547C0.308057 23.5547 0 23.2229 0 22.8201V11.185C0 8.38877 2.27488 6.11389 5.07109 6.11389H67.2986C70.0948 6.11389 72.3697 8.38877 72.3697 11.185V64.9291C72.346 67.7253 70.0711 70.0002 67.2986 70.0002Z" fill="#1C1D21"/>
<path d="M56.019 19.8815H0.734597C0.331754 19.8815 0 19.5498 0 19.1469C0 18.7441 0.331754 18.4124 0.734597 18.4124H56.019C56.4218 18.4124 56.7536 18.7441 56.7536 19.1469C56.7299 19.5498 56.3981 19.8815 56.019 19.8815Z" fill="#1C1D21"/>
<path d="M63.2227 19.8815H60.0474C59.6445 19.8815 59.3128 19.5498 59.3128 19.1469C59.3128 18.7441 59.6445 18.4124 60.0474 18.4124H63.2227C63.6256 18.4124 63.9573 18.7441 63.9573 19.1469C63.9573 19.5498 63.6256 19.8815 63.2227 19.8815Z" fill="#1C1D21"/>
<path d="M66.564 19.8815H65.9479C65.545 19.8815 65.2133 19.5498 65.2133 19.1469C65.2133 18.7441 65.545 18.4124 65.9479 18.4124H66.564C66.9668 18.4124 67.2986 18.7441 67.2986 19.1469C67.2986 19.5498 66.9668 19.8815 66.564 19.8815Z" fill="#1C1D21"/>
<path d="M18.1517 0.73468C16.1611 0.73468 14.5261 2.34605 14.5261 4.36027V9.38397C14.5261 11.3745 16.1374 13.0096 18.1517 13.0096C20.1422 13.0096 21.7772 11.3982 21.7772 9.38397V4.33658C21.7772 2.34605 20.1659 0.73468 18.1517 0.73468Z" fill="#FDDF7F"/>
<path d="M18.1516 13.6967C15.7583 13.6967 13.8152 11.7536 13.8152 9.36019V4.33649C13.8152 1.94313 15.7583 0 18.1516 0C20.545 0 22.5118 1.94313 22.5118 4.33649V9.36019C22.5118 11.7536 20.545 13.6967 18.1516 13.6967ZM18.1516 1.4455C16.564 1.4455 15.2607 2.74882 15.2607 4.33649V9.36019C15.2607 10.9479 16.564 12.2512 18.1516 12.2512C19.7393 12.2512 21.0426 10.9479 21.0426 9.36019V4.33649C21.0663 2.74882 19.763 1.4455 18.1516 1.4455Z" fill="#1C1D21"/>
<path d="M54.1943 0.73468C52.2038 0.73468 50.5687 2.34605 50.5687 4.36027V9.38397C50.5687 11.3745 52.1801 13.0096 54.1943 13.0096C56.1848 13.0096 57.8199 11.3982 57.8199 9.38397V4.33658C57.8199 2.34605 56.1848 0.73468 54.1943 0.73468Z" fill="#FDDF7F"/>
<path d="M54.1943 13.6967C51.8009 13.6967 49.8578 11.7536 49.8578 9.36019V4.33649C49.8578 1.94313 51.8009 0 54.1943 0C56.5876 0 58.5308 1.94313 58.5308 4.33649V9.36019C58.5308 11.7536 56.5876 13.6967 54.1943 13.6967ZM54.1943 1.4455C52.6066 1.4455 51.3033 2.74882 51.3033 4.33649V9.36019C51.3033 10.9479 52.6066 12.2512 54.1943 12.2512C55.782 12.2512 57.0853 10.9479 57.0853 9.36019V4.33649C57.0853 2.74882 55.782 1.4455 54.1943 1.4455Z" fill="#1C1D21"/>
<path d="M23.7204 29.147C21.9905 29.147 20.5687 30.5451 20.5687 32.2987C20.5687 34.0286 21.9668 35.4504 23.7204 35.4504C25.4502 35.4504 26.872 34.0523 26.872 32.2987C26.8483 30.5451 25.4502 29.147 23.7204 29.147Z" fill="#AAB1BA"/>
<path d="M36.1848 29.147C34.455 29.147 33.0332 30.5451 33.0332 32.2987C33.0332 34.0286 34.4313 35.4504 36.1848 35.4504C37.9147 35.4504 39.3365 34.0523 39.3365 32.2987C39.3365 30.5451 37.9147 29.147 36.1848 29.147Z" fill="#AAB1BA"/>
<path d="M48.6493 29.147C46.9195 29.147 45.4977 30.5451 45.4977 32.2987C45.4977 34.0286 46.8958 35.4504 48.6493 35.4504C50.3792 35.4504 51.801 34.0523 51.801 32.2987C51.801 30.5451 50.3792 29.147 48.6493 29.147Z" fill="#AAB1BA"/>
<path d="M61.1138 29.147C59.3839 29.147 57.9621 30.5451 57.9621 32.2987C57.9621 34.0286 59.3602 35.4504 61.1138 35.4504C62.8436 35.4504 64.2654 34.0523 64.2654 32.2987C64.2654 30.5451 62.8436 29.147 61.1138 29.147Z" fill="#AAB1BA"/>
<path d="M11.2322 40.1422C9.50237 40.1422 8.08057 41.5403 8.08057 43.2938C8.08057 45.0237 9.47867 46.4455 11.2322 46.4455C12.9621 46.4455 14.3839 45.0474 14.3839 43.2938C14.3839 41.5403 12.9858 40.1422 11.2322 40.1422Z" fill="#FDDF7F"/>
<path d="M23.7204 40.1422C21.9905 40.1422 20.5687 41.5403 20.5687 43.2938C20.5687 45.0237 21.9668 46.4455 23.7204 46.4455C25.4502 46.4455 26.872 45.0474 26.872 43.2938C26.8484 41.5403 25.4502 40.1422 23.7204 40.1422Z" fill="#AAB1BA"/>
<path d="M36.1848 40.1422C34.455 40.1422 33.0332 41.5403 33.0332 43.2938C33.0332 45.0237 34.4313 46.4455 36.1848 46.4455C37.9147 46.4455 39.3365 45.0474 39.3365 43.2938C39.3365 41.5403 37.9147 40.1422 36.1848 40.1422Z" fill="#AAB1BA"/>
<path d="M48.6493 40.1422C46.9194 40.1422 45.4976 41.5403 45.4976 43.2938C45.4976 45.0237 46.8957 46.4455 48.6493 46.4455C50.3791 46.4455 51.8009 45.0474 51.8009 43.2938C51.8009 41.5403 50.3791 40.1422 48.6493 40.1422Z" fill="#AAB1BA"/>
<path d="M61.1137 40.1422C59.3839 40.1422 57.9621 41.5403 57.9621 43.2938C57.9621 45.0237 59.3602 46.4455 61.1137 46.4455C62.8436 46.4455 64.2654 45.0474 64.2654 43.2938C64.2654 41.5403 62.8436 40.1422 61.1137 40.1422Z" fill="#AAB1BA"/>
<path d="M11.2322 51.1139C9.50237 51.1139 8.08057 52.512 8.08057 54.2656C8.08057 56.0191 9.47867 57.4172 11.2322 57.4172C12.9621 57.4172 14.3839 56.0191 14.3839 54.2656C14.3839 52.512 12.9858 51.1139 11.2322 51.1139Z" fill="#FDDF7F"/>
<path d="M23.7204 51.1139C21.9905 51.1139 20.5687 52.512 20.5687 54.2656C20.5687 56.0191 21.9668 57.4172 23.7204 57.4172C25.4502 57.4172 26.872 56.0191 26.872 54.2656C26.872 52.512 25.4502 51.1139 23.7204 51.1139Z" fill="#AAB1BA"/>
<path d="M36.1848 51.1139C34.455 51.1139 33.0332 52.512 33.0332 54.2656C33.0332 56.0191 34.4313 57.4172 36.1848 57.4172C37.9147 57.4172 39.3365 56.0191 39.3365 54.2656C39.3365 52.512 37.9147 51.1139 36.1848 51.1139Z" fill="#AAB1BA"/>
<path d="M48.6493 51.1139C46.9194 51.1139 45.4976 52.512 45.4976 54.2656C45.4976 56.0191 46.8957 57.4172 48.6493 57.4172C50.3791 57.4172 51.8009 56.0191 51.8009 54.2656C51.8009 52.512 50.3791 51.1139 48.6493 51.1139Z" fill="#AAB1BA"/>
<path d="M23.7204 36.1611C21.5877 36.1611 19.8578 34.4313 19.8578 32.2986C19.8578 30.1659 21.5877 28.436 23.7204 28.436C25.8531 28.436 27.5829 30.1659 27.5829 32.2986C27.5829 34.4313 25.8531 36.1611 23.7204 36.1611ZM23.7204 29.8578C22.3934 29.8578 21.3033 30.9479 21.3033 32.2749C21.3033 33.6019 22.3934 34.692 23.7204 34.692C25.0474 34.692 26.1374 33.6019 26.1374 32.2749C26.1374 30.9479 25.0474 29.8578 23.7204 29.8578Z" fill="#1C1D21"/>
<path d="M36.1848 36.1611C34.0521 36.1611 32.3223 34.4313 32.3223 32.2986C32.3223 30.1659 34.0521 28.436 36.1848 28.436C38.3175 28.436 40.0474 30.1659 40.0474 32.2986C40.0474 34.4313 38.3175 36.1611 36.1848 36.1611ZM36.1848 29.8578C34.8578 29.8578 33.7678 30.9479 33.7678 32.2749C33.7678 33.6019 34.8578 34.692 36.1848 34.692C37.5118 34.692 38.6019 33.6019 38.6019 32.2749C38.6019 30.9479 37.5118 29.8578 36.1848 29.8578Z" fill="#1C1D21"/>
<path d="M48.6493 36.1611C46.5166 36.1611 44.7867 34.4313 44.7867 32.2986C44.7867 30.1659 46.5166 28.436 48.6493 28.436C50.782 28.436 52.5118 30.1659 52.5118 32.2986C52.5118 34.4313 50.782 36.1611 48.6493 36.1611ZM48.6493 29.8578C47.3223 29.8578 46.2322 30.9479 46.2322 32.2749C46.2322 33.6019 47.3223 34.692 48.6493 34.692C49.9763 34.692 51.0663 33.6019 51.0663 32.2749C51.0663 30.9479 49.9763 29.8578 48.6493 29.8578Z" fill="#1C1D21"/>
<path d="M61.1138 36.1611C58.9811 36.1611 57.2512 34.4313 57.2512 32.2986C57.2512 30.1659 58.9811 28.436 61.1138 28.436C63.2465 28.436 64.9763 30.1659 64.9763 32.2986C64.9763 34.4313 63.2465 36.1611 61.1138 36.1611ZM61.1138 29.8578C59.7867 29.8578 58.6967 30.9479 58.6967 32.2749C58.6967 33.6019 59.7867 34.692 61.1138 34.692C62.4408 34.692 63.5308 33.6019 63.5308 32.2749C63.5308 30.9479 62.4408 29.8578 61.1138 29.8578Z" fill="#1C1D21"/>
<path d="M11.2322 47.1563C9.09952 47.1563 7.36966 45.4264 7.36966 43.2937C7.36966 41.161 9.09952 39.4312 11.2322 39.4312C13.3649 39.4312 15.0948 41.161 15.0948 43.2937C15.1185 45.4027 13.3886 47.1563 11.2322 47.1563ZM11.2322 40.853C9.9052 40.853 8.81516 41.943 8.81516 43.27C8.81516 44.597 9.9052 45.6871 11.2322 45.6871C12.5592 45.6871 13.6493 44.597 13.6493 43.27C13.673 41.943 12.5829 40.853 11.2322 40.853Z" fill="#1C1D21"/>
<path d="M23.7204 47.1563C21.5877 47.1563 19.8578 45.4264 19.8578 43.2937C19.8578 41.161 21.5877 39.4312 23.7204 39.4312C25.8531 39.4312 27.5829 41.161 27.5829 43.2937C27.5829 45.4027 25.8531 47.1563 23.7204 47.1563ZM23.7204 40.853C22.3934 40.853 21.3033 41.943 21.3033 43.27C21.3033 44.597 22.3934 45.6871 23.7204 45.6871C25.0474 45.6871 26.1374 44.597 26.1374 43.27C26.1374 41.943 25.0474 40.853 23.7204 40.853Z" fill="#1C1D21"/>
<path d="M36.1848 47.1563C34.0521 47.1563 32.3223 45.4264 32.3223 43.2937C32.3223 41.161 34.0521 39.4312 36.1848 39.4312C38.3175 39.4312 40.0474 41.161 40.0474 43.2937C40.0474 45.4027 38.3175 47.1563 36.1848 47.1563ZM36.1848 40.853C34.8578 40.853 33.7678 41.943 33.7678 43.27C33.7678 44.597 34.8578 45.6871 36.1848 45.6871C37.5118 45.6871 38.6019 44.597 38.6019 43.27C38.6019 41.943 37.5118 40.853 36.1848 40.853Z" fill="#1C1D21"/>
<path d="M48.6493 47.1563C46.5166 47.1563 44.7867 45.4264 44.7867 43.2937C44.7867 41.161 46.5166 39.4312 48.6493 39.4312C50.782 39.4312 52.5118 41.161 52.5118 43.2937C52.5118 45.4027 50.782 47.1563 48.6493 47.1563ZM48.6493 40.853C47.3223 40.853 46.2322 41.943 46.2322 43.27C46.2322 44.597 47.3223 45.6871 48.6493 45.6871C49.9763 45.6871 51.0663 44.597 51.0663 43.27C51.0663 41.943 49.9763 40.853 48.6493 40.853Z" fill="#1C1D21"/>
<path d="M61.1137 47.1563C58.981 47.1563 57.2512 45.4264 57.2512 43.2937C57.2512 41.161 58.981 39.4312 61.1137 39.4312C63.2464 39.4312 64.9763 41.161 64.9763 43.2937C64.9763 45.4027 63.2464 47.1563 61.1137 47.1563ZM61.1137 40.853C59.7867 40.853 58.6967 41.943 58.6967 43.27C58.6967 44.597 59.7867 45.6871 61.1137 45.6871C62.4407 45.6871 63.5308 44.597 63.5308 43.27C63.5308 41.943 62.4407 40.853 61.1137 40.853Z" fill="#1C1D21"/>
<path d="M11.2322 58.1517C9.09952 58.1517 7.36966 56.4218 7.36966 54.2891C7.36966 52.1564 9.09952 50.4266 11.2322 50.4266C13.3649 50.4266 15.1185 52.1327 15.1185 54.2654C15.1185 56.3981 13.3886 58.1517 11.2322 58.1517ZM11.2322 51.8484C9.9052 51.8484 8.81516 52.9384 8.81516 54.2654C8.81516 55.5925 9.9052 56.6825 11.2322 56.6825C12.5592 56.6825 13.6493 55.5925 13.6493 54.2654C13.6493 52.9384 12.5829 51.8484 11.2322 51.8484Z" fill="#1C1D21"/>
<path d="M23.7204 58.1517C21.5877 58.1517 19.8578 56.4218 19.8578 54.2891C19.8578 52.1564 21.5877 50.4266 23.7204 50.4266C25.8531 50.4266 27.5829 52.1564 27.5829 54.2891C27.5829 56.4218 25.8531 58.1517 23.7204 58.1517ZM23.7204 51.8484C22.3934 51.8484 21.3033 52.9384 21.3033 54.2654C21.3033 55.5925 22.3934 56.6825 23.7204 56.6825C25.0474 56.6825 26.1374 55.5925 26.1374 54.2654C26.1374 52.9384 25.0474 51.8484 23.7204 51.8484Z" fill="#1C1D21"/>
<path d="M36.1848 58.1517C34.0521 58.1517 32.3223 56.4218 32.3223 54.2891C32.3223 52.1564 34.0521 50.4266 36.1848 50.4266C38.3175 50.4266 40.0474 52.1327 40.0474 54.2654C40.0474 56.3981 38.3175 58.1517 36.1848 58.1517ZM36.1848 51.8484C34.8578 51.8484 33.7678 52.9384 33.7678 54.2654C33.7678 55.5925 34.8578 56.6825 36.1848 56.6825C37.5118 56.6825 38.6019 55.5925 38.6019 54.2654C38.6019 52.9384 37.5118 51.8484 36.1848 51.8484Z" fill="#1C1D21"/>
<path d="M48.6493 58.1517C46.5166 58.1517 44.7867 56.4218 44.7867 54.2891C44.7867 52.1564 46.5166 50.4266 48.6493 50.4266C50.782 50.4266 52.5118 52.1564 52.5118 54.2891C52.5118 56.4218 50.782 58.1517 48.6493 58.1517ZM48.6493 51.8484C47.3223 51.8484 46.2322 52.9384 46.2322 54.2654C46.2322 55.5925 47.3223 56.6825 48.6493 56.6825C49.9763 56.6825 51.0663 55.5925 51.0663 54.2654C51.0663 52.9384 49.9763 51.8484 48.6493 51.8484Z" fill="#1C1D21"/>
</g>
<defs>
<clipPath id="clip0">
<rect width="72.346" height="70" fill="white"/>
</clipPath>
</defs>
</svg>
