<svg width="56" height="50" viewBox="0 0 56 50" fill="none" xmlns="http://www.w3.org/2000/svg">
<path d="M48.1 40.0902C48.0263 40.0902 47.9512 40.0776 47.8777 40.0514L22.8702 31.0416H7.33256C6.97014 31.0416 6.67648 30.748 6.67648 30.3856C6.67648 30.0232 6.97014 29.7295 7.33256 29.7295H22.9844C23.0602 29.7295 23.1356 29.7426 23.2067 29.7683L48.322 38.8167C48.6629 38.9395 48.8398 39.3153 48.717 39.6562C48.6209 39.9238 48.3687 40.0902 48.1 40.0902Z" fill="#EBE7F2"/>
<path d="M48.7561 17.8472V7.32057C48.7561 6.60309 48.4047 5.92943 47.8161 5.51899C47.2274 5.10855 46.474 5.01119 45.8006 5.25892L41.2301 6.9411C40.89 7.06628 40.7157 7.44339 40.8409 7.78324C40.9661 8.12335 41.343 8.2976 41.6831 8.17242L46.2535 6.49024C46.5291 6.38868 46.8249 6.427 47.0652 6.59495C47.3059 6.76265 47.4437 7.02718 47.4437 7.32031V43.1517C47.4437 43.4448 47.3059 43.7094 47.0652 43.8771C46.8246 44.0448 46.5291 44.0831 46.2535 43.9818L23.2109 35.5008C23.1385 35.4741 23.0616 35.4604 22.9844 35.4604H8.87355C8.38569 35.4604 7.98889 35.0636 7.98889 34.576V15.8965C7.98889 15.4089 8.38569 15.0119 8.87355 15.0119H14.1127C14.4751 15.0119 14.7688 14.7182 14.7688 14.3558C14.7688 13.9934 14.4751 13.6997 14.1127 13.6997H8.87355C7.66217 13.6997 6.67674 14.6851 6.67674 15.8965V19.8689H2.45083C1.09932 19.8689 0 20.9682 0 22.3198V28.1531C0 29.5046 1.09932 30.6039 2.45083 30.6039H6.67648V34.5763C6.67648 35.7874 7.66191 36.7728 8.87328 36.7728H12.1888L15.0609 49.4886C15.1283 49.7878 15.3941 50.0001 15.7007 50.0001H21.6922C21.8827 50.0001 22.0638 49.9174 22.1885 49.7733C22.3131 49.6293 22.369 49.4382 22.3414 49.2498L20.5288 36.7731H22.8674L45.8003 45.2136C46.0465 45.3042 46.3031 45.3488 46.5585 45.3488C47.0023 45.3488 47.4424 45.2144 47.8161 44.9538C48.4047 44.5434 48.7561 43.87 48.7561 43.1522V32.6259C52.6351 32.4789 55.7459 29.2794 55.7459 25.365V25.1081C55.7459 21.1937 52.6351 17.9941 48.7561 17.8472ZM2.45083 29.2917C1.82284 29.2917 1.31215 28.7808 1.31215 28.1531V22.3198C1.31215 21.6918 1.8231 21.1811 2.45083 21.1811H6.67648V29.292H2.45083V29.2917ZM20.9343 48.6882H16.2255L13.5343 36.7731H19.2033L20.9343 48.6882ZM54.4338 25.3647C54.4338 28.5556 51.9115 31.1676 48.7561 31.3135V19.1593C51.9115 19.3052 54.4338 21.9172 54.4338 25.1078V25.3647Z" fill="#06589C"/>
<path d="M30.5416 14.4329C29.8503 14.4329 29.2173 14.6851 28.7277 15.1008L25.9291 13.0523C26.0692 12.7187 26.1469 12.3526 26.1469 11.969C26.1469 11.585 26.069 11.2192 25.9291 10.8857L28.7277 8.83713C29.2176 9.25282 29.8503 9.50527 30.5418 9.50527C32.0904 9.50527 33.3506 8.24535 33.3506 6.69648C33.3506 5.14762 32.0907 3.8877 30.5418 3.8877C28.993 3.8877 27.733 5.14762 27.733 6.69648C27.733 7.08042 27.811 7.44625 27.9509 7.78006L25.1523 9.82859C24.6624 9.4129 24.0296 9.16044 23.3384 9.16044C21.7895 9.16044 20.5296 10.4204 20.5296 11.9692C20.5296 13.5181 21.7895 14.778 23.3384 14.778C24.0296 14.778 24.6624 14.5258 25.1523 14.1101L27.9509 16.1587C27.8107 16.4922 27.733 16.8583 27.733 17.242C27.733 18.7908 28.993 20.0508 30.5418 20.0508C32.0904 20.0508 33.3506 18.7908 33.3506 17.242C33.3506 15.6931 32.0902 14.4329 30.5416 14.4329ZM30.5416 5.19985C31.3669 5.19985 32.0382 5.8714 32.0382 6.69648C32.0382 7.52156 31.3669 8.19312 30.5416 8.19312C29.7162 8.19312 29.0449 7.52156 29.0449 6.69648C29.0449 5.8714 29.7162 5.19985 30.5416 5.19985ZM23.3381 13.4656C22.5128 13.4656 21.8415 12.794 21.8415 11.969C21.8415 11.1439 22.513 10.4723 23.3381 10.4723C24.1632 10.4723 24.8348 11.1436 24.8348 11.969C24.8348 12.7943 24.1632 13.4656 23.3381 13.4656ZM30.5416 18.7383C29.7162 18.7383 29.0449 18.0668 29.0449 17.2417C29.0449 16.4166 29.7165 15.7451 30.5416 15.7451C31.3667 15.7451 32.0382 16.4166 32.0382 17.2417C32.0382 18.0668 31.3667 18.7383 30.5416 18.7383Z" fill="#34C872"/>
<path d="M28.0286 28.3731C27.8029 28.3731 27.5932 28.2571 27.473 28.0664L24.4076 23.1891C19.4558 21.677 16.0193 17.0524 16.0193 11.8537C16.0193 5.31736 21.3369 0 27.873 0C34.409 0 39.7267 5.31762 39.7267 11.8537C39.7267 16.9441 36.5226 21.419 31.7278 23.0644L28.5841 28.0666C28.464 28.2572 28.2543 28.3731 28.0286 28.3731ZM27.873 1.31163C22.0604 1.31163 17.3314 6.04061 17.3314 11.8532C17.3314 16.5525 20.4884 20.7241 25.0088 21.9977C25.1652 22.0418 25.2998 22.1423 25.3862 22.28L28.0283 26.4839L30.7418 22.1661C30.824 22.0355 30.9497 21.9378 31.0969 21.8906C35.4737 20.4858 38.4145 16.452 38.4145 11.8529C38.4145 6.04061 33.6855 1.31163 27.873 1.31163Z" fill="#34C872"/>
</svg>
