<svg width="36" height="50" viewBox="0 0 36 50" fill="none" xmlns="http://www.w3.org/2000/svg">
<path d="M31.5389 46.2182H3.76811C3.42422 46.2182 3.14557 45.9395 3.14557 45.5956V8.8264C3.14557 8.48251 3.42422 8.20386 3.76811 8.20386H6.65944C7.00333 8.20386 7.28198 8.48251 7.28198 8.8264C7.28198 9.17029 7.00333 9.44894 6.65944 9.44894H4.39065V44.9734H30.9161V9.44894H28.6638C28.3199 9.44894 28.0412 9.17029 28.0412 8.8264C28.0412 8.48251 28.3199 8.20386 28.6638 8.20386H31.5387C31.8826 8.20386 32.1612 8.48251 32.1612 8.8264V45.5959C32.1615 45.9395 31.8826 46.2182 31.5389 46.2182Z" fill="#EBE7F2"/>
<path d="M15.9854 21.7111H10.499C10.1551 21.7111 9.87648 21.4325 9.87648 21.0886V15.6025C9.87648 15.2586 10.1551 14.98 10.499 14.98H15.9854C16.3292 14.98 16.6079 15.2586 16.6079 15.6025V21.0889C16.6079 21.4325 16.3292 21.7111 15.9854 21.7111ZM11.1216 20.4661H15.3628V16.2251H11.1216V20.4661Z" fill="#EBE7F2"/>
<path d="M24.8244 21.7111H19.3384C18.9945 21.7111 18.7158 21.4325 18.7158 21.0886V15.6025C18.7158 15.2586 18.9945 14.98 19.3384 14.98H24.8244C25.1683 14.98 25.447 15.2586 25.447 15.6025V21.0889C25.447 21.4325 25.1683 21.7111 24.8244 21.7111ZM19.9607 20.4661H24.2017V16.2251H19.9607V20.4661Z" fill="#EBE7F2"/>
<path d="M15.9854 32.0981H10.499C10.1551 32.0981 9.87648 31.8195 9.87648 31.4756V25.9892C9.87648 25.6453 10.1551 25.3667 10.499 25.3667H15.9854C16.3292 25.3667 16.6079 25.6453 16.6079 25.9892V31.4756C16.6079 31.8195 16.3292 32.0981 15.9854 32.0981ZM11.1216 30.853H15.3628V26.6118H11.1216V30.853Z" fill="#EBE7F2"/>
<path d="M24.8244 32.0981H19.3384C18.9945 32.0981 18.7158 31.8195 18.7158 31.4756V25.9892C18.7158 25.6453 18.9945 25.3667 19.3384 25.3667H24.8244C25.1683 25.3667 25.447 25.6453 25.447 25.9892V31.4756C25.447 31.8195 25.1683 32.0981 24.8244 32.0981ZM19.9607 30.853H24.2017V26.6118H19.9607V30.853Z" fill="#EBE7F2"/>
<path d="M15.9854 42.4848H10.499C10.1551 42.4848 9.87648 42.2062 9.87648 41.8623V36.376C9.87648 36.0321 10.1551 35.7534 10.499 35.7534H15.9854C16.3292 35.7534 16.6079 36.0321 16.6079 36.376V41.8623C16.6079 42.2062 16.3292 42.4848 15.9854 42.4848ZM11.1216 41.2397H15.3628V36.9985H11.1216V41.2397Z" fill="#EBE7F2"/>
<path d="M24.8244 42.4848H19.3384C18.9945 42.4848 18.7158 42.2062 18.7158 41.8623V36.376C18.7158 36.0321 18.9945 35.7534 19.3384 35.7534H24.8244C25.1683 35.7534 25.447 36.0321 25.447 36.376V41.8623C25.447 42.2062 25.1683 42.4848 24.8244 42.4848ZM19.9607 41.2397H24.2017V36.9985H19.9607V41.2397Z" fill="#EBE7F2"/>
<path d="M22.1286 30.1924C21.9605 30.1924 21.7934 30.1249 21.6711 29.9924L20.3195 28.5304C20.0859 28.2779 20.1016 27.884 20.3541 27.6507C20.6071 27.4173 21.0003 27.433 21.2339 27.6853L22.1834 28.7125L24.4248 26.8391C24.6887 26.619 25.0814 26.6536 25.3016 26.9176C25.5222 27.1813 25.4871 27.574 25.2234 27.7943L22.5275 30.0475C22.4115 30.1446 22.2698 30.1924 22.1286 30.1924Z" fill="#34C872"/>
<path d="M13.2897 40.5786C13.1219 40.5786 12.9548 40.5111 12.8325 40.3787L11.4809 38.9167C11.2473 38.6642 11.263 38.2702 11.5153 38.0369C11.7678 37.8033 12.1614 37.8188 12.395 38.0713L13.3445 39.0985L15.5862 37.2251C15.8499 37.0047 16.2426 37.0399 16.463 37.3036C16.6833 37.5673 16.6482 37.96 16.3845 38.1804L13.6887 40.4335C13.5726 40.5308 13.4307 40.5786 13.2897 40.5786Z" fill="#34C872"/>
<path d="M13.2897 19.8055C13.1219 19.8055 12.9548 19.738 12.8325 19.6056L11.4809 18.1436C11.2473 17.8911 11.263 17.4971 11.5153 17.2638C11.7678 17.0302 12.1614 17.0459 12.395 17.2982L13.3445 18.3254L15.5862 16.452C15.8499 16.2316 16.2426 16.2665 16.463 16.5305C16.6833 16.7942 16.6482 17.1869 16.3845 17.4072L13.6887 19.6603C13.5726 19.7577 13.4307 19.8055 13.2897 19.8055Z" fill="#34C872"/>
<path d="M34.7009 4.4165H0.622541C0.278649 4.4165 0 4.69515 0 5.03904V49.3774C0 49.7213 0.278649 49.9999 0.622541 49.9999H34.7009C35.0448 49.9999 35.3235 49.7213 35.3235 49.3774V5.03904C35.3235 4.69515 35.0448 4.4165 34.7009 4.4165ZM7.28198 5.66159H28.0412V10.5996C28.0412 10.9427 27.7621 11.2221 27.4187 11.2221H7.90453C7.56138 11.2221 7.28198 10.9427 7.28198 10.5996V5.66159ZM34.0784 48.7549H1.24508V5.66159H6.0369V10.5996C6.0369 11.6295 6.87459 12.4672 7.90453 12.4672H27.4187C28.4486 12.4672 29.2863 11.6295 29.2863 10.5996V5.66159H34.0781V48.7549H34.0784Z" fill="#06589C"/>
<path d="M10.0944 3.17147C10.4383 3.17147 10.7169 2.89282 10.7169 2.54893V1.86762C10.7169 1.52448 10.9963 1.24508 11.3395 1.24508H23.984C24.3274 1.24508 24.6066 1.52448 24.6066 1.86762V2.54893C24.6066 2.89282 24.8852 3.17147 25.2291 3.17147C25.573 3.17147 25.8516 2.89282 25.8516 2.54893V1.86762C25.8516 0.837691 25.0139 0 23.984 0H11.3395C10.3095 0 9.47183 0.837691 9.47183 1.86762V2.54893C9.47183 2.89282 9.75048 3.17147 10.0944 3.17147Z" fill="#06589C"/>
<path d="M14.8613 27.1134C14.6182 26.8701 14.2238 26.8701 13.981 27.1134L13.2422 27.8522L12.5034 27.1134C12.2603 26.8701 11.8659 26.8701 11.6231 27.1134C11.3798 27.3564 11.3798 27.7506 11.6231 27.9936L12.3619 28.7325L11.6231 29.4713C11.3798 29.7143 11.3798 30.1085 11.6231 30.3516C11.7446 30.4731 11.904 30.5339 12.0633 30.5339C12.2227 30.5339 12.3821 30.4731 12.5036 30.3516L13.2424 29.6127L13.9813 30.3516C14.1028 30.4731 14.2622 30.5339 14.4215 30.5339C14.5809 30.5339 14.7403 30.4731 14.8618 30.3516C15.1051 30.1085 15.1051 29.7143 14.8618 29.4713L14.123 28.7325L14.8618 27.9936C15.1046 27.7506 15.1046 27.3564 14.8613 27.1134Z" fill="#06589C"/>
<path d="M23.7004 37.5001C23.4571 37.2568 23.0631 37.2568 22.8201 37.5001L22.0813 38.2389L21.3424 37.5001C21.0991 37.2568 20.7052 37.2568 20.4622 37.5001C20.2189 37.7431 20.2189 38.1373 20.4622 38.3804L21.201 39.1192L20.4622 39.858C20.2189 40.1011 20.2189 40.4953 20.4622 40.7383C20.5837 40.8598 20.7431 40.9206 20.9024 40.9206C21.0618 40.9206 21.2209 40.8598 21.3427 40.7383L22.0815 39.9995L22.8204 40.7383C22.9419 40.8598 23.1012 40.9206 23.2606 40.9206C23.42 40.9206 23.5791 40.8598 23.7009 40.7383C23.9442 40.4953 23.9442 40.1011 23.7009 39.858L22.962 39.1192L23.7009 38.3804C23.9437 38.1373 23.9437 37.7431 23.7004 37.5001Z" fill="#06589C"/>
<path d="M23.7004 16.7264C23.4571 16.4831 23.0631 16.4831 22.8201 16.7264L22.0813 17.4652L21.3424 16.7264C21.0991 16.4831 20.7052 16.4831 20.4622 16.7264C20.2189 16.9695 20.2189 17.3636 20.4622 17.6067L21.201 18.3455L20.4622 19.0843C20.2189 19.3274 20.2189 19.7216 20.4622 19.9646C20.5837 20.0861 20.7431 20.1469 20.9024 20.1469C21.0618 20.1469 21.2209 20.0861 21.3427 19.9646L22.0815 19.2258L22.8204 19.9646C22.9419 20.0861 23.1012 20.1469 23.2606 20.1469C23.42 20.1469 23.5791 20.0861 23.7009 19.9646C23.9442 19.7216 23.9442 19.3274 23.7009 19.0843L22.962 18.3455L23.7009 17.6067C23.9437 17.3636 23.9437 16.9695 23.7004 16.7264Z" fill="#06589C"/>
</svg>
