<svg width="50" height="50" viewBox="0 0 50 50" fill="none" xmlns="http://www.w3.org/2000/svg">
<path d="M18.4755 26.7621C16.3221 26.7621 14.1889 25.9294 12.5928 24.3331C9.79888 21.5392 9.36351 17.1312 11.5579 13.8524C11.7448 13.573 12.1234 13.4979 12.4028 13.6848C12.6822 13.8719 12.7575 14.25 12.5704 14.5297C10.6986 17.3268 11.0704 21.0875 13.4543 23.4719C15.7028 25.7204 19.2013 26.1942 21.9616 24.6245C22.2545 24.4581 22.626 24.5607 22.7922 24.8531C22.9586 25.1454 22.8562 25.5174 22.5636 25.6836C21.2877 26.4089 19.8771 26.7621 18.4755 26.7621Z" fill="#EBE7F2"/>
<path d="M25.1534 22.8718C25.0514 22.8718 24.9481 22.8462 24.8531 22.7921C24.5607 22.6257 24.4584 22.2539 24.6245 21.9615C26.1942 19.201 25.7204 15.7027 23.4719 13.4542C21.0877 11.0701 17.3268 10.698 14.5297 12.5703C14.2498 12.7574 13.8717 12.6824 13.6848 12.403C13.4977 12.1233 13.5727 11.7452 13.8522 11.5581C17.1317 9.36368 21.5392 9.7988 24.3334 12.593C26.9682 15.2279 27.5235 19.3282 25.6836 22.5638C25.571 22.7609 25.3652 22.8718 25.1534 22.8718Z" fill="#EBE7F2"/>
<path d="M18.4631 30.334C15.2923 30.334 12.3112 29.0993 10.0691 26.8572C7.82697 24.6151 6.59225 21.6343 6.59225 18.4632C6.59225 15.2923 7.82697 12.3113 10.0691 10.0691C12.3112 7.827 15.2923 6.59229 18.4631 6.59229C21.634 6.59229 24.615 7.827 26.8572 10.0691C29.0993 12.3113 30.334 15.2923 30.334 18.4632C30.334 21.634 29.0993 24.6151 26.8572 26.8572C24.615 29.0991 21.634 30.334 18.4631 30.334ZM18.4631 7.81044C15.6178 7.81044 12.9425 8.91847 10.9306 10.9306C8.91868 12.9427 7.81041 15.6178 7.81041 18.4632C7.81041 21.3088 8.91844 23.9838 10.9306 25.9957C12.9427 28.0076 15.6178 29.1159 18.4631 29.1159C21.3087 29.1159 23.9838 28.0079 25.9957 25.9957C28.0076 23.9836 29.1159 21.3085 29.1159 18.4632C29.1159 15.6178 28.0078 12.9425 25.9957 10.9306C23.9835 8.91847 21.3085 7.81044 18.4631 7.81044Z" fill="#EBE7F2"/>
<path d="M46.5183 49.4008C46.3624 49.4008 46.2065 49.3413 46.0876 49.2224L33.0641 36.1989C32.8261 35.9612 32.8261 35.5755 33.0641 35.3377C33.3019 35.0997 33.6878 35.0997 33.9253 35.3377L46.9488 48.3612C47.1869 48.599 47.1869 48.9846 46.9488 49.2224C46.8302 49.3413 46.6743 49.4008 46.5183 49.4008Z" fill="#EBE7F2"/>
<path d="M31.5244 5.40155C24.3227 -1.8004 12.6038 -1.80064 5.40165 5.40155C-1.80055 12.6037 -1.80055 24.3224 5.40165 31.5243C9.00274 35.1254 13.7328 36.9258 18.4629 36.9258C23.1932 36.9258 27.9233 35.1254 31.5242 31.5243C38.7263 24.3224 38.7263 12.6037 31.5244 5.40155ZM6.26288 30.6631C-0.463993 23.936 -0.463993 12.9901 6.26288 6.26303C9.62692 2.89923 14.0442 1.21794 18.4629 1.21794C22.8806 1.21794 27.2999 2.89996 30.6629 6.26303C37.3898 12.9901 37.3898 23.9362 30.6629 30.6631C23.9361 37.3899 12.9902 37.3902 6.26288 30.6631Z" fill="#06589C"/>
<path d="M48.7673 42.2326L40.2546 33.7199C39.4587 32.9237 38.4004 32.4854 37.2748 32.4854C37.1676 32.4854 37.0616 32.493 36.9559 32.501L35.1182 30.6633C34.8802 30.4253 34.4945 30.4255 34.2567 30.6633C34.0187 30.9013 34.0187 31.287 34.2567 31.5248L35.5765 32.8445C35.105 33.0523 34.6702 33.3449 34.295 33.7201L33.7202 34.2948C33.3451 34.67 33.0525 35.1052 32.8446 35.5766L31.5249 34.2568C31.2869 34.0191 30.9014 34.0191 30.6634 34.2568C30.4256 34.4946 30.4256 34.8803 30.6634 35.1183L32.5011 36.956C32.4933 37.0618 32.4855 37.1677 32.4855 37.2749C32.4855 38.4005 32.9238 39.4588 33.72 40.2548L42.2327 48.7675C43.0542 49.5892 44.1335 50 45.2125 50C46.2918 50 47.3708 49.5892 48.1924 48.7675L48.7673 48.1925C50.4104 46.5492 50.4104 43.8756 48.7673 42.2326ZM47.9061 47.331L47.3311 47.906C46.1629 49.0739 44.2621 49.0742 43.0939 47.906L34.5812 39.3933C34.0153 38.8273 33.7037 38.0748 33.7037 37.2747C33.7037 36.4744 34.0153 35.7218 34.5812 35.1561L35.1562 34.5814C35.7219 34.0154 36.4745 33.7038 37.2748 33.7038C38.0751 33.7038 38.8275 34.0154 39.3934 34.5814L47.9061 43.094C49.0743 44.262 49.0743 46.1628 47.9061 47.331Z" fill="#06589C"/>
<path d="M29.1373 7.78883C26.2861 4.93763 22.4955 3.36743 18.4632 3.36743C14.4311 3.36743 10.6402 4.93763 7.78898 7.78883C4.93778 10.64 3.36758 14.4309 3.36758 18.463C3.36758 22.4953 4.93778 26.286 7.78898 29.1372C10.6402 31.9884 14.4311 33.5586 18.4632 33.5586C22.4955 33.5586 26.2861 31.9884 29.1373 29.1372C31.9885 26.286 33.5587 22.4953 33.5587 18.463C33.5587 14.4307 31.9885 10.6398 29.1373 7.78883ZM28.2758 28.2757C25.6546 30.8967 22.1697 32.3404 18.4629 32.3404C14.7561 32.3404 11.2712 30.8969 8.64997 28.2757C6.029 25.6545 4.58525 22.1696 4.58525 18.4628C4.58525 14.7559 6.02876 11.271 8.64997 8.64982C11.2712 6.02885 14.7561 4.5851 18.4629 4.5851C22.1697 4.5851 25.6546 6.0286 28.2758 8.64982C30.8968 11.271 32.3406 14.7559 32.3406 18.4628C32.3406 22.1698 30.8971 25.6547 28.2758 28.2757Z" fill="#06589C"/>
<path d="M23.8267 27.0549C23.5031 27.0549 23.1798 26.9319 22.9333 26.6856L17.8828 21.6349L16.0529 24.3626C15.7693 24.7855 15.2818 24.9921 14.7804 24.9022C14.279 24.8121 13.8941 24.4483 13.7755 23.953L11.0509 12.5733C10.9479 12.143 11.0731 11.6992 11.3862 11.3861C11.6992 11.073 12.1429 10.9476 12.5736 11.0509L23.9533 13.7751C24.4489 13.8938 24.8126 14.279 24.9025 14.7803C24.9927 15.2815 24.7858 15.7692 24.3629 16.0528L21.6352 17.8827L26.6857 22.9332C27.178 23.4258 27.178 24.2273 26.6857 24.7197L24.7198 26.6856C24.4737 26.9319 24.15 27.0549 23.8267 27.0549ZM17.7895 20.0715C17.9503 20.0715 18.1055 20.1351 18.2202 20.2498L23.7945 25.8241C23.8118 25.8414 23.8405 25.8414 23.8583 25.8241L25.8242 23.8582C25.8417 23.8407 25.8417 23.812 25.8242 23.7944L20.2499 18.2202C20.121 18.0915 20.0567 17.9117 20.0743 17.7305C20.0918 17.5492 20.19 17.3852 20.3413 17.2839L23.6841 15.0413C23.6956 15.0335 23.7087 15.0249 23.7034 14.996C23.6983 14.9667 23.6829 14.9631 23.6693 14.9599L12.2898 12.2356C12.2808 12.2337 12.2649 12.2298 12.2476 12.2476C12.2299 12.2653 12.2335 12.2812 12.2357 12.2897L14.96 23.6697C14.9631 23.6831 14.9668 23.6984 14.9958 23.7035C15.025 23.7087 15.0333 23.6957 15.0411 23.6843L17.2837 20.3414C17.3853 20.1901 17.549 20.0922 17.7303 20.0744C17.7503 20.0725 17.77 20.0715 17.7895 20.0715Z" fill="#34C872"/>
</svg>
