<svg width="32" height="32" viewBox="0 0 32 32" fill="none" xmlns="http://www.w3.org/2000/svg">
<path d="M14.0001 10.6666H11.3334C10.9654 10.6666 10.6667 10.9653 10.6667 11.3333V19.3333C10.6667 19.7013 10.9654 20 11.3334 20H14.0001C14.3681 20 14.6667 19.7013 14.6667 19.3333V11.3333C14.6667 10.9653 14.3681 10.6666 14.0001 10.6666Z" fill="white"/>
<path d="M8.66669 14.6666H6C5.632 14.6666 5.33331 14.9653 5.33331 15.3333V19.3333C5.33331 19.7013 5.632 20 6 20H8.66669C9.03469 20 9.33338 19.7013 9.33338 19.3333V15.3333C9.33331 14.9653 9.03469 14.6666 8.66669 14.6666Z" fill="white"/>
<path d="M19.3334 6.66675H16.6667C16.2987 6.66675 16 6.96544 16 7.33344V19.3334C16 19.7014 16.2987 20.0001 16.6667 20.0001H19.3334C19.7014 20.0001 20.0001 19.7014 20.0001 19.3334V7.33344C20.0001 6.96544 19.7014 6.66675 19.3334 6.66675Z" fill="white"/>
<path d="M31.6093 29.724L23.6507 21.7653C25.5334 19.4666 26.6667 16.5306 26.6667 13.3333C26.6667 5.98131 20.6854 0 13.3334 0C5.98137 0 0 5.98131 0 13.3333C0 20.6853 5.98131 26.6666 13.3333 26.6666C16.5306 26.6666 19.4666 25.5333 21.7653 23.6506L29.724 31.6093C29.984 31.8693 30.3253 32 30.6667 32C31.0081 32 31.3494 31.8693 31.6094 31.6093C32.1307 31.088 32.1307 30.2453 31.6093 29.724ZM13.3333 24C7.452 24 2.66663 19.2147 2.66663 13.3333C2.66663 7.45194 7.452 2.66663 13.3333 2.66663C19.2146 2.66663 24 7.452 24 13.3333C24 19.2146 19.2147 24 13.3333 24Z" fill="white"/>
</svg>
