<svg width="58" height="50" viewBox="0 0 58 50" fill="none" xmlns="http://www.w3.org/2000/svg">
<g clip-path="url(#clip0)">
<path d="M56.4695 6.07632H47.4294C47.0344 6.07632 46.7138 5.75571 46.7138 5.36067C46.7138 4.96563 47.0344 4.64502 47.4294 4.64502H56.4695C56.8645 4.64502 57.1851 4.96563 57.1851 5.36067C57.1851 5.75571 56.8645 6.07632 56.4695 6.07632Z" fill="#EBE7F2"/>
<path d="M38.4447 46.0133H0.830212C0.435174 46.0133 0.114563 45.6927 0.114563 45.2977C0.114563 44.9026 0.435174 44.582 0.830212 44.582H38.4447C38.8398 44.582 39.1604 44.9026 39.1604 45.2977C39.1604 45.6927 38.8398 46.0133 38.4447 46.0133Z" fill="#EBE7F2"/>
<path d="M33.5 36.1584H28.626C28.2309 36.1584 27.9103 35.8377 27.9103 35.4427C27.9103 35.0477 28.2309 34.7271 28.626 34.7271H33.5C33.8951 34.7271 34.2157 35.0477 34.2157 35.4427C34.2157 35.8377 33.8951 36.1584 33.5 36.1584Z" fill="#34C872"/>
<path d="M25.7634 36.1584H16.9409C16.5459 36.1584 16.2253 35.8377 16.2253 35.4427C16.2253 35.0477 16.5459 34.7271 16.9409 34.7271H25.7634C26.1585 34.7271 26.4791 35.0477 26.4791 35.4427C26.4791 35.8377 26.1585 36.1584 25.7634 36.1584Z" fill="#34C872"/>
<path d="M33.9886 31.4828H25.2023C24.8073 31.4828 24.4867 31.1622 24.4867 30.7672C24.4867 30.3721 24.8073 30.0515 25.2023 30.0515H33.9886C34.3836 30.0515 34.7042 30.3721 34.7042 30.7672C34.7042 31.1622 34.3836 31.4828 33.9886 31.4828Z" fill="#34C872"/>
<path d="M22.3378 31.4828H16.9409C16.5459 31.4828 16.2253 31.1622 16.2253 30.7672C16.2253 30.3721 16.5459 30.0515 16.9409 30.0515H22.3398C22.7348 30.0515 23.0554 30.3721 23.0554 30.7672C23.0535 31.1622 22.7348 31.4828 22.3378 31.4828Z" fill="#34C872"/>
<path d="M37.7691 26.8073H29.2329C28.8379 26.8073 28.5172 26.4867 28.5172 26.0916C28.5172 25.6966 28.8379 25.376 29.2329 25.376H37.7691C38.1642 25.376 38.4848 25.6966 38.4848 26.0916C38.4848 26.4867 38.1642 26.8073 37.7691 26.8073Z" fill="#34C872"/>
<path d="M26.3703 26.8073H16.9409C16.5459 26.8073 16.2253 26.4867 16.2253 26.0916C16.2253 25.6966 16.5459 25.376 16.9409 25.376H26.3703C26.7653 25.376 27.0859 25.6966 27.0859 26.0916C27.0859 26.4867 26.7653 26.8073 26.3703 26.8073Z" fill="#34C872"/>
<path d="M40.6318 22.1298H32.0249C31.6298 22.1298 31.3092 21.8092 31.3092 21.4141C31.3092 21.0191 31.6298 20.6985 32.0249 20.6985H40.6318C41.0268 20.6985 41.3474 21.0191 41.3474 21.4141C41.3474 21.8092 41.0268 22.1298 40.6318 22.1298Z" fill="#34C872"/>
<path d="M29.1623 22.1298H16.9409C16.5459 22.1298 16.2253 21.8092 16.2253 21.4141C16.2253 21.0191 16.5459 20.6985 16.9409 20.6985H29.1642C29.5592 20.6985 29.8798 21.0191 29.8798 21.4141C29.8779 21.8092 29.5573 22.1298 29.1623 22.1298Z" fill="#34C872"/>
<path d="M37.7691 17.4542H24.4275C24.0325 17.4542 23.7119 17.1336 23.7119 16.7386C23.7119 16.3436 24.0325 16.0229 24.4275 16.0229H37.7691C38.1641 16.0229 38.4848 16.3436 38.4848 16.7386C38.4848 17.1336 38.1641 17.4542 37.7691 17.4542Z" fill="#34C872"/>
<path d="M21.5649 17.4542H16.9409C16.5459 17.4542 16.2253 17.1336 16.2253 16.7386C16.2253 16.3436 16.5459 16.0229 16.9409 16.0229H21.5649C21.96 16.0229 22.2806 16.3436 22.2806 16.7386C22.2787 17.1336 21.96 17.4542 21.5649 17.4542Z" fill="#34C872"/>
<path d="M27.7367 12.7787H16.9409C16.5459 12.7787 16.2253 12.4581 16.2253 12.0631C16.2253 11.668 16.5459 11.3474 16.9409 11.3474H27.7386C28.1337 11.3474 28.4543 11.668 28.4543 12.0631C28.4524 12.4581 28.1337 12.7787 27.7367 12.7787Z" fill="#34C872"/>
<path d="M47.4371 33.0745C47.042 33.0745 46.7214 33.3951 46.7214 33.7901V44.6393C46.7214 46.7367 45.0134 48.4447 42.9161 48.4447C40.8187 48.4447 39.1107 46.7367 39.1107 44.6393V40.1203C39.1107 39.7252 38.7901 39.4046 38.3951 39.4046H0.782482C0.387444 39.4046 0.0668335 39.7252 0.0668335 40.1203V44.6393C0.0668335 47.5268 2.41607 49.876 5.30348 49.876H42.918C45.8054 49.876 48.1546 47.5268 48.1546 44.6393V33.7901C48.1527 33.3951 47.8321 33.0745 47.4371 33.0745ZM5.30348 48.4428C3.20615 48.4428 1.49813 46.7367 1.49813 44.6393V40.834H37.6813V44.6393C37.6813 46.1374 38.3187 47.4886 39.3302 48.4428H5.30348Z" fill="#06589C"/>
<path d="M51.9504 0.125977C51.9485 0.125977 51.9485 0.125977 51.9504 0.125977H14.3436C11.4562 0.125977 9.10883 2.47521 9.10883 5.36071V37.2557C9.10883 37.6508 9.42753 37.9714 9.82447 37.9714C10.2195 37.9714 10.5401 37.6508 10.5401 37.2557V5.36071C10.5401 3.26338 12.2462 1.55537 14.3436 1.55537H48.3646C47.3512 2.51147 46.7138 3.86071 46.7138 5.36071V9.87979C46.7138 9.90651 46.7195 9.93323 46.7214 9.95994V16.3416C46.7214 16.7367 47.042 17.0573 47.4371 17.0573C47.8321 17.0573 48.1527 16.7367 48.1527 16.3416V9.8817C48.1527 9.85498 48.147 9.82827 48.1451 9.80155V5.36071C48.1451 3.26338 49.8512 1.55537 51.9504 1.55537C54.0478 1.55537 55.7539 3.26338 55.7539 5.36071V9.16414H51.9485C51.5535 9.16414 51.2329 9.48475 51.2329 9.87979C51.2329 10.2748 51.5535 10.5954 51.9485 10.5954H56.4695C56.8646 10.5954 57.1852 10.2748 57.1852 9.87979V5.36071C57.1852 2.4733 54.8359 0.125977 51.9504 0.125977Z" fill="#06589C"/>
<path d="M55.063 16.3856C53.6966 15.0173 51.4714 15.0192 50.1031 16.3856L48.1852 18.3036L38.2252 28.2635C37.8569 28.6318 37.5764 29.0898 37.4161 29.586L35.6813 34.9734C35.5172 35.481 35.6508 36.0307 36.0268 36.4066C36.2978 36.6757 36.6565 36.8207 37.0248 36.8207C37.1699 36.8207 37.3168 36.7978 37.46 36.752L42.8493 35.0173C43.3455 34.857 43.8035 34.5784 44.1718 34.2101L54.1317 24.2501L56.0497 22.3322C57.4161 20.9658 57.4161 18.7406 56.0497 17.3723L55.063 16.3856ZM43.6661 32.6929L39.7443 28.7711L48.6928 19.8227L52.6145 23.7444L43.6661 32.6929ZM37.0554 35.3818L37.3932 34.336L38.1012 35.0459L37.0554 35.3818ZM39.6317 34.5517L37.8836 32.8036L38.7787 30.0249C38.7939 29.9772 38.8149 29.9314 38.834 29.8856L42.5516 33.6032C42.5039 33.6223 42.4581 33.6414 42.4123 33.6566L39.6317 34.5517ZM55.0382 21.3207L53.626 22.733L49.7042 18.8093L51.1165 17.3971C51.521 16.9925 52.0535 16.7902 52.584 16.7902C53.1145 16.7902 53.647 16.9925 54.0516 17.3971L55.0382 18.3837C55.8474 19.1948 55.8474 20.5116 55.0382 21.3207Z" fill="#06589C"/>
</g>
<defs>
<clipPath id="clip0">
<rect width="57.2519" height="50" fill="white"/>
</clipPath>
</defs>
</svg>
