<svg width="70" height="70" viewBox="0 0 70 70" fill="none" xmlns="http://www.w3.org/2000/svg">
<path d="M27.0783 48.5091C21.3462 48.5091 15.9581 46.2843 11.8998 42.2247C7.84147 38.165 5.61743 32.7751 5.61743 27.0412C5.61743 21.3072 7.84147 15.9173 11.8998 11.8577C15.9581 7.79807 21.3462 5.5733 27.0783 5.5733C32.8104 5.5733 38.1985 7.79807 42.2568 11.8577C46.3151 15.9173 48.5391 21.3072 48.5391 27.0412C48.5391 32.7751 46.3151 38.165 42.2568 42.2247C38.1985 46.2843 32.8104 48.5091 27.0783 48.5091Z" fill="#83E1E5"/>
<path d="M24.2352 6.4677C23.8913 6.4677 23.5932 6.21541 23.5473 5.84843C23.5015 5.45853 23.7766 5.11449 24.1435 5.06862C25.1064 4.931 26.0924 4.88513 27.0783 4.88513C27.4681 4.88513 27.7891 5.20623 27.7891 5.59614C27.7891 5.98605 27.4681 6.30715 27.0783 6.30715C26.1612 6.30715 25.244 6.37596 24.3269 6.49064C24.304 6.4677 24.2581 6.4677 24.2352 6.4677Z" fill="#1C1D21"/>
<path d="M6.69502 20.9864C6.62624 20.9864 6.55745 20.9864 6.46574 20.9406C6.12181 20.8259 5.91546 20.436 6.0301 20.069C7.10773 16.7892 8.91906 13.8763 11.3953 11.3993C13.4818 9.31212 15.8893 7.68368 18.5719 6.58276C18.9158 6.42221 19.3285 6.6057 19.489 6.94973C19.6266 7.3167 19.4661 7.70661 19.1221 7.86716C16.6 8.89927 14.3531 10.413 12.4042 12.3626C10.0884 14.6791 8.39171 17.4314 7.35994 20.5048C7.26823 20.8029 6.99309 20.9864 6.69502 20.9864Z" fill="#1C1D21"/>
<path d="M65.8501 70C64.7495 70 63.6948 69.5642 62.9152 68.7844L47.4157 53.3027C45.0541 50.9404 41.3856 50.2752 38.2903 51.6972C33.3148 53.9679 27.8121 54.6789 22.401 53.7385C16.8753 52.7523 11.854 50.1147 7.86447 46.1009C2.7744 40.9633 -0.0228495 34.1743 7.88068e-05 26.9954C0.0230071 19.7936 2.84318 13.0275 7.95619 7.91284C18.5032 -2.63761 35.6765 -2.63761 46.2235 7.91284C50.213 11.9037 52.8268 16.9495 53.7669 22.4771C54.684 27.8899 53.9732 33.3945 51.6804 38.3716C50.2818 41.3991 50.9696 45.0459 53.3542 47.4541L68.7849 62.8899C69.5644 63.6697 70.0001 64.7248 70.0001 65.8257C70.0001 66.9266 69.5644 67.9817 68.7849 68.7615C68.0053 69.5642 66.9735 70 65.8501 70ZM41.7066 49.5413C44.1828 49.5413 46.6132 50.5046 48.4246 52.2936L63.9241 67.7752C64.4514 68.3027 65.1393 68.578 65.873 68.578C66.6067 68.578 67.2945 68.2798 67.8219 67.7752C68.3492 67.2477 68.6244 66.5596 68.6244 65.8257C68.6244 65.0917 68.3263 64.4037 67.8219 63.8761L52.3682 48.4174C49.5481 45.5963 48.7685 41.3303 50.4193 37.7523C54.8904 28.0505 52.8039 16.445 45.2605 8.87615C35.2638 -1.12385 18.9847 -1.12385 8.98796 8.87615C-0.985836 18.8532 -1.00876 35.0917 8.91918 45.0917C16.4626 52.6835 28.0413 54.8165 37.7859 50.367C39.0011 49.8165 40.3538 49.5413 41.7066 49.5413Z" fill="#1C1D21"/>
<path d="M34.1172 17.0412L33.0625 18.0962C32.6269 18.532 31.939 18.6696 31.3888 18.3944C30.999 18.1879 30.5863 18.0274 30.1736 17.8898C29.5774 17.6834 29.1876 17.1329 29.1876 16.4907V14.9999C29.1876 14.1742 28.5227 13.532 27.7202 13.532H26.4592C25.6338 13.532 24.9918 14.1971 24.9918 14.9999V16.4907C24.9918 17.11 24.602 17.6834 24.0059 17.8898C23.5931 18.0274 23.1804 18.1879 22.7907 18.3944C22.2175 18.6696 21.5525 18.532 21.094 18.0962L20.0393 17.0412C19.4661 16.4678 18.526 16.4678 17.9528 17.0412L17.0586 17.9357C16.4854 18.509 16.4854 19.4494 17.0586 20.0228L18.1133 21.0779C18.5719 21.5136 18.6865 22.1788 18.4114 22.7522C18.205 23.1421 18.0445 23.5549 17.9069 23.9678C17.7006 24.5641 17.1503 24.954 16.5083 24.954H15.018C14.1926 24.954 13.5506 25.6191 13.5506 26.4219V27.6834C13.5506 28.4861 14.2155 29.1512 15.018 29.1512H16.5083C17.1274 29.1512 17.7006 29.5412 17.9069 30.1375C18.0445 30.5503 18.205 30.9632 18.4114 31.3531C18.6865 31.9035 18.5719 32.5916 18.1133 33.0274L17.0586 34.0824C16.4854 34.6558 16.4854 35.5962 17.0586 36.1696L17.9528 37.0641C18.526 37.6375 19.4661 37.6375 20.0393 37.0641L21.094 36.009C21.5296 35.5733 22.2175 35.4356 22.7677 35.7109C23.1575 35.9173 23.5702 36.0779 23.9829 36.2155C24.5791 36.4219 24.9688 36.9723 24.9688 37.6145V39.1054C24.9688 39.9081 25.6338 40.5733 26.4363 40.5733H27.6973C28.5227 40.5733 29.1647 39.9081 29.1647 39.1054V37.6145C29.1647 36.9953 29.5545 36.4219 30.1506 36.2155C30.5633 36.0779 30.976 35.9173 31.3658 35.7109C31.9161 35.4356 32.604 35.5503 33.0396 36.009L34.0943 37.0641C34.6675 37.6375 35.6076 37.6375 36.1808 37.0641L37.075 36.1696C37.6482 35.5962 37.6482 34.6558 37.075 34.0824L36.0203 33.0274C35.5846 32.5916 35.4471 31.9035 35.7222 31.3531C35.9286 30.9632 36.0891 30.5503 36.2266 30.1375C36.433 29.5412 36.9833 29.1512 37.6252 29.1512H39.1156C39.9181 29.1512 40.583 28.4861 40.583 27.6834V26.4219C40.583 25.5962 39.9181 24.954 39.1156 24.954H37.6252C37.0062 24.954 36.433 24.5641 36.2266 23.9678C36.0891 23.5549 35.9286 23.1421 35.7222 22.7522C35.4471 22.2017 35.5617 21.5136 36.0203 21.0779L37.075 20.0228C37.6482 19.4494 37.6482 18.509 37.075 17.9357L36.1808 17.0412C35.6076 16.4678 34.6904 16.4678 34.1172 17.0412ZM30.2423 30.2292C28.4769 31.9953 25.6338 31.9953 23.8912 30.2292C22.1257 28.4632 22.1257 25.6191 23.8912 23.876C25.6567 22.11 28.4998 22.11 30.2423 23.876C32.0078 25.6191 32.0078 28.4632 30.2423 30.2292Z" fill="#FDDF7F"/>
<path d="M27.6973 41.2846H26.4362C25.244 41.2846 24.2581 40.2983 24.2581 39.1057V37.6149C24.2581 37.2938 24.0517 36.9956 23.7536 36.8809C23.318 36.7204 22.8824 36.5598 22.4467 36.3534C22.1716 36.2158 21.8047 36.2846 21.5754 36.5139L20.5208 37.569C20.108 37.9818 19.5578 38.2112 18.9846 38.2112C18.4113 38.2112 17.8611 37.9818 17.4484 37.569L16.5542 36.6745C15.7058 35.8259 15.7058 34.4497 16.5542 33.6011L17.6089 32.5461C17.8381 32.3167 17.9069 31.9727 17.7694 31.6745C17.563 31.2617 17.3796 30.8259 17.242 30.3672C17.1503 30.069 16.8522 29.8626 16.5083 29.8626H15.018C13.8257 29.8626 12.8398 28.8763 12.8398 27.6837V26.4222C12.8398 25.2295 13.8257 24.2433 15.018 24.2433H16.5083C16.8293 24.2433 17.1274 24.0369 17.242 23.7387C17.4025 23.3029 17.563 22.8672 17.7694 22.4314C17.9299 22.1561 17.8611 21.8121 17.6318 21.5598L16.5771 20.5048C16.1644 20.0919 15.9351 19.5644 15.9351 18.9681C15.9351 18.3947 16.1644 17.8442 16.5771 17.4314L17.4713 16.5369C18.3196 15.6883 19.6953 15.6883 20.5437 16.5369L21.5984 17.5919C21.8277 17.8213 22.1716 17.8901 22.4697 17.7525C22.8824 17.5461 23.318 17.3626 23.7766 17.225C24.0746 17.1332 24.281 16.835 24.281 16.491V15.0002C24.281 13.8075 25.2669 12.8213 26.4592 12.8213H27.7202C28.9125 12.8213 29.8984 13.8075 29.8984 15.0002V16.491C29.8984 16.8121 30.1048 17.1103 30.4028 17.225C30.8385 17.3626 31.2741 17.5461 31.7097 17.7525C31.9849 17.8901 32.3517 17.8213 32.581 17.5919L33.6357 16.5369C34.4841 15.6883 35.8598 15.6883 36.7081 16.5369L37.6023 17.4314C38.4506 18.28 38.4506 19.6561 37.6023 20.5048L36.5247 21.5598C36.2954 21.7892 36.2266 22.1332 36.3642 22.4314C36.5705 22.8442 36.754 23.28 36.8915 23.7387C36.9832 24.0369 37.2813 24.2433 37.6252 24.2433H39.1156C40.3078 24.2433 41.2938 25.2295 41.2938 26.4222V27.6837C41.2938 28.2571 41.0645 28.8075 40.6518 29.2204C40.2391 29.6332 39.6888 29.8626 39.1156 29.8626H37.6252C37.3042 29.8626 37.0062 30.069 36.8915 30.3672C36.754 30.8029 36.5705 31.2387 36.3642 31.6745C36.2266 31.9497 36.2954 32.3167 36.5247 32.5461L37.5794 33.6011C37.9921 34.0139 38.2214 34.5644 38.2214 35.1378C38.2214 35.7112 37.9921 36.2617 37.5794 36.6745L36.6852 37.5461C35.8368 38.3947 34.4611 38.3947 33.6128 37.5461L32.5581 36.491C32.3288 36.2617 31.9849 36.1928 31.6868 36.3305C31.2741 36.5369 30.8385 36.7204 30.3799 36.858C30.0818 36.9497 29.8755 37.2479 29.8755 37.5919V39.0828C29.8755 40.2984 28.9125 41.2846 27.6973 41.2846ZM22.1487 34.8626C22.4697 34.8626 22.7906 34.9314 23.0887 35.0919C23.4556 35.2754 23.8224 35.436 24.2122 35.5506C25.0835 35.8488 25.6796 36.6745 25.6796 37.6149V39.1057C25.6796 39.5415 26.0235 39.8855 26.4592 39.8855H27.7202C28.1559 39.8855 28.4998 39.5415 28.4998 39.1057V37.6149C28.4998 36.6745 29.0959 35.8488 29.9672 35.5506C30.357 35.413 30.7238 35.2754 31.0907 35.0919C31.9161 34.6791 32.902 34.8626 33.5669 35.5048L34.6216 36.5598C34.9197 36.858 35.4241 36.858 35.7222 36.5598L36.6164 35.6653C36.754 35.5277 36.8457 35.3213 36.8457 35.1149C36.8457 34.9084 36.754 34.725 36.6164 34.5644L35.5617 33.5094C34.8968 32.8442 34.7363 31.858 35.149 31.0323C35.3324 30.6653 35.4929 30.2984 35.6075 29.9084C35.9056 29.0369 36.731 28.4406 37.6711 28.4406H39.1614C39.3678 28.4406 39.5512 28.3488 39.7117 28.2112C39.8493 28.0736 39.941 27.8672 39.941 27.6607V26.3993C39.941 25.9635 39.5971 25.6195 39.1614 25.6195H37.6711C36.731 25.6195 35.9056 25.0231 35.6075 24.1516C35.47 23.7617 35.3324 23.3947 35.149 23.0277C34.7363 22.202 34.9197 21.2158 35.5617 20.5506L36.6164 19.4956C36.9145 19.1974 36.9145 18.6928 36.6164 18.3947L35.7222 17.5002C35.4241 17.202 34.9197 17.202 34.6216 17.5002L33.5669 18.5552C32.902 19.2204 31.9161 19.3809 31.0907 18.9681C30.7238 18.7846 30.357 18.624 29.9672 18.5094C29.0959 18.2112 28.4998 17.3855 28.4998 16.4451V15.0002C28.4998 14.5644 28.1559 14.2204 27.7202 14.2204H26.4592C26.0235 14.2204 25.6796 14.5644 25.6796 15.0002V16.491C25.6796 17.4314 25.0835 18.2571 24.2122 18.5552C23.8224 18.6928 23.4556 18.8305 23.0887 19.0139C22.2633 19.4268 21.2774 19.2433 20.6125 18.6011L19.5578 17.5231C19.2597 17.225 18.7553 17.225 18.4572 17.5231L17.563 18.4176C17.4254 18.5782 17.3337 18.7617 17.3337 18.9681C17.3337 19.1745 17.4254 19.358 17.563 19.5185L18.6177 20.5736C19.2826 21.2387 19.4431 22.225 19.0304 23.0506C18.847 23.4176 18.6865 23.7846 18.5718 24.1745C18.2738 25.0461 17.4484 25.6424 16.5083 25.6424H15.018C14.5823 25.6424 14.2384 25.9864 14.2384 26.4222V27.6837C14.2384 28.1195 14.5823 28.4635 15.018 28.4635H16.5083C17.4484 28.4635 18.2738 29.0598 18.5718 29.9314C18.7094 30.3213 18.847 30.6883 19.0304 31.0552C19.4431 31.8809 19.2597 32.8672 18.6177 33.5323L17.563 34.5873C17.2649 34.8855 17.2649 35.3901 17.563 35.6883L18.4572 36.5828C18.5948 36.7204 18.8011 36.8121 19.0075 36.8121C19.2138 36.8121 19.3973 36.7204 19.5578 36.5828L20.6125 35.5277C21.0252 35.0919 21.5754 34.8626 22.1487 34.8626ZM27.0782 32.2479C25.7025 32.2479 24.3956 31.6974 23.4097 30.7341C22.4238 29.7479 21.8964 28.4406 21.8964 27.0644C21.8964 25.6883 22.4467 24.3809 23.4097 23.3947C24.3956 22.4084 25.7025 21.8809 27.0782 21.8809C28.4539 21.8809 29.7608 22.4314 30.7468 23.3947C31.7327 24.3809 32.26 25.6883 32.26 27.0644C32.26 28.4406 31.7097 29.7479 30.7468 30.7341C29.7608 31.6974 28.4539 32.2479 27.0782 32.2479ZM27.0782 23.2571C26.0694 23.2571 25.1064 23.647 24.3956 24.358C23.6849 25.069 23.2951 26.0323 23.2951 27.0415C23.2951 28.0506 23.6849 29.0139 24.3956 29.725C25.1064 30.436 26.0694 30.8259 27.0782 30.8259C28.0871 30.8259 29.0501 30.436 29.7608 29.725C30.4716 29.0139 30.8614 28.0506 30.8614 27.0415C30.8614 26.0323 30.4716 25.069 29.7608 24.358C29.0501 23.647 28.0871 23.2571 27.0782 23.2571Z" fill="#1C1D21"/>
<path d="M59.7052 65.2752C59.5217 65.2752 59.3383 65.2064 59.2007 65.0688C58.9256 64.7935 58.9256 64.3577 59.2007 64.0825L61.8146 61.4678C62.0897 61.1926 62.5253 61.1926 62.8005 61.4678C63.0756 61.7431 63.0756 62.1788 62.8005 62.4541L60.1867 65.0688C60.0491 65.2064 59.8886 65.2752 59.7052 65.2752Z" fill="#1C1D21"/>
</svg>
