<svg width="595" height="433" viewBox="0 0 595 433" fill="none" xmlns="http://www.w3.org/2000/svg">
<path opacity="0.38" d="M113.048 432.344C113.048 432.344 10.9374 361.624 63.9558 294.674C116.974 227.723 222.034 251.498 326.116 210.813C430.198 170.128 470.543 154.732 508.529 190.655C545.655 225.754 476.34 293.529 524.455 352.353C576.496 415.989 510.248 427.548 497.71 432.361H113.048V432.344Z" fill="#DEE2E7"/>
<path d="M219.236 223.314C194.631 240.326 181.891 250.859 179.632 224.98C174.071 161.159 119.081 127.625 79.0221 127.642" stroke="#80A5F9" stroke-width="1.0183" stroke-miterlimit="10" stroke-linecap="round" stroke-linejoin="round" stroke-dasharray="2.04 2.04"/>
<path d="M58.4787 116.486C58.3271 116.385 68.6578 116.621 68.6578 116.621L74.1854 130.502L64.8659 123.149L53.9959 127.019L32.3571 122.106L58.4787 116.486Z" fill="#5B84F8"/>
<path d="M32.3571 122.106L74.1686 130.502L64.8659 123.149L32.3571 122.106Z" fill="#4174E5"/>
<path d="M32.3571 122.106L73.1574 108.528L68.6577 116.621L32.3571 122.106L64.8659 123.149L57.3833 137.25L32.3571 122.106Z" fill="#80A5F9"/>
<path d="M424.839 54.3815H391.437C386.971 54.3815 383.364 50.7807 383.364 46.3219C383.364 41.863 386.971 38.2622 391.437 38.2622H424.839C429.305 38.2622 432.911 41.863 432.911 46.3219C432.911 50.7639 429.288 54.3815 424.839 54.3815Z" fill="#06D2FF"/>
<path d="M401.329 46.3372C401.329 47.4814 400.419 48.4068 399.273 48.4068C398.127 48.4068 397.2 47.4982 397.2 46.354C397.2 45.2099 398.11 44.2844 399.256 44.2844C400.402 44.2844 401.329 45.193 401.329 46.3372Z" fill="white"/>
<path d="M410.194 46.305C410.194 47.4491 409.284 48.3746 408.138 48.3746C406.992 48.3746 406.065 47.4491 406.065 46.3218C406.065 45.1776 406.975 44.2522 408.121 44.2522C409.267 44.2522 410.194 45.1776 410.194 46.305Z" fill="white"/>
<path d="M419.058 46.2881C419.058 47.4323 418.148 48.3577 417.002 48.3577C415.856 48.3577 414.929 47.4323 414.929 46.3049C414.929 45.1608 415.839 44.2353 416.985 44.2353C418.131 44.2185 419.058 45.1439 419.058 46.2881Z" fill="white"/>
<path d="M113.527 211.9C116.853 191.256 102.79 171.82 82.1147 168.488C61.4397 165.156 41.9828 179.19 38.6564 199.834C35.33 220.478 49.3938 239.915 70.0688 243.247C90.7437 246.579 110.201 232.544 113.527 211.9Z" fill="#06D2FF"/>
<path d="M60.5853 215.002L69.2476 206.354L60.5853 199.926V215.002Z" fill="white"/>
<path d="M80.6737 207.935L76.0224 211.385L71.2868 207.868L63.1301 216.18H88.881L80.6737 207.935Z" fill="white"/>
<path d="M82.814 206.354L91.4594 214.986V199.926L82.814 206.354Z" fill="white"/>
<path d="M76.0899 208.457L91.527 196.982V193.246H60.636V196.982L76.0899 208.457Z" fill="white"/>
<path d="M503.827 151.955H443.309C437.428 151.955 432.658 147.194 432.658 141.321V85.1395C432.658 80.6974 436.265 77.0798 440.731 77.0798H503.827C508.276 77.0798 511.9 80.6806 511.9 85.1395V143.896C511.9 148.338 508.276 151.955 503.827 151.955Z" fill="#FFD943"/>
<path d="M483.992 92.2063L491.036 93.2663L470.998 106.239L467.257 101.175L452.292 109.874" stroke="white" stroke-width="1.4507" stroke-miterlimit="10" stroke-linecap="round" stroke-linejoin="round"/>
<path d="M488.525 100.081L491.036 93.2664" stroke="white" stroke-width="1.4507" stroke-miterlimit="10" stroke-linecap="round" stroke-linejoin="round"/>
<path d="M460.954 119.851H453.909V133.8H460.954V119.851Z" fill="white"/>
<path d="M470.779 115.763H463.735V133.8H470.779V115.763Z" fill="white"/>
<path d="M480.857 111.422H473.813V133.8H480.857V111.422Z" fill="white"/>
<path d="M491.036 107.72H483.992V133.8H491.036V107.72Z" fill="white"/>
<path d="M218.14 116.281H118.353C110.542 116.281 104.213 109.962 104.213 102.164V29.7388C104.213 23.8229 109.016 19.0498 114.919 19.0498H218.14C224.065 19.0498 228.846 23.8453 228.846 29.7388V105.57C228.869 111.486 224.065 116.281 218.14 116.281Z" fill="#5B84F8"/>
<path d="M197.581 43.9237L192.037 42.8256C191.88 42.8032 191.723 42.6464 191.678 42.4671L190.579 36.9321C190.444 36.2823 189.973 36.1478 189.501 36.6184L181.511 44.5959C181.287 44.82 181.152 45.2682 181.197 45.6043L181.982 49.5707L163.017 68.1923C162.209 68.9991 162.209 70.3212 163.017 71.1279C163.825 71.9346 165.149 71.9346 165.957 71.1279L184.923 52.5062L188.895 53.2905C189.21 53.3577 189.658 53.2233 189.905 52.9768L197.895 44.9993C198.367 44.5287 198.232 44.0581 197.581 43.9237Z" fill="white"/>
<path d="M170.94 57.4808L174.419 54.0074C174.553 53.873 174.531 53.6937 174.374 53.6041C171.411 51.8562 168.089 51.0046 164.768 51.0046C159.92 51.0046 155.049 52.8646 151.346 56.562C143.939 63.9569 143.939 75.968 151.346 83.3629C155.049 87.0603 159.92 88.9203 164.768 88.9203C169.616 88.9203 174.486 87.0603 178.189 83.3629C184.429 77.1333 185.416 67.6319 181.13 60.3715C181.04 60.2146 180.86 60.1922 180.726 60.3267L177.247 63.8C177.112 63.9345 177.067 64.1586 177.157 64.3379C177.965 66.0857 178.391 67.9905 178.391 69.9625C178.391 73.5927 176.977 76.9988 174.396 79.5758C171.815 82.1528 168.404 83.5646 164.768 83.5646C161.132 83.5646 157.72 82.1528 155.139 79.5758C149.82 74.2649 149.82 65.66 155.139 60.3491C157.72 57.7721 161.132 56.3603 164.768 56.3603C166.743 56.3603 168.651 56.7861 170.401 57.5928C170.558 57.66 170.805 57.6152 170.94 57.4808Z" fill="white"/>
<path d="M190.781 56.2935L187.234 59.834C187.1 59.9685 187.055 60.1926 187.145 60.3718C188.424 63.3522 189.097 66.6015 189.097 69.9404C189.097 76.4389 186.561 82.5341 181.96 87.1279C177.359 91.7217 171.254 94.2539 164.745 94.2539C158.236 94.2539 152.132 91.7217 147.53 87.1279C138.037 77.649 138.037 62.2318 147.53 52.7529C152.132 48.1591 158.236 45.6269 164.745 45.6269C168.089 45.6269 171.344 46.2991 174.329 47.5764C174.486 47.6437 174.733 47.5989 174.868 47.4644L178.414 43.9238C178.548 43.7894 178.526 43.6325 178.346 43.5429C174.082 41.3468 169.414 40.2488 164.745 40.2488C157.137 40.2488 149.55 43.1395 143.737 48.9434C132.134 60.5287 132.134 79.3073 143.737 90.8926C149.528 96.674 157.137 99.5872 164.745 99.5872C172.354 99.5872 179.94 96.6965 185.753 90.8926C195.112 81.5481 196.93 67.4978 191.162 56.3383C191.095 56.2038 190.915 56.1814 190.781 56.2935Z" fill="white"/>
<path d="M94.8299 346.026H88.4933C86.8249 346.026 85.4767 344.68 85.4767 343.015V337.075C85.4767 335.409 86.8249 334.063 88.4933 334.063H94.8299C96.4984 334.063 97.8466 335.409 97.8466 337.075V343.015C97.8466 344.68 96.4984 346.026 94.8299 346.026Z" fill="#4084FB"/>
<path d="M555.7 335.914H486.469C484.8 335.914 483.452 334.568 483.452 332.902C483.452 331.236 484.8 329.89 486.469 329.89H555.7C557.368 329.89 558.716 331.236 558.716 332.902C558.716 334.568 557.368 335.914 555.7 335.914Z" fill="#FFD943"/>
<path opacity="0.38" d="M397.285 108.511H367.371C364.793 108.511 362.703 106.424 362.703 103.85C362.703 101.276 364.793 99.1892 367.371 99.1892H397.285C399.863 99.1892 401.953 101.276 401.953 103.85C401.953 106.424 399.863 108.511 397.285 108.511Z" fill="#DEE2E7"/>
<path opacity="0.38" d="M223.803 153.84H180.492C177.914 153.84 175.824 151.754 175.824 149.179C175.824 146.605 177.914 144.518 180.492 144.518H223.803C226.382 144.518 228.472 146.605 228.472 149.179C228.472 151.754 226.382 153.84 223.803 153.84Z" fill="#DEE2E7"/>
<path d="M85.4918 297.786H36.3326C34.7653 297.786 33.4845 299.065 33.4845 300.63V300.966C33.4845 302.531 34.7653 303.81 36.3326 303.81H85.4918C87.0591 303.81 88.3399 302.531 88.3399 300.966V300.63C88.3399 299.065 87.076 297.786 85.4918 297.786Z" fill="#FFD943"/>
<path d="M522.803 302.969H497.659C496.092 302.969 494.811 304.248 494.811 305.812V306.149C494.811 307.714 496.092 308.992 497.659 308.992H522.803C524.37 308.992 525.651 307.714 525.651 306.149V305.812C525.651 304.248 524.37 302.969 522.803 302.969Z" fill="#5B84F8"/>
<path d="M574.073 148.557C574.073 151.299 571.848 153.52 569.101 153.52C566.354 153.52 564.13 151.299 564.13 148.557C564.13 145.814 566.354 143.593 569.101 143.593C571.848 143.593 574.073 145.814 574.073 148.557Z" fill="#FFD943"/>
<path d="M347.114 4.96367C347.114 7.7063 344.89 9.92733 342.143 9.92733C339.396 9.92733 337.171 7.7063 337.171 4.96367C337.171 2.22103 339.396 0 342.143 0C344.89 0 347.114 2.22103 347.114 4.96367Z" fill="#5B84F8"/>
<path opacity="0.38" d="M546.195 45.0601C546.195 48.8627 543.111 51.9419 539.302 51.9419C535.493 51.9419 532.409 48.8627 532.409 45.0601C532.409 41.2574 535.493 38.1782 539.302 38.1782C543.111 38.1782 546.195 41.2574 546.195 45.0601Z" stroke="#CED3D8" stroke-width="2.0366" stroke-miterlimit="10"/>
<path opacity="0.38" d="M50.8548 350.065C50.8548 353.867 47.7707 356.947 43.962 356.947C40.1533 356.947 37.0693 353.867 37.0693 350.065C37.0693 346.262 40.1533 343.183 43.962 343.183C47.7707 343.2 50.8548 346.279 50.8548 350.065Z" stroke="#CED3D8" stroke-width="2.0366" stroke-miterlimit="10"/>
<path opacity="0.38" d="M72.0451 63.0471C72.0451 66.1767 69.5172 68.7006 66.3826 68.7006C63.2481 68.7006 60.7202 66.1767 60.7202 63.0471C60.7202 59.9175 63.2481 57.3936 66.3826 57.3936C69.5172 57.3936 72.0451 59.9343 72.0451 63.0471Z" fill="#DEE2E7"/>
<path opacity="0.38" d="M534.551 242.402C534.551 245.531 532.023 248.055 528.888 248.055C525.753 248.055 523.226 245.531 523.226 242.402C523.226 239.272 525.753 236.748 528.888 236.748C532.006 236.748 534.551 239.272 534.551 242.402Z" fill="#DEE2E7"/>
<path d="M464.39 432.007L145.959 432.26C133.893 432.276 124.118 422.517 124.101 410.47L486.214 410.184C486.214 422.231 476.457 432.007 464.39 432.007Z" fill="#0066DE"/>
<path d="M464.392 424.503L145.944 424.755C136.523 424.755 128.518 418.816 125.451 410.47H124.086C124.103 422.517 133.878 432.26 145.944 432.26L464.375 432.007C476.442 431.99 486.199 422.231 486.199 410.184H484.834C481.801 418.53 473.796 424.503 464.392 424.503Z" fill="#4084FB"/>
<path d="M325.728 417.621L284.591 417.655C280.546 417.655 277.277 414.39 277.277 410.369L333.042 410.318C333.042 414.34 329.773 417.604 325.728 417.621Z" fill="#0042B6"/>
<path d="M467.577 410.201L142.742 410.453L142.59 214.7C142.574 203.477 151.691 194.357 162.948 194.357L447.05 194.138C458.291 194.121 467.425 203.224 467.425 214.464L467.577 410.201Z" fill="#4084FB"/>
<path d="M450.59 211.149H159.578V393.425H450.59V211.149Z" fill="white"/>
<path opacity="0.16" d="M450.64 375.994H159.628V393.425H450.64V375.994Z" fill="#D3D4DD"/>
<path opacity="0.16" d="M450.522 211.149H159.51V219.798H450.522V211.149Z" fill="#D3D4DD"/>
<g opacity="0.8">
<path opacity="0.38" d="M256.548 211.182L159.578 308.167L159.645 393.525H159.847L342.261 211.114L256.548 211.182Z" fill="#DEE2E7"/>
<path opacity="0.38" d="M186.761 393.509L239.999 393.476L422.412 211.065L369.174 211.099L186.761 393.509Z" fill="#DEE2E7"/>
<path opacity="0.38" d="M416.412 393.341L450.623 359.134L450.573 305.98L363.175 393.375L416.412 393.341Z" fill="#DEE2E7"/>
</g>
<path d="M33.2867 431.962L544.03 431.962" stroke="#243853" stroke-width="0.8763" stroke-miterlimit="10"/>
<path d="M282.417 255.99L283.428 269.081H320.201L322.189 256.495L282.417 255.99Z" fill="#06D2FF"/>
<path d="M264.233 141.708L246.723 167.452C240.42 176.723 237.033 187.643 236.999 198.85L236.864 241.285L273.957 202.046L264.233 141.708Z" fill="#0042B6"/>
<path opacity="0.63" d="M263.963 132.942C263.963 132.942 245.863 190.184 255.335 231.761L274.648 208.726L269.07 137.687L263.963 132.942Z" fill="#E2E2E2"/>
<path d="M340.019 141.961L357.361 167.822C363.596 177.127 366.916 188.081 366.882 199.287L366.748 241.722L329.908 202.232L340.019 141.961Z" fill="#0042B6"/>
<path opacity="0.63" d="M336.211 122.392C336.211 122.392 356.569 185.978 349.642 232.283L324.667 199.506L335.284 138.377L336.211 122.392Z" fill="#E2E2E2"/>
<path d="M300.331 15.2612C300.331 15.2612 278.49 54.4153 266.71 125.152C254.913 195.888 265.244 236.994 265.244 236.994H339.783C339.783 236.994 358.119 110.328 300.331 15.2612Z" fill="#06D2FF"/>
<path d="M325.391 126.952C325.341 140.076 314.656 150.677 301.511 150.626C288.366 150.576 277.749 139.908 277.799 126.784C277.85 113.659 288.534 103.059 301.68 103.11C314.808 103.16 325.425 113.828 325.391 126.952Z" fill="white"/>
<path d="M316.695 126.918C316.662 135.483 309.701 142.398 301.123 142.365C292.545 142.331 285.619 135.382 285.653 126.817C285.686 118.253 292.646 111.338 301.224 111.371C309.802 111.405 316.729 118.354 316.695 126.918Z" fill="#0042B6"/>
<path opacity="0.46" d="M285.653 126.817C285.686 118.253 292.646 111.338 301.224 111.371C309.802 111.405 316.729 118.354 316.695 126.918C316.662 135.483 309.701 142.398 301.123 142.365C292.545 142.348 285.619 135.382 285.653 126.817Z" fill="url(#paint0_linear)"/>
<path d="M280.226 236.893H324.633L328.071 259.49L276.788 259.339L280.226 236.893Z" fill="#0042B6"/>
<path d="M283.361 269.081L252.975 393.459L350.636 393.341L320.133 269.081H283.361Z" fill="#FFD943"/>
<path d="M291.399 269.081L276.721 393.526L327.06 393.358L311.774 269.081H291.399Z" fill="#FFE083"/>
<path d="M291.871 269.081C291.871 269.081 274.041 302.851 302 331.304C302 331.304 328.256 310.911 312.078 269.081H291.871Z" fill="#FF9600"/>
<path d="M294.736 269.081C294.736 269.081 283.344 293.681 302.37 310.641C302.37 310.641 318.852 297.45 309.229 269.081H294.736Z" fill="#FFD943"/>
<path d="M297.18 269.081C297.18 269.081 290.203 284.124 301.848 294.505C301.848 294.505 311.943 286.446 306.044 269.081H297.18Z" fill="#FF9600"/>
<path d="M239.999 363.845C239.999 368.371 236.325 372.039 231.791 372.039C227.258 372.039 223.584 368.371 223.584 363.845C223.584 359.319 227.258 355.651 231.791 355.651C236.325 355.651 239.999 359.319 239.999 363.845Z" fill="#FFD943"/>
<path d="M368.551 354.086C368.551 357.35 365.888 360.009 362.619 360.009C359.349 360.009 356.687 357.35 356.687 354.086C356.687 350.822 359.349 348.163 362.619 348.163C365.888 348.163 368.551 350.822 368.551 354.086Z" fill="#FFD943"/>
<path d="M246.167 377.138C246.167 378.905 244.734 380.335 242.965 380.335C241.195 380.335 239.763 378.905 239.763 377.138C239.763 375.371 241.195 373.941 242.965 373.941C244.734 373.941 246.167 375.371 246.167 377.138Z" fill="#FFD943"/>
<path d="M362.619 375.455C362.619 377.222 361.186 378.652 359.417 378.652C357.647 378.652 356.215 377.222 356.215 375.455C356.215 373.688 357.647 372.258 359.417 372.258C361.186 372.258 362.619 373.688 362.619 375.455Z" fill="#FFD943"/>
<path d="M387.173 374.059C387.173 375.808 385.741 377.239 383.988 377.239C382.235 377.239 380.803 375.808 380.803 374.059C380.803 372.309 382.235 370.878 383.988 370.878C385.741 370.878 387.173 372.309 387.173 374.059Z" fill="#FFD943"/>
<path d="M220.787 383.044C220.787 384.81 219.354 386.241 217.585 386.241C215.815 386.241 214.383 384.81 214.383 383.044C214.383 381.277 215.815 379.847 217.585 379.847C219.354 379.847 220.787 381.277 220.787 383.044Z" fill="#FFD943"/>
<defs>
<linearGradient id="paint0_linear" x1="310.683" y1="139.128" x2="291.707" y2="114.587" gradientUnits="userSpaceOnUse">
<stop offset="0.142" stop-color="#001274"/>
<stop offset="0.3221" stop-color="#001777" stop-opacity="0.6855"/>
<stop offset="0.5457" stop-color="#002781" stop-opacity="0.295"/>
<stop offset="0.7146" stop-color="#00378C" stop-opacity="0"/>
</linearGradient>
</defs>
</svg>
