<svg width="391" height="401" viewBox="0 0 391 401" fill="none" xmlns="http://www.w3.org/2000/svg">
<mask id="mask0" mask-type="alpha" maskUnits="userSpaceOnUse" x="0" y="0" width="391" height="401">
<rect x="0.0585938" width="390.883" height="401" fill="#C4C4C4"/>
</mask>
<g mask="url(#mask0)">
<path d="M357.833 387.678C356.239 387.678 354.681 387.841 353.159 388.094C348.013 371.718 332.686 359.824 314.569 359.824C303.263 359.824 293.063 364.451 285.726 371.916C285.762 371.284 285.78 370.651 285.78 370C285.78 347.732 267.681 329.675 245.36 329.675C237.57 329.675 230.305 331.88 224.127 335.676C223.221 320.402 213.818 307.424 200.574 301.387V238.847H164.883V302.435C154.773 307.785 147.218 317.257 144.482 328.626C137.507 322.933 128.593 319.498 118.883 319.498C101.218 319.498 86.2169 330.795 80.7092 346.539C74.966 344.171 68.6611 342.851 62.0664 342.851C35.0352 342.851 13.1312 364.704 13.1312 391.673C13.1312 418.641 35.0352 440.494 62.0664 440.494C77.593 440.494 91.4347 433.264 100.403 422.003C107.469 433.734 120.35 441.596 135.08 441.596C149.646 441.596 162.419 433.896 169.539 422.364C176.605 428.383 185.754 432.017 195.773 432.017C205.502 432.017 214.434 428.582 221.409 422.87C228.239 435.523 241.628 444.127 257.028 444.127C269.239 444.127 280.182 438.722 287.592 430.173C294.748 436.59 304.224 440.494 314.605 440.494C323.084 440.494 330.947 437.891 337.433 433.444C342.47 439.03 349.735 442.554 357.851 442.554C373.034 442.554 385.353 430.263 385.353 415.116C385.335 399.969 373.016 387.678 357.833 387.678Z" fill="white" stroke="#044072" stroke-width="1.4042" stroke-miterlimit="10"/>
<path opacity="0.1" d="M357.579 412.278C356.184 412.278 354.826 412.423 353.503 412.658C349.01 398.324 335.603 387.931 319.75 387.931C309.858 387.931 300.944 391.98 294.513 398.505C294.531 397.945 294.549 397.402 294.549 396.842C294.549 377.357 278.714 361.559 259.184 361.559C252.372 361.559 246.012 363.493 240.613 366.819C239.526 348.31 224.145 333.633 205.321 333.633C188.653 333.633 174.684 345.147 170.952 360.637C164.846 355.649 157.056 352.648 148.559 352.648C133.105 352.648 119.988 362.535 115.169 376.309C110.15 374.248 104.642 373.091 98.8628 373.091C75.2196 373.091 56.0695 392.215 56.0695 415.785C56.0695 439.373 75.2377 458.479 98.8628 458.479C112.451 458.479 124.553 452.152 132.398 442.301C138.576 452.568 149.845 459.437 162.727 459.437C175.481 459.437 186.642 452.695 192.874 442.609C199.052 447.869 207.06 451.05 215.811 451.05C224.326 451.05 232.135 448.049 238.24 443.042C244.201 454.104 255.923 461.624 269.402 461.624C280.091 461.624 289.657 456.888 296.143 449.423C302.412 455.044 310.692 458.461 319.768 458.461C327.178 458.461 334.063 456.183 339.752 452.297C344.155 457.177 350.514 460.268 357.616 460.268C370.896 460.268 381.676 449.531 381.676 436.264C381.676 422.997 370.86 412.278 357.579 412.278Z" fill="#454545"/>
<path d="M209.433 126.111C209.433 126.111 210.158 182.994 256.049 208.661C256.049 208.661 265.778 211.445 265.09 231.544V250.578H209.433V126.111Z" fill="#86D7FD" stroke="#044072" stroke-width="1.4042" stroke-miterlimit="10"/>
<path d="M158.759 126.111C158.759 126.111 158.034 182.994 112.143 208.661C112.143 208.661 102.414 211.445 103.102 231.544V250.578H158.759V126.111Z" fill="#86D7FD" stroke="#044072" stroke-width="1.4042" stroke-miterlimit="10"/>
<path d="M209.433 261.676H158.396V122.424C158.396 102.126 163.216 82.1163 172.456 64.041C177.239 54.6961 190.609 54.6961 195.392 64.041C204.632 82.1163 209.451 102.126 209.451 122.424V261.676H209.433Z" fill="white" stroke="#044072" stroke-width="1.4042" stroke-miterlimit="10"/>
<path opacity="0.5" d="M256.049 208.661C210.158 182.994 209.433 126.111 209.433 126.111V182.615C216.336 194.725 226.554 206.582 241.7 215.06C241.7 215.06 251.429 217.843 250.741 237.943V250.578H265.09V231.544C265.796 211.427 256.049 208.661 256.049 208.661Z" fill="#86D7FD"/>
<path opacity="0.3" d="M113.791 250.578V242.209C113.103 222.091 122.832 219.325 122.832 219.325C140.913 209.203 151.983 194.237 158.759 179.831V126.111C158.759 126.111 158.034 182.994 112.143 208.661C112.143 208.661 102.414 211.445 103.102 231.544V250.578H113.791Z" fill="#FCFCFC"/>
<path d="M142.725 261.676H123.267V249.909C123.267 243.366 125.278 236.985 129.046 231.635C130.966 228.887 135.043 228.887 136.963 231.635C140.714 236.985 142.743 243.366 142.743 249.909V261.676H142.725Z" fill="#51F496" stroke="#044072" stroke-width="1.4042" stroke-miterlimit="10"/>
<path d="M242.841 261.676H223.365V249.909C223.365 243.366 225.376 236.985 229.145 231.635C231.065 228.887 235.142 228.887 237.062 231.635C240.812 236.985 242.841 243.366 242.841 249.909V261.676Z" fill="#51F496" stroke="#044072" stroke-width="1.4042" stroke-miterlimit="10"/>
<path d="M163.343 87.1412H205.538" stroke="#044072" stroke-width="1.4042" stroke-miterlimit="10"/>
<path d="M237.08 231.635C235.486 229.357 232.442 228.996 230.341 230.496C230.775 230.803 231.192 231.165 231.518 231.635C235.269 236.985 237.298 243.366 237.298 249.909V261.676H242.86V249.909C242.842 243.384 240.831 237.003 237.08 231.635Z" fill="#19BC5D"/>
<path d="M137.652 231.635C136.057 229.357 133.014 228.996 130.912 230.496C131.347 230.803 131.764 231.165 132.09 231.635C135.84 236.985 137.869 243.366 137.869 249.909V261.676H143.431V249.909C143.413 243.384 141.402 237.003 137.652 231.635Z" fill="#19BC5D"/>
<path d="M163.361 87.1412C160.082 98.5829 158.397 110.44 158.397 122.424V261.676H209.452V122.424C209.452 110.458 207.767 98.5829 204.488 87.1412H163.361Z" fill="#51F496" stroke="#044072" stroke-width="1.4042" stroke-miterlimit="10"/>
<path d="M183.145 199.768C176.931 199.768 171.894 194.743 171.894 188.543V148.742C171.894 142.542 176.931 137.517 183.145 137.517C189.359 137.517 194.396 142.542 194.396 148.742V188.543C194.378 194.743 189.341 199.768 183.145 199.768Z" fill="white" stroke="#044072" stroke-width="1.4042" stroke-miterlimit="10"/>
<path d="M337.922 418.37C336.69 418.37 335.476 418.496 334.298 418.695C330.313 405.97 318.41 396.752 304.332 396.752C295.563 396.752 287.628 400.349 281.939 406.133C281.957 405.645 281.975 405.157 281.975 404.651C281.975 387.353 267.916 373.344 250.596 373.344C244.545 373.344 238.91 375.062 234.109 378.008C233.149 361.577 219.488 348.563 202.784 348.563C187.982 348.563 175.59 358.776 172.275 372.531C166.857 368.103 159.937 365.445 152.4 365.445C138.685 365.445 127.035 374.212 122.76 386.449C118.303 384.605 113.411 383.593 108.284 383.593C87.3038 383.593 70.2916 400.566 70.2916 421.497C70.2916 442.428 87.3038 459.401 108.284 459.401C120.35 459.401 131.076 453.779 138.033 445.049C143.522 454.159 153.523 460.25 164.955 460.25C176.278 460.25 186.189 454.267 191.714 445.32C197.204 449.983 204.306 452.821 212.078 452.821C219.633 452.821 226.572 450.164 231.989 445.718C237.28 455.532 247.679 462.22 259.637 462.22C269.112 462.22 277.609 458.027 283.37 451.393C288.932 456.382 296.27 459.419 304.332 459.419C310.909 459.419 317.014 457.394 322.051 453.942C325.964 458.28 331.599 461.009 337.904 461.009C349.698 461.009 359.246 451.466 359.246 439.717C359.246 427.968 349.716 418.37 337.922 418.37Z" fill="white" stroke="#044072" stroke-width="1.2795" stroke-miterlimit="10"/>
<path opacity="0.5" d="M204.469 87.1412H192.439C195.719 98.5829 197.404 110.44 197.404 122.424V261.676H209.434V122.424C209.434 110.44 207.749 98.5829 204.469 87.1412Z" fill="#19BC5D"/>
<path opacity="0.2" d="M171.894 87.1412H163.361C160.082 98.5829 158.397 110.44 158.397 122.424V261.676H166.93V122.424C166.93 110.44 168.615 98.5829 171.894 87.1412Z" fill="#FCFCFC"/>
<path d="M200.955 210.071V240.781C200.955 246.203 196.552 250.578 191.135 250.578H184.468" stroke="#454545" stroke-width="1.6337" stroke-miterlimit="10" stroke-linecap="round"/>
<path d="M199.179 203.564C199.179 204.54 199.958 205.317 200.937 205.317C201.915 205.317 202.694 204.54 202.694 203.564C202.694 202.588 201.915 201.811 200.937 201.811C199.976 201.811 199.179 202.606 199.179 203.564Z" fill="#454545"/>
</g>
</svg>
