<svg width="14" height="14" viewBox="0 0 14 14" fill="none" xmlns="http://www.w3.org/2000/svg">
<path d="M13.5064 8.16944C13.5782 7.77466 13.6167 7.3711 13.6167 6.96754C13.6167 6.07269 13.4417 5.20416 13.0969 4.38827C12.7643 3.5987 12.2865 2.88984 11.6792 2.28099C11.077 1.67569 10.363 1.19358 9.57719 0.861512C8.76159 0.515854 7.89699 0.340393 7.00437 0.340393C6.58432 0.340393 6.16252 0.380749 5.75297 0.459707C5.18628 0.158657 4.55484 0.000853079 3.91349 0C2.86862 0 1.88499 0.408823 1.1464 1.14927C0.781942 1.51276 0.492972 1.94509 0.296201 2.42123C0.099429 2.89738 -0.00124085 3.40791 1.15432e-05 3.9233C1.15432e-05 4.59005 0.171533 5.24627 0.491822 5.82529C0.427064 6.20078 0.39206 6.58504 0.39206 6.96754C0.39206 7.86239 0.567082 8.73092 0.911874 9.54681C1.24442 10.3364 1.72047 11.0452 2.3278 11.6541C2.93512 12.2629 3.64221 12.7402 4.42981 13.0736C5.24541 13.4192 6.11001 13.5947 7.00262 13.5947C7.39117 13.5947 7.77972 13.5596 8.16127 13.4912C8.74759 13.8228 9.40917 14 10.0865 14C11.1314 14 12.115 13.5929 12.8536 12.8507C13.5939 12.1103 14 11.1242 14 10.0767C14.0017 9.40995 13.8302 8.75197 13.5064 8.16944ZM7.03063 11.0277C4.68184 11.0277 3.63171 9.86966 3.63171 9.00288C3.63171 8.55721 3.959 8.24665 4.41055 8.24665C5.41518 8.24665 5.15615 9.6942 7.03063 9.6942C7.9915 9.6942 8.52181 9.17132 8.52181 8.63617C8.52181 8.31508 8.36429 7.95714 7.73071 7.80098L5.64096 7.2781C3.959 6.85524 3.65271 5.94285 3.65271 5.0866C3.65271 3.30743 5.32417 2.63893 6.89411 2.63893C8.33979 2.63893 10.0445 3.44078 10.0445 4.50758C10.0445 4.96553 9.64895 5.23048 9.1974 5.23048C8.33979 5.23048 8.49731 4.04086 6.76985 4.04086C5.91224 4.04086 5.43793 4.43038 5.43793 4.98659C5.43793 5.5428 6.11527 5.72002 6.70334 5.85512L8.25053 6.19902C9.94474 6.57802 10.3735 7.56937 10.3735 8.50282C10.3735 9.94686 9.26565 11.0277 7.03063 11.0277Z" fill="#5D83A3"/>
</svg>
