<svg width="41" height="50" viewBox="0 0 41 50" fill="none" xmlns="http://www.w3.org/2000/svg">
<path d="M17.4956 19.9138L21.9708 16.6382C22.249 16.4346 22.3094 16.044 22.1059 15.7656C21.9018 15.4871 21.5112 15.4272 21.2333 15.6305L16.7577 18.9066C15.0155 16.832 12.4047 15.5101 9.48993 15.5101C4.25709 15.5101 0 19.7672 0 25C0 30.2329 4.25709 34.49 9.48993 34.49C14.7225 34.49 18.9796 30.2329 18.9796 25C18.9799 23.1292 18.4337 21.385 17.4956 19.9138ZM9.49018 33.241C4.94613 33.241 1.24896 29.5441 1.24896 24.9998C1.24896 20.4555 4.94613 16.7586 9.49018 16.7586C14.0342 16.7586 17.7311 20.4555 17.7311 24.9998C17.7311 29.5441 14.0342 33.241 9.49018 33.241Z" fill="#06589C"/>
<path d="M30.6802 18.9796C35.9131 18.9796 40.1702 14.7225 40.1702 9.48993C40.1702 4.2571 35.9131 0 30.6802 0C25.4476 0 21.1906 4.2571 21.1906 9.48993C21.1906 14.7225 25.4476 18.9796 30.6802 18.9796ZM30.6802 1.24871C35.2243 1.24871 38.9215 4.94563 38.9215 9.48993C38.9215 14.0342 35.2243 17.7309 30.6802 17.7309C26.1362 17.7309 22.4393 14.034 22.4393 9.48993C22.4393 4.94588 26.1362 1.24871 30.6802 1.24871Z" fill="#06589C"/>
<path d="M30.6803 31.02C27.7655 31.02 25.1547 32.3419 23.4125 34.4165L18.7244 30.9848C18.4464 30.7813 18.0558 30.8415 17.8518 31.1199C17.6482 31.3981 17.7087 31.7887 17.9869 31.9925L22.6748 35.424C21.7368 36.8952 21.1906 38.6394 21.1906 40.51C21.1906 45.7428 25.4477 49.9999 30.6803 49.9999C35.9131 49.9999 40.1702 45.7428 40.1702 40.51C40.1702 35.2771 35.9131 31.02 30.6803 31.02ZM30.6803 48.7509C26.1362 48.7509 22.4393 45.054 22.4393 40.5097C22.4393 35.9654 26.1362 32.2687 30.6803 32.2687C35.2243 32.2687 38.9215 35.9657 38.9215 40.5097C38.9215 45.0538 35.2243 48.7509 30.6803 48.7509Z" fill="#06589C"/>
<path d="M13.2716 29.9213H5.72317C5.37828 29.9213 5.09882 29.6418 5.09882 29.2969V25.7958C5.09882 24.5056 5.95043 23.4108 7.12097 23.0434C6.87398 22.6261 6.73762 22.1431 6.73762 21.6366C6.73762 20.1149 7.97559 18.877 9.49751 18.877C11.0194 18.877 12.2574 20.1149 12.2574 21.6366C12.2574 22.1428 12.121 22.6261 11.8741 23.0434C13.0446 23.4108 13.8962 24.5056 13.8962 25.7958V29.2969C13.896 29.6418 13.6165 29.9213 13.2716 29.9213ZM6.34752 28.6726H12.6473V25.7958C12.6473 24.8942 11.9135 24.1605 11.0119 24.1605H10.474C10.1858 24.1605 9.93506 23.9632 9.86713 23.6832C9.79945 23.4033 9.93182 23.1131 10.188 22.981C10.694 22.7205 11.0084 22.2053 11.0084 21.6366C11.0084 20.8035 10.3304 20.1257 9.49726 20.1257C8.66413 20.1257 7.98608 20.8035 7.98608 21.6366C7.98608 22.2053 8.3005 22.7205 8.80648 22.981C9.06271 23.1128 9.19533 23.403 9.1274 23.6832C9.05972 23.9634 8.80898 24.1605 8.52053 24.1605H7.98283C7.08127 24.1605 6.34752 24.8942 6.34752 25.7958V28.6726Z" fill="#34C872"/>
<path d="M34.4474 14.3837H26.899C26.5541 14.3837 26.2747 14.1042 26.2747 13.7593V10.2582C26.2747 8.96802 27.1263 7.87316 28.2968 7.50579C28.0498 7.08872 27.9135 6.60547 27.9135 6.09924C27.9135 4.57757 29.1514 3.3396 30.6734 3.3396C32.1953 3.3396 33.4332 4.57757 33.4332 6.09924C33.4332 6.60547 33.2969 7.08872 33.0499 7.50579C34.2204 7.87316 35.0721 8.96802 35.0721 10.2582V13.7593C35.0718 14.1042 34.7923 14.3837 34.4474 14.3837ZM27.5234 13.135H33.8231V10.2582C33.8231 9.35662 33.0894 8.62313 32.1878 8.62313H31.6498C31.3616 8.62313 31.1109 8.42584 31.043 8.14587C30.9753 7.86591 31.1077 7.57571 31.3639 7.4436C31.8699 7.18312 32.1843 6.6679 32.1843 6.09924C32.1843 5.26611 31.5062 4.58831 30.6731 4.58831C29.84 4.58831 29.1619 5.26611 29.1619 6.09924C29.1619 6.6679 29.4763 7.18312 29.9823 7.4436C30.2386 7.57547 30.3712 7.86566 30.3032 8.14587C30.2356 8.42608 29.9848 8.62313 29.6964 8.62313H29.1584C28.2569 8.62313 27.5231 9.35662 27.5231 10.2582V13.135H27.5234Z" fill="#34C872"/>
<path d="M34.4474 45.694H26.899C26.5541 45.694 26.2747 45.4145 26.2747 45.0696V41.5685C26.2747 40.2783 27.1263 39.1835 28.2968 38.8161C28.0498 38.3988 27.9135 37.9158 27.9135 37.4093C27.9135 35.8876 29.1514 34.6497 30.6734 34.6497C32.1953 34.6497 33.4332 35.8876 33.4332 37.4093C33.4332 37.9155 33.2969 38.3988 33.0499 38.8161C34.2204 39.1835 35.0721 40.2783 35.0721 41.5685V45.0696C35.0718 45.4145 34.7923 45.694 34.4474 45.694ZM27.5234 44.4453H33.8231V41.5685C33.8231 40.6669 33.0894 39.9332 32.1878 39.9332H31.6498C31.3616 39.9332 31.1109 39.7359 31.043 39.4559C30.9753 39.176 31.1077 38.8858 31.3639 38.7537C31.8699 38.4932 32.1843 37.978 32.1843 37.4093C32.1843 36.5762 31.5062 35.8984 30.6731 35.8984C29.84 35.8984 29.1619 36.5762 29.1619 37.4093C29.1619 37.978 29.4763 38.4932 29.9823 38.7537C30.2386 38.8855 30.3712 39.1757 30.3032 39.4559C30.2356 39.7361 29.9848 39.9332 29.6964 39.9332H29.1584C28.2569 39.9332 27.5231 40.6669 27.5231 41.5685V44.4453H27.5234Z" fill="#34C872"/>
</svg>
