<svg width="70" height="70" viewBox="0 0 70 70" fill="none" xmlns="http://www.w3.org/2000/svg">
<path d="M55.5323 65.2506H65.5519C68.0282 65.2506 70.0229 63.2545 70.0229 60.7766V57.1286C70.0229 54.146 68.1428 51.4846 65.3226 50.4751L59.5906 48.4331C58.0773 47.8825 57.7563 45.8635 59.0403 44.8999C61.5165 43.0644 63.1215 40.1277 63.1215 36.8238C63.1215 31.2715 58.6276 26.7747 53.0789 26.7747C50.809 26.7747 48.6996 27.5318 47.0259 28.8166H22.9512C21.2774 27.5318 19.168 26.7747 16.8981 26.7747C11.3724 26.7976 6.87848 31.2945 6.87848 36.8468C6.87848 40.1735 8.48346 43.1103 10.9597 44.9228C12.2666 45.8864 11.9227 47.9054 10.4094 48.4561L4.67737 50.498C1.88012 51.4846 0 54.146 0 57.1286V60.7766C0 63.2545 1.99476 65.2506 4.47101 65.2506H14.4907H55.5323Z" fill="#AAB1BA"/>
<path d="M55.4864 64.8376V59.4689C55.4864 55.8439 53.2165 52.6318 49.8002 51.4158L42.8759 48.9609C41.0416 48.2955 40.6518 45.8406 42.2109 44.6934C45.2145 42.4909 47.1634 38.9117 47.1634 34.8966C47.1634 28.1743 41.7294 22.7367 35.0115 22.7367C28.2935 22.7367 22.8595 28.1743 22.8595 34.8966C22.8595 38.9117 24.8084 42.4679 27.812 44.6934C29.394 45.8635 28.9813 48.3185 27.1471 48.9609L20.2227 51.4158C16.8064 52.6318 14.5365 55.8439 14.5365 59.4689V64.8376C14.5365 67.3155 16.5313 69.3116 19.0075 69.3116H51.0383C53.4687 69.3116 55.4864 67.3155 55.4864 64.8376Z" fill="#83E1E5"/>
<path d="M51.0154 69.9998H18.9846C16.1415 69.9998 13.8257 67.6826 13.8257 64.8376V59.4918C13.8257 55.5915 16.302 52.0811 19.9705 50.7734L26.8949 48.3184C27.5139 48.089 27.9496 47.5613 28.0413 46.8959C28.133 46.2535 27.8808 45.6341 27.3763 45.267C24.5332 43.1562 22.6531 39.9441 22.2404 36.4567C22.1946 36.0667 22.4697 35.7226 22.8595 35.6767C23.2493 35.6308 23.5932 35.9061 23.639 36.2961C24.0059 39.4164 25.6797 42.2843 28.2247 44.1657C29.1648 44.854 29.6233 45.9782 29.4628 47.1254C29.3023 48.2955 28.4998 49.2591 27.3993 49.6491L20.4749 52.1041C17.3567 53.2053 15.2702 56.188 15.2702 59.4918V64.8376C15.2702 66.9254 16.9669 68.6003 19.0305 68.6003H51.0612C53.1477 68.6003 54.8215 66.9025 54.8215 64.8376V59.4918C54.8215 56.188 52.735 53.2053 49.6168 52.1041L42.6924 49.6491C41.5919 49.2591 40.7894 48.2955 40.6289 47.1254C40.4455 45.9553 40.927 44.854 41.867 44.1657C44.7789 42.009 46.5444 38.5675 46.5444 34.9425C46.5444 28.6331 41.4084 23.4938 35.1032 23.4938C34.0714 23.4938 33.0626 23.6314 32.0766 23.9068C31.5264 24.0674 30.9761 24.2509 30.4487 24.4803C30.1048 24.6409 29.6921 24.4803 29.5316 24.1362C29.3711 23.792 29.5316 23.3791 29.8755 23.2185C30.4717 22.9431 31.0907 22.7367 31.7098 22.5531C32.8103 22.2548 33.9568 22.0942 35.1032 22.0942C42.188 22.0942 47.943 27.853 47.943 34.9425C47.943 39.0034 45.9941 42.8809 42.7154 45.2899C42.188 45.6799 41.9358 46.2765 42.0504 46.9189C42.1422 47.5842 42.5778 48.1119 43.1969 48.3414L50.1212 50.7963C53.7897 52.1041 56.266 55.6144 56.266 59.5148V64.8605C56.1743 67.6826 53.8585 69.9998 51.0154 69.9998Z" fill="#1C1D21"/>
<path d="M23.4098 31.9599C23.341 31.9599 23.2722 31.9599 23.2034 31.9369C22.8366 31.8222 22.6302 31.4322 22.7448 31.0651C23.3639 29.069 24.4874 27.2336 26.0007 25.7423C26.2758 25.4669 26.7114 25.4669 26.9866 25.7423C27.2617 26.0176 27.2617 26.4535 26.9866 26.7288C25.6567 28.0366 24.6479 29.6885 24.0976 31.4551C23.983 31.7763 23.7078 31.9599 23.4098 31.9599Z" fill="#1C1D21"/>
<path d="M50.3734 0.711304C48.264 0.711304 46.5673 2.40911 46.5673 4.51989V19.456V22.7828C46.5673 23.6087 47.5532 24.0446 48.1723 23.494L51.5886 20.4196C52.2764 19.8001 53.1936 19.456 54.1336 19.456H65.5061C67.6155 19.456 69.3121 17.7582 69.3121 15.6474V4.51989C69.3121 2.40911 67.6155 0.711304 65.5061 0.711304H50.3734Z" fill="#FDDF7F"/>
<path d="M47.5303 24.4346C47.301 24.4346 47.0717 24.3887 46.8424 24.297C46.2234 24.0216 45.8565 23.448 45.8565 22.7827V4.51983C45.8565 2.01901 47.8742 0 50.3734 0H65.5061C67.9823 0 70.0229 2.01901 70.0229 4.51983V15.6473C70.0229 18.1252 68.0052 20.1672 65.5061 20.1672H54.1107C53.3541 20.1672 52.5974 20.4425 52.0242 20.9702L48.6079 24.0446C48.3099 24.2969 47.9201 24.4346 47.5303 24.4346ZM50.3734 1.39954C48.6538 1.39954 47.2552 2.79908 47.2552 4.51983V22.7827C47.2552 22.9204 47.3469 22.9892 47.4157 23.0121C47.4844 23.0351 47.5761 23.058 47.6908 22.9662L51.1071 19.8918C51.9325 19.1577 53.0102 18.7447 54.1107 18.7447H65.4831C67.2028 18.7447 68.6014 17.3451 68.6014 15.6244V4.51983C68.6014 2.79908 67.2028 1.39954 65.4831 1.39954H50.3734Z" fill="#1C1D21"/>
</svg>
