<svg width="515" height="432" viewBox="0 0 515 432" fill="none" xmlns="http://www.w3.org/2000/svg">
<g clip-path="url(#clip0)">
<path d="M154.721 109.497C91.7084 203.771 67.7869 325.444 146.798 385.374C225.809 445.304 382.333 448.044 464.822 285.386C547.311 122.729 454.701 8.79968 371.906 0.749392C289.111 -7.3009 193.803 51.0093 154.721 109.497Z" fill="#F6F3FE"/>
<path opacity="0.56" d="M154.721 109.497C91.7084 203.771 67.7869 325.444 146.798 385.374C225.809 445.304 382.333 448.044 464.822 285.386C547.311 122.729 454.701 8.79968 371.906 0.749392C289.111 -7.3009 193.803 51.0093 154.721 109.497Z" fill="#D9F7F0"/>
<path d="M292.871 402.587C292.871 410.936 290.777 418.792 287.098 425.674C285.914 427.89 284.562 430.01 283.064 432H69.4133C67.9157 430.01 66.563 427.89 65.3794 425.674C61.6918 418.8 59.5983 410.936 59.5983 402.587C59.5983 375.584 81.4827 353.681 108.464 353.681C115.863 353.681 122.884 355.341 129.173 358.282C130.099 323.003 158.964 294.678 194.447 294.678C229.247 294.678 257.677 321.915 259.634 356.252C278.958 362.779 292.871 381.055 292.871 402.587Z" fill="#00CB9B"/>
<path d="M308.853 323.494H239.134V325.138H308.853V323.494Z" fill="#1D254C"/>
<path d="M299.634 360.539H229.915V362.182H299.634V360.539Z" fill="#1D254C"/>
<path d="M291.711 397.567H221.992V399.211H291.711V397.567Z" fill="#1D254C"/>
<path d="M247.255 285.194L215.207 425.277L216.808 425.644L248.856 285.561L247.255 285.194Z" fill="#1D254C"/>
<path d="M317.393 285.202L285.345 425.285L286.946 425.652L318.995 285.569L317.393 285.202Z" fill="#1D254C"/>
<path d="M255.262 303.461L253.16 311.125C253.16 311.125 250.56 317.797 250.994 321.383C251.429 324.969 256.002 324.268 258.466 324.268C260.93 324.268 277.734 324.268 277.734 324.268C277.734 324.268 281.277 323.978 280.616 321.875C279.956 319.771 271.373 317.676 266.961 315.694C262.548 313.719 262.524 308.893 262.524 308.893L255.262 303.461Z" fill="#1D1C2C"/>
<path d="M469.645 403.401C469.645 403.401 473.429 410.073 474.5 413.369C475.571 416.665 474.009 417.487 469.645 419.381C465.281 421.274 464.226 424.739 459.194 424.739C454.17 424.739 450.458 424.739 450.458 424.739C450.458 424.739 447.656 423.998 448.235 422.185C448.815 420.372 454.331 420.783 457.624 416.915C460.917 413.039 461.658 411.314 460.667 407.768C459.685 404.231 469.645 403.401 469.645 403.401Z" fill="#1D1C2C"/>
<path d="M420.868 409.993C420.868 409.993 420.868 415.061 422.1 417.406C423.332 419.751 422.881 422.926 422.1 423.587C421.319 424.248 419.668 424.74 418.436 424.74C417.205 424.74 399.338 424.74 399.338 424.74C399.338 424.74 398.517 421.935 401.729 420.622C404.942 419.3 412.51 416.335 411.858 409.993C411.19 403.651 420.868 409.993 420.868 409.993Z" fill="#1D1C2C"/>
<path d="M388.637 177.888L386.415 175.172C386.415 175.172 381.971 170.233 379.748 167.88C377.526 165.535 374.563 162.319 373.573 163.061C372.582 163.802 371.471 165.921 372.091 170.418C372.711 174.923 381.27 179.886 381.27 179.886L388.637 177.888Z" fill="#FAAD83"/>
<path d="M269.594 188.847L292.686 255.619L289.884 175.164L287.331 153.906L269.594 188.847Z" fill="#1D254C"/>
<path d="M244.722 162.948C244.722 162.948 244.166 181.434 247.854 206.318C249.835 219.687 250.688 232.435 251.002 240.63C251.316 248.834 251.002 311.125 251.002 311.125H264.819C264.819 311.125 277.331 235.183 277.331 234.925C277.331 234.667 280.624 168.814 280.624 168.814L244.722 162.948Z" fill="#303B71"/>
<path d="M289.328 58.8018C289.328 58.8018 306.14 62.4844 310.585 88.7949C315.029 115.105 336.028 83.7101 336.028 83.7101L332.324 106.056L313.556 116.846C313.556 116.846 303.137 110.158 298.958 102.003C294.779 93.8475 289.328 58.8018 289.328 58.8018Z" fill="#E6B400"/>
<path d="M272.307 55.7717C272.307 55.7717 256.848 57.3431 248.369 64.8777C246.751 66.312 245.39 67.964 244.44 69.8658C238.474 81.7277 238.224 113.615 239.714 131.166C241.195 148.717 238.724 167.388 239.964 168.806C241.195 170.224 271.188 174.906 280.399 173.553C289.61 172.199 304.675 168.806 304.675 168.806C304.675 168.806 303.684 112.132 303.443 98.7872C303.193 85.4426 299.989 69.8658 297.517 65.1678C295.045 60.4697 282.702 55.7717 282.702 55.7717H272.307Z" fill="#F7C200"/>
<path d="M244.191 90.3179C244.191 90.3179 249.513 116.25 255.544 128.917C261.574 141.585 303.95 124.364 303.95 124.364L303.572 102.148L271.792 110.496C271.792 110.496 257.041 95.5074 256.494 95.2576C255.954 95.0078 244.191 90.3179 244.191 90.3179Z" fill="#E6B400"/>
<path d="M441.738 295.798C441.738 295.798 439.765 337.081 440.506 346.469C441.247 355.865 459.774 409.993 459.774 409.993L474.098 405.794C474.098 405.794 464.468 356.356 462.737 346.219C461.006 336.081 480.523 273.79 477.801 263.411C475.088 253.032 448.163 268.351 448.163 268.351L441.738 295.798Z" fill="#1D254C"/>
<path d="M433.582 128.442C433.582 128.442 430.619 141.915 430.989 151.303C431.359 160.699 434.693 162.182 436.054 162.182C437.414 162.182 440.498 161.191 440.498 161.191L442.6 173.553L456.553 172.191L455.192 156.001L456.553 133.382L433.582 128.442Z" fill="#FAAD83"/>
<path d="M430.619 127.862C431.094 130.706 433.01 131.649 434.983 131.738C436.955 131.818 439.266 132.56 439.427 135.034C439.588 137.508 438.525 142.117 440.748 142.858C442.97 143.6 443.219 140.715 446.182 142.278C449.145 143.841 446.512 149.321 444.532 150.989C442.559 152.657 445.273 157.275 449.226 158.999C453.179 160.732 454.629 160.885 455.546 160.232C456.464 159.579 464.291 149.692 465.603 143.43C466.923 137.169 466.923 132.06 462.559 131.238C458.195 130.416 463.051 123.003 450.377 119.787C437.704 116.572 430.127 124.896 430.619 127.862Z" fill="#1D254C"/>
<path d="M415.554 195.189L386.415 175.164L380.481 180.604L404.934 206.31L415.554 195.189Z" fill="#4D2AC4"/>
<path d="M293.137 24.876L298.902 19.1062C298.902 19.1062 304.497 17.4543 305.407 10.9512C306.309 4.44002 293.716 -0.588389 285.898 1.06357C278.08 2.71553 276.84 6.91393 275.439 6.91393C274.038 6.91393 270.334 5.51178 267.951 8.55784C265.56 11.6039 265.729 14.7386 266.47 16.3019C267.21 17.8652 261.945 18.0345 262.186 25.3675C262.436 32.7006 266.8 34.9248 267.951 37.3584C269.102 39.792 270.423 43.249 274.046 43.3296C277.653 43.4183 293.137 24.876 293.137 24.876Z" fill="#1D254C"/>
<path d="M510.813 428.374C510.813 429.381 510.556 430.284 510.145 430.952C509.726 431.605 509.163 432.008 508.535 432.008H16.7877C15.5316 432.008 14.501 430.388 14.501 428.382C14.501 427.383 14.7587 426.48 15.1774 425.811C15.588 425.159 16.1597 424.748 16.7877 424.748H508.527C509.791 424.74 510.813 426.367 510.813 428.374Z" fill="#74F4D6"/>
<path d="M36.5465 267.803L27.6091 259.825L27.6896 259.398C27.746 259.14 27.9312 258.923 28.1888 258.842L39.5578 255.079L39.8879 255.361C40.0892 255.538 40.1778 255.812 40.1214 256.07L37.6898 267.803L37.2792 267.948C37.0215 268.037 36.7478 267.98 36.5465 267.803ZM29.8233 259.841L36.5948 265.885L38.4386 256.989L29.8233 259.841Z" fill="#F7C200"/>
<path d="M377.027 45.7875L386.343 41.6052C386.729 41.4279 387.156 41.7422 387.116 42.1612L386.077 52.3309C386.037 52.7499 385.554 52.9675 385.207 52.7257L376.93 46.7384C376.584 46.4885 376.64 45.9648 377.027 45.7875Z" fill="#00CB9B"/>
<path d="M515 305.951C515 308.82 512.673 311.141 509.815 311.141C506.948 311.141 504.629 308.812 504.629 305.951C504.629 303.083 506.956 300.762 509.815 300.762C512.681 300.762 515 303.083 515 305.951Z" fill="#F6A04B"/>
<path d="M167.168 285.378C168.84 285.378 170.196 284.022 170.196 282.348C170.196 280.675 168.84 279.318 167.168 279.318C165.496 279.318 164.141 280.675 164.141 282.348C164.141 284.022 165.496 285.378 167.168 285.378Z" fill="#5830E0"/>
<path d="M158.843 182.409L162.056 181.667C162.756 181.506 163.215 180.829 163.11 180.12L159.149 152.536L150.952 154.438L157.192 181.377C157.354 182.119 158.094 182.578 158.843 182.409Z" fill="#303B71"/>
<path d="M193.658 111.568L204.101 156.622L203.731 156.598C182.958 150.208 159.197 152.738 159.197 152.738L155.051 134.84C155.051 134.84 177.499 126.645 193.344 111.753L193.658 111.568Z" fill="#5DD6E1"/>
<path d="M153.787 151.271L147.176 152.802C144.109 153.511 141.041 151.602 140.332 148.531L139.954 146.912C139.245 143.841 141.154 140.771 144.221 140.062L150.832 138.531L153.787 151.271Z" fill="#303B71"/>
<path d="M159.254 152.714L151.347 154.551C147.861 155.357 144.382 153.189 143.569 149.7L142.353 144.438C141.548 140.949 143.714 137.467 147.2 136.653L155.107 134.816L159.254 152.714Z" fill="#303B71"/>
<path d="M205.663 158.008L206.058 157.919C206.815 157.742 207.29 156.985 207.113 156.227L196.533 110.585C196.356 109.827 195.599 109.352 194.842 109.529L194.447 109.618C193.691 109.795 193.224 110.552 193.393 111.31L203.973 156.952C204.15 157.71 204.907 158.185 205.663 158.008Z" fill="#303B71"/>
<path d="M154.221 145.203L146.242 147.057C145.896 147.137 145.558 146.92 145.477 146.581L145.437 146.404C145.356 146.058 145.574 145.719 145.912 145.639L153.891 143.785C154.237 143.705 154.576 143.922 154.656 144.261L154.696 144.438C154.777 144.784 154.568 145.131 154.221 145.203Z" fill="#5DD6E1"/>
<path d="M155.083 148.91L147.104 150.764C146.758 150.844 146.419 150.627 146.339 150.288L146.299 150.111C146.218 149.764 146.435 149.426 146.774 149.345L154.753 147.492C155.099 147.411 155.437 147.629 155.518 147.967L155.558 148.145C155.639 148.483 155.421 148.83 155.083 148.91Z" fill="#5DD6E1"/>
<path d="M153.328 141.359L145.348 143.213C145.002 143.293 144.664 143.076 144.584 142.737L144.543 142.56C144.463 142.214 144.68 141.875 145.018 141.795L152.998 139.941C153.344 139.861 153.682 140.078 153.762 140.417L153.803 140.594C153.891 140.94 153.674 141.279 153.328 141.359Z" fill="#5DD6E1"/>
<path opacity="0.15" d="M156.524 141.521L197.475 128.917L200.221 140.779L157.909 147.5" fill="white"/>
<path d="M221.71 128.917L209.931 131.544C209.569 131.625 209.198 131.391 209.118 131.029L209.077 130.835C208.997 130.465 209.23 130.102 209.593 130.021L221.372 127.394C221.735 127.314 222.105 127.547 222.185 127.91L222.226 128.103C222.306 128.474 222.073 128.837 221.71 128.917Z" fill="#5DD6E1"/>
<path d="M223.796 139.24L211.734 138.765C211.356 138.749 211.066 138.434 211.082 138.056L211.09 137.854C211.106 137.475 211.42 137.185 211.799 137.201L223.86 137.677C224.239 137.693 224.529 138.007 224.512 138.386L224.504 138.587C224.488 138.958 224.174 139.248 223.796 139.24Z" fill="#5DD6E1"/>
<path d="M218.409 116.669L207.692 122.221C207.362 122.39 207.225 122.801 207.403 123.139L207.491 123.317C207.66 123.647 208.071 123.784 208.409 123.607L219.126 118.055C219.456 117.885 219.593 117.474 219.416 117.136L219.327 116.959C219.15 116.628 218.739 116.499 218.409 116.669Z" fill="#5DD6E1"/>
<path d="M24.9682 321.077L18.4544 318.716L14.8795 326.847L20.8457 330.457L24.9682 321.077Z" fill="#FAAD83"/>
<path d="M80.9674 255.691C80.9674 255.691 74.204 271.075 73.2861 287.683C72.3602 304.291 71.4423 335.671 70.5164 335.364C69.5904 335.058 24.7185 321.061 24.7185 321.061L21.0309 330.755C21.0309 330.755 66.8287 359.056 80.9674 355.978C95.1061 352.899 104.631 290.149 104.631 290.149V257.545L80.9674 255.691Z" fill="#1D254C"/>
<path d="M18.4544 318.716C18.4544 318.716 10.4349 314.05 9.38017 314.719C8.3254 315.396 -1.32737e-05 336.049 -1.32737e-05 336.049C-1.32737e-05 336.049 -0.193253 338.483 2.10147 337.854C4.39619 337.226 12.5686 327.209 14.8714 326.838L18.4544 318.716Z" fill="#1D1C2C"/>
<path d="M118.81 407.93L119.269 414.852H128.15L129.044 407.93H118.81Z" fill="#FAAD83"/>
<path d="M114.664 185.052C114.664 185.052 112.586 172.827 113.738 171.441C114.889 170.055 117.079 172.827 120.421 164.285C123.762 155.752 121.805 141.327 115.114 139.256C108.432 137.177 98.053 142.6 96.5554 155.059C95.0578 167.517 97.4814 184.246 97.4814 184.246L114.664 185.052Z" fill="#FAAD83"/>
<path d="M90.4925 261.534C90.4925 261.534 81.8853 282.147 96.024 304.291C110.163 326.444 118.77 409.187 118.77 409.187H128.915C128.915 409.187 135.372 346.122 133.215 328.587C131.065 311.052 119.382 261.526 119.382 261.526H90.4925V261.534Z" fill="#303B71"/>
<path d="M157.547 164.003C157.547 164.003 171.235 202.708 157.885 204.787C152.12 205.689 125.38 203.401 125.38 204.094C125.38 204.787 129.76 217.245 123.995 230.855C118.23 244.474 120.05 264.37 120.05 264.37C99.4943 274.274 79.3088 259.922 79.3088 259.922C79.3088 259.922 85.7582 247.23 85.7179 233.845C85.7098 231.379 85.4844 228.905 84.961 226.472C81.5793 210.782 84.961 193.868 84.961 193.868C84.961 193.868 94.0272 181.023 100.944 182.634C103.254 183.166 105.364 183.384 107.401 183.424C111.443 183.529 115.179 182.916 119.615 183.319C128.376 184.125 147.047 191.442 150.469 190.902C152.434 190.588 149.882 164.89 149.882 164.89L157.547 164.003Z" fill="#BEE9EB"/>
<path d="M107.401 183.424C104.937 185.245 106.177 202.474 97.5619 212.627C88.9547 222.781 85.726 233.845 85.726 233.845C85.7179 231.379 85.4925 228.905 84.9691 226.472C81.5874 210.782 84.9691 193.868 84.9691 193.868C84.9691 193.868 94.0353 181.023 100.952 182.634C103.262 183.166 105.364 183.384 107.401 183.424Z" fill="#A3D6D9"/>
<path d="M26.6027 192.941C24.0825 202.7 23.9537 217.245 45.7737 220.009C67.5937 222.781 78.5117 209.243 85.42 199.243C92.3364 189.242 93.4153 187.091 102.014 180.015C110.622 172.94 111 164.173 109.044 161.094C107.087 158.016 105.702 156.171 105.702 154.172C105.702 152.174 108.077 151.094 109.044 152.48C110.01 153.866 112.788 150.739 114.784 147.202C116.781 143.664 123.448 145.55 119.511 139.192C116.838 134.881 100.461 130.36 94.0031 138.821C87.5457 147.282 87.1109 147.556 73.8901 150.635C60.6773 153.713 59.4454 163.705 58.2135 167.557C56.9816 171.401 54.3728 177.864 45.1537 178.323C38.0843 178.678 28.8652 184.173 26.6027 192.941Z" fill="#9F6652"/>
<path d="M119.269 414.852C119.269 414.852 118.23 424.078 119.269 424.771C120.308 425.464 142.555 424.771 142.555 424.771C142.555 424.771 144.857 423.966 143.36 422.12C141.862 420.275 129.414 416.81 128.142 414.852H119.269Z" fill="#1D1C2C"/>
<path d="M150.067 164.898C150.067 164.898 149.962 161.078 152.724 158.548C155.574 155.937 159.705 153.036 161.299 155.083C162.885 157.13 162.209 161.787 161.412 162.811C160.614 163.834 157.547 164.003 157.547 164.003L150.067 164.898Z" fill="#FAAD83"/>
<path d="M374.861 90.5678C375.481 91.1641 375.529 92.1391 374.966 92.7838C369.201 99.3755 357.952 106.781 344.096 112.478C330.69 117.982 317.895 120.642 309.176 120.222C308.314 120.182 307.646 119.465 307.654 118.603C307.734 106.805 308.588 96.0958 309.763 86.8368C312.283 66.8601 316.285 53.6283 317.195 50.7756C317.316 50.405 317.581 50.1149 317.936 49.9618C318.29 49.8086 318.693 49.8167 319.039 49.994C321.752 51.3317 334.289 57.7542 350.666 70.0432C358.113 75.6437 366.374 82.4611 374.861 90.5678Z" fill="#FF9597"/>
<path d="M310.367 352.641C309.433 353.334 308.121 353.786 306.333 353.939C291.744 355.148 277.903 399.517 271.598 422.886C271.228 424.216 270.093 424.82 268.998 424.739C267.871 424.667 266.8 423.877 266.663 422.475L260.906 361.772C260.262 355.019 262.178 348.274 266.284 342.875L288.885 313.156C288.885 313.156 295.81 320.424 302.098 328.829C305.609 333.519 308.918 338.572 310.721 342.899C310.721 342.907 310.721 342.907 310.721 342.907C312.525 347.202 312.831 350.788 310.367 352.641Z" fill="#FF9597"/>
<path d="M310.367 352.641C309.433 353.334 308.121 353.786 306.333 353.939C291.744 355.148 277.903 399.517 271.598 422.886C271.228 424.216 270.093 424.82 268.998 424.739C269.038 423.611 271.349 343.068 297.935 330.175C299.497 329.417 300.882 328.982 302.106 328.821C308.169 328.039 310.48 334.099 310.729 342.891C310.729 342.899 310.729 342.899 310.729 342.899C310.826 345.889 310.681 349.192 310.367 352.641Z" fill="#F27E87"/>
<path d="M352.3 352.641C353.234 353.334 354.547 353.786 356.334 353.939C370.924 355.148 384.764 399.517 391.069 422.886C391.439 424.216 392.575 424.82 393.67 424.739C394.797 424.667 395.868 423.877 396.005 422.475L401.761 361.772C402.406 355.019 400.489 348.274 396.383 342.875L373.782 313.156C373.782 313.156 366.858 320.424 360.569 328.829C357.059 333.519 353.749 338.572 351.946 342.899C351.946 342.907 351.946 342.907 351.946 342.907C350.15 347.202 349.836 350.788 352.3 352.641Z" fill="#FF9597"/>
<path d="M352.3 352.641C353.234 353.334 354.547 353.786 356.334 353.939C370.924 355.148 384.764 399.517 391.069 422.886C391.439 424.216 392.575 424.82 393.67 424.739C393.629 423.611 391.319 343.068 364.732 330.175C363.17 329.417 361.785 328.982 360.561 328.821C354.498 328.039 352.187 334.099 351.938 342.891C351.938 342.899 351.938 342.899 351.938 342.899C351.841 345.889 351.986 349.192 352.3 352.641Z" fill="#F27E87"/>
<path d="M356.737 377.687L305.737 377.042L305.584 389.251H305.665C305.609 389.468 305.576 389.694 305.576 389.919C305.52 394.698 316.881 398.711 330.963 398.888C345.046 399.066 356.511 395.335 356.568 390.564C356.568 390.338 356.535 390.113 356.495 389.887H356.576L356.737 377.687Z" fill="#303B71"/>
<path d="M356.801 377.59H356.721C356.729 377.695 356.745 377.8 356.745 377.912C356.704 381.208 351.254 384.005 343.266 385.366C339.635 385.995 335.464 386.325 331.044 386.269C317.227 386.092 306.027 382.24 305.593 377.59H305.512C285.657 311.52 280.399 279.004 280.399 218.011C280.399 185.173 288.048 156.606 297.364 133.978C297.742 133.068 298.555 132.487 299.457 132.383C299.9 132.318 300.375 132.383 300.826 132.576C307.863 135.646 318.685 137.685 330.835 137.838C336.044 137.903 341.02 137.62 345.561 137.04C351.97 136.226 357.526 134.832 361.68 133.035C362.075 132.858 362.486 132.802 362.88 132.826C363.846 132.882 364.74 133.487 365.135 134.446C374.378 156.993 381.914 185.407 381.914 218.011C381.914 279.012 376.657 311.52 356.801 377.59Z" fill="#BEE9EB"/>
<path d="M330.271 424.522C328.862 424.498 327.71 422.942 327.654 420.976L323.387 343.922C323.201 339.394 326.849 335.638 331.374 335.695C335.899 335.751 339.45 339.595 339.152 344.116L332.952 421.065C332.863 423.031 331.68 424.546 330.271 424.522Z" fill="#FF9597"/>
<path d="M362.501 222.335C364.376 205.012 351.865 189.448 334.556 187.571C317.248 185.695 301.697 198.216 299.822 215.539C297.947 232.862 310.458 248.426 327.766 250.302C345.075 252.179 360.626 239.657 362.501 222.335Z" fill="#FF9597"/>
<path d="M346.247 234.051C354.583 225.708 354.583 212.182 346.247 203.84C337.912 195.497 324.397 195.497 316.061 203.84C307.726 212.182 307.726 225.708 316.061 234.051C324.397 242.393 337.912 242.393 346.247 234.051Z" fill="white"/>
<path d="M328.709 235.409C326.744 235.384 325.174 233.773 325.198 231.799C325.222 229.832 326.833 228.261 328.805 228.285C334.933 228.366 339.981 223.434 340.062 217.302C340.086 215.335 341.696 213.764 343.669 213.788C345.633 213.812 347.203 215.424 347.179 217.398C347.042 227.455 338.765 235.538 328.709 235.409Z" fill="#BEE9EB"/>
<path opacity="0.07" d="M356.801 377.59H356.721C356.729 377.695 356.745 377.8 356.745 377.912C356.704 381.208 351.253 384.005 343.266 385.366C363.049 281.72 355.175 192.498 345.633 137.411C345.609 137.29 345.593 137.153 345.561 137.032C351.97 136.218 357.526 134.824 361.68 133.027C362.075 132.85 362.486 132.794 362.88 132.818C363.846 132.874 364.74 133.479 365.135 134.438C374.378 156.985 381.914 185.399 381.914 218.003C381.914 279.012 376.657 311.52 356.801 377.59Z" fill="#1D254C"/>
<path d="M425.683 260.945C425.683 260.945 403.951 327.685 403.211 337.331C402.47 346.968 407.905 411.983 407.905 411.983H423.469C423.469 411.983 427.422 347.959 428.404 342.77C429.395 337.58 445.941 304.211 452.358 291.108C458.783 278.005 461.988 271.582 461.005 265.643C460.015 259.704 425.683 260.945 425.683 260.945Z" fill="#303B71"/>
<path d="M482.157 267.287C481.336 268.278 474.911 269.753 462.398 270.583C452.873 271.212 445.836 270.027 439.677 269.125C437.736 268.842 435.884 268.593 434.081 268.432C426.504 267.771 422.39 268.593 422.881 266.127C423.372 263.661 424.862 252.782 424.531 238.938C424.193 225.094 423.461 211.411 422.841 202.353C422.712 200.443 422.663 198.34 422.672 196.205C422.696 188.227 423.461 179.878 423.461 179.878C423.461 179.878 429.467 172.36 442.148 170.055C454.83 167.751 462.068 168.242 467.012 174.834C471.956 181.426 474.258 199.887 475.41 227.076C476.561 254.265 482.986 266.296 482.157 267.287Z" fill="#5830E0"/>
<path d="M439.677 269.125C437.736 268.842 435.884 268.593 434.081 268.431C426.504 267.771 422.39 268.593 422.881 266.127C423.372 263.661 424.862 252.782 424.531 238.938C424.193 225.094 423.461 211.411 422.841 202.353C422.712 200.443 422.663 198.34 422.672 196.205L432.156 187.389C432.156 187.389 432.124 187.896 432.084 188.823C431.794 194.738 431.126 217.712 436.577 234.079C440.345 245.401 440.313 259.567 439.677 269.125Z" fill="#4D2AC4"/>
<path d="M370.69 195.35L368.428 193.424C368.428 193.424 366.576 190.983 363.935 188.509C361.302 186.035 357.429 181.836 356.938 182.658C356.447 183.48 357.759 185.954 358.419 187.356C359.08 188.759 359.16 189.911 358.258 189.5C357.357 189.089 356.463 188.332 354.249 186.18C349.241 181.337 347.469 182.159 347.3 184.633C347.139 187.107 350.778 192.578 352.26 194.391C353.741 196.204 365.336 200.451 365.336 200.451L370.69 195.35Z" fill="#FAAD83"/>
<path d="M269.191 56.2391C269.191 56.2391 270.576 59.4866 275.149 61.4609C279.714 63.4352 284.409 61.7107 286.019 60.7195C287.621 59.7284 287.798 58.02 287.798 58.02V47.246L273.788 37.3584C273.788 37.3584 271.759 54.4743 269.191 56.2391Z" fill="#9F6652"/>
<path d="M298.893 19.1064C298.893 19.1064 299.554 32.6202 296.422 41.5166C293.289 50.4131 282.291 48.3824 275.608 38.6479C275.608 38.6479 270.978 37.3021 269.827 33.1521C268.676 28.994 271.969 26.6087 274.191 27.761C276.413 28.9134 278.169 28.0914 278.483 25.5369C278.797 22.9824 279.626 16.0603 282.259 17.1321C284.9 18.2038 293.797 20.5891 298.893 19.1064Z" fill="#9F6652"/>
<path d="M303.056 101.157C303.056 101.157 307.01 96.6277 309.892 94.4036C312.775 92.1795 315.738 89.5445 315.899 90.2858C316.06 91.0272 315.488 93.0901 313.757 94.9033C312.026 96.7164 315.158 96.3054 316.8 94.9838C318.451 93.6623 322.316 89.7137 324.458 88.9723C326.599 88.231 326.43 89.9635 326.189 92.1876C325.939 94.4117 321.994 100.012 318.781 101.584C315.569 103.147 307.477 106.064 307.477 106.064L303.056 101.157Z" fill="#9F6652"/>
<path d="M340.593 63.6205C340.593 63.6205 344.715 60.8001 346.793 62.3634C348.87 63.9267 350.859 68.0607 351.342 69.487C351.825 70.9133 350.722 76.2882 348.129 75.0472C345.537 73.8224 341.358 64.8857 340.593 63.6205Z" fill="#9F6652"/>
<path opacity="0.07" d="M375.086 92.5421C375.054 92.5824 375.03 92.6227 374.998 92.6549C371.874 96.1442 366.962 99.851 360.859 103.324C360.787 103.219 360.722 103.107 360.65 103.002C340.996 71.6549 326.366 54.5228 325.963 54.0312C328.371 55.2642 339.385 61.1065 353.741 72.1867C360.287 77.2473 367.518 83.3959 374.941 90.6887C375.441 91.1883 375.505 91.9861 375.086 92.5421Z" fill="#1D254C"/>
<path d="M362.944 201.249L368.75 192.965C368.75 192.965 398.388 206.439 399.99 205.697C401.592 204.956 422.462 180.733 425.305 177.888C428.147 175.043 435.434 171.216 437.897 175.414C440.369 179.612 435.796 195.681 424.193 207.422C412.583 219.163 405.795 222.249 403.074 222.378C400.369 222.507 362.944 201.249 362.944 201.249Z" fill="#5830E0"/>
<path d="M246.864 97.8766C249.988 106.386 258.426 126.548 262.524 126.879C266.623 127.209 289.674 119.956 310.585 106.612L306.14 96.3939C306.14 96.3939 272.057 107.103 270.906 104.96C269.755 102.816 263.829 78.2626 261.027 70.6797C258.225 63.0968 250.439 62.0169 247.653 65.5304C244.875 69.0599 238.466 74.9748 246.864 97.8766Z" fill="#F7C200"/>
<path d="M155.222 346.941L154.432 347.166L176.204 423.765L176.994 423.54L155.222 346.941Z" fill="#1D1C2C"/>
<path d="M188.459 353.318L166.834 390.251L167.543 390.666L189.168 353.733L188.459 353.318Z" fill="#1D1C2C"/>
<path d="M139.946 401.295L139.666 402.067L173.744 414.459L174.024 413.687L139.946 401.295Z" fill="#1D1C2C"/>
<path d="M88.1319 408.845L87.701 409.545L112.551 424.869L112.982 424.169L88.1319 408.845Z" fill="#1D1C2C"/>
</g>
<defs>
<clipPath id="clip0">
<rect width="515" height="432" fill="white"/>
</clipPath>
</defs>
</svg>
