<svg width="70" height="70" viewBox="0 0 70 70" fill="none" xmlns="http://www.w3.org/2000/svg">
<g clip-path="url(#clip0)">
<path d="M12.0603 0.710846C5.77793 0.710846 0.710785 5.80092 0.710785 12.0603V56.5412V66.4462C0.710785 68.9224 3.62268 70.2293 5.47987 68.5785L15.66 59.4531C17.7465 57.5959 20.452 56.5412 23.2493 56.5412H57.1602C63.4425 56.5412 68.5097 51.4511 68.5097 45.1917V12.0603C68.5097 5.77799 63.4196 0.710846 57.1602 0.710846H12.0603Z" fill="#ECF4F7"/>
<path d="M3.57681 70C3.09532 70 2.59089 69.8854 2.1094 69.679C0.802489 69.1058 0 67.8677 0 66.4461V45.8336C0 45.4438 0.320996 45.1228 0.710776 45.1228C1.10056 45.1228 1.42155 45.4438 1.42155 45.8336V66.4461C1.42155 67.3174 1.90305 68.0511 2.70554 68.4179C3.50802 68.7848 4.3793 68.6472 5.02129 68.0511L15.2014 58.9256C17.4255 56.9309 20.2686 55.8533 23.2493 55.8533H57.1602C63.0298 55.8533 67.8218 51.0842 67.8218 45.1916V12.0603C67.8218 6.19063 63.0527 1.39862 57.1602 1.39862H12.0603C6.19063 1.39862 1.39862 6.1677 1.39862 12.0603V17.9299C1.39862 18.3197 1.07763 18.6407 0.687848 18.6407C0.320996 18.6178 0 18.3197 0 17.9299V12.0603C0 5.41107 5.41107 0 12.0603 0H57.1372C63.7864 0 69.1975 5.41107 69.1975 12.0603V45.1916C69.1975 51.8408 63.7864 57.2519 57.1372 57.2519H23.2263C20.5896 57.2519 18.0675 58.2149 16.1186 59.9803L5.93842 69.1058C5.25057 69.7019 4.42516 70 3.57681 70Z" fill="#1C1D21"/>
<path d="M0.710776 40.7434C0.320996 40.7434 0 40.4224 0 40.0556V22.3091C0 21.9193 0.320996 21.5983 0.710776 21.5983C1.10056 21.5983 1.42155 21.9193 1.42155 22.3091V40.0556C1.39862 40.4224 1.07763 40.7434 0.710776 40.7434Z" fill="#1C1D21"/>
<path d="M13.5277 3.69152C13.5277 4.95258 14.5595 5.98435 15.8205 5.98435H18.1592C19.1222 5.98435 20.0164 6.60341 20.3145 7.52054C20.5208 8.16253 20.796 8.80452 21.094 9.40066C21.5297 10.2719 21.3233 11.3266 20.6355 12.0145L19.0076 13.6653C18.1134 14.5595 18.1134 16.0269 19.0076 16.9211L20.4062 18.3198C21.3004 19.214 22.7678 19.214 23.662 18.3198L25.3128 16.6689C26.0007 15.9811 27.0554 15.7976 27.9267 16.2104C28.5457 16.5084 29.1648 16.7836 29.8068 16.9899C30.7239 17.3109 31.343 18.1822 31.343 19.1452V21.4839C31.343 22.7449 32.3747 23.7767 33.6358 23.7767H35.6076C36.8687 23.7767 37.9005 22.7449 37.9005 21.4839V19.1452C37.9005 18.1822 38.5195 17.288 39.4367 16.9899C40.0786 16.7836 40.7206 16.5084 41.3168 16.2104C42.188 15.7747 43.2427 15.9811 43.9306 16.6689L45.5814 18.3198C46.4756 19.214 47.943 19.214 48.8372 18.3198L50.2359 16.9211C51.1301 16.0269 51.1301 14.5595 50.2359 13.6653L48.585 12.0145C47.8972 11.3266 47.6908 10.2719 48.1265 9.40066C48.4245 8.7816 48.6997 8.16253 48.906 7.52054C49.227 6.60341 50.0983 5.98435 51.0613 5.98435H53.4C54.661 5.98435 55.6928 4.95258 55.6928 3.69152V0.710846H13.5277V3.69152Z" fill="#AAB1BA"/>
<path d="M35.5847 24.4874H33.6129C31.962 24.4874 30.6093 23.1346 30.6093 21.4838V19.1451C30.6093 18.4573 30.1736 17.8611 29.5546 17.6318C28.8896 17.4026 28.2247 17.1274 27.5827 16.8064C26.9866 16.5084 26.2758 16.6459 25.7714 17.1274L24.1435 18.8012C23.5703 19.3744 22.8137 19.6725 22.0112 19.6725C21.2087 19.6725 20.452 19.3515 19.9018 18.8012L18.5031 17.4026C17.3338 16.2332 17.3338 14.3302 18.5031 13.1608L20.154 11.51C20.6355 11.0285 20.773 10.3177 20.475 9.72158C20.154 9.07959 19.8788 8.41467 19.6495 7.74975C19.4432 7.10776 18.8471 6.69505 18.1592 6.69505H15.8205C14.1697 6.69505 12.8169 5.34229 12.8169 3.69145V0.710776C12.8169 0.320996 13.1379 0 13.5277 0H55.6699C56.0596 0 56.3806 0.320996 56.3806 0.710776V3.69145C56.3806 5.34229 55.0279 6.69505 53.377 6.69505H51.0383C50.3505 6.69505 49.7544 7.13069 49.548 7.74975C49.3187 8.41467 49.0436 9.07959 48.7226 9.72158C48.4245 10.3177 48.5621 11.0285 49.0436 11.5329L50.6944 13.1838C51.2676 13.757 51.5657 14.4907 51.5657 15.2932C51.5657 16.0956 51.2447 16.8523 50.6944 17.4026L49.2958 18.8012C48.7226 19.3744 47.966 19.6725 47.1864 19.6725C46.3839 19.6725 45.6273 19.3515 45.077 18.8012L43.4262 17.1503C42.9447 16.6688 42.211 16.5313 41.6148 16.8293C40.9728 17.1503 40.3079 17.4255 39.643 17.6548C39.001 17.8611 38.5883 18.4802 38.5883 19.168V21.5067C38.5883 22.3092 38.2673 23.0658 37.717 23.6161C37.1209 24.1664 36.3872 24.4874 35.5847 24.4874ZM26.9178 15.2702C27.3534 15.2702 27.812 15.3619 28.2018 15.5683C28.775 15.8664 29.3941 16.1186 30.0131 16.3249C31.2054 16.7376 32.0308 17.8611 32.0308 19.1451V21.4838C32.0308 22.3551 32.7416 23.0888 33.6358 23.0888H35.6076C36.0433 23.0888 36.433 22.9283 36.7311 22.6302C37.0292 22.3321 37.1897 21.9194 37.1897 21.5067V19.1451C37.1897 17.8611 37.9922 16.7147 39.2074 16.3249C39.8264 16.1186 40.4226 15.8664 41.0187 15.5683C42.1422 14.9951 43.5179 15.2473 44.435 16.1415L46.0858 17.7923C46.3839 18.0904 46.7966 18.2509 47.2093 18.2509C47.645 18.2509 48.0347 18.0904 48.3328 17.7923L49.7314 16.3937C50.0295 16.0956 50.19 15.6829 50.19 15.2702C50.19 14.8346 50.0295 14.4448 49.7314 14.1467L48.0806 12.4959C47.1635 11.5788 46.9342 10.2031 47.5074 9.07959C47.8055 8.50639 48.0347 7.88732 48.264 7.26826C48.6767 6.07599 49.8002 5.25057 51.0842 5.25057H53.4229C54.2942 5.25057 55.0279 4.5398 55.0279 3.64559V1.35277H14.2155V3.64559C14.2155 4.51687 14.9263 5.25057 15.8205 5.25057H18.1592C19.4432 5.25057 20.5896 6.05306 20.9794 7.26826C21.1857 7.88732 21.438 8.48346 21.736 9.07959C22.3092 10.2031 22.057 11.5788 21.1628 12.4959L19.4891 14.1697C18.87 14.7887 18.87 15.7976 19.4891 16.4166L20.8877 17.8153C21.1857 18.1133 21.5985 18.2738 22.0112 18.2738C22.4468 18.2738 22.8366 18.1133 23.1346 17.8153L24.7855 16.1644C25.3587 15.5683 26.1382 15.2702 26.9178 15.2702Z" fill="#1C1D21"/>
<path d="M43.4262 0.710846C43.4262 5.57164 39.4596 9.53823 34.5988 9.53823C29.738 9.53823 25.7714 5.57164 25.7714 0.710846H43.4262Z" fill="#FDDF7F"/>
<path d="M34.5988 10.226C29.3482 10.226 25.0835 5.96135 25.0835 0.710776C25.0835 0.320996 25.4045 0 25.7943 0H43.4261C43.6096 0 43.793 0.0687848 43.9306 0.206354C44.0681 0.343924 44.1369 0.504422 44.1369 0.710776C44.114 5.96135 39.8493 10.226 34.5988 10.226ZM26.5051 1.39862C26.8719 5.54864 30.357 8.82738 34.5988 8.82738C38.8405 8.82738 42.3256 5.54864 42.6924 1.39862H26.5051Z" fill="#1C1D21"/>
<path d="M55.6699 31.2054H33.1314C32.7416 31.2054 32.4206 30.8844 32.4206 30.4946C32.4206 30.1048 32.7416 29.7838 33.1314 29.7838H55.6699C56.0596 29.7838 56.3806 30.1048 56.3806 30.4946C56.3577 30.8844 56.0596 31.2054 55.6699 31.2054Z" fill="#1C1D21"/>
<path d="M28.1559 31.2054H21.4379C21.0481 31.2054 20.7271 30.8844 20.7271 30.4946C20.7271 30.1048 21.0481 29.7838 21.4379 29.7838H28.1559C28.5456 29.7838 28.8666 30.1048 28.8666 30.4946C28.8437 30.8844 28.5456 31.2054 28.1559 31.2054Z" fill="#1C1D21"/>
<path d="M15.8435 31.2054H13.5277C13.1379 31.2054 12.8169 30.8844 12.8169 30.4946C12.8169 30.1048 13.1379 29.7838 13.5277 29.7838H15.8435C16.2332 29.7838 16.5542 30.1048 16.5542 30.4946C16.5313 30.8844 16.2103 31.2054 15.8435 31.2054Z" fill="#1C1D21"/>
<path d="M55.6699 37.2357H13.5277C13.1379 37.2357 12.8169 36.9147 12.8169 36.5249C12.8169 36.1351 13.1379 35.8141 13.5277 35.8141H55.6699C56.0596 35.8141 56.3806 36.1351 56.3806 36.5249C56.3577 36.9376 56.0596 37.2357 55.6699 37.2357Z" fill="#1C1D21"/>
<path d="M55.6699 43.2886H13.5277C13.1379 43.2886 12.8169 42.9676 12.8169 42.5778C12.8169 42.188 13.1379 41.867 13.5277 41.867H55.6699C56.0596 41.867 56.3806 42.188 56.3806 42.5778C56.3806 42.9676 56.0596 43.2886 55.6699 43.2886Z" fill="#1C1D21"/>
<path d="M55.6699 49.3415H13.5277C13.1379 49.3415 12.8169 49.0205 12.8169 48.6307C12.8169 48.2409 13.1379 47.92 13.5277 47.92H55.6699C56.0596 47.92 56.3806 48.2409 56.3806 48.6307C56.3577 49.0205 56.0596 49.3415 55.6699 49.3415Z" fill="#1C1D21"/>
</g>
<defs>
<clipPath id="clip0">
<rect width="69.1975" height="70" fill="white"/>
</clipPath>
</defs>
</svg>
