<svg width="22" height="20" viewBox="0 0 22 20" fill="none" xmlns="http://www.w3.org/2000/svg">
<path d="M19.1528 1.97531C16.5191 -0.658438 12.2336 -0.658438 9.59954 1.97531L1.41079 10.164C-0.470365 12.0454 -0.470241 15.1065 1.41103 16.9877C2.35175 17.9285 3.58703 18.3988 4.82281 18.3987C6.05825 18.3986 7.29419 17.9283 8.23475 16.9877L15.7409 9.48142C16.2877 8.93465 16.5889 8.20764 16.589 7.43436C16.589 6.66104 16.2879 5.93407 15.741 5.38713C14.6121 4.25837 12.7753 4.25841 11.6467 5.38734L6.73797 10.2959C6.36111 10.6727 6.36111 11.2838 6.73788 11.6607C7.1147 12.0376 7.72574 12.0375 8.10264 11.6607L13.0114 6.75205C13.3877 6.37577 13.9998 6.37568 14.3761 6.75196C14.5584 6.93422 14.6588 7.17657 14.6588 7.43432C14.6588 7.69206 14.5584 7.93433 14.3761 8.11667L6.87 15.6229C5.74116 16.7517 3.90454 16.7518 2.77578 15.623C1.64703 14.4942 1.64695 12.6575 2.77558 11.5287L10.9643 3.34006C12.8457 1.45871 15.9069 1.45871 17.788 3.34006C18.6994 4.25136 19.2014 5.46307 19.2014 6.75188C19.2014 8.04069 18.6994 9.2524 17.788 10.1638L9.59942 18.3526C9.2226 18.7295 9.2226 19.3405 9.5995 19.7174C9.78795 19.9059 10.0349 20 10.2819 20C10.5288 20 10.7758 19.9057 10.9643 19.7174L19.1527 11.5286C20.4287 10.2527 21.1314 8.55635 21.1314 6.75192C21.1314 4.94754 20.4287 3.25116 19.1528 1.97531Z" fill="#5D83A3"/>
</svg>
