<svg width="70" height="70" viewBox="0 0 70 70" fill="none" xmlns="http://www.w3.org/2000/svg">
<g clip-path="url(#clip0)">
<path d="M52.8496 9.60701L50.167 12.2896C49.0436 13.4131 47.3469 13.7341 45.9253 13.0233C44.9165 12.5189 43.9076 12.1062 42.8529 11.7393C41.3397 11.2349 40.3537 9.79044 40.3537 8.20839V4.44815C40.3537 2.38461 38.68 0.710846 36.6164 0.710846H33.4065C31.3429 0.710846 29.6692 2.38461 29.6692 4.44815V8.25424C29.6692 9.8363 28.6833 11.2808 27.17 11.7852C26.1153 12.1291 25.1064 12.5648 24.0976 13.0692C22.6761 13.7341 20.9564 13.4131 19.8559 12.2896L17.1733 9.60701C15.7059 8.1396 13.3442 8.1396 11.8768 9.60701L9.60694 11.8769C8.13953 13.3443 8.13953 15.7059 9.60694 17.1733L12.2895 19.8559C13.413 20.9794 13.734 22.6761 13.0233 24.0977C12.5188 25.1065 12.1061 26.1154 11.7393 27.1701C11.2348 28.6833 9.79037 29.6692 8.20832 29.6692H4.44808C2.38454 29.6692 0.710773 31.343 0.710773 33.4065V36.6165C0.710773 38.68 2.38454 40.3538 4.44808 40.3538H8.25417C9.83622 40.3538 11.2807 41.3397 11.7851 42.853C12.129 43.9077 12.5647 44.9165 13.0691 45.9254C13.7799 47.3469 13.4589 49.0436 12.3354 50.1671L9.6528 52.8497C8.18539 54.3171 8.18539 56.6787 9.6528 58.1461L11.9227 60.416C13.3901 61.8835 15.7517 61.8835 17.2191 60.416L19.9017 57.7334C21.0252 56.61 22.7219 56.289 24.1435 56.9997C25.1523 57.5042 26.1611 57.9169 27.2158 58.2837C28.7291 58.7881 29.715 60.2326 29.715 61.8147V65.6208C29.715 67.6843 31.3888 69.3581 33.4523 69.3581H36.6623C38.7258 69.3581 40.3996 67.6843 40.3996 65.6208V61.8147C40.3996 60.2326 41.3855 58.7881 42.8988 58.2837C43.9535 57.9398 44.9623 57.5042 45.9712 56.9997C47.3927 56.289 49.0894 56.61 50.2129 57.7334L52.8955 60.416C54.3629 61.8835 56.7245 61.8835 58.1919 60.416L60.4618 58.1461C61.9292 56.6787 61.9292 54.3171 60.4618 52.8497L57.7792 50.1671C56.6557 49.0436 56.3347 47.3469 57.0455 45.9254C57.5499 44.9165 57.9627 43.9077 58.3295 42.853C58.8339 41.3397 60.2784 40.3538 61.8605 40.3538H65.6665C67.7301 40.3538 69.4039 38.68 69.4039 36.6165V33.4065C69.4039 31.343 67.7301 29.6692 65.6665 29.6692H61.8605C60.2784 29.6692 58.8339 28.6833 58.3295 27.1701C57.9856 26.1154 57.5499 25.1065 57.0455 24.0977C56.3347 22.6761 56.6557 20.9794 57.7792 19.8559L60.4618 17.1733C61.9292 15.7059 61.9292 13.3443 60.4618 11.8769L58.1919 9.60701C56.6787 8.16253 54.2941 8.16253 52.8496 9.60701Z" fill="white"/>
<path d="M36.5935 70H33.3836C30.9302 70 28.9355 68.0052 28.9355 65.5519V61.7458C28.9355 60.4389 28.133 59.2925 26.9178 58.8798C25.8402 58.5129 24.7855 58.0773 23.7537 57.5729C22.6073 56.9997 21.2316 57.2519 20.3144 58.169L17.6548 60.8975C16.8064 61.7458 15.7059 62.2044 14.5136 62.2044C13.3213 62.2044 12.2208 61.7458 11.3724 60.8975L9.10252 58.6276C7.3829 56.908 7.3829 54.0878 9.10252 52.3452L11.7851 49.6626C12.7023 48.7455 12.9545 47.3469 12.3813 46.2234C11.8998 45.2145 11.4641 44.1369 11.0973 43.0593C10.6846 41.8441 9.53816 41.0416 8.23125 41.0416H4.44808C1.99476 41.0416 0 39.0468 0 36.5935V33.3836C0 30.9302 1.99476 28.9355 4.44808 28.9355H8.25418C9.56109 28.9355 10.7075 28.133 11.1202 26.9178C11.4871 25.8402 11.9227 24.7625 12.4271 23.7537C13.0003 22.6302 12.7481 21.2316 11.831 20.3144L9.12545 17.6548C7.40583 15.9351 7.40583 13.115 9.12545 11.3724L11.3953 9.10252C13.115 7.3829 15.9351 7.3829 17.6777 9.10252L20.3603 11.7851C21.2774 12.7023 22.6761 12.9545 23.7995 12.3813C24.8084 11.8768 25.886 11.4412 26.9636 11.0744C28.1788 10.6616 28.9813 9.51523 28.9813 8.20832V4.44808C28.9584 1.99476 30.9532 0 33.4065 0H36.6164C39.0698 0 41.0645 1.99476 41.0645 4.44808V8.25418C41.0645 9.56109 41.867 10.7075 43.0822 11.1202C44.1598 11.4871 45.2375 11.9227 46.2463 12.4271C47.3698 13.0003 48.7684 12.7481 49.6856 11.831L52.3682 9.14838C53.2165 8.30003 54.3171 7.84147 55.5093 7.84147C56.7016 7.84147 57.8022 8.30003 58.6505 9.14838L60.9204 11.4183C61.7688 12.2666 62.2273 13.3672 62.2273 14.5594C62.2273 15.7517 61.7688 16.8523 60.9204 17.7006L58.2378 20.3832C57.3207 21.3004 57.0685 22.699 57.6417 23.8225C58.1461 24.8313 58.5817 25.9089 58.9486 26.9866C59.3613 28.2018 60.5077 29.0043 61.8146 29.0043H65.6207C68.074 29.0043 70.0688 30.999 70.0688 33.4523V36.6623C70.0688 39.1156 68.074 41.1104 65.6207 41.1104H61.8146C60.5077 41.1104 59.3613 41.9129 58.9486 43.1281C58.5817 44.2057 58.1461 45.2833 57.6417 46.2922C57.0685 47.4157 57.3207 48.8143 58.2378 49.7314L60.9204 52.414C62.64 54.1336 62.64 56.9538 60.9204 58.6964L58.6505 60.9663C57.8022 61.8146 56.7016 62.2732 55.5093 62.2732C54.3171 62.2732 53.2165 61.8146 52.3682 60.9663L49.6856 58.2837C48.7684 57.3665 47.3698 57.1143 46.2463 57.6875C45.2375 58.1919 44.1598 58.6276 43.0822 58.9944C41.867 59.4071 41.0645 60.5536 41.0645 61.8605V65.6666C41.0416 68.0282 39.0468 70 36.5935 70ZM22.4926 55.8991C23.1346 55.8991 23.7995 56.0367 24.3957 56.3577C25.3587 56.8392 26.3675 57.2519 27.3764 57.5958C29.1648 58.1919 30.357 59.8657 30.357 61.7917V65.5978C30.357 67.2715 31.7098 68.6472 33.4065 68.6472H36.6164C38.2902 68.6472 39.6659 67.2945 39.6659 65.5978V61.7917C39.6659 59.8886 40.8582 58.1919 42.6466 57.5958C43.6554 57.2519 44.6643 56.8392 45.6273 56.3577C47.301 55.5323 49.3416 55.8762 50.6715 57.229L53.3541 59.9116C53.9273 60.4848 54.6839 60.8058 55.5093 60.8058C56.3118 60.8058 57.0914 60.4848 57.6646 59.9116L59.9345 57.6417C61.1268 56.4494 61.1268 54.5234 59.9345 53.3541L57.2519 50.6715C55.8991 49.3187 55.5552 47.301 56.3806 45.6273C56.8621 44.6643 57.2748 43.6554 57.6187 42.6466C58.2149 40.8582 59.8886 39.6659 61.8146 39.6659H65.6207C67.2945 39.6659 68.6702 38.3131 68.6702 36.6164V33.4065C68.6702 31.7327 67.3174 30.357 65.6207 30.357H61.8146C59.9116 30.357 58.2149 29.1648 57.6187 27.3763C57.2748 26.3675 56.8621 25.3587 56.3806 24.3957C55.5552 22.7219 55.8991 20.6813 57.2519 19.3515L59.9345 16.6688C60.5077 16.0956 60.8287 15.339 60.8287 14.5136C60.8287 13.7111 60.5077 12.9315 59.9345 12.3583L57.6646 10.0884C57.0914 9.51523 56.3348 9.19424 55.5093 9.19424C54.7068 9.19424 53.9273 9.51523 53.3541 10.0884L50.6715 12.771C49.3187 14.1238 47.301 14.4677 45.6273 13.6423C44.6643 13.1608 43.6554 12.7481 42.6466 12.4042C40.8582 11.8081 39.6659 10.1343 39.6659 8.20832V4.44808C39.6659 2.77432 38.3131 1.39862 36.6164 1.39862H33.4065C31.7327 1.39862 30.357 2.75139 30.357 4.44808V8.25418C30.357 10.1572 29.1648 11.8539 27.3764 12.45C26.3675 12.794 25.3587 13.2067 24.3957 13.6882C22.7219 14.5136 20.6813 14.1697 19.3515 12.8169L16.6689 10.1114C15.4766 8.9191 13.5506 8.9191 12.3813 10.1114L10.1114 12.3813C8.9191 13.5735 8.9191 15.4995 10.1114 16.6688L12.794 19.3515C14.1467 20.7042 14.4907 22.7219 13.6652 24.3957C13.1838 25.3587 12.771 26.3675 12.4271 27.3763C11.831 29.1648 10.1572 30.357 8.23125 30.357H4.42516C2.75139 30.357 1.3757 31.7098 1.3757 33.4065V36.6164C1.3757 38.2902 2.72846 39.6659 4.42516 39.6659H8.23125C10.1343 39.6659 11.831 40.8582 12.4271 42.6466C12.771 43.6554 13.1838 44.6643 13.6652 45.6273C14.4907 47.301 14.1467 49.3416 12.794 50.6715L10.1114 53.3541C8.9191 54.5463 8.9191 56.4723 10.1114 57.6417L12.3813 59.9116C12.9545 60.4848 13.7111 60.8058 14.5365 60.8058C15.3619 60.8058 16.1186 60.4848 16.6918 59.9116L19.3744 57.229C20.2227 56.3577 21.3462 55.8991 22.4926 55.8991Z" fill="#1C1D21"/>
<path d="M47.6308 47.6389C54.6059 40.6638 54.6059 29.3549 47.6308 22.3797C40.6557 15.4046 29.3467 15.4046 22.3716 22.3797C15.3965 29.3549 15.3965 40.6638 22.3716 47.6389C29.3467 54.6141 40.6557 54.6141 47.6308 47.6389Z" fill="#83E1E5"/>
<path d="M19.2139 27.5141C19.0993 27.5141 18.9846 27.4911 18.8929 27.4453C18.549 27.2618 18.4114 26.8491 18.5948 26.5052C20.3145 23.1806 22.9741 20.498 26.2758 18.7325C26.6197 18.5491 27.0324 18.6867 27.2159 19.0077C27.3993 19.3516 27.2617 19.7643 26.9407 19.9477C23.8913 21.5756 21.4379 24.0748 19.833 27.1472C19.7183 27.3765 19.4661 27.5141 19.2139 27.5141Z" fill="#1C1D21"/>
<path d="M35.0115 53.4916C24.8313 53.4916 16.5313 45.1916 16.5313 35.0115C16.5313 33.9568 16.623 32.9021 16.8064 31.8932C16.8752 31.5034 17.242 31.2512 17.6089 31.32C17.9987 31.3888 18.2509 31.7556 18.1821 32.1225C18.0216 33.0626 17.9299 34.0485 17.9299 35.0115C17.9299 44.435 25.5879 52.093 35.0115 52.093C44.435 52.093 52.093 44.435 52.093 35.0115C52.093 26.3904 45.6502 19.0992 37.0979 18.0675C36.7081 18.0216 36.433 17.6777 36.4789 17.2879C36.5247 16.8981 36.8686 16.623 37.2584 16.6688C46.4985 17.7923 53.4916 25.6796 53.4916 35.0115C53.4916 45.1916 45.1916 53.4916 35.0115 53.4916Z" fill="#1C1D21"/>
<path d="M31.3429 18.2967C31.022 18.2967 30.7239 18.0675 30.6551 17.7465C30.5863 17.3796 30.8156 16.9898 31.2054 16.921C31.8015 16.8064 32.4206 16.6918 33.0167 16.623C33.4065 16.5771 33.7504 16.8523 33.7963 17.242C33.8421 17.6318 33.567 17.9757 33.1772 18.0216C32.604 18.0904 32.0537 18.1821 31.5034 18.2967C31.4347 18.2967 31.3888 18.2967 31.3429 18.2967Z" fill="#1C1D21"/>
<path d="M43.9535 31.1366L45.5585 29.5316C46.017 29.0731 46.017 28.3394 45.5585 27.8808C45.0999 27.4222 44.3662 27.4222 43.9076 27.8808L42.9217 28.8667C42.6466 29.1418 42.2797 29.2565 41.9129 29.2336C41.2938 29.1877 40.8123 28.7062 40.7665 28.0871C40.7435 27.7203 40.8582 27.3534 41.1333 27.0783L42.1192 26.0924C42.5778 25.6338 42.5778 24.9001 42.1192 24.4415C41.6607 23.983 40.927 23.983 40.4684 24.4415L38.8634 26.0465C38.6341 26.2758 38.4966 26.5968 38.4966 26.9407V28.7291C38.4966 29.0731 38.359 29.3941 38.1297 29.6233L29.6004 38.1527C29.3711 38.3819 29.0501 38.5195 28.7062 38.5195H26.9178C26.5739 38.5195 26.2529 38.6571 26.0236 38.8864L24.4186 40.4913C23.96 40.9499 23.96 41.6836 24.4186 42.1422C24.8772 42.6007 25.6109 42.6007 26.0694 42.1422L27.0554 41.1563C27.3305 40.8811 27.6973 40.7665 28.0642 40.7894C28.6833 40.8353 29.1648 41.3168 29.2106 41.9358C29.2335 42.3027 29.1189 42.6695 28.8438 42.9447L27.8578 43.9306C27.3993 44.3891 27.3993 45.1228 27.8578 45.5814C28.3164 46.04 29.0501 46.04 29.5087 45.5814L31.1137 43.9764C31.3429 43.7472 31.4805 43.4262 31.4805 43.0822V41.2938C31.4805 40.9499 31.6181 40.6289 31.8474 40.3996L40.3767 31.8703C40.606 31.641 40.927 31.5035 41.2709 31.5035H43.0593C43.4032 31.5035 43.7242 31.3659 43.9535 31.1366Z" fill="white"/>
<path d="M29.3711 33.7274C28.2705 33.7274 27.17 33.3147 26.3216 32.4664C24.6479 30.7926 24.6479 28.0412 26.3216 26.3674C27.1471 25.565 28.2247 25.1064 29.3711 25.1064C30.5175 25.1064 31.5951 25.565 32.4206 26.3674C34.0943 28.0412 34.0943 30.7926 32.4206 32.4664C31.5722 33.3147 30.4717 33.7274 29.3711 33.7274ZM29.3711 26.5279C28.5915 26.5279 27.8578 26.826 27.3076 27.3763C26.1841 28.4998 26.1841 30.357 27.3076 31.4804C28.431 32.6039 30.2882 32.6039 31.4117 31.4804C32.5352 30.357 32.5352 28.4998 31.4117 27.3763C30.8844 26.826 30.1507 26.5279 29.3711 26.5279Z" fill="#1C1D21"/>
<path d="M42.9217 43.6782C42.7383 43.6782 42.5548 43.6094 42.4173 43.4719L31.4117 32.4892C31.1366 32.2141 31.1366 31.7785 31.4117 31.5033C31.6868 31.2282 32.1225 31.2282 32.3976 31.5033L43.4032 42.486C43.6783 42.7611 43.6783 43.1967 43.4032 43.4719C43.2656 43.6094 43.1051 43.6782 42.9217 43.6782Z" fill="#1C1D21"/>
<path d="M38.1756 38.9321C37.9921 38.9321 37.8087 38.8633 37.6711 38.7257C37.396 38.4506 37.396 38.0149 37.6711 37.7398L39.8952 35.5158C40.1703 35.2406 40.606 35.2406 40.8811 35.5158C41.1562 35.7909 41.1562 36.2265 40.8811 36.5017L38.6571 38.7257C38.5424 38.8633 38.359 38.9321 38.1756 38.9321Z" fill="#1C1D21"/>
<path d="M40.904 41.6607C40.7206 41.6607 40.5372 41.592 40.3996 41.4544C40.1245 41.1793 40.1245 40.7436 40.3996 40.4685L42.0963 38.7718C42.3714 38.4966 42.8071 38.4966 43.0822 38.7718C43.3574 39.0469 43.3574 39.4826 43.0822 39.7577L41.3855 41.4544C41.2479 41.592 41.0875 41.6607 40.904 41.6607Z" fill="#1C1D21"/>
</g>
<defs>
<clipPath id="clip0">
<rect width="70" height="70" fill="white"/>
</clipPath>
</defs>
</svg>
