<svg width="139" height="115" viewBox="0 0 139 115" fill="none" xmlns="http://www.w3.org/2000/svg">
<path d="M17.3579 38.0833C22.4688 30.5063 28.7298 23.7077 36.1151 18.0595C56.1609 2.74112 83.4968 -1.71342 103.569 16.1047C114.906 26.1729 125.084 39.5624 128.345 54.6473C131.553 69.4986 125.448 91.4686 108.109 94.2365C96.7107 96.0615 84.9237 92.0481 73.7334 95.7501C61.0037 99.9625 50.6435 109.278 37.6977 113.214C28.0294 116.155 15.8877 115.869 8.23438 108.465C1.57552 102.021 -0.0416292 91.8146 1.08259 82.6114C3.02836 66.7567 8.46788 51.248 17.3579 38.0833Z" fill="#E7F0F8"/>
<path d="M19.6149 20.2998C24.9689 20.2998 29.3092 15.9587 29.3092 10.6037C29.3092 5.2486 24.9689 0.907471 19.6149 0.907471C14.261 0.907471 9.92068 5.2486 9.92068 10.6037C9.92068 15.9587 14.261 20.2998 19.6149 20.2998Z" fill="#E7F0F8"/>
<path d="M132.366 33.1965C135.552 33.1965 138.134 30.6135 138.134 27.4272C138.134 24.2409 135.552 21.6579 132.366 21.6579C129.18 21.6579 126.598 24.2409 126.598 27.4272C126.598 30.6135 129.18 33.1965 132.366 33.1965Z" fill="#E7F0F8"/>
<g clip-path="url(#clip0)">
<path d="M44.9455 40.4035V95.1483C44.9455 97.8777 47.1581 100.09 49.8875 100.09H96.8369C99.5663 100.09 101.779 97.8777 101.779 95.1483V40.4035H44.9455Z" fill="#F9F5F3"/>
<path d="M98.3482 40.4035V95.1483C98.3482 97.8777 96.1356 100.09 93.4062 100.09H96.8368C99.5662 100.09 101.779 97.8777 101.779 95.1483V40.4035H98.3482Z" fill="#F9EAE0"/>
<path d="M62.6209 83.5954L43.3348 64.3093L36.3457 71.2984L55.6318 90.5845C55.8555 90.8082 56.159 90.934 56.4755 90.934H57.5406L62.9703 85.5043V84.439C62.9703 84.1228 62.8446 83.8193 62.6209 83.5954Z" fill="#A0C8FF"/>
<path d="M62.6208 83.5954L43.3347 64.3093L41.6229 66.0212L61.5807 85.979C61.7443 86.1426 61.8549 86.3491 61.9027 86.5718L62.9701 85.5044V84.4391C62.9702 84.1228 62.8445 83.8193 62.6208 83.5954Z" fill="#91B2FA"/>
<path d="M62.9702 89.7407V84.4392C62.9702 84.2951 62.9429 84.1541 62.8934 84.0217L56.0579 90.8572C56.1904 90.9067 56.3313 90.934 56.4754 90.934H61.777C62.4359 90.934 62.9702 90.3998 62.9702 89.7407Z" fill="#F9EAE0"/>
<path d="M36.805 61.2742L33.3105 64.7687C32.3454 65.7338 32.3454 67.2982 33.3105 68.2633L36.805 71.7578L43.7941 64.7687L40.2996 61.2742C39.3346 60.3093 37.7701 60.3093 36.805 61.2742Z" fill="#EEC42E"/>
<path d="M36.8405 61.2421C36.8521 61.2533 36.8647 61.2628 36.876 61.2741L42.0823 66.4804L43.794 64.7687L40.2996 61.2741C39.346 60.3206 37.8079 60.311 36.8405 61.2421Z" fill="#FFDD66"/>
<path d="M96.8369 30.9023L49.8875 30.9023C47.1581 30.9023 44.9456 33.1149 44.9456 35.8443V43.2574H101.779V35.8441C101.779 33.1149 99.5663 30.9023 96.8369 30.9023Z" fill="#06589C"/>
<path d="M96.8368 30.9023H93.4062C96.1356 30.9023 98.3482 33.1149 98.3482 35.8443V43.2574H101.779V35.8441C101.779 33.1149 99.5662 30.9023 96.8368 30.9023Z" fill="#1477C9"/>
<path d="M52.3586 33.3732C52.3586 34.738 53.4648 35.8443 54.8296 35.8443C56.1944 35.8443 57.3007 34.738 57.3007 33.3732V28.4313C57.3007 27.0665 56.1944 25.9602 54.8296 25.9602C53.4648 25.9602 52.3586 27.0665 52.3586 28.4313V33.3732Z" fill="#BDD3DD"/>
<path d="M89.4236 33.3732C89.4236 34.738 90.5299 35.8443 91.8946 35.8443C93.2594 35.8443 94.3657 34.738 94.3657 33.3732V28.4313C94.3657 27.0665 93.2594 25.9602 91.8946 25.9602C90.5299 25.9602 89.4236 27.0665 89.4236 28.4313V33.3732Z" fill="#BDD3DD"/>
<path d="M64.7135 33.3732C64.7135 34.738 65.8198 35.8443 67.1846 35.8443C68.5494 35.8443 69.6556 34.738 69.6556 33.3732V28.4313C69.6556 27.0665 68.5494 25.9602 67.1846 25.9602C65.8198 25.9602 64.7135 27.0665 64.7135 28.4313V33.3732Z" fill="#BDD3DD"/>
<path d="M77.0686 33.3732C77.0686 34.738 78.1749 35.8443 79.5397 35.8443C80.9045 35.8443 82.0107 34.738 82.0107 33.3732V28.4313C82.0107 27.0665 80.9045 25.9602 79.5397 25.9602C78.1749 25.9602 77.0686 27.0665 77.0686 28.4313V33.3732Z" fill="#BDD3DD"/>
<path d="M91.8948 25.9602C91.228 25.9602 90.624 26.2256 90.1795 26.6548C90.6447 27.1042 90.9352 27.7332 90.9352 28.4313V33.3732C90.9352 34.0711 90.6447 34.7002 90.1795 35.1497C90.624 35.5789 91.228 35.8443 91.8948 35.8443C93.2595 35.8443 94.3658 34.738 94.3658 33.3732V28.4313C94.3658 27.0665 93.2595 25.9602 91.8948 25.9602Z" fill="#ABC4D6"/>
<path d="M79.5398 25.9602C78.8729 25.9602 78.269 26.2256 77.8245 26.6548C78.2897 27.1042 78.5803 27.7332 78.5803 28.4313V33.3732C78.5803 34.0711 78.2897 34.7002 77.8245 35.1497C78.269 35.5789 78.8729 35.8443 79.5398 35.8443C80.9046 35.8443 82.0109 34.738 82.0109 33.3732V28.4313C82.0109 27.0665 80.9046 25.9602 79.5398 25.9602Z" fill="#ABC4D6"/>
<path d="M67.1848 25.9602C66.5181 25.9602 65.914 26.2256 65.4695 26.6548C65.9348 27.1042 66.2253 27.7332 66.2253 28.4313V33.3732C66.2253 34.0711 65.9349 34.7002 65.4695 35.1497C65.914 35.5789 66.5181 35.8443 67.1848 35.8443C68.5496 35.8443 69.6559 34.738 69.6559 33.3732V28.4313C69.6559 27.0665 68.5495 25.9602 67.1848 25.9602Z" fill="#ABC4D6"/>
<path d="M54.8297 25.9602C54.1628 25.9602 53.5589 26.2256 53.1144 26.6548C53.5796 27.1042 53.8702 27.7332 53.8702 28.4313V33.3732C53.8702 34.0711 53.5798 34.7002 53.1144 35.1497C53.5589 35.5789 54.1628 35.8443 54.8297 35.8443C56.1945 35.8443 57.3007 34.738 57.3007 33.3732V28.4313C57.3007 27.0665 56.1945 25.9602 54.8297 25.9602Z" fill="#ABC4D6"/>
<path d="M96.8369 29.7837H95.4845V28.4313C95.4845 26.4518 93.8742 24.8416 91.8948 24.8416C89.9153 24.8416 88.305 26.4518 88.305 28.4313V29.7837H83.1294V28.4313C83.1295 26.4518 81.5191 24.8416 79.5398 24.8416C77.5605 24.8416 75.9501 26.4518 75.9501 28.4313V29.7837L70.7744 29.7837V28.4313C70.7744 26.4518 69.1641 24.8416 67.1847 24.8416C65.2052 24.8416 63.595 26.4518 63.595 28.4313V29.7837H58.4193V28.4313C58.4194 26.4518 56.809 24.8416 54.8297 24.8416C52.8503 24.8416 51.24 26.4518 51.24 28.4313V29.7837H49.8875C46.5456 29.7837 43.827 32.5025 43.827 35.8441V63.2196L41.0906 60.4832C39.6909 59.0835 37.4138 59.0835 36.0141 60.4832L32.5195 63.9778C31.1199 65.3773 31.1199 67.6547 32.5195 69.0543L43.827 80.3617V95.1483C43.827 98.4902 46.5458 101.209 49.8875 101.209H87.9421C88.5599 101.209 89.0608 100.708 89.0608 100.09C89.0608 99.4725 88.5599 98.9716 87.9421 98.9716H49.8875C47.7793 98.9716 46.0643 97.2565 46.0643 95.1483V82.599L55.1902 91.7249C55.2168 91.7515 55.2445 91.7765 55.2733 91.8C55.2928 91.8159 55.3131 91.8301 55.3334 91.8446C55.343 91.8513 55.3519 91.8589 55.3616 91.8653C55.3873 91.8824 55.4137 91.8977 55.4404 91.9124C55.4454 91.9153 55.4502 91.9185 55.4553 91.9212C55.4835 91.9363 55.5122 91.9494 55.5412 91.9618C55.5455 91.9636 55.5495 91.966 55.554 91.9678C55.5822 91.9794 55.6108 91.9892 55.6396 91.9985C55.6456 92.0004 55.6513 92.0028 55.6572 92.0046C55.6844 92.0128 55.7118 92.0192 55.7393 92.0252C55.7475 92.027 55.7554 92.0295 55.7636 92.0312C55.7903 92.0364 55.8171 92.0398 55.8441 92.0431C55.8535 92.0443 55.8626 92.0462 55.872 92.0471C55.9083 92.0507 55.9448 92.0525 55.9812 92.0525H62.5069L63.9265 93.4721C64.1449 93.6905 64.4313 93.7998 64.7175 93.7998C65.0037 93.7998 65.2901 93.6905 65.5085 93.4721C65.9453 93.0353 65.9453 92.3269 65.5085 91.8901L64.0888 90.4705V83.9452C64.0888 83.9085 64.087 83.8719 64.0834 83.8354C64.0827 83.8273 64.0809 83.8196 64.08 83.8115C64.0766 83.7832 64.0729 83.755 64.0673 83.7269C64.0658 83.7198 64.0638 83.7128 64.0621 83.7056C64.0559 83.6771 64.0491 83.6486 64.0408 83.6206C64.0393 83.6155 64.0372 83.6107 64.0356 83.6057C64.0262 83.576 64.0159 83.5465 64.0039 83.5174C64.0026 83.5142 64.001 83.5113 63.9996 83.5081C63.9868 83.4778 63.9729 83.4479 63.9574 83.4186C63.9553 83.4148 63.9529 83.4113 63.9508 83.4075C63.9355 83.3794 63.9194 83.3518 63.9015 83.325C63.896 83.3166 63.8894 83.3089 63.8836 83.3007C63.8684 83.279 63.8531 83.2574 63.8363 83.2367C63.8127 83.2079 63.7878 83.1801 63.7613 83.1536L54.6352 74.0275H93.1302C93.748 74.0275 94.2489 73.5267 94.2489 72.9089C94.2489 72.2911 93.748 71.7902 93.1302 71.7902H53.5941C53.2655 71.7902 52.9708 71.9328 52.7662 72.1585L46.0642 65.4566V44.3759H100.66V52.0054C100.66 52.6232 101.161 53.124 101.779 53.124C102.396 53.124 102.897 52.6232 102.897 52.0054V35.8441C102.897 32.5023 100.179 29.7837 96.8369 29.7837ZM61.8516 89.8153H58.6819L61.8516 86.6456V89.8153ZM38.387 71.7578L40.2995 69.8454L57.8937 87.4396L55.9812 89.352L38.387 71.7578ZM59.4757 85.8575L41.8816 68.2633L43.7942 66.3507L61.3884 83.9449L59.4757 85.8575ZM34.1015 65.5599L37.596 62.0653C38.1233 61.538 38.9812 61.538 39.5085 62.0653L42.2121 64.7689L39.5089 67.472C39.5088 67.4722 39.5087 67.4723 39.5087 67.4723C39.5085 67.4725 39.5084 67.4726 39.5084 67.4726L36.8051 70.1758L34.1016 67.4723C33.5742 66.9451 33.5742 66.0871 34.1015 65.5599ZM91.8948 27.0789C92.6405 27.0789 93.2471 27.6855 93.2471 28.4313V33.3732C93.2471 34.119 92.6405 34.7256 91.8948 34.7256C91.149 34.7256 90.5424 34.119 90.5424 33.3732V30.9038C90.5424 30.9034 90.5424 30.9029 90.5424 30.9023C90.5424 30.9017 90.5424 30.9014 90.5424 30.9008V28.4313C90.5425 27.6855 91.1491 27.0789 91.8948 27.0789ZM79.5398 27.0789C80.2856 27.0789 80.8922 27.6855 80.8922 28.4313V33.3732C80.8922 34.119 80.2856 34.7256 79.5398 34.7256C78.794 34.7256 78.1874 34.119 78.1874 33.3732V30.9038C78.1874 30.9034 78.1874 30.9029 78.1874 30.9023C78.1874 30.9017 78.1874 30.9014 78.1874 30.9008V28.4313C78.1874 27.6855 78.794 27.0789 79.5398 27.0789ZM65.8324 28.4313C65.8324 27.6855 66.439 27.0789 67.1848 27.0789C67.9306 27.0789 68.5372 27.6855 68.5372 28.4313V30.9008V30.9023C68.5372 30.9023 68.5372 30.9032 68.5372 30.9038V33.3732C68.5372 34.119 67.9306 34.7256 67.1848 34.7256C66.4392 34.7256 65.8324 34.119 65.8324 33.3732V28.4313ZM54.8297 27.0789C55.5753 27.0789 56.1821 27.6855 56.1821 28.4313V30.9008C56.1821 30.9013 56.182 30.9017 56.182 30.9023C56.182 30.9029 56.1821 30.9032 56.1821 30.9038V33.3732C56.1821 34.119 55.5755 34.7256 54.8297 34.7256C54.0839 34.7256 53.4773 34.119 53.4773 33.3732V30.9038C53.4773 30.9034 53.4775 30.9029 53.4775 30.9023C53.4775 30.9017 53.4773 30.9014 53.4773 30.9008V28.4313C53.4773 27.6855 54.0839 27.0789 54.8297 27.0789ZM46.0643 42.1386V35.8441C46.0643 33.736 47.7794 32.021 49.8875 32.021H51.24V33.3732C51.24 35.3527 52.8503 36.9629 54.8297 36.9629C56.809 36.9629 58.4194 35.3527 58.4194 33.3732V32.021H63.5951V33.3732C63.5951 35.3527 65.2054 36.9629 67.1848 36.9629C69.1643 36.9629 70.7745 35.3527 70.7745 33.3732V32.021H75.9502V33.3732C75.9502 35.3527 77.5605 36.9629 79.5399 36.9629C81.5194 36.9629 83.1297 35.3527 83.1297 33.3732V32.021H88.3053V33.3732C88.3053 35.3527 89.9156 36.9629 91.8951 36.9629C93.8745 36.9629 95.4848 35.3527 95.4848 33.3732V32.021H96.8372C98.9453 32.021 100.66 33.7361 100.66 35.8441V42.1386H46.0643Z" fill="#044072"/>
<path d="M101.779 55.3615C101.161 55.3615 100.66 55.8624 100.66 56.4802V95.1483C100.66 97.2565 98.945 98.9716 96.8369 98.9716H92.4168C91.799 98.9716 91.2982 99.4725 91.2982 100.09C91.2982 100.708 91.799 101.209 92.4168 101.209H96.8369C100.179 101.209 102.898 98.4902 102.898 95.1483V56.4802C102.898 55.8624 102.397 55.3615 101.779 55.3615Z" fill="#044072"/>
<path d="M53.5941 51.789H93.1302C93.748 51.789 94.2488 51.2881 94.2488 50.6703C94.2488 50.0525 93.748 49.5516 93.1302 49.5516H53.5941C52.9763 49.5516 52.4754 50.0525 52.4754 50.6703C52.4754 51.2881 52.9763 51.789 53.5941 51.789Z" fill="#044072"/>
<path d="M53.5941 59.202H93.1302C93.748 59.202 94.2488 58.7011 94.2488 58.0833C94.2488 57.4655 93.748 56.9646 93.1302 56.9646H53.5941C52.9763 56.9646 52.4754 57.4655 52.4754 58.0833C52.4754 58.7011 52.9763 59.202 53.5941 59.202Z" fill="#044072"/>
<path d="M53.5941 66.615H93.1302C93.748 66.615 94.2488 66.1141 94.2488 65.4963C94.2488 64.8785 93.748 64.3776 93.1302 64.3776H53.5941C52.9763 64.3776 52.4754 64.8785 52.4754 65.4963C52.4754 66.1141 52.9763 66.615 53.5941 66.615Z" fill="#044072"/>
<path d="M94.249 80.3223C94.249 79.7045 93.7482 79.2036 93.1304 79.2036H67.1848C66.567 79.2036 66.0662 79.7045 66.0662 80.3223C66.0662 80.9401 66.567 81.441 67.1848 81.441H93.1304C93.7482 81.441 94.249 80.9401 94.249 80.3223Z" fill="#044072"/>
</g>
<defs>
<clipPath id="clip0">
<rect width="76.3674" height="76.3674" fill="white" transform="translate(29 24.8416)"/>
</clipPath>
</defs>
</svg>
