<svg width="1226" height="149" viewBox="0 0 1226 149" fill="none" xmlns="http://www.w3.org/2000/svg">
<path d="M1 126.259C44 58.3415 122 -40.1586 216.5 19.3417C389.931 128.539 457.678 166.644 557.5 80.7591C708.5 -49.1586 784.5 2.84155 847 80.7591C947.332 205.842 1096 134.259 1179.5 49.2591" stroke="#AFDBC3" stroke-dasharray="3 3"/>
<path d="M1224.92 16H1164.1C1163.77 16 1163.46 16.1278 1163.25 16.3752C1162.8 16.9159 1163 17.6875 1163.55 17.9873L1177.74 25.6261C1177.74 25.6268 1177.74 25.6282 1177.74 25.6299L1181.05 47.6491C1181.16 48.412 1182.07 48.803 1182.7 48.3537L1196.56 38.5097C1196.56 38.5086 1196.56 38.5084 1196.56 38.5094L1206.38 43.9093C1206.85 44.1666 1207.45 44.0252 1207.76 43.5867L1218.08 28.7471C1218.42 28.268 1218.3 27.6093 1217.82 27.276C1217.34 26.9426 1216.68 27.061 1216.35 27.5401L1206.57 41.5952C1206.57 41.5973 1206.57 41.598 1206.56 41.5967L1186.98 30.8279C1186.98 30.8258 1186.98 30.82 1186.98 30.8185L1222.23 19.0707C1222.23 19.0691 1222.24 19.0745 1222.23 19.0784L1219.31 23.2785C1218.98 23.756 1219.06 24.4302 1219.53 24.7742C1220.01 25.1268 1220.68 25.0121 1221.02 24.5258L1225.79 17.6602C1225.82 17.617 1225.85 17.5702 1225.87 17.5228C1226.22 16.8265 1225.69 16 1224.92 16ZM1194.5 37.3726C1194.5 37.3744 1194.5 37.3792 1194.5 37.3813L1183.47 45.2165C1183.47 45.2191 1183.46 45.2161 1183.46 45.2116L1185.19 32.261C1185.19 32.2575 1185.19 32.2555 1185.2 32.2572L1194.5 37.3726ZM1211.42 20.4456L1184.01 29.5811C1183.63 29.7077 1183.35 30.0486 1183.3 30.444L1182.03 39.922C1182.03 39.9279 1182.03 39.9279 1182.02 39.9221L1179.91 25.8198C1179.91 25.817 1179.91 25.8145 1179.91 25.8141L1211.42 20.4356C1211.42 20.4345 1211.42 20.4435 1211.42 20.4456ZM1212.4 18.1237L1178.89 23.8442C1178.89 23.8443 1178.89 23.8442 1178.89 23.8436L1168.27 18.1233C1168.26 18.1208 1168.26 18.1136 1168.27 18.1136H1212.4C1212.4 18.1136 1212.4 18.1227 1212.4 18.1237Z" fill="#AFDBC3"/>
</svg>
